<svg width="107" height="108" viewBox="0 0 107 108" fill="none" xmlns="http://www.w3.org/2000/svg">
<path d="M52.3451 107.237C51.6766 107.237 51.1036 107.237 50.4351 107.141L50.5306 106.186C51.1991 106.186 51.7721 106.282 52.4406 106.282L52.3451 107.237ZM54.2551 107.237V106.282C54.9236 106.282 55.4967 106.282 56.1652 106.186L56.2607 107.141C55.5922 107.237 54.9236 107.237 54.2551 107.237ZM48.525 107.046C47.8565 106.95 47.2835 106.95 46.615 106.855L46.7105 105.9C47.379 105.995 47.952 106.091 48.6205 106.091L48.525 107.046ZM58.0752 107.046L57.9797 106.091C58.6482 105.995 59.2212 105.995 59.8898 105.9L59.9853 106.855C59.4122 106.95 58.7437 106.95 58.0752 107.046ZM44.7049 106.568C44.0364 106.473 43.4634 106.377 42.7949 106.186L42.9859 105.231C43.5589 105.326 44.2274 105.422 44.8004 105.613L44.7049 106.568ZM61.8953 106.568L61.7043 105.613C62.3728 105.518 62.9458 105.422 63.5188 105.231L63.7098 106.186C63.2323 106.377 62.5638 106.473 61.8953 106.568ZM40.9804 105.804C40.3118 105.613 39.7388 105.518 39.0703 105.326L39.3568 104.371C39.9298 104.562 40.5983 104.658 41.1714 104.849L40.9804 105.804ZM65.7154 105.804L65.5244 104.849C66.0974 104.658 66.7659 104.562 67.3389 104.371L67.6254 105.326C66.9569 105.518 66.2884 105.709 65.7154 105.804ZM37.2558 104.849C36.6828 104.658 36.0143 104.467 35.4412 104.276L35.7278 103.416C36.3008 103.607 36.8738 103.798 37.5423 103.989L37.2558 104.849ZM69.4399 104.753L69.1534 103.798C69.7265 103.607 70.395 103.416 70.968 103.225L71.2545 104.085C70.586 104.371 70.013 104.562 69.4399 104.753ZM33.6267 103.512C33.0537 103.225 32.4807 103.034 31.8122 102.748L32.1942 101.888C32.7672 102.175 33.3402 102.366 33.9132 102.652L33.6267 103.512ZM73.069 103.512L72.687 102.652C73.26 102.461 73.833 102.175 74.4061 101.888L74.7881 102.748C74.215 103.034 73.642 103.225 73.069 103.512ZM30.0931 101.984C29.5201 101.697 28.9471 101.411 28.3741 101.124L28.8516 100.265C29.4246 100.551 29.9976 100.838 30.5706 101.124L30.0931 101.984ZM76.5071 101.984L76.1251 101.124C76.6981 100.838 77.2711 100.551 77.8441 100.265L78.3216 101.124C77.6531 101.411 77.0801 101.697 76.5071 101.984ZM26.6551 100.169C26.082 99.8829 25.509 99.5009 25.0315 99.2144L25.509 98.4504C26.0821 98.8324 26.5596 99.1189 27.1326 99.4054L26.6551 100.169ZM79.9452 100.169L79.4677 99.3099C80.0407 99.0234 80.5182 98.6414 81.0912 98.3548L81.5687 99.1189C80.9957 99.5009 80.5182 99.7874 79.9452 100.169ZM23.408 98.1638C22.835 97.7818 22.3575 97.3998 21.88 97.0178L22.453 96.2538C22.9305 96.6358 23.5035 97.0178 23.981 97.3043L23.408 98.1638ZM83.1922 98.0683L82.6192 97.3043C83.0967 96.9223 83.6697 96.5403 84.1473 96.2538L84.7203 97.0178C84.2428 97.3998 83.6697 97.7818 83.1922 98.0683ZM20.3519 95.8718C19.8744 95.4898 19.3969 95.1078 18.8239 94.6303L19.3969 93.8663C19.8744 94.2483 20.3519 94.6303 20.8294 95.1078L20.3519 95.8718ZM86.2483 95.7763L85.6753 95.0123C86.1528 94.6303 86.6303 94.2483 87.1078 93.7708L87.6808 94.5348C87.2988 95.0123 86.7258 95.3943 86.2483 95.7763ZM17.3914 93.3887C16.9139 92.9112 16.4364 92.5292 15.9588 92.0517L16.6274 91.3832C17.1049 91.8607 17.4869 92.2427 17.9644 92.7202L17.3914 93.3887ZM89.2089 93.2932L88.5403 92.6247C89.0178 92.2427 89.4954 91.7652 89.8774 91.2877L90.5459 91.9562C90.1639 92.4337 89.6864 92.9112 89.2089 93.2932ZM14.6218 90.7147C14.1443 90.2372 13.7623 89.7597 13.2848 89.2822L13.9533 88.6137C14.3353 89.0912 14.8128 89.5687 15.1948 90.0462L14.6218 90.7147ZM91.9784 90.6192L91.3099 89.9507C91.7874 89.4732 92.1694 88.9957 92.5514 88.5181L93.3154 89.1867C92.8379 89.6642 92.3604 90.1417 91.9784 90.6192ZM12.0433 87.7541C11.6613 87.2766 11.2792 86.7991 10.8972 86.2261L11.6613 85.6531C12.0433 86.1306 12.4253 86.6081 12.8073 87.0856L12.0433 87.7541ZM94.4615 87.7541L93.6974 87.1811C94.0795 86.7036 94.4615 86.2261 94.8435 85.6531L95.6075 86.2261C95.321 86.7991 94.8435 87.2766 94.4615 87.7541ZM9.75121 84.6981C9.3692 84.2206 8.9872 83.6475 8.70069 83.0745L9.46471 82.597C9.84671 83.17 10.1332 83.6476 10.5152 84.1251L9.75121 84.6981ZM96.849 84.6981L96.085 84.1251C96.467 83.6476 96.849 83.0745 97.1355 82.597L97.8995 83.0745C97.5175 83.6475 97.1355 84.2206 96.849 84.6981ZM7.65017 81.5465C7.36366 80.9735 6.98165 80.4005 6.69515 79.923L7.55467 79.4455C7.84117 80.0185 8.22318 80.496 8.50969 81.069L7.65017 81.5465ZM98.9501 81.451L98.0905 80.9735C98.377 80.4005 98.7591 79.923 99.0456 79.35L99.9051 79.8275C99.5231 80.4005 99.2366 80.9735 98.9501 81.451ZM5.83563 78.2039C5.54912 77.6309 5.26262 77.0579 4.97611 76.4849L5.83563 76.1029C6.12214 76.6759 6.40864 77.2489 6.69515 77.8219L5.83563 78.2039ZM100.765 78.1084L99.9051 77.6309C100.192 77.0579 100.478 76.4849 100.765 75.9119L101.624 76.2939C101.338 76.9624 101.051 77.5354 100.765 78.1084ZM4.2121 74.6704C3.92559 74.0974 3.73459 73.5243 3.54358 72.8558L4.4031 72.4738C4.5941 73.1423 4.78511 73.7153 5.07161 74.2884L4.2121 74.6704ZM102.388 74.5749L101.529 74.1929C101.815 73.6198 102.006 73.0468 102.197 72.4738L103.057 72.8558C102.866 73.4288 102.675 74.0019 102.388 74.5749ZM2.77957 71.1368C2.58856 70.5638 2.39756 69.8953 2.20656 69.3223L3.16157 69.0357C3.35258 69.6088 3.54358 70.2773 3.73459 70.8503L2.77957 71.1368ZM103.725 71.0413L102.866 70.7548C103.057 70.1818 103.248 69.5133 103.439 68.9402L104.394 69.2267C104.203 69.7998 103.916 70.3728 103.725 71.0413ZM1.72905 67.4122C1.53804 66.8392 1.44254 66.1707 1.25154 65.5022L2.20656 65.3112C2.30206 65.8842 2.49306 66.5527 2.68407 67.1257L1.72905 67.4122ZM104.871 67.3167L103.916 67.0302C104.107 66.4572 104.203 65.7887 104.394 65.2157L105.349 65.4067C105.158 66.0752 104.967 66.7437 104.871 67.3167ZM0.869528 63.6876C0.774026 63.0191 0.678524 62.4461 0.583022 61.7776L1.53804 61.6821C1.63354 62.3506 1.72905 62.9236 1.82455 63.5921L0.869528 63.6876ZM105.635 63.5921L104.68 63.4011C104.776 62.8281 104.871 62.1596 104.967 61.4911L105.922 61.5866C105.922 62.3506 105.826 62.9236 105.635 63.5921ZM0.296516 59.8676C0.201014 59.199 0.201014 58.626 0.105512 57.9575L1.06053 57.862C1.06053 58.5305 1.15603 59.1035 1.25154 59.7721L0.296516 59.8676ZM106.208 59.7721L105.253 59.6766C105.349 59.008 105.349 58.435 105.444 57.7665L106.399 57.862C106.304 58.5305 106.304 59.1035 106.208 59.7721ZM0.0100098 56.0475C0.0100098 55.379 0.0100098 54.806 0.0100098 54.1374H0.96503C0.96503 54.806 0.96503 55.379 0.96503 56.0475H0.0100098ZM106.495 55.952H105.54C105.54 55.2835 105.54 54.7104 105.54 54.0419V53.8509H106.495V54.0419C106.495 54.6149 106.495 55.2835 106.495 55.952ZM0.96503 52.2274H0.0100098C0.0100098 51.5589 0.105512 50.9859 0.105512 50.3174L1.06053 50.4129C1.06053 50.9859 1.06053 51.5589 0.96503 52.2274ZM105.54 51.9409C105.54 51.2724 105.444 50.6994 105.444 50.0308L106.399 49.9353C106.495 50.6039 106.495 51.1769 106.495 51.8454L105.54 51.9409ZM1.25154 48.5028L0.296516 48.4073C0.392018 47.7388 0.48752 47.1658 0.48752 46.4973L1.44254 46.5928C1.44254 47.1658 1.34704 47.8343 1.25154 48.5028ZM105.253 48.1208C105.158 47.4523 105.062 46.8793 104.967 46.2108L105.922 46.1153C106.017 46.7838 106.113 47.3568 106.208 48.0253L105.253 48.1208ZM1.82455 44.6827L0.869528 44.4917C0.96503 43.8232 1.06053 43.2502 1.25154 42.5817L2.20656 42.7727C2.01555 43.4412 1.92005 44.1097 1.82455 44.6827ZM104.68 44.3962C104.585 43.8232 104.394 43.1547 104.298 42.5817L105.253 42.3907C105.349 43.0592 105.54 43.6322 105.635 44.3007L104.68 44.3962ZM2.58856 41.0537L1.63354 40.8627C1.82455 40.1941 1.92005 39.6211 2.11105 39.0481L3.06607 39.3346C2.87507 39.8121 2.77957 40.3852 2.58856 41.0537ZM103.916 40.7672C103.725 40.1941 103.63 39.5256 103.439 38.9526L104.394 38.6661C104.585 39.2391 104.776 39.9076 104.871 40.4807L103.916 40.7672ZM3.63908 37.4246L2.77957 37.1381C2.97057 36.5651 3.16157 35.8966 3.44808 35.3235L4.3076 35.7056C4.02109 36.1831 3.83009 36.8516 3.63908 37.4246ZM102.77 37.1381C102.579 36.5651 102.388 35.9921 102.102 35.3235L102.961 34.9415C103.152 35.5146 103.439 36.1831 103.63 36.7561L102.77 37.1381ZM4.97611 33.891L4.11659 33.509C4.4031 32.936 4.5941 32.363 4.88061 31.79L5.74013 32.172C5.45362 32.745 5.26262 33.318 4.97611 33.891ZM101.433 33.6045C101.147 33.0315 100.956 32.4585 100.669 31.8855L101.529 31.5035C101.815 32.0765 102.102 32.6495 102.293 33.2225L101.433 33.6045ZM6.59965 30.4529L5.74013 29.9754C6.02663 29.4024 6.31314 28.8294 6.59965 28.2564L7.45916 28.7339C7.17266 29.3069 6.88615 29.8799 6.59965 30.4529ZM99.8096 30.1664C99.5231 29.5934 99.2366 29.0204 98.9501 28.5429L99.8096 28.0654C100.096 28.6384 100.383 29.2114 100.669 29.7844L99.8096 30.1664ZM8.41418 27.1104L7.55467 26.6329C7.93667 26.0599 8.22318 25.5823 8.60519 25.0093L9.3692 25.4868C9.0827 26.0599 8.70069 26.5374 8.41418 27.1104ZM97.995 26.9194C97.7085 26.3464 97.3265 25.8689 96.9445 25.2958L97.7085 24.8183C98.0905 25.3913 98.377 25.8689 98.7591 26.4419L97.995 26.9194ZM10.4197 23.9588L9.65571 23.3858C10.0377 22.9083 10.4197 22.3353 10.8017 21.8578L11.5657 22.4308C11.1837 22.9083 10.8017 23.4813 10.4197 23.9588ZM95.894 23.7678C95.512 23.2903 95.13 22.7173 94.748 22.2398L95.512 21.6668C95.894 22.1443 96.276 22.7173 96.658 23.1948L95.894 23.7678ZM12.7118 20.9027L11.9478 20.3297C12.3298 19.8522 12.8073 19.3747 13.1893 18.8972L13.9533 19.5657C13.5713 19.9477 13.0938 20.4252 12.7118 20.9027ZM93.6019 20.8072C93.2199 20.3297 92.8379 19.8522 92.3604 19.3747L93.0289 18.7062C93.4109 19.1837 93.8885 19.6612 94.2705 20.1387L93.6019 20.8072ZM15.1948 18.1332L14.5263 17.4647C15.0038 16.9872 15.3858 16.5097 15.8633 16.1276L16.5319 16.7962C16.1498 17.1782 15.6723 17.6557 15.1948 18.1332ZM91.1189 17.9422C90.7369 17.4647 90.2594 16.9872 89.7819 16.6052L90.4504 15.9366C90.9279 16.4142 91.4054 16.7962 91.7874 17.2737L91.1189 17.9422ZM17.9644 15.4591L17.2959 14.7906C17.7734 14.3131 18.2509 13.9311 18.7284 13.5491L19.3014 14.3131C18.8239 14.5996 18.3464 15.0771 17.9644 15.4591ZM88.4448 15.2681C87.9673 14.8861 87.4898 14.4086 87.0123 14.0266L87.5853 13.2626C88.0628 13.6446 88.5403 14.1221 89.0178 14.5041L88.4448 15.2681ZM20.8294 12.9761L20.2564 12.2121C20.7339 11.8301 21.3069 11.4481 21.7845 11.066L22.3575 11.8301C21.7845 12.2121 21.3069 12.5941 20.8294 12.9761ZM85.5798 12.8806C85.1023 12.4986 84.6248 12.1166 84.0517 11.7346L84.6248 10.9705C85.1023 11.3526 85.6753 11.7346 86.1528 12.1166L85.5798 12.8806ZM23.79 10.7795L23.217 10.0155C23.79 9.63351 24.2675 9.34701 24.8405 8.965L25.318 9.72902C24.8405 10.111 24.363 10.3975 23.79 10.7795ZM82.5237 10.5885C82.0462 10.2065 81.4732 9.92002 80.9002 9.53801L81.3777 8.774C81.9507 9.156 82.4282 9.44251 83.0012 9.82452L82.5237 10.5885ZM27.0371 8.774L26.5596 7.91448C27.1326 7.62797 27.7056 7.24597 28.2786 6.95946L28.6606 7.81898C28.0876 8.10548 27.5146 8.48749 27.0371 8.774ZM79.2767 8.6785C78.7036 8.39199 78.2261 8.10548 77.6531 7.72348L78.1306 6.86396C78.7036 7.15046 79.2766 7.43697 79.8497 7.81898L79.2767 8.6785ZM30.3796 6.95946L29.9976 6.09994C30.5706 5.81344 31.1437 5.52693 31.7167 5.33593L32.0987 6.19544C31.4302 6.48195 30.8571 6.67295 30.3796 6.95946ZM75.9341 6.86396C75.3611 6.57745 74.7881 6.29095 74.215 6.09994L74.5971 5.24042C75.1701 5.52693 75.7431 5.81344 76.3161 6.00444L75.9341 6.86396ZM33.8177 5.43143L33.4357 4.57191C34.0087 4.38091 34.5817 4.0944 35.2502 3.9034L35.5367 4.76291C34.9637 5.04942 34.3907 5.24042 33.8177 5.43143ZM72.496 5.33593C71.923 5.14492 71.35 4.85842 70.6815 4.66741L70.968 3.80789C71.541 3.9989 72.2095 4.2854 72.7825 4.47641L72.496 5.33593ZM37.3513 4.1899L37.0648 3.23488C37.6378 3.04388 38.3063 2.85287 38.8793 2.66187L39.1658 3.61689C38.4973 3.80789 37.9243 3.9989 37.3513 4.1899ZM68.9624 4.0944C68.3894 3.9034 67.7209 3.71239 67.1479 3.52139L67.4344 2.56637C68.0074 2.75737 68.6759 2.94838 69.2489 3.13938L68.9624 4.0944ZM40.9804 3.13938L40.7894 2.18436C41.4579 1.99336 42.0309 1.89785 42.6994 1.80235L42.8904 2.75737C42.2219 2.85287 41.5534 3.04388 40.9804 3.13938ZM65.2379 3.13938C64.6649 2.94838 63.9963 2.85287 63.4233 2.75737L63.6143 1.80235C64.2828 1.89785 64.8559 2.08886 65.5244 2.18436L65.2379 3.13938ZM44.7049 2.37536L44.5139 1.42034C45.1824 1.32484 45.7555 1.22934 46.424 1.13384L46.5195 2.08886C45.9465 2.18436 45.2779 2.27986 44.7049 2.37536ZM61.6088 2.37536C61.0358 2.27986 60.3673 2.18436 59.6987 2.08886L59.7942 1.13384C60.4628 1.22934 61.0358 1.32484 61.7043 1.42034L61.6088 2.37536ZM48.4295 1.89785L48.334 0.942835C49.0025 0.847333 49.5755 0.847333 50.244 0.847333L50.3396 1.80235C49.671 1.80235 49.0025 1.89785 48.4295 1.89785ZM57.7887 1.89785C57.1202 1.80235 56.5472 1.80235 55.8787 1.80235V0.847333C56.5472 0.847333 57.1202 0.942835 57.7887 0.942835V1.89785ZM52.1541 1.70685V0.751831C52.8226 0.751831 53.3956 0.751831 54.0641 0.751831V1.70685C53.3956 1.70685 52.8226 1.70685 52.1541 1.70685Z" fill="#EF5079"/>
<path d="M53.3003 100.169C27.8013 100.169 7.17285 79.4455 7.17285 54.042C7.17285 28.543 27.8968 7.91455 53.3003 7.91455C78.7038 7.91455 99.4278 28.6385 99.4278 54.042C99.4278 79.4455 78.7038 100.169 53.3003 100.169ZM53.3003 10.6841C29.4248 10.6841 10.0379 30.071 10.0379 53.9465C10.0379 77.822 29.4248 97.2089 53.3003 97.2089C77.1758 97.2089 96.5627 77.822 96.5627 53.9465C96.5627 30.1665 77.1758 10.6841 53.3003 10.6841Z" fill="#EF5079"/>
<path d="M53.3001 70.1818C46.3284 70.1818 39.2613 70.1818 32.2896 70.1818C30.6661 70.1818 30.4751 70.0863 30.4751 68.4627C30.4751 58.9125 30.4751 49.2668 30.4751 39.7166C30.4751 37.9976 30.5706 37.9021 32.2896 37.9021C46.3284 37.9021 60.3672 37.9021 74.3105 37.9021C75.8385 37.9021 76.0295 38.0931 76.0295 39.5256C76.0295 49.1713 76.0295 58.817 76.0295 68.3672C76.0295 69.9908 75.934 70.0863 74.215 70.0863C67.3389 70.1818 60.2717 70.1818 53.3001 70.1818ZM74.1195 44.3007C60.0807 44.3007 46.2329 44.3007 32.3851 44.3007C32.3851 50.7949 32.3851 57.1935 32.3851 63.6876C46.3284 63.6876 60.1762 63.6876 74.1195 63.6876C74.1195 57.1935 74.1195 50.7949 74.1195 44.3007ZM40.9803 39.7166C40.9803 40.7672 40.9803 41.7222 40.9803 42.7727C43.3679 42.7727 45.7554 42.7727 48.143 42.7727C48.143 41.7222 48.143 40.7672 48.143 39.7166C45.6599 39.7166 43.3679 39.7166 40.9803 39.7166ZM65.6198 39.8121C63.1368 39.8121 60.8447 39.8121 58.4572 39.8121C58.4572 40.8627 58.4572 41.8177 58.4572 42.7727C60.8447 42.7727 63.2323 42.7727 65.6198 42.7727C65.6198 41.7222 65.6198 40.8627 65.6198 39.8121ZM48.143 68.1762C48.143 67.1257 48.143 66.1707 48.143 65.2157C45.6599 65.2157 43.3679 65.2157 40.9803 65.2157C40.9803 66.2662 40.9803 67.2212 40.9803 68.1762C43.3679 68.1762 45.6599 68.1762 48.143 68.1762ZM58.4572 65.2157C58.4572 66.2662 58.4572 67.2212 58.4572 68.1762C60.9402 68.1762 63.2323 68.1762 65.6198 68.1762C65.6198 67.1257 65.6198 66.1707 65.6198 65.2157C63.1368 65.2157 60.8447 65.2157 58.4572 65.2157ZM39.3568 39.8121C36.9692 39.8121 34.6772 39.8121 32.3851 39.8121C32.3851 40.8627 32.3851 41.8177 32.3851 42.7727C34.7727 42.7727 37.0647 42.7727 39.3568 42.7727C39.3568 41.7222 39.3568 40.7672 39.3568 39.8121ZM56.8336 42.7727C56.8336 41.7222 56.8336 40.7672 56.8336 39.8121C54.4461 39.8121 52.0585 39.8121 49.671 39.8121C49.671 40.8627 49.671 41.8177 49.671 42.7727C52.154 42.7727 54.4461 42.7727 56.8336 42.7727ZM74.1195 42.7727C74.1195 41.8177 74.1195 40.7672 74.1195 39.8121C71.8275 39.8121 69.5354 39.8121 67.1479 39.8121C67.1479 40.8627 67.1479 41.8177 67.1479 42.7727C69.5354 42.7727 71.7319 42.7727 74.1195 42.7727ZM32.3851 68.1762C34.7727 68.1762 37.0647 68.1762 39.3568 68.1762C39.3568 67.1257 39.3568 66.1707 39.3568 65.2157C36.9692 65.2157 34.6772 65.2157 32.3851 65.2157C32.3851 66.2662 32.3851 67.1257 32.3851 68.1762ZM49.671 68.1762C52.0585 68.1762 54.4461 68.1762 56.8336 68.1762C56.8336 67.1257 56.8336 66.1707 56.8336 65.2157C54.3506 65.2157 52.0585 65.2157 49.671 65.2157C49.671 66.2662 49.671 67.2212 49.671 68.1762ZM67.1479 65.2157C67.1479 66.2662 67.1479 67.2212 67.1479 68.1762C69.5354 68.1762 71.8275 68.1762 74.1195 68.1762C74.1195 67.1257 74.1195 66.1707 74.1195 65.2157C71.8275 65.2157 69.5354 65.2157 67.1479 65.2157Z" fill="#EF5079"/>
<path d="M48.0476 53.9465C48.0476 52.0364 48.0476 50.0309 48.0476 48.1208C48.0476 47.7388 48.2386 47.2613 48.5251 47.0703C48.7161 46.9748 49.2891 47.1658 49.5756 47.3568C52.3452 49.2669 55.0193 51.1769 57.6933 53.0869C58.7438 53.851 58.7438 54.1375 57.7888 54.806C55.1148 56.716 52.3452 58.6261 49.6711 60.5361C49.3846 60.7271 48.8116 61.0136 48.5251 60.8226C48.2386 60.6316 48.1431 60.0586 48.1431 59.6766C48.0476 57.862 48.0476 55.952 48.0476 53.9465ZM56.5473 54.042C54.1597 52.3229 51.8677 50.7949 49.5756 49.0759C49.5756 52.4184 49.5756 55.6655 49.5756 59.0081C51.9632 57.289 54.1597 55.6655 56.5473 54.042Z" fill="#EF5079"/>
</svg>
