<svg width="116" height="116" viewBox="0 0 116 116" fill="none" xmlns="http://www.w3.org/2000/svg">
<g filter="url(#filter0_d)">
<path d="M58.2632 100.382C32.7642 100.382 12.1357 79.6584 12.1357 54.2549C12.1357 28.7559 32.8597 8.12744 58.2632 8.12744C83.6667 8.12744 104.391 28.8514 104.391 54.2549C104.391 79.6584 83.6667 100.382 58.2632 100.382ZM58.2632 10.897C34.3877 10.897 15.0008 30.2839 15.0008 54.1594C15.0008 78.0349 34.3877 97.4218 58.2632 97.4218C82.1387 97.4218 101.526 78.0349 101.526 54.1594C101.526 30.3794 82.1387 10.897 58.2632 10.897Z" fill="#ED1C24"/>
<path d="M57.3082 107.45C56.6397 107.45 56.0667 107.45 55.3982 107.354L55.4937 106.399C56.1622 106.399 56.7352 106.495 57.4037 106.495L57.3082 107.45ZM59.2183 107.45V106.495C59.8868 106.495 60.4598 106.495 61.1283 106.399L61.2238 107.354C60.5553 107.45 59.8868 107.45 59.2183 107.45ZM53.4881 107.259C52.8196 107.163 52.2466 107.163 51.5781 107.068L51.6736 106.113C52.3421 106.208 52.9151 106.304 53.5837 106.304L53.4881 107.259ZM63.0383 107.259L62.9428 106.304C63.6114 106.208 64.1844 106.208 64.8529 106.113L64.9484 107.068C64.3754 107.163 63.7069 107.163 63.0383 107.259ZM49.6681 106.781C48.9996 106.686 48.4265 106.59 47.758 106.399L47.949 105.444C48.522 105.54 49.1906 105.635 49.7636 105.826L49.6681 106.781ZM66.8584 106.781L66.6674 105.826C67.3359 105.731 67.9089 105.635 68.482 105.444L68.673 106.399C68.1955 106.59 67.5269 106.686 66.8584 106.781ZM45.9435 106.017C45.275 105.826 44.702 105.731 44.0335 105.54L44.32 104.584C44.893 104.775 45.5615 104.871 46.1345 105.062L45.9435 106.017ZM70.6785 106.017L70.4875 105.062C71.0605 104.871 71.729 104.775 72.302 104.584L72.5885 105.54C71.92 105.731 71.2515 105.922 70.6785 106.017ZM42.2189 105.062C41.6459 104.871 40.9774 104.68 40.4044 104.489L40.6909 103.629C41.2639 103.82 41.8369 104.011 42.5054 104.202L42.2189 105.062ZM74.4031 104.966L74.1166 104.011C74.6896 103.82 75.3581 103.629 75.9311 103.438L76.2176 104.298C75.5491 104.584 74.9761 104.775 74.4031 104.966ZM38.5898 103.725C38.0168 103.438 37.4438 103.247 36.7753 102.961L37.1573 102.101C37.7303 102.388 38.3033 102.579 38.8763 102.865L38.5898 103.725ZM78.0322 103.725L77.6501 102.865C78.2232 102.674 78.7962 102.388 79.3692 102.101L79.7512 102.961C79.1782 103.247 78.6052 103.438 78.0322 103.725ZM35.0563 102.197C34.4833 101.91 33.9102 101.624 33.3372 101.337L33.8147 100.478C34.3878 100.764 34.9608 101.051 35.5338 101.337L35.0563 102.197ZM81.4702 102.197L81.0882 101.337C81.6612 101.051 82.2342 100.764 82.8073 100.478L83.2848 101.337C82.6163 101.624 82.0432 101.91 81.4702 102.197ZM31.6182 100.382C31.0452 100.096 30.4722 99.7139 29.9947 99.4274L30.4722 98.6634C31.0452 99.0454 31.5227 99.3319 32.0957 99.6184L31.6182 100.382ZM84.9083 100.382L84.4308 99.5229C85.0038 99.2364 85.4813 98.8544 86.0543 98.5679L86.5318 99.3319C85.9588 99.7139 85.4813 100 84.9083 100.382ZM28.3711 98.3769C27.7981 97.9949 27.3206 97.6128 26.8431 97.2308L27.4161 96.4668C27.8936 96.8488 28.4666 97.2308 28.9441 97.5173L28.3711 98.3769ZM88.1554 98.2814L87.5824 97.5173C88.0599 97.1353 88.6329 96.7533 89.1104 96.4668L89.6834 97.2308C89.2059 97.6128 88.6329 97.9949 88.1554 98.2814ZM25.3151 96.0848C24.8376 95.7028 24.36 95.3208 23.787 94.8433L24.36 94.0793C24.8376 94.4613 25.3151 94.8433 25.7926 95.3208L25.3151 96.0848ZM91.2114 96.0848L90.6384 95.3208C91.1159 94.9388 91.5934 94.5568 92.0709 94.0793L92.644 94.8433C92.262 95.2253 91.6889 95.6073 91.2114 96.0848ZM22.3545 93.6018C21.877 93.1243 21.3995 92.7422 20.922 92.2647L21.5905 91.5962C22.068 92.0737 22.45 92.4557 22.9275 92.9333L22.3545 93.6018ZM94.172 93.5063L93.5035 92.8377C93.981 92.4557 94.4585 91.9782 94.8405 91.5007L95.509 92.1692C95.127 92.6467 94.6495 93.1243 94.172 93.5063ZM19.5849 90.9277C19.1074 90.4502 18.7254 89.9727 18.2479 89.4952L18.9164 88.8267C19.2984 89.3042 19.776 89.7817 20.158 90.2592L19.5849 90.9277ZM96.9416 90.8322L96.273 90.1637C96.7505 89.6862 97.1326 89.2087 97.5146 88.7312L98.2786 89.3997C97.8011 89.8772 97.3236 90.3547 96.9416 90.8322ZM17.0064 87.9671C16.6244 87.4896 16.2424 87.0121 15.8604 86.4391L16.6244 85.8661C17.0064 86.3436 17.3884 86.8211 17.7704 87.2986L17.0064 87.9671ZM99.4246 87.9671L98.6606 87.3941C99.0426 86.9166 99.4246 86.4391 99.8066 85.8661L100.571 86.4391C100.284 87.0121 99.8066 87.4896 99.4246 87.9671ZM14.7143 84.9111C14.3323 84.4336 13.9503 83.8606 13.6638 83.2875L14.4278 82.81C14.8098 83.383 15.0964 83.8606 15.4784 84.3381L14.7143 84.9111ZM101.812 84.9111L101.048 84.3381C101.43 83.8606 101.812 83.2875 102.099 82.81L102.863 83.2875C102.481 83.8606 102.099 84.4336 101.812 84.9111ZM12.6133 81.7595C12.3268 81.1865 11.9448 80.6135 11.6583 80.136L12.5178 79.6585C12.8043 80.2315 13.1863 80.709 13.4728 81.282L12.6133 81.7595ZM103.913 81.664L103.054 81.1865C103.34 80.6135 103.722 80.136 104.009 79.563L104.868 80.0405C104.486 80.6135 104.2 81.1865 103.913 81.664ZM10.7988 78.4169C10.5123 77.8439 10.2258 77.2709 9.93925 76.6979L10.7988 76.3159C11.0853 76.8889 11.3718 77.4619 11.6583 78.0349L10.7988 78.4169ZM105.728 78.3214L104.868 77.8439C105.155 77.2709 105.441 76.6979 105.728 76.1249L106.587 76.5069C106.301 77.1754 106.014 77.7484 105.728 78.3214ZM9.17523 74.8834C8.88873 74.3104 8.69772 73.7374 8.50672 73.0688L9.36624 72.6868C9.55724 73.3553 9.74824 73.9284 10.0347 74.5014L9.17523 74.8834ZM107.351 74.7879L106.492 74.4059C106.778 73.8329 106.969 73.2598 107.16 72.6868L108.02 73.0688C107.829 73.6418 107.638 74.2149 107.351 74.7879ZM7.7427 71.3498C7.5517 70.7768 7.36069 70.1083 7.16969 69.5353L8.12471 69.2488C8.31571 69.8218 8.50672 70.4903 8.69772 71.0633L7.7427 71.3498ZM108.688 71.2543L107.829 70.9678C108.02 70.3948 108.211 69.7263 108.402 69.1533L109.357 69.4398C109.166 70.0128 108.879 70.5858 108.688 71.2543ZM6.69218 67.6252C6.50118 67.0522 6.40567 66.3837 6.21467 65.7152L7.16969 65.5242C7.26519 66.0972 7.4562 66.7657 7.6472 67.3387L6.69218 67.6252ZM109.834 67.5297L108.879 67.2432C109.07 66.6702 109.166 66.0017 109.357 65.4287L110.312 65.6197C110.121 66.2882 109.93 66.9567 109.834 67.5297ZM5.83266 63.9006C5.73716 63.2321 5.64166 62.6591 5.54616 61.9906L6.50118 61.8951C6.59668 62.5636 6.69218 63.1366 6.78768 63.8051L5.83266 63.9006ZM110.598 63.8051L109.643 63.6141C109.739 63.0411 109.834 62.3726 109.93 61.7041L110.885 61.7996C110.885 62.5636 110.789 63.1366 110.598 63.8051ZM5.25965 60.0806C5.16415 59.4121 5.16415 58.839 5.06865 58.1705L6.02367 58.075C6.02367 58.7435 6.11917 59.3166 6.21467 59.9851L5.25965 60.0806ZM111.171 59.9851L110.216 59.8896C110.312 59.2211 110.312 58.648 110.407 57.9795L111.362 58.075C111.267 58.7435 111.267 59.3166 111.171 59.9851ZM4.97314 56.2605C4.97314 55.592 4.97314 55.019 4.97314 54.3505H5.92816C5.92816 55.019 5.92816 55.592 5.92816 56.2605H4.97314ZM111.458 56.165H110.503C110.503 55.4965 110.503 54.9235 110.503 54.2549V54.0639H111.458V54.2549C111.458 54.828 111.458 55.4965 111.458 56.165ZM5.92816 52.4404H4.97314C4.97314 51.7719 5.06865 51.1989 5.06865 50.5304L6.02367 50.6259C6.02367 51.1989 6.02367 51.7719 5.92816 52.4404ZM110.503 52.1539C110.503 51.4854 110.407 50.9124 110.407 50.2439L111.362 50.1484C111.458 50.8169 111.458 51.3899 111.458 52.0584L110.503 52.1539ZM6.21467 48.7158L5.25965 48.6203C5.35515 47.9518 5.45065 47.3788 5.45065 46.7103L6.40567 46.8058C6.40567 47.3788 6.31017 48.0473 6.21467 48.7158ZM110.216 48.3338C110.121 47.6653 110.025 47.0923 109.93 46.4238L110.885 46.3283C110.98 46.9968 111.076 47.5698 111.171 48.2383L110.216 48.3338ZM6.78768 44.8958L5.83266 44.7047C5.92816 44.0362 6.02367 43.4632 6.21467 42.7947L7.16969 42.9857C6.97869 43.6542 6.88318 44.3227 6.78768 44.8958ZM109.643 44.6092C109.548 44.0362 109.357 43.3677 109.261 42.7947L110.216 42.6037C110.312 43.2722 110.503 43.8452 110.598 44.5137L109.643 44.6092ZM7.5517 41.2667L6.59668 41.0757C6.78768 40.4072 6.88318 39.8341 7.07419 39.2611L8.02921 39.5476C7.8382 40.0252 7.7427 40.5982 7.5517 41.2667ZM108.879 40.9802C108.688 40.4072 108.593 39.7386 108.402 39.1656L109.357 38.8791C109.548 39.4521 109.739 40.1207 109.834 40.6937L108.879 40.9802ZM8.60222 37.6376L7.7427 37.3511C7.93371 36.7781 8.12471 36.1096 8.41122 35.5366L9.27073 35.9186C8.98423 36.3961 8.79322 37.0646 8.60222 37.6376ZM107.733 37.3511C107.542 36.7781 107.351 36.2051 107.065 35.5366L107.924 35.1546C108.115 35.7276 108.402 36.3961 108.593 36.9691L107.733 37.3511ZM9.93925 34.104L9.07973 33.722C9.36624 33.149 9.55724 32.576 9.84375 32.003L10.7033 32.385C10.4168 32.958 10.2258 33.531 9.93925 34.104ZM106.396 33.8175C106.11 33.2445 105.919 32.6715 105.632 32.0985L106.492 31.7165C106.778 32.2895 107.065 32.8625 107.256 33.4355L106.396 33.8175ZM11.5628 30.666L10.7033 30.1884C10.9898 29.6154 11.2763 29.0424 11.5628 28.4694L12.4223 28.9469C12.1358 29.5199 11.8493 30.0929 11.5628 30.666ZM104.773 30.3795C104.486 29.8064 104.2 29.2334 103.913 28.7559L104.773 28.2784C105.059 28.8514 105.346 29.4244 105.632 29.9974L104.773 30.3795ZM13.3773 27.3234L12.5178 26.8459C12.8998 26.2729 13.1863 25.7954 13.5683 25.2223L14.3323 25.6999C14.0458 26.2729 13.6638 26.8459 13.3773 27.3234ZM102.958 27.1324C102.672 26.5594 102.29 26.0819 101.908 25.5089L102.672 25.0313C103.054 25.6044 103.34 26.0819 103.722 26.6549L102.958 27.1324ZM15.3829 24.1718L14.6188 23.5988C15.0009 23.1213 15.3829 22.5483 15.7649 22.0708L16.5289 22.6438C16.1469 23.1213 15.7649 23.6943 15.3829 24.1718ZM100.857 23.9808C100.475 23.5033 100.093 22.9303 99.7111 22.4528L100.475 21.8798C100.857 22.3573 101.239 22.9303 101.621 23.4078L100.857 23.9808ZM17.6749 21.1158L16.9109 20.5427C17.2929 20.0652 17.7704 19.5877 18.1524 19.1102L18.9164 19.7787C18.5344 20.1607 18.0569 20.6383 17.6749 21.1158ZM98.5651 21.0203C98.1831 20.5427 97.8011 20.0652 97.3236 19.5877L97.9921 18.9192C98.3741 19.3967 98.8516 19.8742 99.2336 20.3517L98.5651 21.0203ZM20.158 18.3462L19.4894 17.6777C19.967 17.2002 20.349 16.7227 20.8265 16.3407L21.495 17.0092C21.113 17.3912 20.6355 17.8687 20.158 18.3462ZM96.082 18.1552C95.7 17.6777 95.2225 17.2002 94.745 16.8182L95.4135 16.1497C95.891 16.6272 96.3685 17.0092 96.7505 17.4867L96.082 18.1552ZM22.9275 15.6721L22.259 15.0036C22.7365 14.5261 23.214 14.1441 23.6915 13.7621L24.2645 14.5261C23.787 14.8126 23.3095 15.2901 22.9275 15.6721ZM93.408 15.4811C92.9305 15.0991 92.453 14.6216 91.9754 14.2396L92.5485 13.4756C93.026 13.8576 93.5035 14.3351 93.981 14.7171L93.408 15.4811ZM25.7926 13.1891L25.2196 12.4251C25.6971 12.0431 26.2701 11.6611 26.7476 11.2791L27.3206 12.0431C26.7476 12.4251 26.2701 12.8071 25.7926 13.1891ZM90.5429 13.0936C90.0654 12.7116 89.5879 12.3296 89.0149 11.9476L89.5879 11.1836C90.0654 11.5656 90.6384 11.9476 91.1159 12.3296L90.5429 13.0936ZM28.7531 10.9926L28.1801 10.2285C28.7531 9.84653 29.2306 9.56002 29.8037 9.17801L30.2812 9.94203C29.8037 10.324 29.3261 10.6105 28.7531 10.9926ZM87.4869 10.8015C87.0093 10.4195 86.4363 10.133 85.8633 9.75103L86.3408 8.98701C86.9138 9.36902 87.3914 9.65552 87.9644 10.0375L87.4869 10.8015ZM32.0002 8.98701L31.5227 8.12749C32.0957 7.84099 32.6687 7.45898 33.2417 7.17247L33.6237 8.03199C33.0507 8.3185 32.4777 8.7005 32.0002 8.98701ZM84.2398 8.89151C83.6668 8.605 83.1893 8.3185 82.6163 7.93649L83.0938 7.07697C83.6668 7.36348 84.2398 7.64998 84.8128 8.03199L84.2398 8.89151ZM35.3428 7.17247L34.9608 6.31295C35.5338 6.02645 36.1068 5.73994 36.6798 5.54894L37.0618 6.40846C36.3933 6.69496 35.8203 6.88597 35.3428 7.17247ZM80.8972 7.07697C80.3242 6.79046 79.7512 6.50396 79.1782 6.31295L79.5602 5.45344C80.1332 5.73994 80.7062 6.02645 81.2792 6.21745L80.8972 7.07697ZM38.7808 5.64444L38.3988 4.78492C38.9718 4.59392 39.5449 4.30741 40.2134 4.11641L40.4999 4.97593C39.9269 5.26243 39.3539 5.45344 38.7808 5.64444ZM77.4591 5.54894C76.8861 5.35793 76.3131 5.07143 75.6446 4.88042L75.9311 4.02091C76.5041 4.21191 77.1726 4.49842 77.7456 4.68942L77.4591 5.54894ZM42.3144 4.40291L42.0279 3.4479C42.6009 3.25689 43.2694 3.06589 43.8424 2.87488L44.129 3.8299C43.4604 4.02091 42.8874 4.21191 42.3144 4.40291ZM73.9256 4.30741C73.3526 4.11641 72.684 3.92541 72.111 3.7344L72.3975 2.77938C72.9706 2.97039 73.6391 3.16139 74.2121 3.35239L73.9256 4.30741ZM45.9435 3.35239L45.7525 2.39737C46.421 2.20637 46.994 2.11087 47.6625 2.01537L47.8535 2.97039C47.185 3.06589 46.5165 3.25689 45.9435 3.35239ZM70.201 3.35239C69.628 3.16139 68.9595 3.06589 68.3865 2.97039L68.5775 2.01537C69.246 2.11087 69.819 2.30187 70.4875 2.39737L70.201 3.35239ZM49.6681 2.58838L49.4771 1.63336C50.1456 1.53786 50.7186 1.44235 51.3871 1.34685L51.4826 2.30187C50.9096 2.39737 50.2411 2.49288 49.6681 2.58838ZM66.5719 2.58838C65.9989 2.49288 65.3304 2.39737 64.6619 2.30187L64.7574 1.34685C65.4259 1.44235 65.9989 1.53786 66.6674 1.63336L66.5719 2.58838ZM53.3926 2.11087L53.2971 1.15585C53.9657 1.06035 54.5387 1.06035 55.2072 1.06035L55.3027 2.01537C54.6342 2.01537 53.9657 2.11087 53.3926 2.11087ZM62.7518 2.11087C62.0833 2.01537 61.5103 2.01537 60.8418 2.01537V1.06035C61.5103 1.06035 62.0833 1.15585 62.7518 1.15585V2.11087ZM57.1172 1.91986V0.964844C57.4992 0.964844 57.8812 0.964844 58.2632 0.964844C58.5498 0.964844 58.8363 0.964844 59.0273 0.964844V1.91986C58.7408 1.91986 58.4543 1.91986 58.1677 1.91986C57.7857 1.91986 57.4992 1.91986 57.1172 1.91986Z" fill="#DC3545"/>
<path d="M69.7235 30.475C71.9201 31.43 72.4931 32.194 72.4931 34.6771C72.4931 47.7608 72.4931 60.9401 72.4931 74.0239C72.4931 76.2204 71.8246 77.0799 69.7235 77.9395C62.0834 77.9395 54.4432 77.9395 46.7075 77.9395C44.511 76.9844 43.938 76.2204 43.938 73.7374C43.938 60.5581 43.938 47.4743 43.938 34.2951C43.938 32.194 44.6065 31.3345 46.7075 30.475C54.4432 30.475 62.0834 30.475 69.7235 30.475ZM45.657 38.4971C45.657 49.0024 45.657 59.4121 45.657 70.0128C54.0612 70.0128 62.4654 70.0128 70.8695 70.0128C70.8695 59.5076 70.8695 49.0979 70.8695 38.4971C62.4654 38.4971 54.0612 38.4971 45.657 38.4971ZM70.8695 36.7781C70.8695 35.9186 70.8695 35.1546 70.8695 34.3906C70.8695 32.6715 70.201 32.003 68.482 32.003C66.381 32.003 64.1844 32.003 62.0834 32.003C57.3083 32.003 52.6287 32.003 47.8536 32.003C46.803 32.003 45.848 32.194 45.657 33.34C45.466 34.4861 45.657 35.6321 45.657 36.7781C54.0612 36.7781 62.3699 36.7781 70.8695 36.7781ZM70.8695 71.7318C62.3699 71.7318 53.9657 71.7318 45.5615 71.7318C45.5615 72.5913 45.5615 73.3554 45.5615 74.1194C45.5615 75.7429 46.23 76.4114 47.8536 76.4114C50.5276 76.4114 53.1062 76.4114 55.7802 76.4114C60.0778 76.4114 64.3754 76.4114 68.673 76.4114C70.1055 76.4114 70.8695 75.8384 70.965 74.5969C70.965 73.6419 70.8695 72.6868 70.8695 71.7318Z" fill="#DC3545"/>
<path d="M58.2634 33.6265C57.0218 33.6265 55.7803 33.6265 54.5388 33.6265C53.9658 33.6265 53.3928 33.8175 53.4883 34.486C53.4883 34.7725 54.1568 35.1545 54.5388 35.1545C56.9263 35.25 59.4094 35.25 61.7969 35.1545C62.179 35.1545 62.752 34.7725 62.8475 34.486C62.943 33.8175 62.37 33.6265 61.7969 33.6265C60.6509 33.6265 59.5049 33.6265 58.2634 33.6265Z" fill="#DC3545"/>
<path d="M47.1851 54.255C47.1851 49.9574 47.1851 45.6598 47.1851 41.3622C47.1851 40.1207 47.3761 39.9297 48.6176 39.9297C55.1117 39.9297 61.5104 39.9297 68.0045 39.9297C69.246 39.9297 69.3415 40.1207 69.3415 41.3622C69.3415 49.9574 69.3415 58.4571 69.3415 67.0522C69.3415 68.0073 68.9595 68.3893 68.0045 68.3893C61.5104 68.3893 55.0162 68.3893 48.5221 68.3893C47.4716 68.3893 47.1851 68.0073 47.1851 66.9567C47.1851 62.7547 47.1851 58.5526 47.1851 54.255ZM67.6225 54.255C67.6225 50.0529 67.6225 45.8508 67.6225 41.6487C61.3193 41.6487 55.0162 41.6487 48.8086 41.6487C48.8086 45.8508 48.8086 50.0529 48.8086 54.255C55.1117 54.255 61.3193 54.255 67.6225 54.255ZM48.8086 66.8612C55.2072 66.8612 61.4148 66.8612 67.718 66.8612C67.718 63.1367 67.718 59.6031 67.718 55.8785C61.4148 55.8785 55.1117 55.8785 48.8086 55.8785C48.8086 59.5076 48.8086 63.1367 48.8086 66.8612Z" fill="#DC3545"/>
<path d="M58.2634 33.6265C59.4094 33.6265 60.6509 33.6265 61.7969 33.6265C62.37 33.6265 62.943 33.8175 62.8475 34.486C62.752 34.7725 62.179 35.1545 61.7969 35.1545C59.4094 35.25 56.9263 35.25 54.5388 35.1545C54.1568 35.1545 53.5838 34.7725 53.4883 34.486C53.3928 33.8175 53.9658 33.6265 54.5388 33.6265C55.8758 33.6265 57.0218 33.6265 58.2634 33.6265Z" fill="#DC3545"/>
<path d="M58.2633 73.2598C59.0274 73.2598 59.7914 73.1643 60.4599 73.2598C60.7464 73.2598 61.0329 73.7373 61.3194 73.9283C61.0329 74.2148 60.7464 74.6923 60.5554 74.6923C59.0274 74.7878 57.4993 74.7878 56.0668 74.6923C55.7803 74.6923 55.4938 74.2148 55.2073 73.9283C55.4938 73.7373 55.7803 73.2598 56.0668 73.2598C56.7353 73.1643 57.4993 73.2598 58.2633 73.2598Z" fill="#DC3545"/>
<path d="M50.3365 73.2598C50.814 73.2598 51.387 73.1643 51.8645 73.2598C52.151 73.3553 52.533 73.7373 52.533 73.9283C52.533 74.2148 52.151 74.6923 51.96 74.6923C50.814 74.7878 49.7635 74.7878 48.6174 74.6923C48.4264 74.6923 48.0444 74.2148 48.0444 73.9283C48.0444 73.7373 48.4264 73.3553 48.8085 73.2598C49.286 73.1643 49.7635 73.2598 50.3365 73.2598Z" fill="#DC3545"/>
<path d="M66.19 73.2598C66.6675 73.2598 67.2405 73.1643 67.718 73.2598C68.0045 73.3553 68.3865 73.6418 68.3865 73.9283C68.3865 74.2148 68.0045 74.6923 67.8135 74.6923C66.6675 74.7878 65.617 74.7878 64.471 74.6923C64.28 74.6923 63.8979 74.2148 63.8979 73.9283C63.8979 73.7373 64.28 73.3553 64.5665 73.2598C65.044 73.1643 65.617 73.2598 66.19 73.2598Z" fill="#DC3545"/>
<path d="M60.6507 57.4066C59.1226 57.4066 57.5946 57.4066 56.1621 57.4066C55.5891 57.4066 55.0161 57.5021 55.2071 58.1706C55.3026 58.4571 55.8756 58.9346 56.1621 58.9346C59.1226 59.0301 62.0832 59.0301 65.1393 58.9346C65.5213 58.9346 65.8078 58.4571 66.1898 58.1706C65.8078 57.8841 65.5213 57.5021 65.1393 57.4066C63.6112 57.4066 62.1787 57.4066 60.6507 57.4066ZM60.5552 63.7097C59.1227 63.7097 57.5946 63.7097 56.1621 63.7097C55.5891 63.7097 55.0161 63.8052 55.2071 64.4737C55.3026 64.7602 55.8756 65.2378 56.1621 65.2378C59.1226 65.3333 62.0832 65.3333 65.0438 65.2378C65.4258 65.2378 65.7123 64.7602 66.0943 64.4737C65.7123 64.1872 65.4258 63.8052 65.0438 63.7097C63.6112 63.7097 62.0832 63.7097 60.5552 63.7097ZM53.106 62.0862C53.679 62.0862 54.3475 62.1817 54.9206 62.0862C55.3026 61.9907 55.4936 61.6087 55.7801 61.3222C55.4936 61.0357 55.2071 60.6537 54.9206 60.6537C53.679 60.5582 52.4375 60.5582 51.196 60.6537C50.9095 60.6537 50.623 61.1312 50.3365 61.3222C50.623 61.6087 50.9095 61.9907 51.2915 62.0862C51.8645 62.1817 52.533 62.0862 53.106 62.0862ZM64.1843 62.0862C64.5663 62.0862 64.9483 62.1817 65.3303 62.0862C65.6168 61.9907 65.9033 61.6087 66.1898 61.3222C65.9033 61.0357 65.6168 60.6537 65.3303 60.5582C64.5663 60.4627 63.8022 60.4627 63.0382 60.5582C62.7517 60.5582 62.5607 61.0357 62.2742 61.2267C62.5607 61.5132 62.7517 61.8952 63.0382 61.9907C63.3247 62.2772 63.8022 62.0862 64.1843 62.0862ZM51.8645 58.9346C52.0555 58.9346 52.2465 59.0301 52.342 58.9346C52.724 58.7436 53.0105 58.4571 53.3925 58.1706C53.0105 57.8841 52.724 57.5976 52.342 57.4066C51.96 57.3111 51.4825 57.3111 51.1005 57.4066C50.814 57.5021 50.5275 57.8841 50.241 58.1706C50.5275 58.4571 50.814 58.7436 51.1005 58.9346C51.387 59.0301 51.6735 58.9346 51.8645 58.9346ZM51.769 65.3333C52.0555 65.3333 52.342 65.4288 52.6285 65.3333C52.915 65.1423 53.2015 64.8557 53.488 64.5692C53.2015 64.2827 53.0105 63.9007 52.6285 63.8052C52.151 63.7097 51.578 63.7097 51.1005 63.8052C50.814 63.9007 50.432 64.2827 50.432 64.4737C50.432 64.7602 50.814 65.0467 51.1005 65.2378C51.196 65.3333 51.4825 65.3333 51.769 65.3333ZM58.9316 62.0862C59.1226 62.0862 59.4092 62.1817 59.5047 62.0862C59.8867 61.8952 60.1732 61.5132 60.4597 61.3222C60.1732 61.0357 59.7912 60.7492 59.5047 60.6537C59.1226 60.5582 58.5496 60.5582 58.1676 60.6537C57.8811 60.7492 57.6901 61.1312 57.4036 61.3222C57.6901 61.6087 57.8811 61.8952 58.1676 62.0862C58.4541 62.1817 58.7406 62.0862 58.9316 62.0862Z" fill="#DC3545"/>
<path d="M60.6507 57.4066C62.0832 57.4066 63.6113 57.3111 65.0438 57.4066C65.4258 57.4066 65.7123 57.8841 66.0943 58.1706C65.7123 58.4571 65.4258 58.9346 65.0438 58.9346C62.0832 59.0301 59.1227 59.0301 56.0666 58.9346C55.6846 58.9346 55.1116 58.4571 55.1116 58.1706C55.0161 57.5021 55.4936 57.4066 56.0666 57.4066C57.6901 57.4066 59.1227 57.4066 60.6507 57.4066Z" fill="#DC3545"/>
<path d="M60.5551 63.7096C62.0832 63.7096 63.6112 63.6141 65.0437 63.7096C65.4257 63.7096 65.7122 64.1871 66.0943 64.4736C65.7122 64.7601 65.4257 65.2377 65.0437 65.2377C62.0832 65.3332 59.1226 65.3332 56.162 65.2377C55.78 65.2377 55.207 64.7601 55.207 64.4736C55.016 63.8051 55.6845 63.7096 56.162 63.7096C57.5946 63.7096 59.1226 63.7096 60.5551 63.7096Z" fill="#DC3545"/>
<path d="M53.106 62.0861C52.4375 62.0861 51.8645 62.1816 51.196 62.0861C50.814 61.9906 50.623 61.6086 50.241 61.3221C50.5275 61.0356 50.814 60.6536 51.1005 60.6536C52.342 60.5581 53.5835 60.5581 54.8251 60.6536C55.1116 60.6536 55.3981 61.1311 55.6846 61.3221C55.3981 61.6086 55.1116 61.9906 54.8251 62.0861C54.3476 62.1816 53.7745 62.0861 53.106 62.0861Z" fill="#DC3545"/>
<path d="M64.1842 62.0861C63.8022 62.0861 63.3247 62.1816 63.0382 62.0861C62.7517 61.9906 62.4652 61.6086 62.2742 61.3221C62.5607 61.1311 62.7517 60.6536 63.0382 60.6536C63.8022 60.5581 64.5662 60.5581 65.3302 60.6536C65.6167 60.6536 65.9032 61.1311 66.1897 61.4176C65.9032 61.7041 65.7122 61.9906 65.3302 62.1816C64.9482 62.1816 64.5662 62.0861 64.1842 62.0861Z" fill="#DC3545"/>
<path d="M51.8645 58.9346C51.578 58.9346 51.2915 59.0301 51.1005 58.9346C50.814 58.7436 50.5275 58.4571 50.241 58.1706C50.5275 57.8841 50.7185 57.5021 51.1005 57.4066C51.4825 57.3111 51.96 57.3111 52.342 57.4066C52.724 57.5021 53.0105 57.8841 53.3925 58.1706C53.0105 58.4571 52.724 58.7436 52.342 58.9346C52.2465 59.0301 52.0555 58.9346 51.8645 58.9346Z" fill="#DC3545"/>
<path d="M51.7692 65.3332C51.4827 65.3332 51.1962 65.4287 51.0052 65.2377C50.7187 65.0467 50.4322 64.7602 50.3367 64.4737C50.3367 64.2827 50.7187 63.9006 51.0052 63.8051C51.4827 63.7096 52.0557 63.7096 52.5332 63.8051C52.8197 63.9006 53.1062 64.2827 53.3927 64.5692C53.1062 64.8557 52.8197 65.1422 52.5332 65.3332C52.3422 65.4287 52.0557 65.3332 51.7692 65.3332Z" fill="#DC3545"/>
<path d="M58.9318 62.0861C58.6453 62.0861 58.3588 62.1816 58.1678 62.0861C57.8813 61.8951 57.6903 61.5131 57.4038 61.3221C57.6903 61.1311 57.8813 60.7491 58.1678 60.6536C58.5498 60.5581 59.1228 60.5581 59.5048 60.6536C59.8869 60.7491 60.1734 61.1311 60.4599 61.3221C60.1734 61.6086 59.7914 61.8951 59.5048 62.0861C59.4093 62.1816 59.2183 62.0861 58.9318 62.0861Z" fill="#DC3545"/>
</g>
<defs>
<filter id="filter0_d" x="0.973145" y="0.964844" width="114.485" height="114.485" filterUnits="userSpaceOnUse" color-interpolation-filters="sRGB">
<feFlood flood-opacity="0" result="BackgroundImageFix"/>
<feColorMatrix in="SourceAlpha" type="matrix" values="0 0 0 0 0 0 0 0 0 0 0 0 0 0 0 0 0 0 127 0"/>
<feOffset dy="4"/>
<feGaussianBlur stdDeviation="2"/>
<feColorMatrix type="matrix" values="0 0 0 0 0 0 0 0 0 0 0 0 0 0 0 0 0 0 0.25 0"/>
<feBlend mode="normal" in2="BackgroundImageFix" result="effect1_dropShadow"/>
<feBlend mode="normal" in="SourceGraphic" in2="effect1_dropShadow" result="shape"/>
</filter>
</defs>
</svg>
