<svg width="108" height="108" viewBox="0 0 108 108" fill="none" xmlns="http://www.w3.org/2000/svg">
<path d="M53.3082 107.237C52.6397 107.237 52.0667 107.237 51.3982 107.141L51.4937 106.186C52.1622 106.186 52.7352 106.282 53.4037 106.282L53.3082 107.237ZM55.2183 107.237V106.282C55.8868 106.282 56.4598 106.282 57.1283 106.186L57.2238 107.141C56.5553 107.237 55.8868 107.237 55.2183 107.237ZM49.4881 107.046C48.8196 106.95 48.2466 106.95 47.5781 106.855L47.6736 105.9C48.3421 105.995 48.9151 106.091 49.5837 106.091L49.4881 107.046ZM59.0383 107.046L58.9428 106.091C59.6114 105.995 60.1844 105.995 60.8529 105.9L60.9484 106.855C60.3754 106.95 59.7069 106.95 59.0383 107.046ZM45.6681 106.568C44.9996 106.473 44.4265 106.377 43.758 106.186L43.949 105.231C44.522 105.326 45.1906 105.422 45.7636 105.613L45.6681 106.568ZM62.8584 106.568L62.6674 105.613C63.3359 105.518 63.9089 105.422 64.482 105.231L64.673 106.186C64.1955 106.377 63.5269 106.473 62.8584 106.568ZM41.9435 105.804C41.275 105.613 40.702 105.518 40.0335 105.326L40.32 104.371C40.893 104.562 41.5615 104.658 42.1345 104.849L41.9435 105.804ZM66.6785 105.804L66.4875 104.849C67.0605 104.658 67.729 104.562 68.302 104.371L68.5885 105.326C67.92 105.518 67.2515 105.709 66.6785 105.804ZM38.2189 104.849C37.6459 104.658 36.9774 104.467 36.4044 104.276L36.6909 103.416C37.2639 103.607 37.8369 103.798 38.5054 103.989L38.2189 104.849ZM70.4031 104.753L70.1166 103.798C70.6896 103.607 71.3581 103.416 71.9311 103.225L72.2176 104.085C71.5491 104.371 70.9761 104.562 70.4031 104.753ZM34.5898 103.512C34.0168 103.225 33.4438 103.034 32.7753 102.748L33.1573 101.888C33.7303 102.175 34.3033 102.366 34.8763 102.652L34.5898 103.512ZM74.0322 103.512L73.6501 102.652C74.2232 102.461 74.7962 102.175 75.3692 101.888L75.7512 102.748C75.1782 103.034 74.6052 103.225 74.0322 103.512ZM31.0563 101.984C30.4833 101.697 29.9102 101.411 29.3372 101.124L29.8147 100.265C30.3878 100.551 30.9608 100.838 31.5338 101.124L31.0563 101.984ZM77.4702 101.984L77.0882 101.124C77.6612 100.838 78.2342 100.551 78.8073 100.265L79.2848 101.124C78.6163 101.411 78.0432 101.697 77.4702 101.984ZM27.6182 100.169C27.0452 99.8829 26.4722 99.5009 25.9947 99.2144L26.4722 98.4504C27.0452 98.8324 27.5227 99.1189 28.0957 99.4054L27.6182 100.169ZM80.9083 100.169L80.4308 99.3099C81.0038 99.0234 81.4813 98.6414 82.0543 98.3548L82.5318 99.1189C81.9588 99.5009 81.4813 99.7874 80.9083 100.169ZM24.3711 98.1638C23.7981 97.7818 23.3206 97.3998 22.8431 97.0178L23.4161 96.2538C23.8936 96.6358 24.4666 97.0178 24.9441 97.3043L24.3711 98.1638ZM84.1554 98.0683L83.5824 97.3043C84.0599 96.9223 84.6329 96.5403 85.1104 96.2538L85.6834 97.0178C85.2059 97.3998 84.6329 97.7818 84.1554 98.0683ZM21.3151 95.8718C20.8376 95.4898 20.36 95.1078 19.787 94.6303L20.36 93.8663C20.8376 94.2483 21.3151 94.6303 21.7926 95.1078L21.3151 95.8718ZM87.2114 95.7763L86.6384 95.0123C87.1159 94.6303 87.5934 94.2483 88.0709 93.7708L88.644 94.5348C88.262 95.0123 87.6889 95.3943 87.2114 95.7763ZM18.3545 93.3887C17.877 92.9112 17.3995 92.5292 16.922 92.0517L17.5905 91.3832C18.068 91.8607 18.45 92.2427 18.9275 92.7202L18.3545 93.3887ZM90.172 93.2932L89.5035 92.6247C89.981 92.2427 90.4585 91.7652 90.8405 91.2877L91.509 91.9562C91.127 92.4337 90.6495 92.9112 90.172 93.2932ZM15.5849 90.7147C15.1074 90.2372 14.7254 89.7597 14.2479 89.2822L14.9164 88.6137C15.2984 89.0912 15.776 89.5687 16.158 90.0462L15.5849 90.7147ZM92.9416 90.6192L92.273 89.9507C92.7505 89.4732 93.1326 88.9957 93.5146 88.5181L94.2786 89.1867C93.8011 89.6642 93.3236 90.1417 92.9416 90.6192ZM13.0064 87.7541C12.6244 87.2766 12.2424 86.7991 11.8604 86.2261L12.6244 85.6531C13.0064 86.1306 13.3884 86.6081 13.7704 87.0856L13.0064 87.7541ZM95.4246 87.7541L94.6606 87.1811C95.0426 86.7036 95.4246 86.2261 95.8066 85.6531L96.5706 86.2261C96.2841 86.7991 95.8066 87.2766 95.4246 87.7541ZM10.7143 84.6981C10.3323 84.2206 9.95033 83.6475 9.66382 83.0745L10.4278 82.597C10.8098 83.17 11.0964 83.6476 11.4784 84.1251L10.7143 84.6981ZM97.8122 84.6981L97.0481 84.1251C97.4301 83.6476 97.8121 83.0745 98.0987 82.597L98.8627 83.0745C98.4807 83.6475 98.0987 84.2206 97.8122 84.6981ZM8.6133 81.5465C8.3268 80.9735 7.94479 80.4005 7.65828 79.923L8.5178 79.4455C8.80431 80.0185 9.18631 80.496 9.47282 81.069L8.6133 81.5465ZM99.9132 81.451L99.0537 80.9735C99.3402 80.4005 99.7222 79.923 100.009 79.35L100.868 79.8275C100.486 80.4005 100.2 80.9735 99.9132 81.451ZM6.79877 78.2039C6.51226 77.6309 6.22575 77.0579 5.93925 76.4849L6.79877 76.1029C7.08527 76.6759 7.37178 77.2489 7.65828 77.8219L6.79877 78.2039ZM101.728 78.1084L100.868 77.6309C101.155 77.0579 101.441 76.4849 101.728 75.9119L102.587 76.2939C102.301 76.9624 102.014 77.5354 101.728 78.1084ZM5.17523 74.6704C4.88873 74.0974 4.69772 73.5243 4.50672 72.8558L5.36624 72.4738C5.55724 73.1423 5.74824 73.7153 6.03475 74.2884L5.17523 74.6704ZM103.351 74.5749L102.492 74.1929C102.778 73.6198 102.969 73.0468 103.16 72.4738L104.02 72.8558C103.829 73.4288 103.638 74.0019 103.351 74.5749ZM3.7427 71.1368C3.5517 70.5638 3.36069 69.8953 3.16969 69.3223L4.12471 69.0357C4.31571 69.6088 4.50672 70.2773 4.69772 70.8503L3.7427 71.1368ZM104.688 71.0413L103.829 70.7548C104.02 70.1818 104.211 69.5133 104.402 68.9402L105.357 69.2267C105.166 69.7998 104.879 70.3728 104.688 71.0413ZM2.69218 67.4122C2.50118 66.8392 2.40567 66.1707 2.21467 65.5022L3.16969 65.3112C3.26519 65.8842 3.4562 66.5527 3.6472 67.1257L2.69218 67.4122ZM105.834 67.3167L104.879 67.0302C105.07 66.4572 105.166 65.7887 105.357 65.2157L106.312 65.4067C106.121 66.0752 105.93 66.7437 105.834 67.3167ZM1.83266 63.6876C1.73716 63.0191 1.64166 62.4461 1.54616 61.7776L2.50118 61.6821C2.59668 62.3506 2.69218 62.9236 2.78768 63.5921L1.83266 63.6876ZM106.598 63.5921L105.643 63.4011C105.739 62.8281 105.834 62.1596 105.93 61.4911L106.885 61.5866C106.885 62.3506 106.789 62.9236 106.598 63.5921ZM1.25965 59.8676C1.16415 59.199 1.16415 58.626 1.06865 57.9575L2.02367 57.862C2.02367 58.5305 2.11917 59.1035 2.21467 59.7721L1.25965 59.8676ZM107.171 59.7721L106.216 59.6766C106.312 59.008 106.312 58.435 106.407 57.7665L107.362 57.862C107.267 58.5305 107.267 59.1035 107.171 59.7721ZM0.973145 56.0475C0.973145 55.379 0.973145 54.806 0.973145 54.1374H1.92816C1.92816 54.806 1.92816 55.379 1.92816 56.0475H0.973145ZM107.458 55.952H106.503C106.503 55.2835 106.503 54.7104 106.503 54.0419V53.8509H107.458V54.0419C107.458 54.6149 107.458 55.2835 107.458 55.952ZM1.92816 52.2274H0.973145C0.973145 51.5589 1.06865 50.9859 1.06865 50.3174L2.02367 50.4129C2.02367 50.9859 2.02367 51.5589 1.92816 52.2274ZM106.503 51.9409C106.503 51.2724 106.407 50.6994 106.407 50.0308L107.362 49.9353C107.458 50.6039 107.458 51.1769 107.458 51.8454L106.503 51.9409ZM2.21467 48.5028L1.25965 48.4073C1.35515 47.7388 1.45065 47.1658 1.45065 46.4973L2.40567 46.5928C2.40567 47.1658 2.31017 47.8343 2.21467 48.5028ZM106.216 48.1208C106.121 47.4523 106.025 46.8793 105.93 46.2108L106.885 46.1153C106.98 46.7838 107.076 47.3568 107.171 48.0253L106.216 48.1208ZM2.78768 44.6827L1.83266 44.4917C1.92816 43.8232 2.02367 43.2502 2.21467 42.5817L3.16969 42.7727C2.97869 43.4412 2.88318 44.1097 2.78768 44.6827ZM105.643 44.3962C105.548 43.8232 105.357 43.1547 105.261 42.5817L106.216 42.3907C106.312 43.0592 106.503 43.6322 106.598 44.3007L105.643 44.3962ZM3.5517 41.0537L2.59668 40.8627C2.78768 40.1941 2.88318 39.6211 3.07419 39.0481L4.02921 39.3346C3.8382 39.8121 3.7427 40.3852 3.5517 41.0537ZM104.879 40.7672C104.688 40.1941 104.593 39.5256 104.402 38.9526L105.357 38.6661C105.548 39.2391 105.739 39.9076 105.834 40.4807L104.879 40.7672ZM4.60222 37.4246L3.7427 37.1381C3.93371 36.5651 4.12471 35.8966 4.41122 35.3235L5.27073 35.7056C4.98423 36.1831 4.79322 36.8516 4.60222 37.4246ZM103.733 37.1381C103.542 36.5651 103.351 35.9921 103.065 35.3235L103.924 34.9415C104.115 35.5146 104.402 36.1831 104.593 36.7561L103.733 37.1381ZM5.93925 33.891L5.07973 33.509C5.36624 32.936 5.55724 32.363 5.84375 31.79L6.70326 32.172C6.41676 32.745 6.22575 33.318 5.93925 33.891ZM102.396 33.6045C102.11 33.0315 101.919 32.4585 101.632 31.8855L102.492 31.5035C102.778 32.0765 103.065 32.6495 103.256 33.2225L102.396 33.6045ZM7.56278 30.4529L6.70326 29.9754C6.98977 29.4024 7.27628 28.8294 7.56278 28.2564L8.4223 28.7339C8.13579 29.3069 7.84929 29.8799 7.56278 30.4529ZM100.773 30.1664C100.486 29.5934 100.2 29.0204 99.9132 28.5429L100.773 28.0654C101.059 28.6384 101.346 29.2114 101.632 29.7844L100.773 30.1664ZM9.37732 27.1104L8.5178 26.6329C8.89981 26.0599 9.18631 25.5823 9.56832 25.0093L10.3323 25.4868C10.0458 26.0599 9.66382 26.5374 9.37732 27.1104ZM98.9582 26.9194C98.6717 26.3464 98.2897 25.8689 97.9077 25.2958L98.6717 24.8183C99.0537 25.3913 99.3402 25.8689 99.7222 26.4419L98.9582 26.9194ZM11.3829 23.9588L10.6188 23.3858C11.0009 22.9083 11.3829 22.3353 11.7649 21.8578L12.5289 22.4308C12.1469 22.9083 11.7649 23.4813 11.3829 23.9588ZM96.8571 23.7678C96.4751 23.2903 96.0931 22.7173 95.7111 22.2398L96.4751 21.6668C96.8571 22.1443 97.2391 22.7173 97.6211 23.1948L96.8571 23.7678ZM13.6749 20.9027L12.9109 20.3297C13.2929 19.8522 13.7704 19.3747 14.1524 18.8972L14.9164 19.5657C14.5344 19.9477 14.0569 20.4252 13.6749 20.9027ZM94.5651 20.8072C94.1831 20.3297 93.8011 19.8522 93.3236 19.3747L93.9921 18.7062C94.3741 19.1837 94.8516 19.6612 95.2336 20.1387L94.5651 20.8072ZM16.158 18.1332L15.4894 17.4647C15.967 16.9872 16.349 16.5097 16.8265 16.1276L17.495 16.7962C17.113 17.1782 16.6355 17.6557 16.158 18.1332ZM92.082 17.9422C91.7 17.4647 91.2225 16.9872 90.745 16.6052L91.4135 15.9366C91.891 16.4142 92.3685 16.7962 92.7505 17.2737L92.082 17.9422ZM18.9275 15.4591L18.259 14.7906C18.7365 14.3131 19.214 13.9311 19.6915 13.5491L20.2645 14.3131C19.787 14.5996 19.3095 15.0771 18.9275 15.4591ZM89.408 15.2681C88.9305 14.8861 88.453 14.4086 87.9754 14.0266L88.5485 13.2626C89.026 13.6446 89.5035 14.1221 89.981 14.5041L89.408 15.2681ZM21.7926 12.9761L21.2196 12.2121C21.6971 11.8301 22.2701 11.4481 22.7476 11.066L23.3206 11.8301C22.7476 12.2121 22.2701 12.5941 21.7926 12.9761ZM86.5429 12.8806C86.0654 12.4986 85.5879 12.1166 85.0149 11.7346L85.5879 10.9705C86.0654 11.3526 86.6384 11.7346 87.1159 12.1166L86.5429 12.8806ZM24.7531 10.7795L24.1801 10.0155C24.7531 9.63351 25.2306 9.34701 25.8037 8.965L26.2812 9.72902C25.8037 10.111 25.3261 10.3975 24.7531 10.7795ZM83.4869 10.5885C83.0093 10.2065 82.4363 9.92002 81.8633 9.53801L82.3408 8.774C82.9138 9.156 83.3914 9.44251 83.9644 9.82452L83.4869 10.5885ZM28.0002 8.774L27.5227 7.91448C28.0957 7.62797 28.6687 7.24597 29.2417 6.95946L29.6237 7.81898C29.0507 8.10548 28.4777 8.48749 28.0002 8.774ZM80.2398 8.6785C79.6668 8.39199 79.1893 8.10548 78.6163 7.72348L79.0938 6.86396C79.6668 7.15046 80.2398 7.43697 80.8128 7.81898L80.2398 8.6785ZM31.3428 6.95946L30.9608 6.09994C31.5338 5.81344 32.1068 5.52693 32.6798 5.33593L33.0618 6.19544C32.3933 6.48195 31.8203 6.67295 31.3428 6.95946ZM76.8972 6.86396C76.3242 6.57745 75.7512 6.29095 75.1782 6.09994L75.5602 5.24042C76.1332 5.52693 76.7062 5.81344 77.2792 6.00444L76.8972 6.86396ZM34.7808 5.43143L34.3988 4.57191C34.9718 4.38091 35.5449 4.0944 36.2134 3.9034L36.4999 4.76291C35.9269 5.04942 35.3539 5.24042 34.7808 5.43143ZM73.4591 5.33593C72.8861 5.14492 72.3131 4.85842 71.6446 4.66741L71.9311 3.80789C72.5041 3.9989 73.1726 4.2854 73.7456 4.47641L73.4591 5.33593ZM38.3144 4.1899L38.0279 3.23488C38.6009 3.04388 39.2694 2.85287 39.8424 2.66187L40.129 3.61689C39.4604 3.80789 38.8874 3.9989 38.3144 4.1899ZM69.9256 4.0944C69.3526 3.9034 68.684 3.71239 68.111 3.52139L68.3975 2.56637C68.9706 2.75737 69.6391 2.94838 70.2121 3.13938L69.9256 4.0944ZM41.9435 3.13938L41.7525 2.18436C42.421 1.99336 42.994 1.89785 43.6625 1.80235L43.8535 2.75737C43.185 2.85287 42.5165 3.04388 41.9435 3.13938ZM66.201 3.13938C65.628 2.94838 64.9595 2.85287 64.3865 2.75737L64.5775 1.80235C65.246 1.89785 65.819 2.08886 66.4875 2.18436L66.201 3.13938ZM45.6681 2.37536L45.4771 1.42034C46.1456 1.32484 46.7186 1.22934 47.3871 1.13384L47.4826 2.08886C46.9096 2.18436 46.2411 2.27986 45.6681 2.37536ZM62.5719 2.37536C61.9989 2.27986 61.3304 2.18436 60.6619 2.08886L60.7574 1.13384C61.4259 1.22934 61.9989 1.32484 62.6674 1.42034L62.5719 2.37536ZM49.3926 1.89785L49.2971 0.942835C49.9657 0.847333 50.5387 0.847333 51.2072 0.847333L51.3027 1.80235C50.6342 1.80235 49.9657 1.89785 49.3926 1.89785ZM58.7518 1.89785C58.0833 1.80235 57.5103 1.80235 56.8418 1.80235V0.847333C57.5103 0.847333 58.0833 0.942835 58.7518 0.942835V1.89785ZM53.1172 1.70685V0.751831C53.7857 0.751831 54.3587 0.751831 55.0273 0.751831V1.70685C54.3587 1.70685 53.7857 1.70685 53.1172 1.70685Z" fill="#65B9C3"/>
<path d="M54.2632 100.169C28.7642 100.169 8.13574 79.4455 8.13574 54.042C8.13574 28.543 28.8597 7.91455 54.2632 7.91455C79.6667 7.91455 100.391 28.6385 100.391 54.042C100.391 79.4455 79.6667 100.169 54.2632 100.169ZM54.2632 10.6841C30.3877 10.6841 11.0008 30.071 11.0008 53.9465C11.0008 77.822 30.3877 97.2089 54.2632 97.2089C78.1387 97.2089 97.5256 77.822 97.5256 53.9465C97.5256 30.1665 78.1387 10.6841 54.2632 10.6841Z" fill="#65B9C3"/>
<path d="M49.3925 66.0752C48.2465 66.0752 47.196 66.0752 46.1455 66.0752C43.1849 66.0752 40.1288 66.0752 37.1683 66.0752C35.6402 66.0752 34.8762 65.3112 34.8762 63.7832C34.8762 54.806 34.8762 45.9243 34.8762 36.9471C34.8762 35.4191 35.6402 34.6551 37.1683 34.6551C48.533 34.6551 59.8977 34.6551 71.2625 34.6551C72.7905 34.6551 73.5545 35.4191 73.5545 36.9471C73.5545 45.9243 73.5545 54.806 73.5545 63.7832C73.5545 65.3112 72.7905 66.0752 71.2625 66.0752C67.5379 66.0752 63.8133 66.0752 60.0887 66.0752C59.8022 66.0752 59.4202 66.0752 59.0382 66.0752C59.0382 67.1258 59.0382 68.0808 59.0382 69.0358C59.0382 69.5133 59.4202 69.7043 59.8977 69.7043C61.0438 69.7043 62.1898 69.7043 63.3358 69.7043C64.9593 69.7043 66.0099 71.5188 65.2459 72.9514C65.1503 73.1424 64.6728 73.3334 64.3863 73.3334C62.3808 73.3334 60.3752 73.3334 58.4652 73.3334C53.6901 73.3334 49.0105 73.3334 44.2354 73.3334C43.0894 73.3334 42.9939 73.2379 42.9939 72.1874C42.9939 70.2773 43.5669 69.7043 45.4769 69.7043C46.432 69.7043 47.4825 69.7043 48.4375 69.7043C49.106 69.7043 49.3925 69.5133 49.3925 68.8448C49.3925 67.8898 49.3925 67.0303 49.3925 66.0752ZM54.2631 64.8337C59.8977 64.8337 65.4369 64.8337 71.0715 64.8337C72.2175 64.8337 72.313 64.7382 72.313 63.4967C72.313 54.7105 72.313 45.9243 72.313 37.1381C72.313 36.0876 72.122 35.8966 71.0715 35.8966C59.8022 35.8966 48.6285 35.8966 37.3593 35.8966C36.3087 35.8966 36.1177 36.0876 36.1177 37.1381C36.1177 46.0198 36.1177 54.806 36.1177 63.6877C36.1177 64.6427 36.3087 64.8337 37.3593 64.8337C42.9939 64.8337 48.6285 64.8337 54.2631 64.8337ZM64.0998 72.0919C64.1953 71.0413 64.0998 70.9458 63.1448 70.9458C61.9988 70.9458 60.9483 70.9458 59.8022 70.9458C58.5607 70.9458 57.7967 70.1818 57.7967 68.9403C57.7967 67.9853 57.7967 67.1258 57.7967 66.1707C55.3136 66.1707 52.9261 66.1707 50.5385 66.1707C50.5385 67.1258 50.5385 68.0808 50.5385 69.0358C50.5385 70.1818 49.7745 70.9458 48.6285 70.9458C47.4825 70.9458 46.3365 70.9458 45.2859 70.9458C44.3309 70.9458 44.2354 71.1368 44.3309 72.0919C50.9206 72.0919 57.5102 72.0919 64.0998 72.0919Z" fill="#65B9C3"/>
<path d="M54.2632 37.7111C59.3248 37.7111 64.3864 37.7111 69.448 37.7111C70.403 37.7111 70.4985 37.8066 70.4985 38.7616C70.4985 45.9243 70.4985 53.0869 70.4985 60.2496C70.4985 61.2046 70.403 61.3001 69.448 61.3001C59.3248 61.3001 49.2016 61.3001 38.9829 61.3001C38.0279 61.3001 37.9324 61.2046 37.9324 60.2496C37.9324 53.1824 37.9324 46.0198 37.9324 38.9526C37.9324 37.8066 38.0279 37.8066 39.1739 37.8066C44.2355 37.7111 49.2971 37.7111 54.2632 37.7111ZM39.1739 59.9631C49.2016 59.9631 59.2293 59.9631 69.257 59.9631C69.257 52.8959 69.257 45.9243 69.257 38.9526C59.2293 38.9526 49.2016 38.9526 39.1739 38.9526C39.1739 46.0198 39.1739 52.9914 39.1739 59.9631Z" fill="#65B9C3"/>
<path d="M54.2633 62.1596C54.5498 62.5416 54.8363 62.8281 54.8363 63.0191C54.8363 63.2101 54.4543 63.4011 54.2633 63.5921C54.0723 63.4011 53.7858 63.2101 53.6903 62.9236C53.5947 62.8281 53.9768 62.5416 54.2633 62.1596Z" fill="#65B9C3"/>
<path d="M43.949 52.5139C43.949 50.6993 43.949 48.9803 43.949 47.1658C43.949 46.8793 44.0445 46.4973 44.2355 46.2107C45.286 44.3962 46.432 42.5817 47.4825 40.7671C47.9601 39.9076 48.4376 39.9076 48.9151 40.7671C49.9656 42.5817 51.1116 44.3007 52.1621 46.1152C52.3531 46.4018 52.4487 46.7838 52.4487 47.1658C52.4487 50.6993 52.4487 54.3284 52.4487 57.862C52.4487 58.5305 52.2576 58.9125 51.4936 58.817C49.2971 58.817 47.196 58.817 44.9995 58.817C44.14 58.817 43.949 58.7215 43.949 57.862C43.949 56.0474 43.949 54.2329 43.949 52.5139ZM45.1905 57.5755C46.05 57.5755 46.7185 57.5755 47.4825 57.5755C47.4825 54.7104 47.4825 51.8454 47.4825 49.0758C46.7185 49.0758 45.9545 49.0758 45.1905 49.0758C45.1905 51.8454 45.1905 54.7104 45.1905 57.5755ZM51.2071 49.0758C50.3476 49.0758 49.6791 49.0758 48.9151 49.0758C48.9151 51.8454 48.9151 54.7104 48.9151 57.5755C49.6791 57.5755 50.4431 57.5755 51.2071 57.5755C51.2071 54.7104 51.2071 51.8454 51.2071 49.0758ZM50.1566 48.0253C50.3476 47.8343 50.7296 47.6433 51.0161 47.3568C51.1116 47.1658 51.0161 46.6883 50.9206 46.4018C50.6341 45.8287 50.2521 45.3512 50.0611 44.8737C49.7746 44.3007 49.4881 44.1097 48.8196 44.3007C48.3421 44.3962 47.8646 44.2052 47.387 44.3007C47.1005 44.3007 46.814 44.3962 46.7185 44.5872C46.241 45.1602 45.9545 45.8287 45.5725 46.4973C45.1905 47.0703 45.3815 47.5478 45.9545 47.8343C46.7185 48.2163 47.4825 47.8343 47.6736 46.8793C47.7691 46.5928 48.0556 46.4017 48.2466 46.2107C48.4376 46.4973 48.7241 46.6883 48.8196 46.9748C49.0106 47.5478 49.2971 47.9298 50.1566 48.0253ZM47.4825 43.0592C48.0556 43.0592 48.3421 43.0592 48.8196 43.0592C48.5331 42.6772 48.3421 42.2952 48.1511 41.9132C47.9601 42.3907 47.7691 42.6772 47.4825 43.0592Z" fill="#65B9C3"/>
<path d="M64.5774 47.1657C64.2909 47.8342 64.0044 48.6938 63.7179 49.5533C63.6224 49.7443 63.6224 50.1263 63.7179 50.3173C64.8639 52.6093 64.6729 54.7104 62.9539 56.5249C62.2853 57.1934 61.5213 57.862 60.8528 58.5305C60.4708 58.9125 60.0888 58.9125 59.7068 58.5305C58.8473 57.671 57.9878 56.9069 57.2237 56.0474C55.7912 54.3284 55.7912 52.3228 56.7462 50.3173C56.8417 50.1263 56.9372 49.7443 56.8417 49.5533C55.8867 47.9297 55.7912 46.3062 56.7462 44.6827C57.6057 43.1547 58.7518 41.8176 59.8023 40.4806C60.0888 40.0986 60.4708 40.0031 60.8528 40.3851C62.2853 41.9131 63.6224 43.4412 64.2909 45.4467C64.3864 45.9242 64.4819 46.4017 64.5774 47.1657ZM60.1843 41.7221C59.1338 42.9636 58.0833 44.2052 57.5102 45.7332C57.1282 46.6882 57.2237 47.5477 57.6057 48.4073C57.7967 48.9803 58.0833 49.1713 58.7518 49.1713C59.8023 49.0758 60.9483 49.0758 61.9988 49.1713C62.5719 49.1713 62.8584 48.9803 63.0494 48.5028C63.7179 47.0702 63.2404 45.1602 62.0943 44.0142C61.8078 44.5872 61.4258 45.1602 61.1393 45.7332C60.8528 46.3062 60.7573 46.9747 60.4708 47.6432C60.3753 47.8342 59.9933 48.1208 59.8978 48.0253C59.5158 47.8342 59.2293 47.5477 59.2293 47.3567C59.3248 46.6882 59.5158 46.1152 59.7068 45.5422C59.8978 44.9692 60.2798 44.5872 60.5663 44.0142C61.0438 43.0591 60.9483 42.4861 60.1843 41.7221ZM63.3359 52.8959C61.2348 52.8959 59.3248 52.8959 57.2237 52.8959C57.3192 55.0924 58.8473 56.2384 60.2798 57.5754C61.6168 56.1429 63.2404 54.9969 63.3359 52.8959ZM62.9539 51.5588C62.6674 50.4128 62.5719 50.4128 61.5213 50.4128C60.5663 50.4128 59.7068 50.4128 58.7518 50.4128C57.9878 50.4128 57.7012 50.6993 57.6057 51.5588C59.4203 51.5588 61.1393 51.5588 62.9539 51.5588Z" fill="#65B9C3"/>
</svg>
