<svg width="108" height="108" viewBox="0 0 108 108" fill="none" xmlns="http://www.w3.org/2000/svg">
<path d="M52.9811 107.237C52.3126 107.237 51.7396 107.237 51.071 107.141L51.1665 106.186C51.8351 106.186 52.4081 106.282 53.0766 106.282L52.9811 107.237ZM54.8911 107.237V106.282C55.5596 106.282 56.1326 106.282 56.8012 106.186L56.8967 107.141C56.2281 107.237 55.5596 107.237 54.8911 107.237ZM49.161 107.046C48.4925 106.95 47.9195 106.95 47.251 106.855L47.3465 105.9C48.015 105.995 48.588 106.091 49.2565 106.091L49.161 107.046ZM58.7112 107.046L58.6157 106.091C59.2842 105.995 59.8572 105.995 60.5257 105.9L60.6212 106.855C60.0482 106.95 59.3797 106.95 58.7112 107.046ZM45.3409 106.568C44.6724 106.473 44.0994 106.377 43.4309 106.186L43.6219 105.231C44.1949 105.326 44.8634 105.422 45.4364 105.613L45.3409 106.568ZM62.5313 106.568L62.3403 105.613C63.0088 105.518 63.5818 105.422 64.1548 105.231L64.3458 106.186C63.8683 106.377 63.1998 106.473 62.5313 106.568ZM41.6163 105.804C40.9478 105.613 40.3748 105.518 39.7063 105.326L39.9928 104.371C40.5658 104.562 41.2343 104.658 41.8073 104.849L41.6163 105.804ZM66.3514 105.804L66.1604 104.849C66.7334 104.658 67.4019 104.562 67.9749 104.371L68.2614 105.326C67.5929 105.518 66.9244 105.709 66.3514 105.804ZM37.8918 104.849C37.3188 104.658 36.6502 104.467 36.0772 104.276L36.3637 103.416C36.9367 103.607 37.5098 103.798 38.1783 103.989L37.8918 104.849ZM70.0759 104.753L69.7894 103.798C70.3624 103.607 71.031 103.416 71.604 103.225L71.8905 104.085C71.222 104.371 70.6489 104.562 70.0759 104.753ZM34.2627 103.512C33.6897 103.225 33.1167 103.034 32.4482 102.748L32.8302 101.888C33.4032 102.175 33.9762 102.366 34.5492 102.652L34.2627 103.512ZM73.705 103.512L73.323 102.652C73.896 102.461 74.469 102.175 75.042 101.888L75.424 102.748C74.851 103.034 74.278 103.225 73.705 103.512ZM30.7291 101.984C30.1561 101.697 29.5831 101.411 29.0101 101.124L29.4876 100.265C30.0606 100.551 30.6336 100.838 31.2066 101.124L30.7291 101.984ZM77.1431 101.984L76.7611 101.124C77.3341 100.838 77.9071 100.551 78.4801 100.265L78.9576 101.124C78.2891 101.411 77.7161 101.697 77.1431 101.984ZM27.291 100.169C26.718 99.8829 26.145 99.5009 25.6675 99.2144L26.145 98.4504C26.718 98.8324 27.1955 99.1189 27.7686 99.4054L27.291 100.169ZM80.5811 100.169L80.1036 99.3099C80.6767 99.0234 81.1542 98.6414 81.7272 98.3548L82.2047 99.1189C81.6317 99.5009 81.1542 99.7874 80.5811 100.169ZM24.044 98.1638C23.471 97.7818 22.9935 97.3998 22.5159 97.0178L23.089 96.2538C23.5665 96.6358 24.1395 97.0178 24.617 97.3043L24.044 98.1638ZM83.8282 98.0683L83.2552 97.3043C83.7327 96.9223 84.3057 96.5403 84.7832 96.2538L85.3562 97.0178C84.8787 97.3998 84.3057 97.6863 83.8282 98.0683ZM20.9879 95.8718C20.5104 95.4898 20.0329 95.1078 19.4599 94.6303L20.0329 93.8663C20.5104 94.2483 20.9879 94.6303 21.4654 95.1078L20.9879 95.8718ZM86.8843 95.7763L86.3113 95.0123C86.7888 94.6303 87.2663 94.2483 87.7438 93.7708L88.3168 94.5348C87.9348 95.0123 87.3618 95.3943 86.8843 95.7763ZM18.0274 93.3887C17.5498 92.9112 17.0723 92.5292 16.5948 92.0517L17.2633 91.3832C17.7408 91.8607 18.1229 92.2427 18.6004 92.7202L18.0274 93.3887ZM89.8448 93.2932L89.1763 92.6247C89.6538 92.2427 90.1313 91.7652 90.5134 91.2877L91.1819 91.9562C90.7999 92.4337 90.3224 92.9112 89.8448 93.2932ZM15.2578 90.7147C14.7803 90.2372 14.3983 89.7597 13.9208 89.2822L14.5893 88.6137C14.9713 89.0912 15.4488 89.5687 15.8308 90.0462L15.2578 90.7147ZM92.6144 90.6192L91.9459 89.9507C92.4234 89.4732 92.8054 88.9957 93.1874 88.5181L93.9514 89.1867C93.4739 89.6642 92.9964 90.1417 92.6144 90.6192ZM12.6792 87.7541C12.2972 87.2766 11.9152 86.7991 11.5332 86.2261L12.2972 85.6531C12.6792 86.1306 13.0613 86.6081 13.4433 87.0856L12.6792 87.7541ZM95.0975 87.7541L94.3334 87.1811C94.7154 86.7036 95.0975 86.2261 95.4795 85.6531L96.2435 86.2261C95.957 86.7991 95.4795 87.2766 95.0975 87.7541ZM10.3872 84.6981C10.0052 84.2206 9.62318 83.6475 9.33668 83.0745L10.1007 82.597C10.4827 83.17 10.7692 83.6476 11.1512 84.1251L10.3872 84.6981ZM97.485 84.6981L96.721 84.1251C97.103 83.6476 97.485 83.0745 97.7715 82.597L98.5355 83.0745C98.1535 83.6475 97.7715 84.2206 97.485 84.6981ZM8.28615 81.5465C7.99965 80.9735 7.61764 80.4005 7.33113 79.923L8.19065 79.4455C8.47716 80.0185 8.85917 80.496 9.14567 81.069L8.28615 81.5465ZM99.586 81.451L98.7265 80.9735C99.013 80.4005 99.395 79.923 99.6815 79.35L100.541 79.8275C100.159 80.4005 99.8725 80.9735 99.586 81.451ZM6.47162 78.2039C6.18511 77.6309 5.8986 77.0579 5.6121 76.4849L6.47162 76.1029C6.75812 76.6759 7.04463 77.2489 7.33113 77.8219L6.47162 78.2039ZM101.401 78.1084L100.541 77.6309C100.828 77.0579 101.114 76.4849 101.401 75.9119L102.26 76.2939C101.974 76.9624 101.687 77.5354 101.401 78.1084ZM4.84808 74.6704C4.56158 74.0974 4.37057 73.5243 4.17957 72.8558L5.03909 72.4738C5.23009 73.1423 5.4211 73.7153 5.7076 74.2884L4.84808 74.6704ZM103.024 74.5749L102.165 74.1929C102.451 73.6198 102.642 73.0468 102.833 72.4738L103.693 72.8558C103.502 73.4288 103.311 74.0019 103.024 74.5749ZM3.41555 71.1368C3.22455 70.5638 3.03355 69.8953 2.84254 69.3223L3.79756 69.0357C3.98857 69.6088 4.17957 70.2773 4.37057 70.8503L3.41555 71.1368ZM104.361 71.0413L103.502 70.7548C103.693 70.1818 103.884 69.5133 104.075 68.9402L105.03 69.2267C104.839 69.7998 104.552 70.3728 104.361 71.0413ZM2.36503 67.4122C2.17403 66.8392 2.07853 66.1707 1.88752 65.5022L2.84254 65.3112C2.93804 65.8842 3.12905 66.5527 3.32005 67.1257L2.36503 67.4122ZM105.507 67.3167L104.552 67.0302C104.743 66.4572 104.839 65.7887 105.03 65.2157L105.985 65.4067C105.794 66.0752 105.603 66.7437 105.507 67.3167ZM1.50551 63.6876C1.41001 63.0191 1.31451 62.4461 1.21901 61.7776L2.17403 61.6821C2.26953 62.3506 2.36503 62.9236 2.46053 63.5921L1.50551 63.6876ZM106.271 63.5921L105.316 63.4011C105.412 62.8281 105.507 62.1596 105.603 61.4911L106.558 61.5866C106.558 62.3506 106.462 62.9236 106.271 63.5921ZM0.932502 59.8676C0.837 59.199 0.837 58.626 0.741498 57.9575L1.69652 57.862C1.69652 58.5305 1.79202 59.1035 1.88752 59.7721L0.932502 59.8676ZM106.844 59.7721L105.889 59.6766C105.985 59.008 105.985 58.435 106.08 57.7665L107.035 57.862C106.94 58.5305 106.94 59.1035 106.844 59.7721ZM0.645996 56.0475C0.645996 55.379 0.645996 54.806 0.645996 54.1374H1.60102C1.60102 54.806 1.60102 55.379 1.60102 56.0475H0.645996ZM107.131 55.952H106.176C106.176 55.2835 106.176 54.7104 106.176 54.0419V53.8509H107.131V54.0419C107.131 54.6149 107.131 55.2835 107.131 55.952ZM1.60102 52.2274H0.645996C0.645996 51.5589 0.741498 50.9859 0.741498 50.3174L1.69652 50.4129C1.69652 50.9859 1.69652 51.5589 1.60102 52.2274ZM106.176 51.9409C106.176 51.2724 106.08 50.6994 106.08 50.0308L107.035 49.9353C107.131 50.6039 107.131 51.1769 107.131 51.8454L106.176 51.9409ZM1.88752 48.5028L0.932502 48.4073C1.028 47.7388 1.12351 47.1658 1.12351 46.4973L2.07853 46.5928C2.07853 47.1658 1.98302 47.8343 1.88752 48.5028ZM105.889 48.1208C105.794 47.4523 105.698 46.8793 105.603 46.2108L106.558 46.1153C106.653 46.7838 106.749 47.3568 106.844 48.0253L105.889 48.1208ZM2.46053 44.6827L1.50551 44.4917C1.60102 43.8232 1.69652 43.2502 1.88752 42.5817L2.84254 42.7727C2.65154 43.4412 2.55604 44.1097 2.46053 44.6827ZM105.316 44.3962C105.221 43.8232 105.03 43.1547 104.934 42.5817L105.889 42.3907C105.985 43.0592 106.176 43.6322 106.271 44.3007L105.316 44.3962ZM3.22455 41.0537L2.26953 40.8627C2.46053 40.1941 2.55604 39.6211 2.74704 39.0481L3.70206 39.3346C3.51106 39.8121 3.41555 40.3852 3.22455 41.0537ZM104.552 40.7672C104.361 40.1941 104.266 39.5256 104.075 38.9526L105.03 38.6661C105.221 39.2391 105.412 39.9076 105.507 40.4807L104.552 40.7672ZM4.27507 37.4246L3.41555 37.1381C3.60656 36.5651 3.79756 35.8966 4.08407 35.3235L4.94359 35.7056C4.65708 36.1831 4.46608 36.8516 4.27507 37.4246ZM103.406 37.1381C103.215 36.5651 103.024 35.9921 102.738 35.3235L103.597 34.9415C103.788 35.5146 104.075 36.1831 104.266 36.7561L103.406 37.1381ZM5.6121 33.891L4.75258 33.509C5.03909 32.936 5.23009 32.363 5.5166 31.79L6.37611 32.172C6.08961 32.745 5.8986 33.318 5.6121 33.891ZM102.069 33.6045C101.783 33.0315 101.592 32.4585 101.305 31.8855L102.165 31.5035C102.451 32.0765 102.738 32.6495 102.929 33.2225L102.069 33.6045ZM7.23563 30.4529L6.37611 29.9754C6.66262 29.4024 6.94913 28.8294 7.23563 28.2564L8.09515 28.7339C7.80864 29.3069 7.52214 29.8799 7.23563 30.4529ZM100.446 30.1664C100.159 29.5934 99.8725 29.0204 99.586 28.5429L100.446 28.0654C100.732 28.6384 101.019 29.2114 101.305 29.7844L100.446 30.1664ZM9.05017 27.1104L8.19065 26.6329C8.57266 26.0599 8.85917 25.5823 9.24117 25.0093L10.0052 25.4868C9.71868 26.0599 9.33668 26.5374 9.05017 27.1104ZM98.631 26.9194C98.3445 26.3464 97.9625 25.8689 97.5805 25.2958L98.3445 24.8183C98.7265 25.3913 99.013 25.8689 99.395 26.4419L98.631 26.9194ZM11.0557 23.9588L10.2917 23.3858C10.6737 22.9083 11.0557 22.3353 11.4377 21.8578L12.2017 22.4308C11.8197 22.9083 11.4377 23.4813 11.0557 23.9588ZM96.53 23.7678C96.148 23.2903 95.766 22.7173 95.384 22.2398L96.148 21.6668C96.53 22.1443 96.912 22.7173 97.294 23.1948L96.53 23.7678ZM13.3478 20.9027L12.5837 20.3297C12.9658 19.8522 13.4433 19.3747 13.8253 18.8972L14.5893 19.5657C14.2073 19.9477 13.7298 20.4252 13.3478 20.9027ZM94.2379 20.8072C93.8559 20.3297 93.4739 19.8522 92.9964 19.3747L93.6649 18.7062C94.0469 19.1837 94.5244 19.6612 94.9064 20.1387L94.2379 20.8072ZM15.8308 18.1332L15.1623 17.4647C15.6398 16.9872 16.0218 16.5097 16.4993 16.1276L17.1678 16.7962C16.7858 17.1782 16.3083 17.6557 15.8308 18.1332ZM91.7549 17.9422C91.3729 17.4647 90.8954 16.9872 90.4179 16.6052L91.0864 15.9366C91.5639 16.4142 92.0414 16.7962 92.4234 17.2737L91.7549 17.9422ZM18.6004 15.4591L17.9319 14.7906C18.4094 14.3131 18.8869 13.9311 19.3644 13.5491L19.9374 14.3131C19.4599 14.5996 18.9824 15.0771 18.6004 15.4591ZM89.0808 15.2681C88.6033 14.8861 88.1258 14.4086 87.6483 14.0266L88.2213 13.2626C88.6988 13.6446 89.1763 14.1221 89.6538 14.5041L89.0808 15.2681ZM21.4654 12.9761L20.8924 12.2121C21.3699 11.8301 21.9429 11.4481 22.4204 11.066L22.9935 11.8301C22.4204 12.2121 21.9429 12.5941 21.4654 12.9761ZM86.2158 12.8806C85.7383 12.4986 85.2607 12.1166 84.6877 11.7346L85.2607 10.9705C85.7383 11.3526 86.3113 11.7346 86.7888 12.1166L86.2158 12.8806ZM24.426 10.7795L23.853 10.0155C24.426 9.63351 24.9035 9.34701 25.4765 8.965L25.954 9.72902C25.4765 10.111 24.999 10.3975 24.426 10.7795ZM83.1597 10.5885C82.6822 10.2065 82.1092 9.92002 81.5362 9.53801L82.0137 8.774C82.5867 9.156 83.0642 9.44251 83.6372 9.82452L83.1597 10.5885ZM27.6731 8.774L27.1955 7.91448C27.7686 7.62797 28.3416 7.24597 28.9146 6.95946L29.2966 7.81898C28.7236 8.10548 28.1506 8.48749 27.6731 8.774ZM79.9126 8.6785C79.3396 8.39199 78.8621 8.10548 78.2891 7.72348L78.7666 6.86396C79.3396 7.15046 79.9126 7.43697 80.4856 7.81898L79.9126 8.6785ZM31.0156 6.95946L30.6336 6.09994C31.2066 5.81344 31.7796 5.52693 32.3527 5.33593L32.7347 6.19544C32.0661 6.48195 31.4931 6.67295 31.0156 6.95946ZM76.5701 6.86396C75.9971 6.57745 75.424 6.29095 74.851 6.09994L75.233 5.24042C75.8061 5.52693 76.3791 5.81344 76.9521 6.00444L76.5701 6.86396ZM34.4537 5.43143L34.0717 4.57191C34.6447 4.38091 35.2177 4.0944 35.8862 3.9034L36.1727 4.76291C35.5997 5.04942 35.0267 5.24042 34.4537 5.43143ZM73.132 5.33593C72.559 5.14492 71.986 4.85842 71.3175 4.66741L71.604 3.80789C72.177 3.9989 72.8455 4.2854 73.4185 4.47641L73.132 5.33593ZM37.9873 4.1899L37.7008 3.23488C38.2738 3.04388 38.9423 2.85287 39.5153 2.66187L39.8018 3.61689C39.1333 3.80789 38.5603 3.9989 37.9873 4.1899ZM69.5984 4.0944C69.0254 3.9034 68.3569 3.71239 67.7839 3.52139L68.0704 2.56637C68.6434 2.75737 69.3119 2.94838 69.8849 3.13938L69.5984 4.0944ZM41.6163 3.13938L41.4253 2.18436C42.0939 1.99336 42.6669 1.89785 43.3354 1.80235L43.5264 2.75737C42.8579 2.85287 42.1894 3.04388 41.6163 3.13938ZM65.8738 3.13938C65.3008 2.94838 64.6323 2.85287 64.0593 2.75737L64.2503 1.80235C64.9188 1.89785 65.4918 2.08886 66.1604 2.18436L65.8738 3.13938ZM45.3409 2.37536L45.1499 1.42034C45.8184 1.32484 46.3914 1.22934 47.06 1.13384L47.1555 2.08886C46.5824 2.18436 45.9139 2.27986 45.3409 2.37536ZM62.2448 2.37536C61.6718 2.27986 61.0032 2.18436 60.3347 2.08886L60.4302 1.13384C61.0987 1.22934 61.6718 1.32484 62.3403 1.42034L62.2448 2.37536ZM49.0655 1.89785L48.97 0.942835C49.6385 0.847333 50.2115 0.847333 50.88 0.847333L50.9755 1.80235C50.307 1.80235 49.6385 1.89785 49.0655 1.89785ZM58.4247 1.89785C57.7562 1.80235 57.1832 1.80235 56.5147 1.80235V0.847333C57.1832 0.847333 57.7562 0.942835 58.4247 0.942835V1.89785ZM52.7901 1.70685V0.751831C53.4586 0.751831 54.0316 0.751831 54.7001 0.751831V1.70685C54.0316 1.70685 53.4586 1.70685 52.7901 1.70685Z" fill="#1EAEE5"/>
<path d="M53.9363 100.169C28.4373 100.169 7.80884 79.4455 7.80884 54.042C7.80884 28.543 28.5328 7.91455 53.9363 7.91455C79.3398 7.91455 100.064 28.6385 100.064 54.042C100.064 79.4455 79.3398 100.169 53.9363 100.169ZM53.9363 10.6841C30.0608 10.6841 10.6739 30.071 10.6739 53.9465C10.6739 77.822 30.0608 97.2089 53.9363 97.2089C77.8118 97.2089 97.1987 77.822 97.1987 53.9465C97.1987 30.1665 77.8118 10.6841 53.9363 10.6841Z" fill="#1EAEE5"/>
<path d="M64.8234 49.8399C65.0144 49.9354 65.1099 49.9354 65.1099 49.9354C68.357 49.2669 69.5985 51.941 71.4131 53.5645C71.6041 53.7555 71.6041 54.1375 71.6041 54.424C71.6041 59.9631 71.6041 65.5022 71.6041 71.0413C71.6041 73.4289 69.885 75.0524 67.593 75.0524C57.5653 75.0524 47.5376 75.0524 37.5099 75.0524C36.5549 75.0524 36.1729 74.7659 36.1729 73.8109C36.1729 60.5361 36.1729 47.3569 36.1729 34.0821C36.1729 33.1271 36.4594 32.7451 37.4144 32.7451C46.1051 32.7451 54.7957 32.7451 63.5819 32.7451C64.5369 32.7451 64.8234 33.1271 64.8234 33.9866C64.8234 38.8572 64.8234 43.6323 64.8234 48.5029C64.8234 48.9804 64.8234 49.3624 64.8234 49.8399ZM64.0594 73.8109C63.8684 72.4739 63.5819 71.3279 63.5819 70.0863C63.5819 60.8226 63.5819 51.5589 63.5819 42.2953C63.5819 41.9132 63.5819 41.4357 63.5819 41.0537C54.7957 41.0537 46.2006 41.0537 37.6054 41.0537C37.6054 52.0365 37.6054 62.9237 37.6054 73.8109C46.4871 73.8109 55.3687 73.8109 64.0594 73.8109ZM37.5099 39.6212C46.2006 39.6212 54.7957 39.6212 63.3909 39.6212C63.3909 37.8067 63.3909 35.9921 63.3909 34.1776C54.7002 34.1776 46.1051 34.1776 37.5099 34.1776C37.5099 35.9921 37.5099 37.8067 37.5099 39.6212ZM64.8234 51.2724C64.8234 51.4634 64.8234 51.6545 64.8234 51.75C64.8234 58.1486 64.8234 64.5472 64.8234 70.9458C64.8234 71.2324 64.8234 71.5189 64.9189 71.8054C65.301 73.1424 66.5425 74.0019 67.8795 73.8109C69.312 73.6199 70.2671 72.4739 70.2671 70.9458C70.2671 65.7887 70.2671 60.5361 70.2671 55.379C70.2671 55.188 70.1716 54.9015 70.1716 54.615C69.4075 54.615 68.6435 54.615 67.8795 54.615C67.1155 54.615 66.829 54.3285 66.829 53.5645C66.829 52.8005 66.829 52.0365 66.829 51.1769C66.1605 51.2724 65.5875 51.2724 64.8234 51.2724Z" fill="#1EAEE5"/>
<path d="M54.5092 50.6993C54.5092 52.8004 54.5092 54.8059 54.5092 56.9069C54.5092 57.7665 54.3182 58.1485 53.3632 58.1485C49.1611 58.1485 44.8635 58.1485 40.6614 58.1485C39.8019 58.1485 39.5154 57.862 39.5154 57.0024C39.5154 52.7049 39.5154 48.5028 39.5154 44.2052C39.5154 43.4412 39.8019 43.1547 40.5659 43.1547C44.8635 43.1547 49.0656 43.1547 53.3632 43.1547C54.2227 43.1547 54.5092 43.5367 54.4137 44.3007C54.5092 46.4017 54.5092 48.5028 54.5092 50.6993ZM53.1722 56.7159C53.1722 52.6094 53.1722 48.5028 53.1722 44.4917C49.0656 44.4917 44.959 44.4917 40.9479 44.4917C40.9479 48.5983 40.9479 52.6094 40.9479 56.7159C45.0545 56.7159 49.0656 56.7159 53.1722 56.7159Z" fill="#1EAEE5"/>
<path d="M43.6219 66.5527C42.6669 66.5527 41.6163 66.5527 40.6613 66.5527C39.9928 66.5527 39.7063 66.3617 39.7063 65.5977C39.7063 64.0697 39.7063 62.5416 39.7063 61.0136C39.7063 60.4406 39.9928 60.0586 40.5658 60.0586C42.6669 60.0586 44.7679 60.0586 46.8689 60.0586C47.5375 60.0586 47.824 60.3451 47.824 61.0136C47.824 62.5416 47.824 63.9742 47.824 65.5022C47.824 66.1707 47.5375 66.4572 46.8689 66.4572C45.7229 66.5527 44.6724 66.5527 43.6219 66.5527ZM46.3914 61.5866C44.5769 61.5866 42.7624 61.5866 40.9478 61.5866C40.9478 62.8282 40.9478 64.0697 40.9478 65.2157C42.7624 65.2157 44.5769 65.2157 46.3914 65.2157C46.3914 63.9742 46.3914 62.8282 46.3914 61.5866Z" fill="#1EAEE5"/>
<path d="M57.2787 66.5527C56.2281 66.5527 55.1776 66.5527 54.2226 66.5527C53.5541 66.5527 53.2676 66.2662 53.2676 65.5977C53.2676 64.0696 53.2676 62.6371 53.2676 61.1091C53.2676 60.4406 53.4586 60.1541 54.2226 60.1541C56.3236 60.1541 58.4247 60.1541 60.5257 60.1541C61.0987 60.1541 61.4807 60.4406 61.4807 61.0136C61.4807 62.5416 61.4807 64.0696 61.4807 65.5977C61.4807 66.2662 61.1942 66.5527 60.5257 66.5527C59.3797 66.5527 58.3292 66.5527 57.2787 66.5527ZM54.6046 65.2157C56.5146 65.2157 58.2337 65.2157 60.0482 65.2157C60.0482 63.9741 60.0482 62.7326 60.0482 61.4911C58.2337 61.4911 56.4191 61.4911 54.6046 61.4911C54.6046 62.8281 54.6046 63.9741 54.6046 65.2157Z" fill="#1EAEE5"/>
<path d="M50.4026 69.9908C47.3465 69.9908 44.1949 69.9908 41.1389 69.9908C40.8524 69.9908 40.5659 70.0863 40.3749 69.9908C40.0883 69.7998 39.8018 69.6088 39.6108 69.3223C39.8973 69.1312 40.1839 68.9402 40.4704 68.7492C40.5659 68.6537 40.7569 68.7492 40.8524 68.7492C47.251 68.7492 53.6496 68.7492 60.0483 68.7492C60.2393 68.7492 60.4303 68.6537 60.6213 68.7492C60.9078 68.9402 61.0988 69.1312 61.3853 69.3223C61.0988 69.5133 60.9078 69.7998 60.6213 69.9908C60.4303 70.0863 60.1438 69.9908 59.8573 69.9908C56.7057 69.9908 53.5541 69.9908 50.4026 69.9908Z" fill="#1EAEE5"/>
<path d="M49.8296 63.3056C49.8296 62.5416 49.7341 61.7775 49.8296 61.109C49.8296 60.8225 50.2116 60.536 50.4981 60.2495C50.6891 60.536 51.0711 60.8225 51.0711 61.109C51.1666 62.6371 51.1666 64.2606 51.0711 65.7886C51.0711 66.0751 50.6891 66.3616 50.4981 66.6481C50.3071 66.3616 49.9251 66.0751 49.8296 65.7886C49.8296 64.9291 49.8296 64.1651 49.8296 63.3056Z" fill="#1EAEE5"/>
<path d="M58.9979 44.3962C58.4248 44.3962 57.9473 44.4917 57.3743 44.3962C57.0878 44.3007 56.8968 44.0142 56.7058 43.8232C56.8968 43.6322 57.1833 43.2502 57.3743 43.2502C58.4248 43.1547 59.5709 43.1547 60.6214 43.2502C60.8124 43.2502 61.0989 43.6322 61.2899 43.9187C61.0989 44.1097 60.9079 44.3962 60.6214 44.4917C60.1439 44.4917 59.5709 44.3962 58.9979 44.3962Z" fill="#1EAEE5"/>
<path d="M59.0934 46.4972C59.5709 46.4972 60.1439 46.4017 60.6214 46.4972C60.9079 46.5927 61.1944 46.8792 61.3854 47.1657C61.0989 47.3567 60.9079 47.7387 60.6214 47.7387C59.5709 47.8342 58.5203 47.8342 57.4698 47.7387C57.1833 47.7387 56.9923 47.3567 56.7058 47.1657C56.9923 46.9747 57.1833 46.5927 57.4698 46.4972C58.0428 46.4972 58.5203 46.4972 59.0934 46.4972Z" fill="#1EAEE5"/>
<path d="M59.0934 51.1769C58.5203 51.1769 57.9473 51.2724 57.3743 51.1769C57.0878 51.1769 56.8968 50.7949 56.7058 50.6038C56.8968 50.4128 57.0878 49.9353 57.3743 49.9353C58.5203 49.8398 59.6664 49.8398 60.8124 49.9353C61.0034 49.9353 61.3854 50.3173 61.3854 50.5083C61.3854 50.6993 61.0034 51.0814 60.8124 51.0814C60.2394 51.2724 59.6664 51.1769 59.0934 51.1769Z" fill="#1EAEE5"/>
<path d="M58.9979 54.6149C58.5203 54.6149 57.9473 54.7104 57.4698 54.6149C57.1833 54.5194 56.8968 54.2329 56.7058 53.9464C56.9923 53.7554 57.1833 53.3734 57.4698 53.3734C58.5203 53.2779 59.5709 53.2779 60.6214 53.3734C60.9079 53.3734 61.0989 53.7554 61.3854 53.9464C61.0989 54.1374 60.9079 54.5194 60.6214 54.6149C60.0484 54.7104 59.4754 54.6149 58.9979 54.6149Z" fill="#1EAEE5"/>
<path d="M58.9022 58.0531C58.3291 58.0531 57.8516 58.1486 57.2786 58.0531C56.9921 58.0531 56.8011 57.6711 56.6101 57.4801C56.8011 57.2891 56.9921 56.8116 57.2786 56.8116C58.4246 56.7161 59.5707 56.7161 60.7167 56.8116C60.9077 56.8116 61.2897 57.1936 61.2897 57.3846C61.2897 57.5756 60.9077 57.9576 60.7167 57.9576C60.1437 58.1486 59.5707 58.0531 58.9022 58.0531Z" fill="#1EAEE5"/>
<path d="M41.0433 37.5201C40.7568 37.5201 40.4703 37.6156 40.1838 37.5201C39.9928 37.4246 39.7063 37.1381 39.7063 36.9471C39.7063 36.7561 39.9928 36.3741 40.0883 36.3741C40.7568 36.2786 41.4253 36.2786 42.0938 36.3741C42.2849 36.3741 42.5714 36.7561 42.5714 36.9471C42.5714 37.1381 42.2849 37.4246 42.0938 37.5201C41.7118 37.6156 41.3298 37.5201 41.0433 37.5201Z" fill="#1EAEE5"/>
<path d="M44.4814 37.9021C43.9083 37.5201 43.1443 37.2336 43.0488 36.9471C43.0488 35.9921 43.9083 36.2786 44.3859 36.2786C44.9589 36.2786 45.8184 35.9921 45.8184 36.9471C45.9139 37.2336 45.1499 37.5201 44.4814 37.9021Z" fill="#1EAEE5"/>
<path d="M47.824 37.5201C47.5375 37.5201 47.251 37.6156 46.9645 37.5201C46.7735 37.4246 46.3915 37.1381 46.487 36.9471C46.487 36.6606 46.7735 36.3741 46.9645 36.2786C47.442 36.1831 48.015 36.1831 48.588 36.2786C48.8746 36.3741 49.1611 36.6606 49.3521 36.8516C49.0656 37.0426 48.8745 37.3291 48.4925 37.4246C48.397 37.6156 48.1105 37.6156 47.824 37.5201Z" fill="#1EAEE5"/>
</svg>
