<svg width="107" height="108" viewBox="0 0 107 108" fill="none" xmlns="http://www.w3.org/2000/svg">
<path d="M52.4332 107.45C51.7647 107.45 51.1917 107.45 50.5232 107.354L50.6187 106.399C51.2872 106.399 51.8602 106.495 52.5287 106.495L52.4332 107.45ZM54.3433 107.45V106.495C55.0118 106.495 55.5848 106.495 56.2533 106.399L56.3488 107.354C55.6803 107.45 55.0118 107.45 54.3433 107.45ZM48.6131 107.259C47.9446 107.163 47.3716 107.163 46.7031 107.068L46.7986 106.113C47.4671 106.208 48.0401 106.304 48.7087 106.304L48.6131 107.259ZM58.1633 107.259L58.0678 106.304C58.7364 106.208 59.3094 106.208 59.9779 106.113L60.0734 107.068C59.5004 107.163 58.8319 107.163 58.1633 107.259ZM44.7931 106.781C44.1246 106.686 43.5515 106.59 42.883 106.399L43.074 105.444C43.647 105.54 44.3156 105.635 44.8886 105.826L44.7931 106.781ZM61.9834 106.781L61.7924 105.826C62.4609 105.731 63.0339 105.635 63.607 105.444L63.798 106.399C63.3205 106.59 62.6519 106.686 61.9834 106.781ZM41.0685 106.017C40.4 105.826 39.827 105.731 39.1585 105.54L39.445 104.584C40.018 104.775 40.6865 104.871 41.2595 105.062L41.0685 106.017ZM65.8035 106.017L65.6125 105.062C66.1855 104.871 66.854 104.775 67.427 104.584L67.7135 105.54C67.045 105.731 66.3765 105.922 65.8035 106.017ZM37.3439 105.062C36.7709 104.871 36.1024 104.68 35.5294 104.489L35.8159 103.629C36.3889 103.82 36.9619 104.011 37.6304 104.202L37.3439 105.062ZM69.5281 104.966L69.2416 104.011C69.8146 103.82 70.4831 103.629 71.0561 103.438L71.3426 104.298C70.6741 104.584 70.1011 104.775 69.5281 104.966ZM33.7148 103.725C33.1418 103.438 32.5688 103.247 31.9003 102.961L32.2823 102.101C32.8553 102.388 33.4283 102.579 34.0013 102.865L33.7148 103.725ZM73.1572 103.725L72.7751 102.865C73.3482 102.674 73.9212 102.388 74.4942 102.101L74.8762 102.961C74.3032 103.247 73.7302 103.438 73.1572 103.725ZM30.1813 102.197C29.6083 101.91 29.0352 101.624 28.4622 101.337L28.9397 100.478C29.5128 100.764 30.0858 101.051 30.6588 101.337L30.1813 102.197ZM76.5952 102.197L76.2132 101.337C76.7862 101.051 77.3592 100.764 77.9323 100.478L78.4098 101.337C77.7413 101.624 77.1682 101.91 76.5952 102.197ZM26.7432 100.382C26.1702 100.096 25.5972 99.7139 25.1197 99.4274L25.5972 98.6634C26.1702 99.0454 26.6477 99.3319 27.2207 99.6184L26.7432 100.382ZM80.0333 100.382L79.5558 99.5229C80.1288 99.2364 80.6063 98.8544 81.1793 98.5679L81.6568 99.3319C81.0838 99.7139 80.6063 100 80.0333 100.382ZM23.4961 98.3769C22.9231 97.9949 22.4456 97.6128 21.9681 97.2308L22.5411 96.4668C23.0186 96.8488 23.5916 97.2308 24.0691 97.5173L23.4961 98.3769ZM83.2804 98.2814L82.7074 97.5173C83.1849 97.1353 83.7579 96.7533 84.2354 96.4668L84.8084 97.2308C84.3309 97.6128 83.7579 97.9949 83.2804 98.2814ZM20.4401 96.0848C19.9626 95.7028 19.485 95.3208 18.912 94.8433L19.485 94.0793C19.9626 94.4613 20.4401 94.8433 20.9176 95.3208L20.4401 96.0848ZM86.3364 95.9893L85.7634 95.2253C86.2409 94.8433 86.7184 94.4613 87.1959 93.9838L87.769 94.7478C87.387 95.2253 86.8139 95.6073 86.3364 95.9893ZM17.4795 93.6018C17.002 93.1243 16.5245 92.7422 16.047 92.2647L16.7155 91.5962C17.193 92.0737 17.575 92.4557 18.0525 92.9333L17.4795 93.6018ZM89.297 93.5063L88.6285 92.8377C89.106 92.4557 89.5835 91.9782 89.9655 91.5007L90.634 92.1692C90.252 92.6467 89.7745 93.1243 89.297 93.5063ZM14.7099 90.9277C14.2324 90.4502 13.8504 89.9727 13.3729 89.4952L14.0414 88.8267C14.4234 89.3042 14.901 89.7817 15.283 90.2592L14.7099 90.9277ZM92.0666 90.8322L91.398 90.1637C91.8755 89.6862 92.2576 89.2087 92.6396 88.7312L93.4036 89.3997C92.9261 89.8772 92.4486 90.3547 92.0666 90.8322ZM12.1314 87.9671C11.7494 87.4896 11.3674 87.0121 10.9854 86.4391L11.7494 85.8661C12.1314 86.3436 12.5134 86.8211 12.8954 87.2986L12.1314 87.9671ZM94.5496 87.9671L93.7856 87.3941C94.1676 86.9166 94.5496 86.4391 94.9316 85.8661L95.6956 86.4391C95.4091 87.0121 94.9316 87.4896 94.5496 87.9671ZM9.83935 84.9111C9.45734 84.4336 9.07533 83.8606 8.78882 83.2875L9.55284 82.81C9.93485 83.383 10.2214 83.8606 10.6034 84.3381L9.83935 84.9111ZM96.9372 84.9111L96.1731 84.3381C96.5551 83.8606 96.9371 83.2875 97.2237 82.81L97.9877 83.2875C97.6057 83.8606 97.2237 84.4336 96.9372 84.9111ZM7.7383 81.7595C7.4518 81.1865 7.06979 80.6135 6.78328 80.136L7.6428 79.6585C7.92931 80.2315 8.31131 80.709 8.59782 81.282L7.7383 81.7595ZM99.0382 81.664L98.1787 81.1865C98.4652 80.6135 98.8472 80.136 99.1337 79.563L99.9932 80.0405C99.6112 80.6135 99.3247 81.1865 99.0382 81.664ZM5.92377 78.4169C5.63726 77.8439 5.35075 77.2709 5.06425 76.6979L5.92377 76.3159C6.21027 76.8889 6.49678 77.4619 6.78328 78.0349L5.92377 78.4169ZM100.853 78.3214L99.9932 77.8439C100.28 77.2709 100.566 76.6979 100.853 76.1249L101.712 76.5069C101.426 77.1754 101.139 77.7484 100.853 78.3214ZM4.30023 74.8834C4.01373 74.3104 3.82272 73.7374 3.63172 73.0688L4.49124 72.6868C4.68224 73.3553 4.87324 73.9284 5.15975 74.5014L4.30023 74.8834ZM102.476 74.7879L101.617 74.4059C101.903 73.8329 102.094 73.2598 102.285 72.6868L103.145 73.0688C102.954 73.6418 102.763 74.2149 102.476 74.7879ZM2.8677 71.3498C2.6767 70.7768 2.48569 70.1083 2.29469 69.5353L3.24971 69.2488C3.44071 69.8218 3.63172 70.4903 3.82272 71.0633L2.8677 71.3498ZM103.813 71.2543L102.954 70.9678C103.145 70.3948 103.336 69.7263 103.527 69.1533L104.482 69.4398C104.291 70.0128 104.004 70.5858 103.813 71.2543ZM1.81718 67.6252C1.62618 67.0522 1.53067 66.3837 1.33967 65.7152L2.29469 65.5242C2.39019 66.0972 2.5812 66.7657 2.7722 67.3387L1.81718 67.6252ZM104.959 67.5297L104.004 67.2432C104.195 66.6702 104.291 66.0017 104.482 65.4287L105.437 65.6197C105.246 66.2882 105.055 66.9567 104.959 67.5297ZM0.957662 63.9006C0.86216 63.2321 0.766658 62.6591 0.671156 61.9906L1.62618 61.8951C1.72168 62.5636 1.81718 63.1366 1.91268 63.8051L0.957662 63.9006ZM105.723 63.8051L104.768 63.6141C104.864 63.0411 104.959 62.3726 105.055 61.7041L106.01 61.7996C106.01 62.5636 105.914 63.1366 105.723 63.8051ZM0.38465 60.0806C0.289148 59.4121 0.289148 58.839 0.193647 58.1705L1.14867 58.075C1.14867 58.7435 1.24417 59.3166 1.33967 59.9851L0.38465 60.0806ZM106.296 59.9851L105.341 59.8896C105.437 59.2211 105.437 58.648 105.532 57.9795L106.487 58.075C106.392 58.7435 106.392 59.3166 106.296 59.9851ZM0.0981445 56.2605C0.0981445 55.592 0.0981445 55.019 0.0981445 54.3505H1.05316C1.05316 55.019 1.05316 55.592 1.05316 56.2605H0.0981445ZM106.583 56.165H105.628C105.628 55.4965 105.628 54.9235 105.628 54.2549V54.0639H106.583V54.2549C106.583 54.828 106.583 55.4965 106.583 56.165ZM1.05316 52.4404H0.0981445C0.0981445 51.7719 0.193647 51.1989 0.193647 50.5304L1.14867 50.6259C1.14867 51.1989 1.14867 51.7719 1.05316 52.4404ZM105.628 52.1539C105.628 51.4854 105.532 50.9124 105.532 50.2439L106.487 50.1484C106.583 50.8169 106.583 51.3899 106.583 52.0584L105.628 52.1539ZM1.33967 48.7158L0.38465 48.6203C0.480152 47.9518 0.575654 47.3788 0.575654 46.7103L1.53067 46.8058C1.53067 47.3788 1.43517 48.0473 1.33967 48.7158ZM105.341 48.3338C105.246 47.6653 105.15 47.0923 105.055 46.4238L106.01 46.3283C106.105 46.9968 106.201 47.5698 106.296 48.2383L105.341 48.3338ZM1.91268 44.8958L0.957662 44.7047C1.05316 44.0362 1.14867 43.4632 1.33967 42.7947L2.29469 42.9857C2.10369 43.6542 2.00818 44.3227 1.91268 44.8958ZM104.768 44.6092C104.673 44.0362 104.482 43.3677 104.386 42.7947L105.341 42.6037C105.437 43.2722 105.628 43.8452 105.723 44.5137L104.768 44.6092ZM2.6767 41.2667L1.72168 41.0757C1.91268 40.4072 2.00818 39.8341 2.19919 39.2611L3.15421 39.5476C2.9632 40.0252 2.8677 40.5982 2.6767 41.2667ZM104.004 40.9802C103.813 40.4072 103.718 39.7386 103.527 39.1656L104.482 38.8791C104.673 39.4521 104.864 40.1207 104.959 40.6937L104.004 40.9802ZM3.72722 37.6376L2.8677 37.3511C3.05871 36.7781 3.24971 36.1096 3.53622 35.5366L4.39573 35.9186C4.10923 36.3961 3.91822 37.0646 3.72722 37.6376ZM102.858 37.3511C102.667 36.7781 102.476 36.2051 102.19 35.5366L103.049 35.1546C103.24 35.7276 103.527 36.3961 103.718 36.9691L102.858 37.3511ZM5.06425 34.104L4.20473 33.722C4.49124 33.149 4.68224 32.576 4.96875 32.003L5.82826 32.385C5.54176 32.958 5.35075 33.531 5.06425 34.104ZM101.521 33.8175C101.235 33.2445 101.044 32.6715 100.757 32.0985L101.617 31.7165C101.903 32.2895 102.19 32.8625 102.381 33.4355L101.521 33.8175ZM6.68778 30.666L5.82826 30.1884C6.11477 29.6154 6.40128 29.0424 6.68778 28.4694L7.5473 28.9469C7.26079 29.5199 6.97429 30.0929 6.68778 30.666ZM99.8977 30.3795C99.6112 29.8064 99.3247 29.2334 99.0382 28.7559L99.8977 28.2784C100.184 28.8514 100.471 29.4244 100.757 29.9974L99.8977 30.3795ZM8.50232 27.3234L7.6428 26.8459C8.02481 26.2729 8.31131 25.7954 8.69332 25.2223L9.45734 25.6999C9.17083 26.2729 8.78882 26.7504 8.50232 27.3234ZM98.0832 27.1324C97.7967 26.5594 97.4147 26.0819 97.0327 25.5089L97.7967 25.0313C98.1787 25.6044 98.4652 26.0819 98.8472 26.6549L98.0832 27.1324ZM10.5079 24.1718L9.74384 23.5988C10.1259 23.1213 10.5079 22.5483 10.8899 22.0708L11.6539 22.6438C11.2719 23.1213 10.8899 23.6943 10.5079 24.1718ZM95.9821 23.9808C95.6001 23.5033 95.2181 22.9303 94.8361 22.4528L95.6001 21.8798C95.9821 22.3573 96.3641 22.9303 96.7461 23.4078L95.9821 23.9808ZM12.7999 21.1158L12.0359 20.5427C12.4179 20.0652 12.8954 19.5877 13.2774 19.1102L14.0414 19.7787C13.6594 20.1607 13.1819 20.6383 12.7999 21.1158ZM93.6901 21.0203C93.3081 20.5427 92.9261 20.0652 92.4486 19.5877L93.1171 18.9192C93.4991 19.3967 93.9766 19.8742 94.3586 20.3517L93.6901 21.0203ZM15.283 18.3462L14.6144 17.6777C15.092 17.2002 15.474 16.7227 15.9515 16.3407L16.62 17.0092C16.238 17.3912 15.7605 17.8687 15.283 18.3462ZM91.207 18.1552C90.825 17.6777 90.3475 17.2002 89.87 16.8182L90.5385 16.1497C91.016 16.6272 91.4935 17.0092 91.8755 17.4867L91.207 18.1552ZM18.0525 15.6721L17.384 15.0036C17.8615 14.5261 18.339 14.1441 18.8165 13.7621L19.3895 14.5261C18.912 14.8126 18.4345 15.2901 18.0525 15.6721ZM88.533 15.4811C88.0555 15.0991 87.578 14.6216 87.1004 14.2396L87.6735 13.4756C88.151 13.8576 88.6285 14.3351 89.106 14.7171L88.533 15.4811ZM20.9176 13.1891L20.3446 12.4251C20.8221 12.0431 21.3951 11.6611 21.8726 11.2791L22.4456 12.0431C21.8726 12.4251 21.3951 12.8071 20.9176 13.1891ZM85.6679 13.0936C85.1904 12.7116 84.7129 12.3296 84.1399 11.9476L84.7129 11.1836C85.1904 11.5656 85.7634 11.9476 86.2409 12.3296L85.6679 13.0936ZM23.8781 10.9926L23.3051 10.2285C23.8781 9.84653 24.3556 9.56002 24.9287 9.17801L25.4062 9.94203C24.9287 10.324 24.4511 10.6105 23.8781 10.9926ZM82.6119 10.8015C82.1343 10.4195 81.5613 10.133 80.9883 9.75103L81.4658 8.98701C82.0388 9.36902 82.5164 9.65552 83.0894 10.0375L82.6119 10.8015ZM27.1252 8.98701L26.6477 8.12749C27.2207 7.84099 27.7937 7.45898 28.3667 7.17247L28.7487 8.03199C28.1757 8.3185 27.6027 8.7005 27.1252 8.98701ZM79.3648 8.89151C78.7918 8.605 78.3143 8.3185 77.7413 7.93649L78.2188 7.07697C78.7918 7.36348 79.3648 7.64998 79.9378 8.03199L79.3648 8.89151ZM30.4678 7.17247L30.0858 6.31295C30.6588 6.02645 31.2318 5.73994 31.8048 5.54894L32.1868 6.40846C31.5183 6.69496 30.9453 6.88597 30.4678 7.17247ZM76.0222 7.07697C75.4492 6.79046 74.8762 6.50396 74.3032 6.31295L74.6852 5.45344C75.2582 5.73994 75.8312 6.02645 76.4042 6.21745L76.0222 7.07697ZM33.9058 5.64444L33.5238 4.78492C34.0968 4.59392 34.6699 4.30741 35.3384 4.11641L35.6249 4.97593C35.0519 5.26243 34.4789 5.45344 33.9058 5.64444ZM72.5841 5.54894C72.0111 5.35793 71.4381 5.07143 70.7696 4.88042L71.0561 4.02091C71.6291 4.21191 72.2976 4.49842 72.8706 4.68942L72.5841 5.54894ZM37.4394 4.40291L37.1529 3.4479C37.7259 3.25689 38.3944 3.06589 38.9674 2.87488L39.254 3.8299C38.5854 4.02091 38.0124 4.21191 37.4394 4.40291ZM69.0506 4.30741C68.4776 4.11641 67.809 3.92541 67.236 3.7344L67.5225 2.77938C68.0956 2.97039 68.7641 3.16139 69.3371 3.35239L69.0506 4.30741ZM41.0685 3.35239L40.8775 2.39737C41.546 2.20637 42.119 2.11087 42.7875 2.01537L42.9785 2.97039C42.31 3.06589 41.6415 3.25689 41.0685 3.35239ZM65.326 3.35239C64.753 3.25689 64.0845 3.06589 63.5115 2.97039L63.7025 2.01537C64.371 2.11087 64.944 2.30187 65.6125 2.39737L65.326 3.35239ZM44.7931 2.58838L44.6021 1.63336C45.2706 1.53786 45.8436 1.44235 46.5121 1.34685L46.6076 2.30187C46.0346 2.39737 45.3661 2.49288 44.7931 2.58838ZM61.6969 2.58838C61.1239 2.49288 60.4554 2.39737 59.7869 2.30187L59.8824 1.34685C60.5509 1.44235 61.1239 1.53786 61.7924 1.63336L61.6969 2.58838ZM48.5176 2.11087L48.4221 1.15585C49.0907 1.06035 49.6637 1.06035 50.3322 1.06035L50.4277 2.01537C49.7592 2.01537 49.0907 2.11087 48.5176 2.11087ZM57.8768 2.11087C57.2083 2.01537 56.6353 2.01537 55.9668 2.01537V1.06035C56.6353 1.06035 57.2083 1.15585 57.8768 1.15585V2.11087ZM52.2422 1.91986V0.964844C52.9107 0.964844 53.4837 0.964844 54.1523 0.964844V1.91986C53.4837 1.91986 52.9107 1.91986 52.2422 1.91986Z" fill="#009E9D"/>
<path d="M53.3882 100.382C27.8892 100.382 7.26074 79.6585 7.26074 54.255C7.26074 28.7559 27.9847 8.1275 53.3882 8.1275C78.7917 8.1275 99.5157 28.8514 99.5157 54.255C99.5157 79.6585 78.7917 100.382 53.3882 100.382ZM53.3882 10.8971C29.5127 10.8971 10.1258 30.284 10.1258 54.1595C10.1258 78.035 29.5127 97.4219 53.3882 97.4219C77.2637 97.4219 96.6506 78.035 96.6506 54.1595C96.6506 30.3795 77.2637 10.8971 53.3882 10.8971Z" fill="#65B9C3"/>
<path d="M66.3766 65.9062C65.7081 65.9062 65.1351 65.9062 64.4666 65.9062C57.2084 65.9062 49.8548 65.9062 42.5966 65.9062C39.9226 65.9062 39.1585 65.0467 39.1585 62.4681C39.1585 58.1705 39.1585 53.873 39.1585 49.3844C37.8215 49.3844 36.58 49.3844 35.1475 49.3844C35.1475 49.8619 35.1475 50.4349 35.1475 51.0079C35.1475 56.2605 35.1475 61.5131 35.1475 66.8612C35.1475 68.0072 35.052 69.2488 36.389 69.8218C36.4845 69.9173 36.4845 70.2993 36.58 70.4903C35.1475 70.6813 34.0969 69.9173 34.0014 68.2938C33.9059 67.1477 34.0014 66.0017 34.0014 64.7602C34.0014 58.5526 34.0014 52.3449 34.0014 46.2328C34.0014 43.3677 34.7654 42.6037 37.535 42.6037C38.0125 42.6037 38.3945 42.6037 39.1585 42.6037C39.1585 41.9352 39.1585 41.3622 39.1585 40.7892C39.1585 38.8791 40.2091 37.8286 42.1191 37.7331C44.3156 37.6376 46.5122 37.7331 48.7087 37.7331C55.5849 37.7331 62.3655 37.7331 69.2417 37.7331C72.0112 37.7331 72.8707 38.5926 72.8707 41.3622C72.8707 48.3338 72.8707 55.401 72.8707 62.3726C72.8707 65.2377 72.1067 66.0017 69.3372 66.0017C68.8597 66.0017 68.3821 66.0972 67.8091 66.0972C67.8091 66.4792 67.7136 66.6702 67.7136 66.9567C67.6181 70.3948 67.0451 70.8723 63.7025 70.8723C56.7309 70.8723 49.7593 70.8723 42.8831 70.8723C42.5011 70.8723 42.0236 70.8723 41.6416 70.8723C41.4506 70.7768 41.1641 70.5858 40.9731 70.3948C41.1641 70.2038 41.3551 69.9173 41.5461 69.9173C41.9281 69.8218 42.3101 69.9173 42.7876 69.9173C49.6638 69.9173 56.4444 69.9173 63.3205 69.9173C66.3766 69.7263 66.6631 69.4398 66.3766 65.9062ZM67.8091 43.7497C67.7136 43.9407 67.7136 44.1318 67.6181 44.3228C58.5454 44.3228 49.4728 44.3228 40.2091 44.3228C40.2091 44.9913 40.2091 45.4688 40.2091 45.8508C40.2091 51.2944 40.2091 56.8335 40.2091 62.2771C40.2091 64.3782 40.5911 64.7602 42.6921 64.7602C51.4783 64.7602 60.36 64.7602 69.1462 64.7602C71.3427 64.7602 71.6292 64.3782 71.6292 62.2771C71.6292 55.3055 71.6292 48.4293 71.6292 41.4577C71.6292 39.1657 71.3427 38.8791 69.0507 38.8791C60.4555 38.8791 51.7648 38.8791 43.1696 38.8791C40.3046 38.8791 40.1136 39.0701 40.2091 42.0307C40.2091 42.3172 40.3046 42.6037 40.3046 43.0812C40.9731 43.0812 41.5461 43.0812 42.1191 43.0812C48.8042 43.0812 55.4894 43.0812 62.1745 43.0812C63.607 43.0812 65.1351 43.0812 66.5676 43.0812C67.1406 43.1767 67.4271 43.5587 67.8091 43.7497ZM35.1475 47.8563C36.4845 47.8563 37.726 47.8563 38.9675 47.8563C38.9675 46.5193 38.9675 45.2778 38.9675 44.0362C35.3385 43.4632 34.7654 44.0362 35.1475 47.8563Z" fill="#009E9D"/>
<path d="M37.3439 43.8452C36.5799 44.8002 35.9114 45.3732 35.9114 45.8508C36.0069 46.3283 36.7709 47.1878 37.2484 47.1878C37.7259 47.1878 38.5854 46.4238 38.6809 45.9463C38.6809 45.4687 38.0124 44.8957 37.3439 43.8452Z" fill="#009E9D"/>
<path d="M55.9668 51.199C51.9558 51.199 47.9447 51.199 43.9336 51.199C42.6921 51.199 42.3101 50.817 42.4056 49.6709C42.5011 46.2329 41.8326 46.6149 45.4616 46.6149C53.0063 46.6149 60.4554 46.6149 68.0001 46.6149C69.4326 46.6149 69.9101 47.0924 69.8146 48.5249C69.7191 51.6765 70.1011 51.2945 67.0451 51.2945C63.416 51.199 59.6914 51.199 55.9668 51.199ZM68.5731 47.7609C60.1689 47.7609 51.9558 47.7609 43.6471 47.7609C43.6471 48.5249 43.6471 49.1934 43.6471 49.9574C52.0513 49.9574 60.2644 49.9574 68.5731 49.9574C68.5731 49.1934 68.5731 48.5249 68.5731 47.7609Z" fill="#009E9D"/>
<path d="M48.3267 62.4681C46.8942 62.4681 45.4617 62.4681 44.1246 62.4681C43.1696 62.4681 42.7876 62.1816 42.7876 61.2266C42.8831 58.9345 42.7876 56.547 42.7876 54.255C42.7876 53.2999 43.1696 53.0134 44.0291 53.0134C46.9897 53.0134 49.8547 53.0134 52.8153 53.0134C53.7703 53.0134 54.0568 53.3954 54.0568 54.255C54.0568 56.547 54.0568 58.9345 54.0568 61.2266C54.0568 62.1816 53.6748 62.4681 52.8153 62.4681C51.1918 62.4681 49.7592 62.4681 48.3267 62.4681ZM43.9336 54.1595C43.9336 56.547 43.9336 58.839 43.9336 61.1311C46.9897 61.1311 49.8547 61.1311 52.7198 61.1311C52.7198 58.7435 52.7198 56.4515 52.7198 54.1595C49.7592 54.1595 46.8942 54.1595 43.9336 54.1595Z" fill="#009E9D"/>
<path d="M61.6014 59.412C60.2643 59.412 58.8318 59.412 57.4948 59.412C57.2083 59.412 56.9218 59.03 56.6353 58.9345C56.9218 58.7435 57.2083 58.3615 57.4948 58.3615C60.2643 58.3615 63.0339 58.3615 65.8034 58.3615C66.09 58.3615 66.3765 58.7435 66.663 58.9345C66.3765 59.1255 66.09 59.412 65.8034 59.412C64.2754 59.412 62.9384 59.412 61.6014 59.412Z" fill="#009E9D"/>
<path d="M64.4663 54.0639C63.3203 54.0639 62.1743 54.0639 60.9328 54.0639C60.6463 54.0639 60.3597 53.6819 60.0732 53.4909C60.3597 53.2999 60.6463 53.0134 60.8373 53.0134C63.3203 53.0134 65.8034 53.0134 68.2864 53.0134C68.5729 53.0134 68.8594 53.2999 69.0504 53.4909C68.7639 53.6819 68.4774 54.0639 68.1909 54.0639C67.0449 54.1595 65.7079 54.0639 64.4663 54.0639Z" fill="#009E9D"/>
<path d="M59.8823 62.4681C59.0228 62.4681 58.1633 62.4681 57.3038 62.4681C57.0173 62.4681 56.8263 62.0861 56.6353 61.8951C56.9218 61.704 57.1128 61.4175 57.3993 61.4175C59.1183 61.4175 60.8373 61.4175 62.5564 61.4175C62.7474 61.4175 62.9384 61.704 63.1294 61.8951C62.9384 62.0861 62.7474 62.4681 62.4609 62.4681C61.6014 62.4681 60.7418 62.4681 59.8823 62.4681Z" fill="#009E9D"/>
<path d="M56.6353 55.592C58.6408 55.592 60.6463 55.592 62.6519 55.592C62.7474 57.0245 61.6969 56.6425 61.1238 56.547C59.5958 56.356 57.9723 57.12 56.6353 56.165C56.6353 55.974 56.6353 55.783 56.6353 55.592Z" fill="#009E9D"/>
<path d="M44.029 41.3621C43.456 41.7441 42.883 42.4126 42.31 42.3171C41.737 42.2216 41.355 41.4576 40.8774 40.9801C41.355 40.5026 41.8325 39.7386 42.31 39.7386C42.7875 39.6431 43.3605 40.4071 43.9335 40.7891C44.029 40.9801 44.029 41.1711 44.029 41.3621Z" fill="#009E9D"/>
<path d="M45.6525 43.0812C44.984 42.0307 44.3155 41.4577 44.411 40.9802C44.5065 40.5027 45.366 39.7386 45.8435 39.7386C46.321 39.7386 47.0851 40.5982 47.1806 41.0757C47.1806 41.5532 46.4165 42.1262 45.6525 43.0812Z" fill="#009E9D"/>
<path d="M49.0905 38.9746C49.759 39.9296 50.523 40.5981 50.4275 41.0757C50.332 41.5532 49.568 42.4127 48.995 42.3172C48.5175 42.3172 47.7535 41.5532 47.658 40.9802C47.658 40.5026 48.422 39.9296 49.0905 38.9746Z" fill="#009E9D"/>
<path d="M69.2415 55.8785C68.955 56.165 68.764 56.547 68.4775 56.547C67.236 56.6425 66.09 56.6425 64.8484 56.547C64.6574 56.547 64.3709 56.165 64.1799 55.974C64.3709 55.783 64.6574 55.592 64.8484 55.592C66.281 55.592 67.618 55.592 69.0505 55.592C69.146 55.592 69.2415 55.783 69.2415 55.8785Z" fill="#009E9D"/>
<path d="M37.344 43.8452C38.0125 44.8957 38.681 45.4687 38.681 45.9463C38.5855 46.4238 37.726 47.1878 37.2485 47.1878C36.771 47.1878 36.0069 46.3283 35.9114 45.8508C35.8159 45.3732 36.5799 44.8002 37.344 43.8452Z" fill="#009E9D"/>
</svg>
