<svg width="107" height="108" viewBox="0 0 107 108" fill="none" xmlns="http://www.w3.org/2000/svg">
<path d="M52.3451 107.45C51.6766 107.45 51.1036 107.45 50.4351 107.354L50.5306 106.399C51.1991 106.399 51.7721 106.495 52.4406 106.495L52.3451 107.45ZM54.2551 107.45V106.495C54.9236 106.495 55.4967 106.495 56.1652 106.399L56.2607 107.354C55.5922 107.45 54.9236 107.45 54.2551 107.45ZM48.525 107.259C47.8565 107.163 47.2835 107.163 46.615 107.068L46.7105 106.113C47.379 106.208 47.952 106.304 48.6205 106.304L48.525 107.259ZM58.0752 107.259L57.9797 106.304C58.6482 106.208 59.2212 106.208 59.8898 106.113L59.9853 107.068C59.4122 107.163 58.7437 107.163 58.0752 107.259ZM44.7049 106.781C44.0364 106.686 43.4634 106.59 42.7949 106.399L42.9859 105.444C43.5589 105.54 44.2274 105.635 44.8004 105.826L44.7049 106.781ZM61.8953 106.781L61.7043 105.826C62.3728 105.731 62.9458 105.635 63.5188 105.444L63.7098 106.399C63.2323 106.59 62.5638 106.686 61.8953 106.781ZM40.9804 106.017C40.3118 105.826 39.7388 105.731 39.0703 105.54L39.3568 104.584C39.9298 104.775 40.5983 104.871 41.1714 105.062L40.9804 106.017ZM65.7154 106.017L65.5244 105.062C66.0974 104.871 66.7659 104.775 67.3389 104.584L67.6254 105.54C66.9569 105.731 66.2884 105.922 65.7154 106.017ZM37.2558 105.062C36.6828 104.871 36.0143 104.68 35.4412 104.489L35.7278 103.629C36.3008 103.82 36.8738 104.011 37.5423 104.202L37.2558 105.062ZM69.4399 104.966L69.1534 104.011C69.7265 103.82 70.395 103.629 70.968 103.438L71.2545 104.298C70.586 104.584 70.013 104.775 69.4399 104.966ZM33.6267 103.725C33.0537 103.438 32.4807 103.247 31.8122 102.961L32.1942 102.101C32.7672 102.388 33.3402 102.579 33.9132 102.865L33.6267 103.725ZM73.069 103.725L72.687 102.865C73.26 102.674 73.833 102.388 74.4061 102.101L74.7881 102.961C74.215 103.247 73.642 103.438 73.069 103.725ZM30.0931 102.197C29.5201 101.91 28.9471 101.624 28.3741 101.337L28.8516 100.478C29.4246 100.764 29.9976 101.051 30.5706 101.337L30.0931 102.197ZM76.5071 102.197L76.1251 101.337C76.6981 101.051 77.2711 100.764 77.8441 100.478L78.3216 101.337C77.6531 101.624 77.0801 101.91 76.5071 102.197ZM26.6551 100.382C26.082 100.096 25.509 99.7139 25.0315 99.4274L25.509 98.6634C26.0821 99.0454 26.5596 99.3319 27.1326 99.6184L26.6551 100.382ZM79.9452 100.382L79.4677 99.5229C80.0407 99.2364 80.5182 98.8544 81.0912 98.5679L81.5687 99.3319C80.9957 99.7139 80.5182 100 79.9452 100.382ZM23.408 98.3769C22.835 97.9949 22.3575 97.6128 21.88 97.2308L22.453 96.4668C22.9305 96.8488 23.5035 97.2308 23.981 97.5173L23.408 98.3769ZM83.1922 98.2814L82.6192 97.5173C83.0967 97.1353 83.6697 96.7533 84.1473 96.4668L84.7203 97.2308C84.2428 97.6128 83.6697 97.9949 83.1922 98.2814ZM20.3519 96.0848C19.8744 95.7028 19.3969 95.3208 18.8239 94.8433L19.3969 94.0793C19.8744 94.4613 20.3519 94.8433 20.8294 95.3208L20.3519 96.0848ZM86.2483 96.0848L85.6753 95.3208C86.1528 94.9388 86.6303 94.5568 87.1078 94.0793L87.6808 94.8433C87.2988 95.2253 86.7258 95.6073 86.2483 96.0848ZM17.3914 93.6018C16.9139 93.1243 16.4364 92.7422 15.9588 92.2647L16.6274 91.5962C17.1049 92.0737 17.4869 92.4557 17.9644 92.9333L17.3914 93.6018ZM89.2089 93.5063L88.5403 92.8377C89.0178 92.4557 89.4954 91.9782 89.8774 91.5007L90.5459 92.1692C90.1639 92.6467 89.6864 93.1243 89.2089 93.5063ZM14.6218 90.9277C14.1443 90.4502 13.7623 89.9727 13.2848 89.4952L13.9533 88.8267C14.3353 89.3042 14.8128 89.7817 15.1948 90.2592L14.6218 90.9277ZM91.9784 90.8322L91.3099 90.1637C91.7874 89.6862 92.1694 89.2087 92.5514 88.7312L93.3154 89.3997C92.8379 89.8772 92.3604 90.3547 91.9784 90.8322ZM12.0433 87.9671C11.6613 87.4896 11.2792 87.0121 10.8972 86.4391L11.6613 85.8661C12.0433 86.3436 12.4253 86.8211 12.8073 87.2986L12.0433 87.9671ZM94.4615 87.9671L93.6974 87.3941C94.0795 86.9166 94.4615 86.4391 94.8435 85.8661L95.6075 86.4391C95.321 87.0121 94.8435 87.4896 94.4615 87.9671ZM9.75121 84.9111C9.3692 84.4336 8.9872 83.8606 8.70069 83.2875L9.46471 82.81C9.84671 83.383 10.1332 83.8606 10.5152 84.3381L9.75121 84.9111ZM96.849 84.9111L96.085 84.3381C96.467 83.8606 96.849 83.2875 97.1355 82.81L97.8995 83.2875C97.5175 83.8606 97.1355 84.4336 96.849 84.9111ZM7.65017 81.7595C7.36366 81.1865 6.98165 80.6135 6.69515 80.136L7.55467 79.6585C7.84117 80.2315 8.22318 80.709 8.50969 81.282L7.65017 81.7595ZM98.9501 81.664L98.0905 81.1865C98.377 80.6135 98.7591 80.136 99.0456 79.563L99.9051 80.0405C99.5231 80.6135 99.2366 81.1865 98.9501 81.664ZM5.83563 78.4169C5.54912 77.8439 5.26262 77.2709 4.97611 76.6979L5.83563 76.3159C6.12214 76.8889 6.40864 77.4619 6.69515 78.0349L5.83563 78.4169ZM100.765 78.3214L99.9051 77.8439C100.192 77.2709 100.478 76.6979 100.765 76.1249L101.624 76.5069C101.338 77.1754 101.051 77.7484 100.765 78.3214ZM4.2121 74.8834C3.92559 74.3104 3.73459 73.7374 3.54358 73.0688L4.4031 72.6868C4.5941 73.3553 4.78511 73.9284 5.07161 74.5014L4.2121 74.8834ZM102.388 74.7879L101.529 74.4059C101.815 73.8329 102.006 73.2598 102.197 72.6868L103.057 73.0688C102.866 73.6418 102.675 74.2149 102.388 74.7879ZM2.77957 71.3498C2.58856 70.7768 2.39756 70.1083 2.20656 69.5353L3.16157 69.2488C3.35258 69.8218 3.54358 70.4903 3.73459 71.0633L2.77957 71.3498ZM103.725 71.2543L102.866 70.9678C103.057 70.3948 103.248 69.7263 103.439 69.1533L104.394 69.4398C104.203 70.0128 103.916 70.5858 103.725 71.2543ZM1.72905 67.6252C1.53804 67.0522 1.44254 66.3837 1.25154 65.7152L2.20656 65.5242C2.30206 66.0972 2.49306 66.7657 2.68407 67.3387L1.72905 67.6252ZM104.871 67.5297L103.916 67.2432C104.107 66.6702 104.203 66.0017 104.394 65.4287L105.349 65.6197C105.158 66.2882 104.967 66.9567 104.871 67.5297ZM0.869528 63.9006C0.774026 63.2321 0.678524 62.6591 0.583022 61.9906L1.53804 61.8951C1.63354 62.5636 1.72905 63.1366 1.82455 63.8051L0.869528 63.9006ZM105.635 63.8051L104.68 63.6141C104.776 63.0411 104.871 62.3726 104.967 61.7041L105.922 61.7996C105.922 62.5636 105.826 63.1366 105.635 63.8051ZM0.296516 60.0806C0.201014 59.4121 0.201014 58.839 0.105512 58.1705L1.06053 58.075C1.06053 58.7435 1.15603 59.3166 1.25154 59.9851L0.296516 60.0806ZM106.208 59.9851L105.253 59.8896C105.349 59.2211 105.349 58.648 105.444 57.9795L106.399 58.075C106.304 58.7435 106.304 59.3166 106.208 59.9851ZM0.0100098 56.2605C0.0100098 55.592 0.0100098 55.019 0.0100098 54.3505H0.96503C0.96503 55.019 0.96503 55.592 0.96503 56.2605H0.0100098ZM106.495 56.165H105.54C105.54 55.4965 105.54 54.9235 105.54 54.2549V54.0639H106.495V54.2549C106.495 54.828 106.495 55.4965 106.495 56.165ZM0.96503 52.4404H0.0100098C0.0100098 51.7719 0.105512 51.1989 0.105512 50.5304L1.06053 50.6259C1.06053 51.1989 1.06053 51.7719 0.96503 52.4404ZM105.54 52.1539C105.54 51.4854 105.444 50.9124 105.444 50.2439L106.399 50.1484C106.495 50.8169 106.495 51.3899 106.495 52.0584L105.54 52.1539ZM1.25154 48.7158L0.296516 48.6203C0.392018 47.9518 0.48752 47.3788 0.48752 46.7103L1.44254 46.8058C1.44254 47.3788 1.34704 48.0473 1.25154 48.7158ZM105.253 48.3338C105.158 47.6653 105.062 47.0923 104.967 46.4238L105.922 46.3283C106.017 46.9968 106.113 47.5698 106.208 48.2383L105.253 48.3338ZM1.82455 44.8958L0.869528 44.7047C0.96503 44.0362 1.06053 43.4632 1.25154 42.7947L2.20656 42.9857C2.01555 43.6542 1.92005 44.3227 1.82455 44.8958ZM104.68 44.6092C104.585 44.0362 104.394 43.3677 104.298 42.7947L105.253 42.6037C105.349 43.2722 105.54 43.8452 105.635 44.5137L104.68 44.6092ZM2.58856 41.2667L1.63354 41.0757C1.82455 40.4072 1.92005 39.8341 2.11105 39.2611L3.06607 39.5476C2.87507 40.0252 2.77957 40.5982 2.58856 41.2667ZM103.916 40.9802C103.725 40.4072 103.63 39.7386 103.439 39.1656L104.394 38.8791C104.585 39.4521 104.776 40.1207 104.871 40.6937L103.916 40.9802ZM3.63908 37.6376L2.77957 37.3511C2.97057 36.7781 3.16157 36.1096 3.44808 35.5366L4.3076 35.9186C4.02109 36.3961 3.83009 37.0646 3.63908 37.6376ZM102.77 37.3511C102.579 36.7781 102.388 36.2051 102.102 35.5366L102.961 35.1546C103.152 35.7276 103.439 36.3961 103.63 36.9691L102.77 37.3511ZM4.97611 34.104L4.11659 33.722C4.4031 33.149 4.5941 32.576 4.88061 32.003L5.74013 32.385C5.45362 32.958 5.26262 33.531 4.97611 34.104ZM101.433 33.8175C101.147 33.2445 100.956 32.6715 100.669 32.0985L101.529 31.7165C101.815 32.2895 102.102 32.8625 102.293 33.4355L101.433 33.8175ZM6.59965 30.666L5.74013 30.1884C6.02663 29.6154 6.31314 29.0424 6.59965 28.4694L7.45916 28.9469C7.17266 29.5199 6.88615 30.0929 6.59965 30.666ZM99.8096 30.3795C99.5231 29.8064 99.2366 29.2334 98.9501 28.7559L99.8096 28.2784C100.096 28.8514 100.383 29.4244 100.669 29.9974L99.8096 30.3795ZM8.41418 27.3234L7.55467 26.8459C7.93667 26.2729 8.22318 25.7954 8.60519 25.2223L9.3692 25.6999C9.0827 26.2729 8.70069 26.8459 8.41418 27.3234ZM97.995 27.1324C97.7085 26.5594 97.3265 26.0819 96.9445 25.5089L97.7085 25.0313C98.0905 25.6044 98.377 26.0819 98.7591 26.6549L97.995 27.1324ZM10.4197 24.1718L9.65571 23.5988C10.0377 23.1213 10.4197 22.5483 10.8017 22.0708L11.5657 22.6438C11.1837 23.1213 10.8017 23.6943 10.4197 24.1718ZM95.894 23.9808C95.512 23.5033 95.13 22.9303 94.748 22.4528L95.512 21.8798C95.894 22.3573 96.276 22.9303 96.658 23.4078L95.894 23.9808ZM12.7118 21.1158L11.9478 20.5427C12.3298 20.0652 12.8073 19.5877 13.1893 19.1102L13.9533 19.7787C13.5713 20.1607 13.0938 20.6383 12.7118 21.1158ZM93.6019 21.0203C93.2199 20.5427 92.8379 20.0652 92.3604 19.5877L93.0289 18.9192C93.4109 19.3967 93.8885 19.8742 94.2705 20.3517L93.6019 21.0203ZM15.1948 18.3462L14.5263 17.6777C15.0038 17.2002 15.3858 16.7227 15.8633 16.3407L16.5319 17.0092C16.1498 17.3912 15.6723 17.8687 15.1948 18.3462ZM91.1189 18.1552C90.7369 17.6777 90.2594 17.2002 89.7819 16.8182L90.4504 16.1497C90.9279 16.6272 91.4054 17.0092 91.7874 17.4867L91.1189 18.1552ZM17.9644 15.6721L17.2959 15.0036C17.7734 14.5261 18.2509 14.1441 18.7284 13.7621L19.3014 14.5261C18.8239 14.8126 18.3464 15.2901 17.9644 15.6721ZM88.4448 15.4811C87.9673 15.0991 87.4898 14.6216 87.0123 14.2396L87.5853 13.4756C88.0628 13.8576 88.5403 14.3351 89.0178 14.7171L88.4448 15.4811ZM20.8294 13.1891L20.2564 12.4251C20.7339 12.0431 21.3069 11.6611 21.7845 11.2791L22.3575 12.0431C21.7845 12.4251 21.3069 12.8071 20.8294 13.1891ZM85.5798 13.0936C85.1023 12.7116 84.6248 12.3296 84.0517 11.9476L84.6248 11.1836C85.1023 11.5656 85.6753 11.9476 86.1528 12.3296L85.5798 13.0936ZM23.79 10.9926L23.217 10.2285C23.79 9.84653 24.2675 9.56002 24.8405 9.17801L25.318 9.94203C24.8405 10.324 24.363 10.6105 23.79 10.9926ZM82.5237 10.8015C82.0462 10.4195 81.4732 10.133 80.9002 9.75103L81.3777 8.98701C81.9507 9.36902 82.4282 9.65552 83.0012 10.0375L82.5237 10.8015ZM27.0371 8.98701L26.5596 8.12749C27.1326 7.84099 27.7056 7.45898 28.2786 7.17247L28.6606 8.03199C28.0876 8.3185 27.5146 8.7005 27.0371 8.98701ZM79.2767 8.89151C78.7036 8.605 78.2261 8.3185 77.6531 7.93649L78.1306 7.07697C78.7036 7.36348 79.2766 7.64998 79.8497 8.03199L79.2767 8.89151ZM30.3796 7.17247L29.9976 6.31295C30.5706 6.02645 31.1437 5.73994 31.7167 5.54894L32.0987 6.40846C31.4302 6.69496 30.8571 6.88597 30.3796 7.17247ZM75.9341 7.07697C75.3611 6.79046 74.7881 6.50396 74.215 6.31295L74.5971 5.45344C75.1701 5.73994 75.7431 6.02645 76.3161 6.21745L75.9341 7.07697ZM33.8177 5.64444L33.4357 4.78492C34.0087 4.59392 34.5817 4.30741 35.2502 4.11641L35.5367 4.97593C34.9637 5.26243 34.3907 5.45344 33.8177 5.64444ZM72.496 5.54894C71.923 5.35793 71.35 5.07143 70.6815 4.88042L70.968 4.02091C71.541 4.21191 72.2095 4.49842 72.7825 4.68942L72.496 5.54894ZM37.3513 4.40291L37.0648 3.4479C37.6378 3.25689 38.3063 3.06589 38.8793 2.87488L39.1658 3.8299C38.4973 4.02091 37.9243 4.21191 37.3513 4.40291ZM68.9624 4.30741C68.3894 4.11641 67.7209 3.92541 67.1479 3.7344L67.4344 2.77938C68.0074 2.97039 68.6759 3.16139 69.2489 3.35239L68.9624 4.30741ZM40.9804 3.35239L40.7894 2.39737C41.4579 2.20637 42.0309 2.11087 42.6994 2.01537L42.8904 2.97039C42.2219 3.06589 41.5534 3.25689 40.9804 3.35239ZM65.2379 3.35239C64.6649 3.16139 63.9963 3.06589 63.4233 2.97039L63.6143 2.01537C64.2828 2.11087 64.8559 2.30187 65.5244 2.39737L65.2379 3.35239ZM44.7049 2.58838L44.5139 1.63336C45.1824 1.53786 45.7555 1.44235 46.424 1.34685L46.5195 2.30187C45.9465 2.39737 45.2779 2.49288 44.7049 2.58838ZM61.6088 2.58838C61.0358 2.49288 60.3673 2.39737 59.6987 2.30187L59.7942 1.34685C60.4628 1.44235 61.0358 1.53786 61.7043 1.63336L61.6088 2.58838ZM48.4295 2.11087L48.334 1.15585C49.0025 1.06035 49.5755 1.06035 50.244 1.06035L50.3396 2.01537C49.671 2.01537 49.0025 2.11087 48.4295 2.11087ZM57.7887 2.11087C57.1202 2.01537 56.5472 2.01537 55.8787 2.01537V1.06035C56.5472 1.06035 57.1202 1.15585 57.7887 1.15585V2.11087ZM52.1541 1.91986V0.964844C52.5361 0.964844 52.9181 0.964844 53.3001 0.964844C53.5866 0.964844 53.8731 0.964844 54.0641 0.964844V1.91986C53.7776 1.91986 53.4911 1.91986 53.2046 1.91986C52.8226 1.91986 52.5361 1.91986 52.1541 1.91986Z" fill="#AB9CED"/>
<path d="M53.3003 100.382C27.8013 100.382 7.17285 79.6585 7.17285 54.255C7.17285 28.7559 27.8968 8.1275 53.3003 8.1275C78.7038 8.1275 99.4278 28.8514 99.4278 54.255C99.4278 79.6585 78.7038 100.382 53.3003 100.382ZM53.3003 10.8971C29.4248 10.8971 10.0379 30.284 10.0379 54.1595C10.0379 78.035 29.4248 97.4219 53.3003 97.4219C77.1758 97.4219 96.5627 78.035 96.5627 54.1595C96.5627 30.3795 77.1758 10.8971 53.3003 10.8971Z" fill="#AB9CED"/>
<path d="M46.7105 69.9172C47.7611 70.9677 48.7161 71.9227 49.6711 72.8777C50.2441 73.4507 50.2441 73.7372 49.6711 74.2148C49.1936 74.6923 48.6206 75.2653 48.1431 75.7428C47.6656 76.2203 47.3791 76.2203 46.9016 75.7428C46.042 74.8833 45.1825 74.0238 44.323 73.1642C43.941 72.7822 43.941 72.7822 43.75 73.2597C43.559 73.7372 43.2725 74.1193 43.0815 74.5968C42.8905 74.8833 42.6995 75.0743 42.3175 75.0743C41.9354 74.9788 41.7444 74.7878 41.7444 74.4058C41.5534 73.2597 41.2669 72.1137 41.0759 70.8722C40.9804 70.5857 40.8849 70.3947 40.5984 70.3947C39.8344 70.3947 39.0704 70.3947 38.3064 70.3947C38.0199 70.3947 38.0199 70.2992 38.0199 70.1082C38.0199 68.9622 38.0199 68.9622 39.0704 68.9622C39.5479 68.9622 40.0254 68.9622 40.4074 68.9622C40.6939 68.9622 40.7894 68.9622 40.6939 68.6756C40.5984 68.1981 40.5029 67.7206 40.4074 67.2431C40.3119 66.4791 40.5984 66.0971 41.3624 66.1926C41.8399 66.2881 42.3175 66.2881 42.795 66.3836C42.986 66.3836 43.0815 66.3836 43.0815 66.1926C43.0815 64.3781 43.0815 62.468 43.0815 60.6535C43.0815 60.367 42.8905 60.367 42.6995 60.367C41.3624 60.367 39.9299 60.367 38.5929 60.367C36.5873 60.367 34.5818 60.367 32.5763 60.367C32.2897 60.367 32.0987 60.367 32.0987 60.749C32.0987 63.3275 32.0987 65.9061 32.0987 68.4846C32.0987 68.7711 32.1942 68.8666 32.4808 68.8666C33.3403 68.8666 33.3403 68.8667 33.3403 69.7262C33.3403 70.2992 33.3403 70.2992 32.7673 70.2992C32.3853 70.2992 31.9077 70.2992 31.5257 70.2992C30.9527 70.2992 30.7617 70.0127 30.7617 69.5352C30.7617 66.2881 30.7617 63.041 30.7617 59.6985C30.7617 59.1254 31.0482 58.9344 31.6212 58.9344C32.6718 58.9344 33.7223 58.9344 34.7728 58.9344C35.0593 58.9344 35.2503 58.8389 35.2503 58.4569C35.2503 52.2493 35.2503 46.1372 35.2503 39.9296C35.2503 38.497 35.2503 36.969 35.2503 35.5365C35.2503 33.3399 36.9693 32.0984 38.6884 32.0984C50.1486 32.0984 61.5134 32.0984 72.9736 32.0984C74.8836 32.0984 76.3162 33.7219 76.3162 35.441C76.3162 44.0361 76.3162 52.6313 76.3162 61.131C76.3162 63.232 74.9791 64.5691 72.8781 64.5691C63.6144 64.5691 54.3507 64.5691 45.1825 64.5691C44.705 64.5691 44.6095 64.6646 44.6095 65.1421C44.6095 65.5241 44.6095 65.9061 44.6095 66.2881C44.6095 66.5746 44.6095 66.6701 44.896 66.6701C46.1375 66.8611 47.4746 67.0521 48.7161 67.2431C49.0981 67.3386 49.3846 67.4341 49.4801 67.8161C49.5756 68.1981 49.3846 68.4846 49.0026 68.6756C48.0476 69.2487 47.4746 69.5352 46.7105 69.9172ZM55.4012 33.7219C52.5362 33.7219 49.5756 33.7219 46.7105 33.7219C43.941 33.7219 41.0759 33.7219 38.3064 33.7219C37.0648 33.7219 36.3963 34.3904 36.3963 35.632C36.3963 36.587 36.3963 37.542 36.3963 38.4015C36.3963 38.7835 36.4918 38.879 36.8738 38.879C47.5701 38.879 58.3618 38.879 69.058 38.879C69.9175 38.879 69.9175 38.879 69.9175 39.7385C69.9175 40.4071 70.013 40.3116 69.3445 40.3116C58.4573 40.3116 47.6656 40.3116 36.7783 40.3116C36.3963 40.3116 36.3008 40.3116 36.3008 40.7891C36.3008 46.7102 36.3008 52.7268 36.3008 58.6479C36.3008 59.0299 36.3963 59.1255 36.7783 59.1255C38.9749 59.1255 41.1714 59.1255 43.4635 59.1255C44.132 59.1255 44.323 59.3165 44.323 59.985C44.323 61.0355 44.323 61.9905 44.323 63.041C44.323 63.3275 44.4185 63.5185 44.705 63.5185C53.9687 63.5185 63.2324 63.5185 72.5916 63.5185C73.8331 63.5185 74.5016 62.85 74.5016 61.6085C74.5016 59.412 74.5016 57.1199 74.5016 54.9234C74.5016 48.6202 74.5016 42.3171 74.5016 36.014C74.5016 35.441 74.4061 34.9634 73.9286 34.4859C73.5466 34.1039 72.9736 33.9129 72.4006 33.9129C66.8615 33.7219 61.1313 33.7219 55.4012 33.7219ZM42.604 72.1137C42.795 71.8272 42.795 71.6362 42.8905 71.4452C43.2725 70.6812 43.75 70.5857 44.323 71.2542C45.1825 72.1137 46.042 72.8777 46.8061 73.7372C47.3791 74.3103 47.3791 74.3103 48.0476 73.7372C48.2386 73.5462 48.2386 73.3552 48.0476 73.1642C47.0926 72.2092 46.042 71.2542 45.087 70.2037C44.6095 69.7262 44.705 69.2487 45.278 68.9622C45.5645 68.7711 45.851 68.6756 46.233 68.4846C44.8005 68.2936 43.4635 68.0071 42.031 67.8161C41.8399 67.8161 41.7444 67.7206 41.7444 68.0071C42.031 69.4397 42.3175 70.6812 42.604 72.1137Z" fill="#AB9CED"/>
<path d="M35.4413 70.4902C34.6772 70.4902 34.6772 70.4902 34.6772 69.7262C34.6772 69.0577 34.6772 69.0577 35.4413 69.0577C36.2053 69.0577 36.2053 69.0577 36.2053 69.7262C36.3008 70.4902 36.3008 70.4902 35.4413 70.4902Z" fill="#AB9CED"/>
<path d="M46.5196 49.0978C44.6095 49.0978 42.6995 49.0978 40.7895 49.0978C40.1209 49.0978 39.9299 48.8113 39.9299 48.1428C39.9299 46.5192 39.9299 44.9912 39.9299 43.3677C39.9299 42.6992 40.2164 42.4127 40.885 42.4127C44.705 42.4127 48.5251 42.4127 52.3452 42.4127C53.0137 42.4127 53.2047 42.6992 53.2047 43.3677C53.2047 44.9912 53.2047 46.5192 53.2047 48.1428C53.2047 48.8113 53.0137 49.0978 52.2497 49.0978C50.3396 49.0978 48.4296 49.0978 46.5196 49.0978ZM46.5196 47.6653C48.1431 47.6653 49.7666 47.6653 51.3902 47.6653C51.6767 47.6653 51.7722 47.5698 51.7722 47.2833C51.7722 46.2327 51.7722 45.1822 51.7722 44.2272C51.7722 43.9407 51.6767 43.8452 51.3902 43.8452C48.1431 43.8452 44.896 43.8452 41.649 43.8452C41.3625 43.8452 41.267 43.9407 41.267 44.2272C41.267 45.1822 41.267 46.2327 41.267 47.1878C41.267 47.5698 41.3625 47.6653 41.7445 47.6653C43.2725 47.6653 44.896 47.6653 46.5196 47.6653Z" fill="#AB9CED"/>
<path d="M68.1986 42.4127C70.1087 42.4127 71.5412 43.9407 71.5412 45.7552C71.5412 47.6653 70.0132 49.0978 68.1986 49.0978C66.3841 49.0978 64.8561 47.5698 64.8561 45.7552C64.7606 43.9407 66.2886 42.4127 68.1986 42.4127ZM70.1087 45.8507C70.1087 44.8002 69.2491 43.8452 68.1986 43.8452C67.0526 43.8452 66.1931 44.7047 66.1931 45.7552C66.1931 46.8057 67.0526 47.6653 68.1031 47.7608C69.2491 47.7608 70.1087 46.9013 70.1087 45.8507Z" fill="#AB9CED"/>
<path d="M59.0303 42.4127C60.9404 42.4127 62.3729 43.9407 62.3729 45.7552C62.3729 47.5698 60.8449 49.0978 59.0303 49.0978C57.1203 49.0978 55.6877 47.5698 55.6877 45.6597C55.6877 43.8452 57.1203 42.4127 59.0303 42.4127ZM57.0248 45.7552C57.0248 46.8057 57.8843 47.6653 58.9348 47.7608C59.9853 47.7608 60.9404 46.9013 60.9404 45.7552C60.9404 44.7047 60.0808 43.8452 58.9348 43.8452C57.8843 43.8452 57.0248 44.7047 57.0248 45.7552Z" fill="#AB9CED"/>
<path d="M60.1764 59.0301C58.7438 59.0301 57.4068 59.0301 55.9743 59.0301C55.5923 59.0301 55.5923 58.9346 55.5923 58.6481C55.5923 57.5975 55.5923 57.5975 56.6428 57.5975C59.2214 57.5975 61.7044 57.5975 64.283 57.5975C64.665 57.5975 64.7605 57.693 64.7605 58.075C64.7605 59.0301 64.7605 59.0301 63.8055 59.0301C62.4684 59.0301 61.3224 59.0301 60.1764 59.0301Z" fill="#AB9CED"/>
<path d="M64.4738 54.2548C65.7153 54.2548 66.9568 54.2548 68.1983 54.2548C68.4849 54.2548 68.5804 54.3503 68.5804 54.6368C68.5804 55.6874 68.5804 55.6874 67.5298 55.6874C65.2378 55.6874 63.0412 55.6874 60.7492 55.6874C60.4627 55.6874 60.3672 55.5919 60.3672 55.3053C60.3672 54.2548 60.3672 54.2548 61.4177 54.2548C62.4682 54.2548 63.4232 54.2548 64.4738 54.2548Z" fill="#AB9CED"/>
<path d="M59.5079 52.6313C58.2664 52.6313 57.1204 52.6313 55.8788 52.6313C55.5923 52.6313 55.4968 52.5358 55.4968 52.2493C55.4968 51.1988 55.4968 51.1988 56.5474 51.1988C58.7439 51.1988 60.9404 51.1988 63.137 51.1988C63.519 51.1988 63.519 51.2943 63.519 51.5808C63.519 52.6313 63.519 52.6313 62.564 52.6313C61.5135 52.6313 60.5584 52.6313 59.5079 52.6313Z" fill="#AB9CED"/>
<path d="M42.9859 38.2105C41.9354 38.2105 41.1714 37.4465 41.1714 36.396C41.1714 35.3454 41.9354 34.5814 42.9859 34.5814C44.0364 34.5814 44.8005 35.4409 44.8005 36.396C44.8005 37.351 44.0364 38.2105 42.9859 38.2105ZM43.4634 36.396C43.4634 36.205 43.3679 36.014 43.0814 36.014C42.7949 36.014 42.6994 36.1095 42.6994 36.396C42.6994 36.6825 42.8904 36.778 43.0814 36.778C43.2724 36.778 43.3679 36.587 43.4634 36.396Z" fill="#AB9CED"/>
<path d="M38.8792 38.2105C37.8287 38.2105 37.0647 37.4465 37.0647 36.396C37.0647 35.3454 37.9242 34.5814 38.8792 34.5814C39.8343 34.5814 40.6938 35.4409 40.6938 36.396C40.6938 37.351 39.9298 38.2105 38.8792 38.2105ZM39.3567 36.3005C39.2612 36.1095 39.1657 35.9184 38.9747 35.9184C38.6882 35.9184 38.5927 36.1095 38.5927 36.3005C38.5927 36.587 38.7837 36.6825 38.9747 36.6825C39.1657 36.778 39.2612 36.587 39.3567 36.3005Z" fill="#AB9CED"/>
<path d="M48.907 36.3961C48.907 37.4466 48.0474 38.2106 46.9969 38.2106C46.0419 38.2106 45.1824 37.3511 45.1824 36.3006C45.1824 35.3455 46.0419 34.486 47.0924 34.486C48.1429 34.5815 48.907 35.3455 48.907 36.3961ZM47.4744 36.3961C47.4744 36.1096 47.2834 36.0141 47.0924 36.0141C46.8059 36.0141 46.7104 36.2051 46.7104 36.3961C46.7104 36.5871 46.9014 36.7781 47.0924 36.7781C47.3789 36.7781 47.4744 36.5871 47.4744 36.3961Z" fill="#AB9CED"/>
<path d="M68.3894 51.1988C69.3444 51.1988 70.2994 51.1988 71.2544 51.1988C71.5409 51.1988 71.6364 51.2943 71.6364 51.5808C71.6364 52.6313 71.6364 52.6313 70.5859 52.6313C68.9624 52.6313 67.2433 52.6313 65.6198 52.6313C65.3333 52.6313 65.2378 52.5358 65.2378 52.2493C65.2378 51.1988 65.2378 51.1988 66.2883 51.1988C66.9568 51.1988 67.7208 51.1988 68.3894 51.1988Z" fill="#AB9CED"/>
<path d="M57.1202 54.2548C57.5977 54.2548 57.9797 54.2548 58.4573 54.2548C58.6483 54.2548 58.7438 54.3503 58.7438 54.5413C58.8393 55.6874 58.8393 55.6874 57.6932 55.6874C57.1202 55.6874 56.4517 55.6874 55.8787 55.6874C55.6877 55.6874 55.5922 55.5919 55.5922 55.4008C55.4967 54.2548 55.4967 54.2548 56.6427 54.2548C56.8337 54.2548 57.0247 54.2548 57.1202 54.2548Z" fill="#AB9CED"/>
<path d="M72.305 38.9746C73.069 38.9746 73.069 38.9746 73.069 39.7386C73.069 40.4071 73.069 40.4071 72.4005 40.4071C71.541 40.4071 71.541 40.4071 71.541 39.6431C71.541 38.9746 71.541 38.9746 72.305 38.9746Z" fill="#AB9CED"/>
<path d="M49.9577 51.9628C49.9577 52.6313 49.9577 52.6313 49.0982 52.7268C48.7162 52.7268 48.5251 52.7268 48.5251 52.2493C48.5251 51.2943 48.5251 51.2943 49.4802 51.2943C49.9577 51.1988 49.9577 51.1988 49.9577 51.9628Z" fill="#AB9CED"/>
<path d="M52.8227 54.8279C52.8227 55.5919 52.8227 55.5919 52.3452 55.5919C51.3901 55.5919 51.3901 55.5919 51.3901 55.1144C51.3901 54.1594 51.3901 54.1594 52.3452 54.1594C52.9182 54.0639 52.8227 53.9684 52.8227 54.8279Z" fill="#AB9CED"/>
<path d="M52.0587 58.3615C51.3901 58.3615 51.3901 58.3615 51.3901 57.693C51.3901 56.929 51.3901 56.929 52.1542 56.929C52.8227 56.929 52.8227 56.929 52.8227 57.5975C52.8227 58.3615 52.8227 58.3615 52.0587 58.3615Z" fill="#AB9CED"/>
<path d="M70.8724 55.6874C70.1084 55.6874 70.1084 55.6874 70.1084 54.9233C70.1084 54.2548 70.1084 54.2548 70.7769 54.2548C71.6364 54.2548 71.6364 54.2548 71.6364 55.0188C71.6364 55.6874 71.6364 55.6874 70.8724 55.6874Z" fill="#AB9CED"/>
<path d="M49.1937 61.0356C48.5251 61.0356 48.5251 61.0356 48.5251 60.367C48.5251 59.603 48.5251 59.603 49.2892 59.603C49.9577 59.603 49.9577 59.603 49.9577 60.2715C49.9577 61.0356 49.9577 61.0356 49.1937 61.0356Z" fill="#AB9CED"/>
<path d="M40.503 55.4965C40.2165 55.401 39.7389 55.6875 39.8344 55.019C39.9299 54.064 39.8344 54.064 40.312 54.064C41.267 54.064 41.267 54.064 41.267 54.5415C41.267 55.4965 41.267 55.4965 40.503 55.4965Z" fill="#AB9CED"/>
<path d="M52.8227 51.9628C52.8227 52.6314 52.8227 52.6313 51.8676 52.6313C51.3901 52.6313 51.3901 52.6313 51.3901 51.6763C51.3901 50.8168 52.0587 51.2943 52.3452 51.2943C52.8227 51.1988 52.8227 51.1033 52.8227 51.9628Z" fill="#AB9CED"/>
<path d="M46.3284 51.1988C47.0924 51.1988 46.9969 51.1988 47.0924 52.0583C47.0924 52.4403 46.9969 52.6313 46.5194 52.6313C45.6599 52.6313 45.6599 52.6313 45.6599 51.9628C45.6599 51.1988 45.6599 51.1988 46.3284 51.1988Z" fill="#AB9CED"/>
<path d="M40.5984 52.6313C39.9299 52.6313 39.9299 52.6313 39.9299 51.9628C39.9299 51.1988 39.9299 51.1988 40.6939 51.1988C41.3625 51.1988 41.3625 51.1988 41.3625 51.8673C41.3625 52.6313 41.3625 52.6313 40.5984 52.6313Z" fill="#AB9CED"/>
<path d="M41.267 57.693C41.267 58.457 41.267 58.457 40.503 58.457C39.8345 58.457 39.8345 58.457 39.8345 57.7885C39.8345 57.0245 39.8345 57.0245 40.5985 57.0245C41.267 56.929 41.267 56.929 41.267 57.693Z" fill="#AB9CED"/>
<path d="M46.4239 59.603C47.0924 59.603 47.0924 59.603 47.0924 60.2715C47.0924 61.0356 47.0924 61.0356 46.3284 61.0356C45.6599 61.0356 45.6599 61.0356 45.6599 60.367C45.6599 59.603 45.6599 59.603 46.4239 59.603Z" fill="#AB9CED"/>
<path d="M52.0584 59.603C52.727 59.603 52.727 59.603 52.727 60.2715C52.727 61.0356 52.727 61.0356 51.9629 61.0356C51.2944 61.0356 51.2944 61.0356 51.2944 60.367C51.3899 59.603 51.3899 59.603 52.0584 59.603Z" fill="#AB9CED"/>
<path d="M43.4634 51.1988C44.2275 51.1988 44.2275 51.1988 44.2275 51.8673C44.2275 52.6313 44.2275 52.6313 43.5589 52.6313C42.7949 52.6313 42.7949 52.6313 42.7949 51.9628C42.7949 51.1988 42.7949 51.1988 43.4634 51.1988Z" fill="#AB9CED"/>
</svg>
