<svg width="134" height="108" viewBox="0 0 134 108" fill="none" xmlns="http://www.w3.org/2000/svg">
<path opacity="0.5" d="M133.322 97.3037C133.322 102.704 128.922 107.104 123.522 107.104H11.0222C5.62217 107.104 1.22217 102.704 1.22217 97.3037V10.7037C1.22217 5.30369 5.62217 0.903687 11.0222 0.903687H123.422C128.822 0.903687 133.222 5.30369 133.222 10.7037V97.3037H133.322Z" fill="white"/>
<path opacity="0.5" d="M133.322 97.3037C133.322 102.704 128.922 107.104 123.522 107.104H11.0222C5.62217 107.104 1.22217 102.704 1.22217 97.3037V10.7037C1.22217 5.30369 5.62217 0.903687 11.0222 0.903687H123.422C128.822 0.903687 133.222 5.30369 133.222 10.7037V97.3037H133.322Z" stroke="black" stroke-width="0.5359" stroke-miterlimit="10"/>
<path d="M13.9222 53.3037C13.9222 53.2037 14.0222 53.1037 14.0222 52.9037C14.3222 51.2037 15.6222 49.8037 17.4222 49.5037C18.1222 49.4037 18.9222 49.4037 19.6222 49.7037C20.0222 49.8037 20.3222 50.0037 20.6222 50.3037C20.6222 50.3037 20.6222 50.3037 20.7222 50.4037C20.7222 50.2037 20.7222 49.9037 20.7222 49.6037C20.9222 49.6037 21.1222 49.6037 21.3222 49.6037C21.5222 49.6037 21.7222 49.6037 21.9222 49.6037C22.1222 49.6037 22.3222 49.6037 22.5222 49.6037C22.7222 49.6037 22.9222 49.6037 23.1222 49.6037C23.1222 49.7037 23.1222 49.7037 23.1222 49.8037C23.1222 52.3037 23.1222 54.7037 23.1222 57.2037C23.1222 57.8037 23.0222 58.3037 22.8222 58.8037C22.4222 59.7037 21.8222 60.3037 21.0222 60.7037C20.5222 60.9037 20.0222 61.1037 19.4222 61.1037C19.3222 61.1037 19.1222 61.1037 19.0222 61.2037C18.7222 61.2037 18.4222 61.2037 18.1222 61.2037H18.0222C17.8222 61.2037 17.5222 61.2037 17.3222 61.1037C16.6222 61.0037 16.0222 60.7037 15.4222 60.3037C14.8222 59.8037 14.3222 59.2037 14.2222 58.5037V58.4037C15.1222 58.4037 16.0222 58.4037 16.8222 58.4037C16.9222 58.6037 17.1222 58.8037 17.4222 58.9037C17.5222 58.9037 17.5222 59.0037 17.6222 59.0037C18.1222 59.2037 18.5222 59.2037 19.0222 59.1037C19.4222 59.0037 19.7222 58.9037 20.0222 58.6037C20.4222 58.3037 20.5222 57.8037 20.6222 57.4037C20.6222 57.3037 20.6222 57.1037 20.6222 57.0037L20.5222 57.1037C20.3222 57.3037 20.1222 57.5037 19.8222 57.6037C19.3222 57.9037 18.8222 58.0037 18.2222 58.0037C17.5222 58.0037 16.8222 57.9037 16.1222 57.5037C14.8222 56.8037 14.1222 55.7037 13.8222 54.3037C13.8222 54.2037 13.8222 54.2037 13.7222 54.1037C13.9222 53.8037 13.9222 53.5037 13.9222 53.3037ZM18.5222 55.8037C18.7222 55.8037 18.9222 55.8037 19.0222 55.7037C20.3222 55.4037 21.0222 54.0037 20.5222 52.9037C20.0222 51.7037 18.7222 51.2037 17.6222 51.7037C16.7222 52.1037 16.1222 53.1037 16.3222 54.0037C16.6222 55.1037 17.5222 55.8037 18.5222 55.8037Z" fill="black"/>
<path d="M53.0221 46.9036C53.0221 47.0036 53.0221 47.0036 53.0221 47.1036C53.0221 48.1036 53.0221 49.2036 53.0221 50.2036C53.0221 50.3036 53.0221 50.3036 53.0221 50.4036C53.0221 50.4036 53.0221 50.4036 53.1221 50.4036C53.4221 50.0036 53.7221 49.7036 54.2221 49.6036C55.0221 49.4036 55.9221 49.4036 56.7221 49.8036C57.0221 49.9036 57.2221 50.1036 57.5221 50.4036C57.9221 50.9036 58.1221 51.4036 58.1221 51.9036C58.1221 52.2036 58.2221 52.5036 58.2221 52.9036C58.2221 54.5036 58.2221 56.0036 58.2221 57.6036C58.2221 57.7036 58.2221 57.7036 58.2221 57.8036C58.1221 57.8036 55.9221 57.8036 55.8221 57.8036C55.8221 57.7036 55.8221 57.7036 55.8221 57.6036C55.8221 56.2036 55.8221 54.7036 55.8221 53.3036C55.8221 53.0036 55.8221 52.7036 55.7221 52.5036C55.5221 52.0036 55.1221 51.7036 54.5221 51.7036C54.4221 51.7036 54.3221 51.7036 54.2221 51.7036C53.7221 51.8036 53.4221 52.1036 53.3221 52.6036C53.0221 52.7036 53.0221 52.9036 53.0221 53.2036C53.0221 54.6036 53.0221 56.1036 53.0221 57.5036C53.0221 57.6036 53.0221 57.6036 53.0221 57.7036C52.9221 57.7036 50.8221 57.7036 50.6221 57.7036C50.6221 54.1036 50.6221 50.5036 50.6221 47.0036C51.4221 46.9036 52.2221 46.9036 53.0221 46.9036Z" fill="black"/>
<path d="M122.022 54.4037L121.922 54.5037H121.822C120.022 54.5037 118.222 54.5037 116.422 54.5037C116.322 54.5037 116.322 54.5037 116.222 54.5037C116.222 54.6037 116.222 54.6037 116.222 54.7037C116.322 55.1037 116.522 55.3037 116.922 55.5037C117.322 55.8037 117.722 55.8037 118.222 55.8037C118.522 55.8037 118.822 55.7037 119.122 55.6037C119.222 55.5037 119.422 55.4037 119.522 55.3037C119.522 55.2037 119.622 55.2037 119.722 55.2037C119.922 55.2037 120.122 55.2037 120.422 55.2037C120.922 55.2037 121.422 55.2037 121.922 55.2037C122.022 55.2037 122.022 55.2037 122.122 55.2037C122.022 55.3037 122.022 55.5037 122.022 55.6037C121.622 56.5037 120.922 57.2037 120.022 57.6037C118.822 58.1037 117.622 58.1037 116.522 57.6037C115.422 57.1037 114.622 56.3037 114.222 55.2037C113.822 53.9037 113.922 52.7037 114.622 51.5037C115.322 50.4037 116.322 49.7037 117.522 49.6037C118.422 49.5037 119.322 49.6037 120.122 50.1037C121.122 50.6037 121.722 51.5037 122.022 52.5037C122.122 52.8037 122.222 53.1037 122.222 53.5037V53.6037C122.022 53.7037 122.022 54.0037 122.022 54.4037ZM119.622 52.8037C119.522 52.4037 119.422 52.1037 119.122 51.9037C118.722 51.5037 118.122 51.4037 117.522 51.5037C117.022 51.6037 116.622 51.9037 116.322 52.4037C116.222 52.5037 116.222 52.7037 116.222 52.8037C117.322 52.8037 118.422 52.8037 119.622 52.8037Z" fill="black"/>
<path d="M112.922 46.9036C112.922 47.0036 112.922 47.0036 112.922 47.1036C112.922 50.6036 112.922 54.1036 112.922 57.5036V57.6036C112.822 57.6036 110.522 57.6036 110.322 57.6036C110.322 54.0036 110.322 50.4036 110.322 46.9036C111.122 46.9036 112.022 46.9036 112.922 46.9036Z" fill="black"/>
<path d="M13.9221 54.0037C13.9221 54.1037 13.9221 54.1037 14.0221 54.2037C14.2221 55.6037 15.0221 56.7037 16.3221 57.4037C16.9221 57.7037 17.6221 57.9037 18.4221 57.9037C19.0221 57.9037 19.5221 57.8037 20.0221 57.5037C20.3221 57.4037 20.5221 57.2037 20.7221 57.0037L20.8221 56.9037C20.8221 57.1037 20.8221 57.2037 20.8221 57.3037C20.7221 57.8037 20.5221 58.2037 20.2221 58.5037C19.9221 58.8037 19.5221 58.9037 19.2221 59.0037C18.7221 59.1037 18.3221 59.0037 17.8221 58.9037C17.7221 58.9037 17.7221 58.8037 17.6221 58.8037C17.4221 58.7037 17.2221 58.5037 17.0221 58.3037C16.1221 58.3037 15.2221 58.3037 14.4221 58.3037V58.4037C14.6221 59.2037 15.0221 59.8037 15.6221 60.2037C16.2221 60.6037 16.8221 60.9037 17.5221 61.0037C17.7221 61.0037 18.0221 61.1037 18.2221 61.1037H18.3221C16.9221 61.1037 15.5221 61.1037 14.1221 61.1037C13.9221 58.8037 13.9221 56.4037 13.9221 54.0037Z" fill="white"/>
<path d="M61.8222 46.9036C61.8222 47.5036 61.8222 48.0036 61.8222 48.6036C61.8222 48.7036 61.8222 48.7036 61.8222 48.8036C61.7222 48.8036 59.4222 48.8036 59.2222 48.8036C59.2222 48.2036 59.2222 47.6036 59.2222 46.9036C60.1222 46.9036 61.0222 46.9036 61.8222 46.9036Z" fill="black"/>
<path d="M102.722 56.9036C102.722 58.1036 102.722 59.2036 102.722 60.4036C101.922 60.4036 101.122 60.4036 100.322 60.4036C100.322 60.3036 100.322 49.8036 100.322 49.6036C101.122 49.6036 101.922 49.6036 102.722 49.6036C102.722 49.8036 102.722 50.1036 102.722 50.4036C102.722 50.4036 102.822 50.4036 102.822 50.3036C103.222 49.8036 103.822 49.6036 104.422 49.5036C105.822 49.3036 107.022 49.6036 108.122 50.5036C109.122 51.4036 109.522 52.5036 109.522 53.8036C109.422 55.8036 108.022 57.4036 106.222 57.8036C105.422 58.0036 104.622 58.0036 103.822 57.7036C103.322 57.5036 103.022 57.3036 102.722 56.9036C102.722 56.9036 102.722 57.0036 102.722 56.9036ZM102.622 53.6036C102.622 53.8036 102.622 53.9036 102.722 54.1036C103.022 55.3036 104.222 56.0036 105.522 55.6036C106.622 55.2036 107.222 54.1036 106.922 53.0036C106.622 51.9036 105.522 51.2036 104.322 51.5036C103.322 51.8036 102.722 52.7036 102.622 53.6036Z" fill="black"/>
<path d="M43.0221 56.9037C43.0221 58.1037 43.0221 59.2037 43.0221 60.3037C42.2221 60.3037 41.4221 60.3037 40.6221 60.3037C40.6221 56.7037 40.6221 53.1037 40.6221 49.6037C40.7221 49.6037 42.9221 49.6037 43.0221 49.6037C43.0221 49.8037 43.0221 50.1037 43.0221 50.3037C43.0221 50.3037 43.0221 50.3037 43.1221 50.3037C43.5221 49.9037 44.0221 49.6037 44.5221 49.5037C46.8221 48.9037 49.2221 50.4037 49.7221 52.7037C50.2221 55.1037 48.6221 57.3037 46.3221 57.8037C45.6221 57.9037 44.9221 57.9037 44.2221 57.6037C43.8221 57.5037 43.5221 57.2037 43.2221 56.9037C43.1221 57.0037 43.1221 57.0037 43.0221 56.9037ZM47.3221 53.6037C47.3221 53.4037 47.3221 53.1037 47.2221 52.9037C46.9221 51.9037 45.8221 51.3037 44.7221 51.5037C43.4221 51.8037 42.7221 53.0037 43.1221 54.2037C43.4221 55.2037 44.5221 55.9037 45.6221 55.6037C46.6221 55.5037 47.3221 54.6037 47.3221 53.6037Z" fill="black"/>
<path d="M71.9221 49.6036C72.7221 49.6036 73.5221 49.6036 74.3221 49.6036C74.3221 49.9036 74.3221 50.1036 74.3221 50.4036C74.3221 50.4036 74.4221 50.4036 74.4221 50.3036C74.8221 49.8036 75.4221 49.6036 76.0221 49.5036C77.3221 49.3036 78.5221 49.6036 79.6221 50.5036C80.4221 51.2036 80.9221 52.0036 81.0221 53.1036C81.2221 54.4036 80.8221 55.6036 80.0221 56.6036C79.3221 57.3036 78.5221 57.8036 77.5221 57.9036C76.9221 58.0036 76.2221 58.0036 75.6221 57.8036C75.2221 57.6036 74.8221 57.4036 74.4221 57.1036C74.4221 57.7036 74.4221 58.2036 74.4221 58.8036C74.4221 59.4036 74.4221 59.9036 74.4221 60.5036C73.6221 60.5036 72.8221 60.5036 72.0221 60.5036C71.9221 60.3036 71.9221 49.8036 71.9221 49.6036ZM76.5221 55.8036C76.6221 55.8036 76.8221 55.8036 76.9221 55.8036C78.1221 55.6036 78.9221 54.4036 78.6221 53.2036C78.3221 52.0036 77.1221 51.4036 75.9221 51.7036C74.8221 52.0036 74.2221 53.1036 74.4221 54.2036C74.6221 55.1036 75.6221 55.8036 76.5221 55.8036Z" fill="black"/>
<path d="M39.4221 49.6037C39.4221 52.3037 39.4221 55.0037 39.4221 57.7037C38.6221 57.7037 37.8221 57.7037 37.0221 57.7037C37.0221 57.5037 37.0221 57.3037 37.0221 57.1037C36.9221 57.1037 36.9221 57.2037 36.9221 57.2037C36.4221 57.5037 35.9221 57.7037 35.3221 57.8037C33.6221 58.1037 32.0221 57.4037 31.0221 56.0037C30.5221 55.2037 30.2221 54.3037 30.3221 53.4037C30.4221 51.4037 31.9221 49.8037 33.8221 49.5037C34.9221 49.3037 35.9221 49.5037 36.9221 50.1037C36.9221 50.1037 37.0221 50.1037 37.0221 50.2037C37.0221 50.1037 37.0221 50.0037 37.0221 49.9037C37.0221 49.8037 37.0221 49.7037 37.0221 49.6037C37.8221 49.6037 38.6221 49.6037 39.4221 49.6037ZM34.8221 55.8037C35.0221 55.8037 35.2221 55.8037 35.3221 55.7037C36.4221 55.4037 37.2221 54.3037 36.9221 53.1037C36.6221 51.9037 35.2221 51.2037 34.0221 51.6037C33.1221 52.0037 32.5221 52.9037 32.7221 53.9037C32.8221 55.0037 33.7221 55.8037 34.8221 55.8037Z" fill="black"/>
<path d="M84.3222 54.5036C84.3222 54.7036 84.4222 54.8036 84.5222 55.0036C84.7222 55.4036 85.0222 55.6036 85.4222 55.7036C85.9222 55.9036 86.5222 55.9036 87.0222 55.6036C87.2222 55.5036 87.4222 55.4036 87.5222 55.2036C87.5222 55.1036 87.6222 55.1036 87.6222 55.1036C88.0222 55.1036 88.4222 55.1036 88.8222 55.1036C89.1222 55.1036 89.4222 55.1036 89.8222 55.1036C89.8222 55.1036 89.9222 55.1036 90.0222 55.1036C90.0222 55.2036 90.0222 55.2036 89.9222 55.3036C89.5222 56.3036 88.9222 57.0036 87.9222 57.4036C86.8222 57.9036 85.6222 57.9036 84.5222 57.5036C83.1222 57.0036 82.2222 55.9036 81.9222 54.5036C81.7222 53.4036 81.8222 52.3036 82.4222 51.3036C83.1222 50.2036 84.0222 49.5036 85.3222 49.3036C86.2222 49.2036 87.1222 49.3036 87.9222 49.7036C88.9222 50.2036 89.5222 51.0036 89.9222 52.1036C90.1222 52.8036 90.2222 53.5036 90.1222 54.2036C88.1222 54.4036 86.3222 54.4036 84.3222 54.5036C84.4222 54.4036 84.4222 54.4036 84.3222 54.5036C84.4222 54.4036 84.4222 54.4036 84.3222 54.5036C84.3222 54.4036 84.3222 54.4036 84.3222 54.5036C84.3222 54.4036 84.3222 54.4036 84.3222 54.5036ZM87.7222 52.8036C87.6222 52.5036 87.5222 52.2036 87.3222 52.0036C86.8222 51.5036 86.2222 51.4036 85.5222 51.6036C85.0222 51.8036 84.6222 52.1036 84.4222 52.7036C84.4222 52.8036 84.4222 52.8036 84.4222 52.9036C85.4222 52.8036 86.5222 52.8036 87.7222 52.8036Z" fill="black"/>
<path d="M71.0221 52.8036C70.3221 52.8036 69.5221 52.8036 68.8221 52.8036C68.3221 51.8036 67.2221 51.4036 66.3221 51.6036C65.4221 51.9036 64.7221 52.7036 64.7221 53.7036C64.7221 54.7036 65.4221 55.5036 66.3221 55.7036C67.2221 55.9036 68.3221 55.6036 68.8221 54.5036C69.5221 54.5036 70.2221 54.5036 71.0221 54.5036C70.8221 56.0036 69.4221 57.8036 67.0221 57.9036C64.6221 58.0036 62.6221 56.1036 62.6221 53.7036C62.6221 51.3036 64.4221 49.4036 66.8221 49.4036C69.3221 49.4036 70.8221 51.3036 71.0221 52.8036Z" fill="black"/>
<path d="M24.3223 49.6036C25.2223 49.6036 26.0223 49.6036 26.9223 49.6036C26.9223 50.1036 26.9223 50.5036 26.9223 51.0036C26.9223 51.0036 26.9223 51.0036 26.9223 50.9036C27.2223 50.2036 27.8223 49.7036 28.5223 49.6036C28.9223 49.5036 29.4223 49.5036 29.8223 49.6036C29.8223 49.6036 29.8223 49.6036 29.9223 49.6036C29.9223 50.4036 29.9223 51.2036 29.9223 52.0036H29.8223C29.3223 51.9036 28.9223 51.9036 28.4223 52.0036C27.5223 52.2036 27.0223 52.8036 26.9223 53.7036C26.9223 53.8036 26.9223 53.8036 26.9223 53.9036C26.9223 55.1036 26.9223 56.4036 26.9223 57.6036C26.9223 57.7036 26.9223 57.7036 26.9223 57.8036C26.8223 57.8036 24.5223 57.8036 24.3223 57.8036C24.3223 55.0036 24.3223 52.3036 24.3223 49.6036Z" fill="black"/>
<path d="M61.8222 57.7035C60.9222 57.7035 60.0222 57.7035 59.2222 57.7035C59.2222 55.0035 59.2222 52.3035 59.2222 49.6035C60.1222 49.6035 61.0222 49.6035 61.8222 49.6035C61.8222 52.3035 61.8222 55.0035 61.8222 57.7035Z" fill="black"/>
<path d="M18.5221 55.8036C17.5221 55.8036 16.6221 55.1036 16.4221 54.1036C16.2221 53.1036 16.7221 52.2036 17.7221 51.8036C18.8221 51.3036 20.1221 51.8036 20.6221 53.0036C21.1221 54.2036 20.4221 55.5036 19.1221 55.8036C18.8221 55.7036 18.7221 55.7036 18.5221 55.8036Z" fill="white"/>
<path d="M119.622 52.8036C118.522 52.8036 117.422 52.8036 116.222 52.8036C116.222 52.6036 116.322 52.5036 116.322 52.4036C116.622 51.9036 117.022 51.7036 117.522 51.5036C118.122 51.4036 118.622 51.5036 119.122 51.9036C119.322 52.1036 119.522 52.4036 119.622 52.8036Z" fill="white"/>
<path d="M102.622 53.6035C102.622 52.6035 103.322 51.8035 104.322 51.5035C105.422 51.2035 106.522 51.9035 106.922 53.0035C107.222 54.1035 106.622 55.2035 105.522 55.6035C104.322 56.0035 103.022 55.3035 102.722 54.1035C102.722 54.0035 102.722 53.8035 102.622 53.6035Z" fill="white"/>
<path d="M47.3221 53.6035C47.3221 54.6035 46.6221 55.5035 45.6221 55.7035C44.4221 55.9035 43.4221 55.3035 43.1221 54.3035C42.7221 53.1035 43.4221 51.9035 44.7221 51.6035C45.8221 51.4035 46.8221 52.0035 47.2221 53.0035C47.3221 53.2035 47.3221 53.4035 47.3221 53.6035Z" fill="white"/>
<path d="M76.5221 55.8035C75.6221 55.8035 74.6221 55.2035 74.4221 54.1035C74.2221 53.0035 74.8221 51.9035 75.9221 51.6035C77.1221 51.3035 78.3221 51.9035 78.6221 53.1035C78.9221 54.4035 78.1221 55.5035 76.9221 55.7035C76.8221 55.7035 76.6221 55.8035 76.5221 55.8035Z" fill="white"/>
<path d="M34.8221 55.8037C33.7221 55.8037 32.8221 55.0037 32.7221 54.0037C32.5221 53.0037 33.1221 52.1037 34.0221 51.7037C35.2221 51.2037 36.5221 51.9037 36.9221 53.2037C37.2221 54.3037 36.5221 55.5037 35.3221 55.8037C35.2221 55.7037 35.0221 55.7037 34.8221 55.8037Z" fill="white"/>
<path d="M87.7223 52.8036C86.6223 52.8036 85.5223 52.8036 84.3223 52.8036C84.3223 52.7036 84.3223 52.7036 84.3223 52.6036C84.5223 52.1036 84.9223 51.7036 85.4223 51.5036C86.1223 51.3036 86.7223 51.4036 87.2223 51.9036C87.5223 52.2036 87.6223 52.4036 87.7223 52.8036Z" fill="white"/>
<path d="M95.2222 57.8036C97.5418 57.8036 99.4222 55.9232 99.4222 53.6036C99.4222 51.284 97.5418 49.4036 95.2222 49.4036C92.9026 49.4036 91.0222 51.284 91.0222 53.6036C91.0222 55.9232 92.9026 57.8036 95.2222 57.8036Z" fill="#5D5D5D"/>
</svg>
