<svg width="134" height="107" viewBox="0 0 134 107" fill="none" xmlns="http://www.w3.org/2000/svg">
<path opacity="0.5" d="M133.322 96.6939C133.322 102.094 128.922 106.494 123.522 106.494H11.0222C5.62217 106.494 1.22217 102.094 1.22217 96.6939V10.0939C1.22217 4.69395 5.62217 0.293945 11.0222 0.293945H123.422C128.822 0.293945 133.222 4.69395 133.222 10.0939V96.6939H133.322Z" fill="white"/>
<path opacity="0.5" d="M133.322 96.6939C133.322 102.094 128.922 106.494 123.522 106.494H11.0222C5.62217 106.494 1.22217 102.094 1.22217 96.6939V10.0939C1.22217 4.69395 5.62217 0.293945 11.0222 0.293945H123.422C128.822 0.293945 133.222 4.69395 133.222 10.0939V96.6939H133.322Z" stroke="black" stroke-width="0.5359" stroke-miterlimit="10"/>
<path d="M28.9221 70.0939C30.3221 70.0939 31.1221 70.9939 31.1221 72.7939V73.6939C31.1221 75.4939 30.4221 76.3939 28.9221 76.3939H23.8221V80.0939H23.1221V70.0939H28.9221ZM23.8221 75.5939H28.9221C29.9221 75.5939 30.3221 74.9939 30.3221 73.7939V72.8939C30.3221 71.6939 29.8221 71.0939 28.9221 71.0939H23.8221V75.5939V75.5939Z" fill="#F16553"/>
<path d="M24.4222 80.7939H22.5222V69.5939H28.9222C29.9222 69.5939 31.6222 69.9939 31.6222 72.8939V73.7939C31.6222 76.6939 29.9222 77.0939 28.9222 77.0939H24.4222V80.7939ZM24.4222 75.0939H28.9222C29.2222 75.0939 29.8222 75.0939 29.8222 73.7939V72.8939C29.8222 71.5939 29.3222 71.5939 28.9222 71.5939H24.4222V75.0939Z" fill="#F16553"/>
<path d="M37.2222 76.5939V80.2939H36.5222V70.0939H42.3222C43.7222 70.0939 44.5222 70.9939 44.5222 72.7939V73.6939C44.5222 75.4939 43.8222 76.3939 42.3222 76.3939H40.6222L44.4222 80.0939H43.2222L39.3222 76.3939H37.2222V76.5939ZM37.2222 71.0939V75.6939H42.3222C43.3222 75.6939 43.7222 75.0939 43.7222 73.8939V72.9939C43.7222 71.7939 43.2222 71.1939 42.3222 71.1939H37.2222V71.0939Z" fill="#F16553"/>
<path d="M45.9221 80.7939H43.1221L39.2221 77.0939H37.8221V80.7939H35.9221V69.5939H42.3221C43.3221 69.5939 45.0221 69.9939 45.0221 72.8939V73.7939C45.0221 76.6939 43.3221 77.0939 42.3221 77.0939H42.1221L45.9221 80.7939ZM37.8221 75.0939H42.3221C42.6221 75.0939 43.2221 75.0939 43.2221 73.7939V72.8939C43.2221 71.5939 42.7221 71.5939 42.3221 71.5939H37.8221V75.0939Z" fill="#F16553"/>
<path d="M57.8221 70.0939V71.0939H50.6221V74.7939H56.4221V75.6939H50.6221V79.3939H57.8221V80.2939H49.9221V70.0939H57.8221Z" fill="#F16553"/>
<path d="M58.4223 80.7939H49.3223V69.5939H58.4223V71.5939H51.2223V74.0939H57.0223V76.1939H51.2223V78.6939H58.4223V80.7939Z" fill="#F16553"/>
<path d="M71.2223 70.0939V71.0939H64.0223V74.7939H69.8223V75.6939H64.0223V80.2939H63.3223V70.0939H71.2223Z" fill="#F16553"/>
<path d="M64.6222 80.7939H62.7222V69.5939H71.8222V71.5939H64.6222V74.0939H70.4222V76.1939H64.6222V80.7939Z" fill="#F16553"/>
<path d="M84.6222 70.0939V71.0939H77.4222V74.7939H83.2222V75.6939H77.4222V79.3939H84.6222V80.2939H76.7222V70.0939H84.6222Z" fill="#F16553"/>
<path d="M85.2221 80.7939H76.1221V69.5939H85.2221V71.5939H78.0221V74.0939H83.8221V76.1939H78.0221V78.6939H85.2221V80.7939Z" fill="#F16553"/>
<path d="M98.0221 70.0939V71.0939H90.8221V74.7939H96.6221V75.6939H90.8221V79.3939H98.0221V80.2939H90.1221V70.0939H98.0221Z" fill="#F16553"/>
<path d="M98.6222 80.7939H89.5222V69.5939H98.6222V71.5939H91.4222V74.0939H97.2222V76.1939H91.4222V78.6939H98.6222V80.7939Z" fill="#F16553"/>
<path d="M106.922 75.1939L103.422 70.7939V70.0939H103.922L107.422 74.4939L110.922 70.0939H111.422V70.6939L107.922 75.0939L111.422 79.4939V80.0939H110.922L107.422 75.6939L103.922 80.0939H103.422V79.4939L106.922 75.1939Z" fill="#F16553"/>
<path d="M112.022 80.7939H110.622L107.422 76.7939L104.322 80.7939H102.922V79.3939L106.222 75.1939L102.922 70.9939V69.5939H104.322L107.422 73.5939L110.622 69.5939H112.022V70.9939L108.722 75.1939L112.022 79.3939V80.7939Z" fill="#F16553"/>
<path d="M67.6221 57.0939C76.1825 57.0939 83.1221 50.1543 83.1221 41.5939C83.1221 33.0335 76.1825 26.0939 67.6221 26.0939C59.0617 26.0939 52.1221 33.0335 52.1221 41.5939C52.1221 50.1543 59.0617 57.0939 67.6221 57.0939Z" fill="#F16553"/>
<path d="M67.6222 54.694C74.8571 54.694 80.7222 48.8289 80.7222 41.594C80.7222 34.359 74.8571 28.494 67.6222 28.494C60.3873 28.494 54.5222 34.359 54.5222 41.594C54.5222 48.8289 60.3873 54.694 67.6222 54.694Z" stroke="#F1F1F2" stroke-width="0.4254" stroke-miterlimit="10"/>
<path d="M70.6221 35.9939C70.5221 36.7939 71.2221 37.4939 72.0221 37.4939C72.8221 37.5939 73.5221 36.8939 73.5221 36.0939C73.6221 35.2939 72.9221 34.5939 72.1221 34.5939C71.3221 34.5939 70.6221 35.1939 70.6221 35.9939Z" fill="white"/>
<path d="M60.6221 35.4939C60.6221 36.4939 61.3221 37.2939 62.3221 37.2939C63.3221 37.2939 64.1221 36.5939 64.1221 35.5939C64.2221 34.5939 63.4221 33.8939 62.4221 33.7939C61.4221 33.6939 60.7221 34.4939 60.6221 35.4939Z" fill="white"/>
<path d="M71.3222 39.4939C70.3222 38.8939 69.4222 38.1939 68.4222 37.5939C68.0222 37.2939 67.7222 37.3939 67.4222 37.7939C66.7222 38.9939 65.9222 40.1939 65.1222 41.2939C64.9222 41.4939 64.8222 41.6939 64.7222 41.8939C64.8222 42.0939 64.9222 42.2939 65.0222 42.3939C65.9222 40.9939 66.8222 39.5939 67.7222 38.1939C68.7222 38.8939 69.8222 39.5939 70.8222 40.1939C70.8222 40.2939 70.7222 40.2939 70.7222 40.2939C70.0222 41.2939 69.4222 42.2939 68.7222 43.3939C68.6222 43.5939 68.5222 43.7939 68.4222 43.9939C68.6222 44.0939 68.7222 44.1939 68.8222 44.1939C68.9222 44.0939 68.9222 44.0939 68.9222 43.9939C69.7222 42.7939 70.5222 41.4939 71.3222 40.2939C71.8222 40.1939 71.7222 39.6939 71.3222 39.4939Z" fill="white"/>
<path d="M72.4221 44.8939C71.8221 44.2939 70.8221 44.1939 70.2221 44.7939C69.6221 45.3939 69.5221 46.3939 70.1221 46.9939L71.9221 48.9939C72.5221 49.5939 73.5221 49.6939 74.1221 49.0939C74.7221 48.4939 74.8221 47.4939 74.2221 46.8939L72.4221 44.8939Z" fill="white"/>
<path d="M63.9221 38.3939C63.9221 38.8939 64.2221 39.2939 64.7221 39.2939C65.2221 39.2939 65.6221 38.8939 65.6221 38.4939C65.6221 37.9939 65.3221 37.5939 64.8221 37.5939C64.3221 37.5939 63.9221 37.8939 63.9221 38.3939Z" fill="white"/>
<path d="M67.1222 40.4939C66.4222 41.4939 65.8222 42.5939 65.1222 43.5939C65.1222 43.6939 65.0222 43.6939 65.0222 43.6939C65.0222 43.3939 65.0222 43.1939 65.0222 42.8939C65.0222 42.6939 65.0222 42.5939 64.9222 42.4939C64.8222 42.2939 64.7222 42.1939 64.5222 42.1939C64.3222 42.1939 64.2222 42.2939 64.1222 42.3939C64.0222 42.4939 64.0222 42.6939 64.0222 42.7939C63.9222 43.6939 63.9222 44.4939 63.8222 45.3939L60.7222 49.3939H64.8222L65.9222 47.4939C66.1222 47.5939 66.2222 47.5939 66.4222 47.5939C66.8222 47.4939 67.1222 47.2939 67.4222 47.0939C67.9222 46.4939 68.4222 45.8939 68.9222 45.1939C69.1222 44.9939 69.0222 44.6939 68.8222 44.4939C68.6222 44.3939 68.4222 44.2939 68.2222 44.3939C68.3222 44.2939 68.4222 44.1939 68.4222 44.0939C68.6222 43.7939 68.5222 43.5939 68.2222 43.4939C68.0222 43.3939 67.8222 43.3939 67.7222 43.4939C67.8222 43.1939 67.9222 42.9939 67.7222 42.7939C67.5222 42.5939 67.3222 42.5939 67.0222 42.6939C67.1222 42.5939 67.1222 42.5939 67.1222 42.4939C67.4222 41.9939 67.7222 41.5939 68.0222 41.0939C68.1222 40.8939 68.1222 40.6939 68.0222 40.4939C67.9222 40.2939 67.7222 40.2939 67.6222 40.2939C67.4222 40.2939 67.2222 40.2939 67.1222 40.4939Z" fill="white"/>
</svg>
