<svg width="134" height="108" viewBox="0 0 134 108" fill="none" xmlns="http://www.w3.org/2000/svg">
<path opacity="0.5" d="M133.322 97.4487C133.322 102.849 128.922 107.249 123.522 107.249H11.0222C5.62217 107.249 1.22217 102.849 1.22217 97.4487V10.8487C1.22217 5.44871 5.62217 1.04871 11.0222 1.04871H123.422C128.822 1.04871 133.222 5.44871 133.222 10.8487V97.4487H133.322Z" fill="white"/>
<path opacity="0.5" d="M133.322 97.4487C133.322 102.849 128.922 107.249 123.522 107.249H11.0222C5.62217 107.249 1.22217 102.849 1.22217 97.4487V10.8487C1.22217 5.44871 5.62217 1.04871 11.0222 1.04871H123.422C128.822 1.04871 133.222 5.44871 133.222 10.8487V97.4487H133.322Z" stroke="black" stroke-width="0.5359" stroke-miterlimit="10"/>
<path d="M26.5221 58.1487L25.2221 59.1487C25.1221 59.0487 24.5221 58.4487 23.7221 57.5487C22.8221 56.6487 21.4221 55.1487 19.6221 53.1487V53.0487C19.9221 52.9487 20.2221 52.8487 20.6221 52.6487C21.0221 52.4487 21.4221 52.2487 21.7221 51.9487C21.9221 51.7487 22.2221 51.4487 22.3221 51.1487C22.5221 50.8487 22.6221 50.4487 22.6221 49.9487C22.6221 49.4487 22.5221 49.0487 22.2221 48.7487C21.9221 48.4487 21.6221 48.1487 21.1221 47.9487C20.7221 47.8487 20.3221 47.7487 19.9221 47.7487C19.5221 47.7487 19.1221 47.7487 18.7221 47.7487H18.2221H17.9221C17.9221 48.9487 17.9221 49.9487 17.9221 50.8487C17.9221 51.7487 17.9221 52.3487 17.9221 52.7487C17.9221 53.6487 17.9221 54.7487 17.9221 56.2487C17.9221 57.7487 17.9221 58.8487 17.9221 59.2487H16.2221C16.2221 58.8487 16.2221 57.9487 16.2221 56.8487C16.2221 55.7487 16.2221 54.4487 16.2221 52.8487V51.1487C16.2221 50.3487 16.2221 48.7487 16.1221 46.5487C16.2221 46.5487 16.5221 46.5487 17.1221 46.5487C17.7221 46.5487 18.2221 46.5487 18.7221 46.5487C19.3221 46.5487 19.8221 46.5487 20.4221 46.6487C20.9221 46.7487 21.5221 46.8487 22.0221 47.0487C22.7221 47.3487 23.2221 47.6487 23.6221 48.1487C24.0221 48.6487 24.2221 49.2487 24.2221 49.9487C24.2221 50.8487 23.9221 51.5487 23.3221 52.1487C22.7221 52.7487 22.2221 53.1487 21.7221 53.4487C22.6221 54.4487 23.6221 55.4487 24.7221 56.5487C25.8221 57.4487 26.4221 58.0487 26.5221 58.1487Z" fill="#0070B8"/>
<path d="M37.0222 59.1487C36.9222 59.1487 36.5222 59.1487 35.7222 59.1487C34.9222 59.1487 33.9222 59.1487 32.6222 59.1487C31.8222 59.1487 31.0222 59.1487 30.3222 59.1487C29.6222 59.1487 29.0222 59.1487 28.5222 59.1487C28.5222 58.7487 28.5222 57.9487 28.5222 56.7487C28.5222 55.5487 28.5222 54.2487 28.5222 52.9487C28.5222 52.2487 28.5222 51.2487 28.5222 50.1487C28.5222 48.9487 28.5222 47.7487 28.5222 46.4487C29.0222 46.4487 29.6222 46.4487 30.3222 46.4487C31.0222 46.4487 31.7222 46.4487 32.5222 46.4487C33.8222 46.4487 34.8222 46.4487 35.6222 46.4487C36.4222 46.4487 36.8222 46.4487 37.1222 46.4487V47.7487C36.9222 47.7487 36.4222 47.7487 35.7222 47.7487C34.9222 47.7487 34.0222 47.7487 32.9222 47.7487H31.4222H30.3222C30.3222 48.4487 30.3222 49.1487 30.3222 49.8487C30.3222 50.5487 30.3222 51.2487 30.3222 51.8487H31.4222H32.5222C33.7222 51.8487 34.7222 51.8487 35.6222 51.8487C36.5222 51.8487 37.0222 51.8487 37.2222 51.8487V53.1487C37.0222 53.1487 36.4222 53.1487 35.4222 53.1487C34.4222 53.1487 33.4222 53.1487 32.6222 53.1487H31.5222H30.4222C30.4222 54.3487 30.4222 55.3487 30.4222 56.0487C30.4222 56.7487 30.4222 57.3487 30.4222 57.8487C30.8222 57.8487 31.3222 57.8487 31.8222 57.8487C32.4222 57.8487 33.0222 57.8487 33.6222 57.8487C34.6222 57.8487 35.4222 57.8487 36.1222 57.8487C36.8222 57.8487 37.1222 57.8487 37.2222 57.8487V59.1487H37.0222Z" fill="#0070B8"/>
<path d="M62.5222 59.1487C62.4222 59.1487 62.0222 59.1487 61.2222 59.1487C60.4222 59.1487 59.4222 59.1487 58.1222 59.1487C57.3222 59.1487 56.5222 59.1487 55.8222 59.1487C55.1222 59.1487 54.5222 59.1487 54.0222 59.1487C54.0222 58.7487 54.0222 57.9487 54.0222 56.7487C54.0222 55.5487 54.0222 54.2487 54.0222 52.9487C54.0222 52.2487 54.0222 51.2487 54.0222 50.1487C54.0222 48.9487 54.0222 47.7487 54.0222 46.4487C54.5222 46.4487 55.1222 46.4487 55.8222 46.4487C56.5222 46.4487 57.2222 46.4487 58.0222 46.4487C59.3222 46.4487 60.3222 46.4487 61.1222 46.4487C61.9222 46.4487 62.3222 46.4487 62.6222 46.4487V47.7487C62.4222 47.7487 62.0222 47.7487 61.2222 47.7487C60.4222 47.7487 59.5222 47.7487 58.3222 47.7487H56.8222H55.7222C55.7222 48.4487 55.7222 49.1487 55.7222 49.8487C55.7222 50.5487 55.7222 51.2487 55.7222 51.8487H56.8222H57.9222C59.1222 51.8487 60.1222 51.8487 61.0222 51.8487C61.9222 51.8487 62.4222 51.8487 62.6222 51.8487V53.1487C62.4222 53.1487 61.8222 53.1487 60.8222 53.1487C59.8222 53.1487 58.8222 53.1487 58.0222 53.1487H56.9222H55.8222C55.8222 54.3487 55.8222 55.3487 55.8222 56.0487C55.8222 56.7487 55.8222 57.3487 55.8222 57.8487C56.2222 57.8487 56.7222 57.8487 57.2222 57.8487C57.8222 57.8487 58.3222 57.8487 59.0222 57.8487C60.0222 57.8487 60.8222 57.8487 61.5222 57.8487C62.2222 57.8487 62.5222 57.8487 62.6222 57.8487V59.1487H62.5222Z" fill="#0070B8"/>
<path d="M52.1221 46.9487C52.1221 47.0487 51.4221 48.4487 50.0221 51.2487C48.6221 54.0487 47.3221 56.6487 46.1221 59.2487H44.8221C43.4221 56.3487 42.1221 53.6487 40.9221 51.1487C39.6221 48.5487 39.0221 47.2487 38.9221 47.1487L40.4221 46.4487C40.4221 46.5487 41.0221 47.8487 42.2221 50.3487C43.3221 52.8487 44.5221 55.1487 45.5221 57.3487C46.6221 55.1487 47.7221 52.7487 48.9221 50.3487C50.1221 47.8487 50.7221 46.6487 50.7221 46.5487L52.1221 46.9487Z" fill="#0070B8"/>
<path d="M73.7222 56.6487C73.7222 57.1487 73.6222 57.4487 73.4222 57.8487C73.2222 58.1487 72.9222 58.4487 72.5222 58.6487C72.2222 58.8487 71.8222 58.9487 71.3222 59.0487C70.8222 59.1487 70.3222 59.1487 69.8222 59.1487C69.5222 59.1487 69.2222 59.1487 68.9222 59.1487C68.6222 59.1487 68.4222 59.1487 68.3222 59.1487L68.2222 58.2487C68.3222 58.2487 68.4222 58.2487 68.7222 58.2487C69.0222 58.2487 69.3222 58.2487 69.8222 58.2487C70.0222 58.2487 70.4222 58.2487 70.8222 58.1487C71.2222 58.0487 71.5222 58.0487 71.7222 57.9487C72.0222 57.8487 72.2222 57.6487 72.3222 57.4487C72.4222 57.2487 72.5222 57.0487 72.5222 56.7487C72.5222 56.4487 72.4222 56.2487 72.3222 56.0487C72.2222 55.8487 71.9222 55.6487 71.6222 55.4487C71.4222 55.3487 71.1222 55.1487 70.7222 55.0487C70.4222 54.8487 70.0222 54.7487 69.8222 54.5487C69.3222 54.2487 69.0222 53.9487 68.8222 53.6487C68.6222 53.3487 68.5222 52.9487 68.5222 52.5487C68.5222 52.1487 68.6222 51.8487 68.8222 51.5487C69.0222 51.2487 69.2222 51.0487 69.5222 50.7487C69.8222 50.5487 70.2222 50.3487 70.6222 50.2487C71.0222 50.1487 71.5222 50.0487 72.0222 50.0487C72.3222 50.0487 72.6222 50.0487 72.9222 50.0487C73.2222 50.0487 73.4222 50.0487 73.4222 50.0487L73.5222 50.9487C73.5222 50.9487 73.3222 50.9487 73.0222 50.9487C72.7222 50.9487 72.3222 50.9487 71.9222 50.9487C71.6222 50.9487 71.4222 50.9487 71.1222 51.0487C70.8222 51.1487 70.6222 51.1487 70.4222 51.3487C70.2222 51.4487 70.1222 51.5487 69.9222 51.7487C69.8222 51.9487 69.7222 52.1487 69.7222 52.3487C69.7222 52.5487 69.8222 52.7487 69.9222 52.9487C70.0222 53.1487 70.3222 53.3487 70.7222 53.5487C70.9222 53.6487 71.1222 53.7487 71.5222 53.9487C71.8222 54.0487 72.1222 54.2487 72.4222 54.4487C72.9222 54.7487 73.2222 55.0487 73.5222 55.3487C73.6222 55.8487 73.7222 56.2487 73.7222 56.6487Z" fill="#121718"/>
<path d="M81.6221 52.7487C80.7221 54.6487 79.7221 56.6487 78.7221 58.7487C77.7221 60.8487 77.2221 61.9487 77.1221 62.1487L76.1221 61.8487L77.5221 59.0487C77.5221 58.9487 77.2221 58.3487 76.6221 57.1487C76.1221 55.9487 75.4221 54.5487 74.6221 52.8487L75.6221 52.4487C76.1221 53.6487 76.6221 54.8487 77.2221 56.0487C77.7221 57.2487 78.0221 57.8487 78.0221 57.9487C78.0221 57.9487 78.3221 57.3487 78.8221 56.2487C79.3221 55.1487 79.9221 53.9487 80.4221 52.5487L81.6221 52.7487Z" fill="#121718"/>
<path d="M87.1223 57.1487C87.1223 57.4487 87.0223 57.7487 86.9223 58.0487C86.7223 58.3487 86.5223 58.5487 86.2223 58.6487C85.9223 58.8487 85.6223 58.9487 85.2223 59.0487C84.8223 59.1487 84.4223 59.1487 83.9223 59.1487C83.7223 59.1487 83.4223 59.1487 83.2223 59.1487C83.0223 59.1487 82.8223 59.1487 82.8223 59.1487V58.2487C82.8223 58.2487 83.0223 58.2487 83.3223 58.2487C83.6223 58.2487 83.9223 58.2487 84.1223 58.2487C84.3223 58.2487 84.5223 58.2487 84.7223 58.2487C85.0223 58.2487 85.2223 58.1487 85.3223 58.1487C85.5223 58.0487 85.7223 57.9487 85.8223 57.7487C85.9223 57.6487 86.0223 57.4487 86.0223 57.2487C86.0223 57.0487 86.0223 56.9487 85.9223 56.8487C85.8223 56.7487 85.7223 56.6487 85.5223 56.5487C85.3223 56.4487 85.1223 56.3487 84.7223 56.1487C84.4223 56.0487 84.1223 55.8487 83.9223 55.7487C83.6223 55.5487 83.4223 55.3487 83.2223 55.1487C83.0223 54.9487 83.0223 54.6487 83.0223 54.2487C83.0223 53.9487 83.1223 53.6487 83.3223 53.3487C83.5223 53.0487 83.7223 52.8487 84.1223 52.7487C84.4223 52.6487 84.7223 52.5487 85.0223 52.4487C85.3223 52.4487 85.7223 52.3487 86.0223 52.3487C86.3223 52.3487 86.5223 52.3487 86.7223 52.3487C86.9223 52.3487 87.0223 52.3487 87.0223 52.3487L87.1223 53.2487C87.1223 53.2487 86.9223 53.2487 86.7223 53.2487C86.5223 53.2487 86.2223 53.2487 85.9223 53.2487C85.7223 53.2487 85.5223 53.2487 85.3223 53.3487C85.1223 53.3487 84.9223 53.4487 84.8223 53.5487C84.6223 53.6487 84.5223 53.7487 84.4223 53.8487C84.3223 53.9487 84.3223 54.1487 84.3223 54.2487C84.3223 54.4487 84.4223 54.5487 84.5223 54.7487C84.6223 54.8487 84.8223 54.9487 84.9223 55.0487C85.1223 55.1487 85.3223 55.2487 85.7223 55.4487C86.0223 55.5487 86.3223 55.7487 86.4223 55.7487C86.7223 55.9487 87.0223 56.1487 87.1223 56.3487C87.0223 56.5487 87.1223 56.8487 87.1223 57.1487Z" fill="#121718"/>
<path d="M93.0223 58.3487L92.9223 59.1487C92.9223 59.1487 92.8223 59.1487 92.7223 59.1487C92.6223 59.1487 92.5223 59.1487 92.4223 59.1487C91.4223 59.1487 90.7223 58.9487 90.2223 58.5487C89.7223 58.1487 89.5223 57.6487 89.5223 56.8487C89.5223 56.3487 89.5223 55.8487 89.5223 55.2487C89.5223 54.6487 89.5223 54.0487 89.5223 53.1487H88.3223V52.3487H89.6223V50.7487H90.6223V52.3487H93.0223V53.1487H90.5223C90.5223 53.2487 90.5223 53.5487 90.5223 53.9487C90.5223 54.4487 90.5223 54.7487 90.5223 54.9487V55.6487V56.6487C90.5223 57.2487 90.7223 57.6487 91.0223 57.8487C91.3223 58.1487 91.8223 58.2487 92.5223 58.2487H92.8223H93.0223V58.3487Z" fill="#121718"/>
<path d="M99.1222 54.8487C99.0222 54.3487 98.8222 53.8487 98.5222 53.5487C98.2222 53.2487 97.8222 53.0487 97.2222 53.0487C96.7222 53.0487 96.2222 53.2487 95.9222 53.5487C95.6222 53.8487 95.3222 54.2487 95.2222 54.8487H99.1222ZM100.122 55.5487H95.1222C95.1222 56.0487 95.2222 56.4487 95.4222 56.8487C95.6222 57.2487 95.9222 57.5487 96.3222 57.8487C96.6222 58.0487 96.9222 58.1487 97.2222 58.2487C97.5222 58.3487 98.0222 58.3487 98.4222 58.3487C98.7222 58.3487 98.9222 58.3487 99.1222 58.3487C99.3222 58.3487 99.5222 58.3487 99.5222 58.3487L99.4222 59.2487C99.4222 59.2487 99.2222 59.2487 99.0222 59.2487C98.8222 59.2487 98.5222 59.2487 98.3222 59.2487C97.6222 59.2487 96.9222 59.1487 96.4222 58.9487C95.9222 58.7487 95.4222 58.5487 95.1222 58.2487C94.8222 57.9487 94.5222 57.6487 94.3222 57.2487C94.1222 56.8487 94.0222 56.3487 94.0222 55.8487C94.0222 55.3487 94.1222 54.9487 94.2222 54.5487C94.4222 54.1487 94.6222 53.7487 94.9222 53.4487C95.2222 53.1487 95.5222 52.9487 95.9222 52.7487C96.3222 52.5487 96.7222 52.5487 97.2222 52.5487C97.6222 52.5487 98.0222 52.6487 98.4222 52.7487C98.7222 52.8487 99.0222 53.0487 99.3222 53.3487C99.6222 53.6487 99.8222 53.9487 99.9222 54.3487C100.122 54.4487 100.122 54.9487 100.122 55.5487Z" fill="#121718"/>
<path d="M112.022 59.1487H110.922C110.922 59.1487 110.922 58.7487 110.922 58.2487C110.922 57.6487 110.922 57.1487 110.922 56.6487V55.6487V54.6487C110.922 54.1487 110.822 53.7487 110.622 53.5487C110.422 53.3487 110.122 53.2487 109.622 53.2487C109.322 53.2487 109.022 53.3487 108.722 53.4487C108.322 53.5487 107.922 53.7487 107.522 54.0487V54.1487V54.4487C107.522 54.8487 107.522 55.1487 107.522 55.5487C107.522 55.9487 107.522 56.2487 107.522 56.5487C107.522 57.2487 107.522 57.8487 107.522 58.3487C107.522 58.8487 107.522 59.1487 107.522 59.1487H106.422C106.422 59.1487 106.422 58.8487 106.422 58.3487C106.422 57.8487 106.422 57.2487 106.422 56.6487V55.6487V54.6487C106.422 54.4487 106.422 54.2487 106.322 54.0487C106.322 53.8487 106.222 53.7487 106.122 53.6487C106.022 53.5487 105.922 53.4487 105.722 53.3487C105.522 53.2487 105.322 53.2487 105.022 53.2487C104.722 53.2487 104.422 53.3487 104.122 53.4487C103.822 53.5487 103.322 53.8487 102.922 54.0487C102.922 54.1487 102.922 54.4487 102.922 54.8487C102.922 55.3487 102.922 55.7487 102.922 56.0487C102.922 56.5487 102.922 57.1487 102.922 57.9487C102.922 58.6487 102.922 59.0487 102.922 59.1487H102.022C102.022 59.1487 102.022 58.8487 102.022 58.3487C102.022 57.8487 102.022 57.0487 102.022 55.9487C102.022 55.5487 102.022 55.1487 102.022 54.4487C102.022 53.8487 102.022 53.1487 102.022 52.3487H103.122V53.0487C103.422 52.8487 103.822 52.6487 104.322 52.4487C104.822 52.2487 105.222 52.1487 105.522 52.1487C106.022 52.1487 106.322 52.2487 106.622 52.4487C106.922 52.6487 107.122 52.8487 107.322 53.1487C107.822 52.8487 108.322 52.6487 108.822 52.4487C109.222 52.2487 109.622 52.2487 109.922 52.2487C110.522 52.2487 111.022 52.4487 111.422 52.7487C111.822 53.1487 111.922 53.5487 111.922 54.1487C111.922 54.6487 111.922 55.0487 111.922 55.3487C111.922 55.6487 111.922 55.9487 111.922 56.3487C111.922 57.0487 111.922 57.7487 111.922 58.2487C112.022 58.8487 112.022 59.0487 112.022 59.1487Z" fill="#121718"/>
<path d="M118.322 57.1487C118.322 57.4487 118.222 57.7487 118.022 58.0487C117.822 58.3487 117.622 58.5487 117.322 58.6487C117.022 58.8487 116.722 58.9487 116.322 59.0487C115.922 59.1487 115.522 59.1487 115.022 59.1487C114.822 59.1487 114.522 59.1487 114.322 59.1487C114.122 59.1487 113.922 59.1487 113.922 59.1487V58.2487C113.922 58.2487 114.122 58.2487 114.422 58.2487C114.722 58.2487 115.022 58.2487 115.222 58.2487C115.422 58.2487 115.622 58.2487 115.822 58.2487C116.122 58.2487 116.322 58.1487 116.422 58.1487C116.622 58.0487 116.822 57.9487 116.922 57.7487C117.022 57.6487 117.122 57.4487 117.122 57.2487C117.122 57.0487 117.122 56.9487 117.022 56.8487C116.922 56.7487 116.822 56.6487 116.622 56.5487C116.422 56.4487 116.222 56.3487 115.822 56.1487C115.522 56.0487 115.222 55.8487 115.022 55.7487C114.722 55.5487 114.422 55.3487 114.322 55.1487C114.122 54.9487 114.122 54.6487 114.122 54.2487C114.122 53.9487 114.222 53.6487 114.422 53.3487C114.622 53.0487 114.822 52.8487 115.222 52.7487C115.522 52.6487 115.822 52.5487 116.122 52.4487C116.422 52.4487 116.822 52.3487 117.122 52.3487C117.422 52.3487 117.622 52.3487 117.822 52.3487C118.022 52.3487 118.122 52.3487 118.122 52.3487L118.222 53.2487C118.222 53.2487 118.022 53.2487 117.822 53.2487C117.522 53.2487 117.322 53.2487 117.022 53.2487C116.822 53.2487 116.622 53.2487 116.422 53.3487C116.222 53.3487 116.022 53.4487 115.922 53.5487C115.722 53.6487 115.622 53.7487 115.522 53.8487C115.422 53.9487 115.422 54.1487 115.422 54.2487C115.422 54.4487 115.522 54.5487 115.622 54.7487C115.722 54.8487 115.922 54.9487 116.022 55.0487C116.222 55.1487 116.422 55.2487 116.822 55.4487C117.122 55.5487 117.422 55.7487 117.522 55.7487C117.822 55.9487 118.122 56.1487 118.222 56.3487C118.322 56.5487 118.322 56.8487 118.322 57.1487Z" fill="#121718"/>
</svg>
