<svg width="108" height="110" viewBox="0 0 108 110" fill="none" xmlns="http://www.w3.org/2000/svg">
<path d="M12.1911 104.714H4.89111L3.29114 109.314H0.891113L7.59113 91.9143H9.59113L16.2911 109.314H13.8911L12.1911 104.714ZM5.59113 102.914H11.4911L8.49109 94.7143L5.59113 102.914Z" fill="#5D5D5D"/>
<path d="M17.6912 102.714C17.6912 100.714 18.1912 99.1143 19.0912 97.9143C19.9912 96.7143 21.2912 96.1143 22.7912 96.1143C24.2912 96.1143 25.4912 96.6143 26.3912 97.7143V90.9143H28.5912V109.314H26.5912L26.4911 107.914C25.5911 109.014 24.3912 109.514 22.7912 109.514C21.2912 109.514 20.0912 108.914 19.0912 107.714C18.1912 106.514 17.6912 104.914 17.6912 102.914V102.714ZM19.8912 103.014C19.8912 104.514 20.1912 105.614 20.7912 106.414C21.3912 107.214 22.1912 107.614 23.2912 107.614C24.6912 107.614 25.6912 107.014 26.3912 105.714V99.7143C25.6912 98.5143 24.6912 97.9143 23.2912 97.9143C22.1912 97.9143 21.3912 98.3143 20.7912 99.2143C20.1912 100.114 19.8912 101.314 19.8912 103.014Z" fill="#5D5D5D"/>
<path d="M31.4911 102.714C31.4911 101.414 31.6911 100.314 32.1911 99.3144C32.6911 98.3144 33.3911 97.5144 34.2911 97.0144C35.1911 96.4144 36.1911 96.2144 37.2911 96.2144C39.0911 96.2144 40.4911 96.8144 41.5911 98.0144C42.6911 99.2144 43.1911 100.814 43.1911 102.914V103.114C43.1911 104.414 42.9911 105.514 42.4911 106.514C41.9911 107.514 41.2911 108.314 40.3911 108.814C39.4911 109.314 38.4911 109.614 37.2911 109.614C35.4911 109.614 34.0911 109.014 32.9911 107.814C31.8911 106.614 31.3911 105.014 31.3911 103.014V102.714H31.4911ZM33.6911 103.014C33.6911 104.414 33.9911 105.614 34.6911 106.514C35.3911 107.414 36.2911 107.814 37.3911 107.814C38.4911 107.814 39.3911 107.414 40.0911 106.514C40.7911 105.614 41.0911 104.414 41.0911 102.814C41.0911 101.414 40.7911 100.214 40.0911 99.3144C39.3911 98.4144 38.4911 98.0144 37.3911 98.0144C36.2911 98.0144 35.3911 98.4144 34.7911 99.3144C34.0911 100.114 33.6911 101.314 33.6911 103.014Z" fill="#5D5D5D"/>
<path d="M56.9912 103.014C56.9912 105.014 56.4912 106.614 55.5912 107.814C54.6912 109.014 53.4912 109.614 51.8912 109.614C50.2912 109.614 48.9912 109.014 48.0912 107.914L47.9912 109.414H45.9912V90.9143H48.1912V97.8143C49.0912 96.7143 50.2912 96.1143 51.8912 96.1143C53.4912 96.1143 54.6912 96.7143 55.5912 97.9143C56.4912 99.1143 56.8912 100.714 56.8912 102.814V103.014H56.9912ZM54.7913 102.714C54.7913 101.214 54.4912 100.014 53.8912 99.2143C53.2912 98.4143 52.4912 98.0143 51.3912 98.0143C49.8912 98.0143 48.8913 98.7143 48.2913 100.014V105.614C48.9913 107.014 49.9912 107.614 51.4912 107.614C52.5912 107.614 53.3912 107.214 53.9912 106.414C54.5912 105.614 54.7913 104.414 54.7913 102.714Z" fill="#5D5D5D"/>
<path d="M65.1912 109.514C63.3912 109.514 61.9912 108.914 60.8912 107.814C59.7912 106.714 59.1912 105.114 59.1912 103.214V102.814C59.1912 101.514 59.3912 100.414 59.8912 99.4143C60.3912 98.4143 61.0911 97.6143 61.9911 97.0143C62.8911 96.4143 63.7912 96.1143 64.8912 96.1143C66.5912 96.1143 67.8912 96.7143 68.7912 97.8143C69.6912 98.9143 70.1912 100.514 70.1912 102.614V103.514H61.3912C61.3912 104.814 61.7911 105.814 62.4911 106.614C63.1911 107.414 64.0912 107.814 65.1912 107.814C65.9912 107.814 66.5912 107.614 67.1912 107.314C67.7912 107.014 68.1912 106.614 68.5912 106.014L69.9911 107.114C68.9911 108.714 67.3912 109.514 65.1912 109.514ZM64.8912 97.9143C63.9912 97.9143 63.2912 98.2143 62.5912 98.9143C61.8912 99.6143 61.5911 100.514 61.4911 101.614H67.9911V101.414C67.8911 100.314 67.5912 99.4143 67.0912 98.8143C66.5912 98.2143 65.8912 97.9143 64.8912 97.9143Z" fill="#5D5D5D"/>
<path d="M84.8911 98.5143L89.0911 91.8143H91.7911L86.2911 100.414L91.8911 109.214H89.1911L84.8911 102.414L80.5911 109.214H77.8911L83.5911 100.414L78.0911 91.8143H80.7911L84.8911 98.5143Z" fill="#5D5D5D"/>
<path d="M94.5911 109.314V91.9143H99.491C100.991 91.9143 102.391 92.2143 103.491 92.9143C104.591 93.6143 105.591 94.5143 106.191 95.8143C106.791 97.0143 107.191 98.5143 107.191 100.114V101.214C107.191 102.814 106.891 104.314 106.191 105.514C105.591 106.714 104.691 107.714 103.491 108.314C102.291 109.014 100.991 109.314 99.3911 109.314H94.5911V109.314ZM96.8911 93.7143V107.414H99.2911C101.091 107.414 102.491 106.814 103.391 105.714C104.391 104.614 104.891 103.014 104.891 101.014V100.014C104.891 98.0143 104.391 96.5143 103.491 95.4143C102.591 94.3143 101.291 93.7143 99.491 93.7143H96.8911Z" fill="#5D5D5D"/>
<path d="M82.3911 55.8143C82.3911 37.3143 82.3911 19.0143 82.3911 0.614258C63.4911 0.614258 44.6911 0.614258 25.8911 0.614258C25.8911 19.0143 25.8911 37.4143 25.8911 55.8143C44.7911 55.8143 63.4911 55.8143 82.3911 55.8143Z" fill="#2D001E"/>
<path d="M82.3911 55.8143C63.4911 55.8143 44.7911 55.8143 25.8911 55.8143C25.8911 37.4143 25.8911 19.1143 25.8911 0.614258C44.6911 0.614258 63.4911 0.614258 82.3911 0.614258C82.3911 19.0143 82.3911 37.3143 82.3911 55.8143ZM28.8911 3.41426C28.8911 20.0143 28.8911 36.6143 28.8911 53.1143C45.8911 53.1143 62.6911 53.1143 79.5911 53.1143C79.5911 36.5143 79.5911 20.0143 79.5911 3.41426C62.6911 3.41426 45.8911 3.41426 28.8911 3.41426Z" fill="#F825B9"/>
<path d="M28.8911 3.41431C45.8911 3.41431 62.6911 3.41431 79.5911 3.41431C79.5911 20.0143 79.5911 36.5143 79.5911 53.1143C62.6911 53.1143 45.8911 53.1143 28.8911 53.1143C28.8911 36.6143 28.8911 20.0143 28.8911 3.41431ZM70.0911 19.7143C69.4911 19.7143 69.1911 19.7143 68.7911 19.7143C62.3911 19.9143 58.4911 23.4143 57.5911 29.7143C56.5911 36.7143 60.4911 42.3143 66.8911 42.5143C69.1911 42.6143 71.5911 41.9143 73.8911 41.5143C74.8911 41.3143 75.0911 40.7143 75.0911 39.7143C74.9911 31.2143 75.0911 22.7143 74.9911 14.2143C74.9911 13.6143 74.9911 12.9143 74.9911 12.4143C73.1911 12.4143 71.5911 12.4143 69.9911 12.4143C70.0911 14.8143 70.0911 17.1143 70.0911 19.7143ZM45.0911 23.6143C43.3911 20.0143 41.8911 16.7143 40.2911 13.5143C39.9911 13.0143 39.3911 12.3143 38.8911 12.3143C37.4911 12.1143 35.9911 12.2143 34.2911 12.2143C34.6911 13.0143 34.8911 13.6143 35.1911 14.2143C37.1911 18.1143 39.0911 22.1143 41.1911 26.0143C41.6911 27.0143 41.6911 27.7143 41.1911 28.6143C38.9911 32.6143 36.9911 36.7143 34.8911 40.8143C34.6911 41.3143 34.4911 41.7143 34.2911 42.2143C39.2911 42.8143 39.2911 42.8143 41.2911 38.5143C41.6911 37.7143 41.9911 36.9143 42.3911 36.1143C43.1911 34.3143 43.9911 32.6143 44.8911 30.5143C46.6911 34.3143 48.2911 37.7143 49.9911 41.1143C50.1911 41.6143 50.7911 42.2143 51.2911 42.3143C52.7911 42.5143 54.2911 42.4143 56.0911 42.4143C55.5911 41.4143 55.2911 40.7143 54.8911 40.0143C52.8911 36.0143 50.7911 32.1143 48.7911 28.1143C48.2911 27.2143 48.2911 26.4143 48.7911 25.5143C50.6911 22.1143 52.3911 18.5143 54.2911 15.1143C54.7911 14.2143 55.1911 13.3143 55.7911 12.3143C54.4911 12.3143 53.4911 12.4143 52.4911 12.3143C51.0911 12.1143 50.3911 12.8143 49.8911 14.0143C48.1911 17.0143 46.6911 20.1143 45.0911 23.6143Z" fill="#2D001E"/>
<path d="M70.0912 19.7143C70.0912 17.1143 70.0912 14.8143 70.0912 12.4143C71.6912 12.4143 73.2912 12.4143 75.0912 12.4143C75.0912 13.0143 75.0912 13.6143 75.0912 14.2143C75.0912 22.7143 75.0912 31.2143 75.1912 39.7143C75.1912 40.7143 74.8912 41.3143 73.9912 41.5143C71.6912 41.9143 69.2912 42.6143 66.9912 42.5143C60.5912 42.3143 56.7912 36.7143 57.6912 29.7143C58.5912 23.4143 62.4912 19.9143 68.8912 19.7143C69.1912 19.7143 69.4912 19.7143 70.0912 19.7143ZM70.0912 24.2143C67.1912 23.2143 64.2912 24.8143 63.3912 27.1143C62.2912 29.8143 62.2912 32.6143 63.3912 35.3143C64.2912 37.5143 66.5912 38.7143 68.8912 38.2143C69.2912 38.1143 69.9912 37.4143 69.9912 37.0143C70.0912 32.8143 70.0912 28.5143 70.0912 24.2143Z" fill="#F8D3EB"/>
<path d="M45.0912 23.6142C46.6912 20.2142 48.1912 17.1142 49.5912 13.9142C50.0912 12.6142 50.7912 12.0142 52.1912 12.2142C53.1912 12.3142 54.1912 12.2142 55.4912 12.2142C54.8912 13.3142 54.4912 14.2142 53.9912 15.0142C52.1912 18.5142 50.3912 22.0142 48.4912 25.4142C47.9912 26.4142 47.9912 27.1142 48.4912 28.0142C50.5912 31.9142 52.5912 35.9142 54.5912 39.9142C54.8912 40.6142 55.2913 41.3142 55.7913 42.3142C53.9913 42.3142 52.4912 42.4142 50.9912 42.2142C50.4912 42.2142 49.8912 41.5142 49.6912 41.0142C47.9912 37.6142 46.3912 34.2142 44.5912 30.4142C43.6912 32.4142 42.8912 34.2142 42.0912 36.0142C41.6912 36.8142 41.3912 37.6142 40.9912 38.4142C38.9912 42.7142 38.9912 42.7142 33.9912 42.1142C34.1912 41.6142 34.3912 41.1142 34.5912 40.7142C36.6912 36.6142 38.7912 32.5142 40.8912 28.5142C41.3912 27.6142 41.3912 26.9142 40.8912 25.9142C38.8912 22.0142 36.8912 18.1142 34.8912 14.1142C34.5912 13.5142 34.3912 12.9142 33.9912 12.1142C35.6912 12.1142 37.0912 12.0142 38.5912 12.2142C39.0912 12.3142 39.7912 12.9142 39.9912 13.4142C41.8912 16.7142 43.3912 20.0142 45.0912 23.6142Z" fill="#F8D3EB"/>
<path d="M70.0912 24.2143C70.0912 28.5143 70.0911 32.8143 69.9911 37.1143C69.9911 37.5143 69.2912 38.2143 68.8912 38.3143C66.4912 38.8143 64.2912 37.6143 63.3912 35.4143C62.2912 32.7143 62.2912 30.0143 63.3912 27.2143C64.2912 24.8143 67.1912 23.1143 70.0912 24.2143Z" fill="#2D001E"/>
</svg>
