<svg width="136" height="108" viewBox="0 0 136 108" fill="none" xmlns="http://www.w3.org/2000/svg">
<path d="M12.0913 102.814H4.79126L3.19125 107.414H0.79126L7.49127 90.0142H9.49127L16.1913 107.414H13.7913L12.0913 102.814ZM5.49127 100.914H11.3913L8.39127 92.7142L5.49127 100.914Z" fill="#5D5D5D"/>
<path d="M19.1913 107.414V96.2142H17.1913V94.5142H19.1913V93.2142C19.1913 91.8142 19.5913 90.7142 20.2913 90.0142C20.9913 89.2142 22.0913 88.9142 23.3913 88.9142C23.8913 88.9142 24.3913 89.0142 24.8913 89.1142L24.7913 90.9142C24.3913 90.8142 23.9913 90.8142 23.5913 90.8142C22.8913 90.8142 22.2913 91.0142 21.8913 91.4142C21.4913 91.8142 21.2913 92.4142 21.2913 93.2142V94.6142H24.0913V96.3142H21.2913V107.514H19.1913V107.414Z" fill="#5D5D5D"/>
<path d="M29.6913 91.3142V94.4142H32.0913V96.1142H29.6913V104.114C29.6913 104.614 29.7913 105.014 29.9913 105.314C30.1913 105.614 30.5913 105.714 31.0913 105.714C31.3913 105.714 31.6913 105.714 32.1913 105.614V107.414C31.5913 107.614 31.0913 107.614 30.4913 107.614C29.4913 107.614 28.7913 107.314 28.2913 106.714C27.7913 106.114 27.4913 105.314 27.4913 104.214V96.2142H25.0913V94.5142H27.4913V91.4142H29.6913V91.3142Z" fill="#5D5D5D"/>
<path d="M39.9913 107.614C38.1913 107.614 36.7913 107.014 35.6913 105.914C34.5913 104.714 33.9913 103.214 33.9913 101.314V100.914C33.9913 99.6141 34.1913 98.5141 34.6913 97.5141C35.1913 96.5141 35.8913 95.7141 36.7913 95.1141C37.6913 94.5141 38.5913 94.2141 39.6913 94.2141C41.3913 94.2141 42.6913 94.8141 43.5913 95.9141C44.4913 97.0141 44.9913 98.6141 44.9913 100.714V101.614H36.1913C36.1913 102.914 36.5913 103.914 37.2913 104.714C37.9913 105.514 38.8913 105.914 39.9913 105.914C40.7913 105.914 41.3913 105.714 41.9913 105.414C42.4913 105.114 42.9913 104.714 43.3913 104.114L44.7913 105.214C43.7913 106.814 42.1913 107.614 39.9913 107.614ZM39.7913 96.0141C38.8913 96.0141 38.1913 96.3141 37.4913 97.0141C36.8913 97.7141 36.4913 98.6141 36.3913 99.7141H42.8913V99.5141C42.7913 98.4141 42.4913 97.5141 41.9913 96.9141C41.3913 96.3141 40.6913 96.0141 39.7913 96.0141Z" fill="#5D5D5D"/>
<path d="M53.8913 96.4141C53.5913 96.3141 53.1913 96.3141 52.7913 96.3141C51.2913 96.3141 50.3913 96.9141 49.7913 98.2141V107.414H47.5913V94.4141H49.7913V95.9141C50.4913 94.7141 51.5913 94.2141 52.8913 94.2141C53.2913 94.2141 53.6913 94.3141 53.8913 94.4141V96.4141Z" fill="#5D5D5D"/>
<path d="M72.1913 99.3142H64.5913V105.514H73.3913V107.414H62.2913V90.0142H73.2913V91.9142H64.5913V97.5142H72.1913V99.3142Z" fill="#5D5D5D"/>
<path d="M76.7913 107.414V96.2142H74.7913V94.5142H76.7913V93.2142C76.7913 91.8142 77.1913 90.7142 77.8913 90.0142C78.5913 89.2142 79.6913 88.9142 80.9913 88.9142C81.4913 88.9142 81.9913 89.0142 82.4913 89.1142L82.3913 90.9142C81.9913 90.8142 81.5913 90.8142 81.1913 90.8142C80.4913 90.8142 79.8913 91.0142 79.4913 91.4142C79.0913 91.8142 78.8913 92.4142 78.8913 93.2142V94.6142H81.6913V96.3142H78.8913V107.514H76.7913V107.414Z" fill="#5D5D5D"/>
<path d="M85.2913 107.414V96.2142H83.2913V94.5142H85.2913V93.2142C85.2913 91.8142 85.6913 90.7142 86.3913 90.0142C87.0913 89.2142 88.1913 88.9142 89.4913 88.9142C89.9913 88.9142 90.4913 89.0142 90.9913 89.1142L90.8913 90.9142C90.4913 90.8142 90.0913 90.8142 89.6913 90.8142C88.9913 90.8142 88.3913 91.0142 87.9913 91.4142C87.5913 91.8142 87.3913 92.4142 87.3913 93.2142V94.6142H90.1913V96.3142H87.3913V107.514H85.2913V107.414Z" fill="#5D5D5D"/>
<path d="M97.7913 107.614C95.9913 107.614 94.5913 107.014 93.4913 105.914C92.3913 104.714 91.7913 103.214 91.7913 101.314V100.914C91.7913 99.6141 91.9913 98.5141 92.4913 97.5141C92.9913 96.5141 93.6913 95.7141 94.5913 95.1141C95.4913 94.5141 96.3913 94.2141 97.4913 94.2141C99.1913 94.2141 100.491 94.8141 101.391 95.9141C102.291 97.0141 102.791 98.6141 102.791 100.714V101.614H93.9913C93.9913 102.914 94.3913 103.914 95.0913 104.714C95.7913 105.514 96.6913 105.914 97.7913 105.914C98.5913 105.914 99.1913 105.714 99.7913 105.414C100.291 105.114 100.791 104.714 101.191 104.114L102.591 105.214C101.591 106.814 99.9913 107.614 97.7913 107.614ZM97.5913 96.0141C96.6913 96.0141 95.9913 96.3141 95.2913 97.0141C94.6913 97.7141 94.2913 98.6141 94.1913 99.7141H100.691V99.5141C100.591 98.4141 100.291 97.5141 99.7913 96.9141C99.1913 96.3141 98.4913 96.0141 97.5913 96.0141Z" fill="#5D5D5D"/>
<path d="M110.691 105.814C111.491 105.814 112.191 105.614 112.791 105.114C113.391 104.614 113.691 104.014 113.791 103.314H115.891C115.891 104.014 115.591 104.714 115.091 105.414C114.591 106.114 113.991 106.614 113.191 107.014C112.391 107.414 111.591 107.614 110.691 107.614C108.891 107.614 107.491 107.014 106.491 105.814C105.491 104.614 104.891 103.014 104.891 101.014V100.614C104.891 99.3141 105.091 98.2141 105.591 97.2141C106.091 96.2141 106.691 95.5142 107.591 94.9142C108.491 94.4142 109.491 94.1141 110.691 94.1141C112.191 94.1141 113.391 94.5142 114.291 95.4142C115.291 96.3142 115.791 97.4141 115.791 98.8141H113.691C113.591 98.0141 113.291 97.3141 112.691 96.7141C112.091 96.2141 111.391 95.9142 110.591 95.9142C109.491 95.9142 108.591 96.3141 107.991 97.1141C107.391 97.9141 107.091 99.1141 107.091 100.614V101.014C107.091 102.514 107.391 103.614 107.991 104.414C108.591 105.414 109.491 105.814 110.691 105.814Z" fill="#5D5D5D"/>
<path d="M121.291 91.3142V94.4142H123.691V96.1142H121.291V104.114C121.291 104.614 121.391 105.014 121.591 105.314C121.791 105.614 122.191 105.714 122.691 105.714C122.991 105.714 123.291 105.714 123.791 105.614V107.414C123.191 107.614 122.691 107.614 122.091 107.614C121.091 107.614 120.391 107.314 119.891 106.714C119.391 106.114 119.091 105.314 119.091 104.214V96.2142H116.691V94.5142H119.091V91.4142H121.291V91.3142Z" fill="#5D5D5D"/>
<path d="M133.791 104.014C133.791 103.414 133.591 102.914 133.091 102.614C132.591 102.314 131.891 102.014 130.691 101.714C129.591 101.514 128.691 101.214 127.991 100.814C127.291 100.514 126.891 100.114 126.491 99.6141C126.091 99.1141 125.991 98.6142 125.991 97.9142C125.991 96.8142 126.391 95.9141 127.291 95.2141C128.191 94.5141 129.291 94.1141 130.691 94.1141C132.191 94.1141 133.391 94.5141 134.291 95.2141C135.191 96.0141 135.691 96.9141 135.691 98.1141H133.491C133.491 97.5141 133.191 97.0142 132.691 96.5142C132.191 96.1142 131.491 95.8141 130.791 95.8141C129.991 95.8141 129.391 96.0141 128.891 96.3141C128.391 96.7141 128.191 97.1141 128.191 97.7141C128.191 98.2141 128.391 98.6142 128.791 98.9142C129.191 99.2142 129.991 99.4141 131.091 99.7141C132.191 99.9141 133.091 100.214 133.791 100.614C134.491 100.914 134.991 101.414 135.291 101.814C135.591 102.314 135.791 102.914 135.791 103.614C135.791 104.814 135.291 105.714 134.391 106.414C133.491 107.114 132.291 107.414 130.791 107.414C129.791 107.414 128.791 107.214 127.991 106.814C127.191 106.414 126.591 105.914 126.091 105.314C125.591 104.714 125.391 103.914 125.391 103.214H127.591C127.591 103.914 127.891 104.514 128.491 105.014C129.091 105.414 129.791 105.714 130.691 105.714C131.491 105.714 132.191 105.514 132.691 105.214C133.591 105.014 133.791 104.514 133.791 104.014Z" fill="#5D5D5D"/>
<path d="M54.8912 52.1141C54.9912 52.3141 55.0912 52.5141 55.0912 52.7141C54.8912 52.6141 54.8912 52.4141 54.8912 52.1141Z" fill="#685494"/>
<path d="M79.0913 56.9142C87.8913 56.9142 96.5913 56.9142 105.391 56.9142C107.191 56.9142 107.691 56.4142 107.691 54.6142C107.591 37.2142 107.591 19.9142 107.691 2.51415C107.691 0.714155 107.191 0.114152 105.391 0.214152C87.8913 0.314152 70.3913 0.314152 52.8913 0.214152C51.0913 0.214152 50.5913 0.714155 50.5913 2.51415C50.6913 19.9142 50.6913 37.2142 50.5913 54.6142C50.5913 56.4142 51.0913 57.0142 52.8913 56.9142C61.5913 56.9142 70.3913 56.9142 79.0913 56.9142Z" fill="#F2D9F8"/>
<path d="M79.0913 56.9141C70.2913 56.9141 61.5913 56.9141 52.7913 56.9141C50.9913 56.9141 50.4913 56.3141 50.4913 54.6141C50.5913 37.2141 50.5913 19.9141 50.4913 2.51411C50.4913 0.714114 50.9913 0.214111 52.7913 0.214111C70.2913 0.314111 87.7913 0.314111 105.291 0.214111C107.091 0.214111 107.591 0.814114 107.591 2.51411C107.491 19.9141 107.491 37.2141 107.591 54.6141C107.591 56.4141 107.091 56.9141 105.291 56.9141C96.5913 56.9141 87.8913 56.9141 79.0913 56.9141ZM55.1913 51.9141C55.0913 52.2141 55.1913 52.4141 55.4913 52.5141C70.8913 52.5141 86.1913 52.5141 101.591 52.6141C103.391 52.6141 103.191 51.5141 103.191 50.4141C103.191 35.9141 103.191 21.3141 103.191 6.81412C103.191 5.01412 102.591 4.51411 100.891 4.51411C86.3913 4.61411 71.7913 4.61411 57.2913 4.51411C55.5913 4.51411 55.0913 4.91411 55.0913 6.71411C55.1913 21.7141 55.1913 36.8141 55.1913 51.9141Z" fill="#D99CE8"/>
<path d="M55.1913 51.9142C55.1913 36.8142 55.1913 21.8142 55.0913 6.71416C55.0913 4.91416 55.5913 4.51416 57.2913 4.51416C71.7913 4.61416 86.3913 4.61416 100.891 4.51416C102.591 4.51416 103.191 5.01416 103.191 6.81416C103.091 21.3142 103.191 35.9142 103.191 50.4142C103.191 51.6142 103.391 52.6142 101.591 52.6142C86.1913 52.5142 70.8913 52.5142 55.4913 52.5142C55.3913 52.3142 55.2913 52.1142 55.1913 51.9142ZM70.1913 14.8142C69.3913 14.8142 68.4913 14.9142 67.6913 14.8142C66.6913 14.7142 66.1913 15.2142 65.8913 16.1142C63.6913 23.5142 61.3913 30.9142 59.0913 38.3142C58.7913 39.2142 59.1913 39.4142 59.7913 39.5142C63.1913 40.3142 64.5913 39.5142 65.4913 36.1142C65.6913 35.4142 65.8913 34.6142 66.0913 33.9142C66.1913 33.5142 66.1913 33.1142 66.6913 33.1142C68.7913 33.1142 70.9913 32.8142 72.9913 33.2142C74.0913 33.4142 74.0913 35.3142 74.2913 36.4142C74.6913 38.9142 75.8913 40.1142 78.4913 39.5142C78.5913 39.5142 78.7913 39.5142 78.9913 39.5142C80.7913 39.7142 81.1913 39.1142 80.6913 37.3142C78.5913 30.9142 76.6913 24.5142 74.6913 18.1142C73.6913 14.8142 73.6913 14.8142 70.1913 14.8142ZM93.8913 32.2142C95.2913 32.2142 96.7913 32.1142 98.1913 32.2142C99.2913 32.3142 99.5913 31.8142 99.7913 30.8142C100.291 26.9142 98.0913 22.8142 94.8913 21.6142C90.8913 20.1142 86.3913 21.6142 84.2913 25.2142C82.3913 28.5142 82.1913 32.1142 83.9913 35.5142C85.6913 38.8142 88.7913 39.7142 92.2913 39.7142C93.8913 39.7142 95.4913 39.5142 97.0913 39.2142C98.4913 38.9142 98.7913 38.3142 98.5913 37.0142C98.2913 35.4142 97.8913 34.9142 96.0913 35.3142C93.6913 35.9142 91.1913 36.0142 89.1913 34.2142C88.6913 33.8142 88.2913 33.3142 88.4913 32.6142C88.6913 31.9142 89.3913 32.2142 89.8913 32.2142C91.0913 32.2142 92.4913 32.2142 93.8913 32.2142Z" fill="#31326C"/>
<path d="M70.1913 14.8142C73.5913 14.8142 73.6913 14.8142 74.6913 18.2142C76.6913 24.6142 78.5913 31.0142 80.6913 37.4142C81.2913 39.2142 80.7913 39.8142 78.9913 39.6142C78.7913 39.6142 78.6913 39.6142 78.4913 39.6142C75.8913 40.2142 74.6913 39.0142 74.2913 36.5142C74.0913 35.4142 74.0913 33.5142 72.9913 33.3142C70.9913 32.9142 68.7913 33.1142 66.6913 33.2142C66.1913 33.2142 66.1913 33.6142 66.0913 34.0142C65.8913 34.7142 65.6913 35.5142 65.4913 36.2142C64.5913 39.6142 63.0913 40.4142 59.7913 39.6142C59.0913 39.4142 58.7913 39.3142 59.0913 38.4142C61.3913 31.0142 63.6913 23.6142 65.8913 16.2142C66.1913 15.2142 66.5913 14.8142 67.6913 14.9142C68.4913 14.9142 69.3913 14.8142 70.1913 14.8142ZM69.7913 19.1142C69.1913 21.5142 68.6913 23.4142 68.1913 25.2142C67.0913 29.1142 67.0913 29.1142 71.1913 28.8142C72.4913 28.7142 72.4913 28.3142 72.1913 27.3142C71.3913 24.8142 70.6913 22.3142 69.7913 19.1142Z" fill="#D4AEF9"/>
<path d="M93.8913 32.2141C92.4913 32.2141 91.1913 32.2141 89.7913 32.2141C89.2913 32.2141 88.5913 31.9141 88.3913 32.6141C88.1913 33.2141 88.5913 33.8141 89.0913 34.2141C91.1913 36.0141 93.6913 35.8141 95.9913 35.3141C97.7913 34.9141 98.1913 35.4141 98.4913 37.0141C98.6913 38.3141 98.3913 38.9141 96.9913 39.2141C95.3913 39.5141 93.7913 39.7141 92.1913 39.7141C88.6913 39.7141 85.5913 38.8141 83.8913 35.5141C82.0913 32.1141 82.2913 28.6141 84.1913 25.2141C86.1913 21.6141 90.7913 20.2141 94.7913 21.6141C98.0913 22.8141 100.191 26.9141 99.6913 30.8141C99.5913 31.8141 99.1913 32.3141 98.0913 32.2141C96.7913 32.1141 95.2913 32.2141 93.8913 32.2141ZM91.4913 28.4141C91.8913 28.4141 92.2913 28.4141 92.5913 28.4141C93.1913 28.3141 94.0913 28.8141 94.3913 28.0141C94.6913 27.2141 94.1913 26.4141 93.5913 25.7141C93.0913 25.1141 92.3913 24.9141 91.5913 24.8141C89.9913 24.7141 88.0913 26.1141 88.1913 27.5141C88.3913 29.3141 89.9913 27.9141 90.8913 28.3141C91.0913 28.4141 91.2913 28.4141 91.4913 28.4141Z" fill="#D4AEF9"/>
<path d="M69.7912 19.1141C70.6912 22.2141 71.3912 24.8141 72.0912 27.3141C72.3912 28.3141 72.3912 28.8141 71.0912 28.8141C66.9912 29.1141 66.9912 29.1141 68.0912 25.2141C68.6912 23.4141 69.1912 21.5141 69.7912 19.1141Z" fill="#31326C"/>
<path d="M91.4913 28.4142C91.2913 28.4142 91.1913 28.5142 91.0913 28.4142C90.1913 28.0142 88.5913 29.4142 88.3913 27.6142C88.1913 26.2142 90.0912 24.8142 91.7912 24.9142C92.5912 24.9142 93.2912 25.2142 93.7912 25.8142C94.3912 26.4142 94.8913 27.2142 94.5913 28.1142C94.2913 28.9142 93.3912 28.4142 92.7912 28.5142C92.1912 28.4142 91.7913 28.4142 91.4913 28.4142Z" fill="#31326C"/>
</svg>
