<svg width="99" height="115" viewBox="0 0 99 115" fill="none" xmlns="http://www.w3.org/2000/svg">
<path d="M0.79126 109.314V91.9142H6.49121C8.39121 91.9142 9.79126 92.3142 10.7913 93.1142C11.7913 93.9142 12.1912 95.0142 12.1912 96.6142C12.1912 97.4142 11.9912 98.1142 11.4912 98.8142C10.9912 99.4142 10.3912 99.9142 9.59125 100.314C10.4912 100.614 11.2913 101.114 11.7913 101.814C12.2913 102.514 12.5912 103.414 12.5912 104.414C12.5912 106.014 12.0912 107.214 11.0912 108.114C10.0912 109.014 8.69126 109.414 6.79126 109.414H0.79126V109.314ZM3.09125 99.3142H6.59125C7.59125 99.3142 8.39121 99.0142 8.99121 98.5142C9.59121 98.0142 9.89124 97.3142 9.89124 96.4142C9.89124 95.4142 9.59125 94.7142 9.09125 94.3142C8.49125 93.9142 7.69125 93.6142 6.59125 93.6142H3.19122V99.3142H3.09125ZM3.09125 101.114V107.414H6.89124C7.99124 107.414 8.79124 107.114 9.39124 106.614C9.99124 106.014 10.2913 105.314 10.2913 104.314C10.2913 102.214 9.19124 101.214 6.89124 101.214H3.09125V101.114Z" fill="#5D5D5D"/>
<path d="M23.6912 109.314C23.5912 109.014 23.4912 108.614 23.3912 107.914C22.3912 109.014 21.0912 109.514 19.6912 109.514C18.3912 109.514 17.3912 109.114 16.5912 108.414C15.7912 107.714 15.3912 106.814 15.3912 105.714C15.3912 104.414 15.8912 103.314 16.8912 102.614C17.8912 101.914 19.3912 101.514 21.1912 101.514H23.3912V100.514C23.3912 99.7142 23.1912 99.1142 22.6912 98.7142C22.1912 98.2142 21.5912 98.0142 20.6912 98.0142C19.8912 98.0142 19.1912 98.2142 18.6912 98.6142C18.1912 99.0142 17.8912 99.5142 17.8912 100.014H15.6912C15.6912 99.4142 15.8912 98.7142 16.3912 98.1142C16.8912 97.5142 17.4913 97.0142 18.2913 96.7142C19.0913 96.3142 19.9912 96.2142 20.8912 96.2142C22.3912 96.2142 23.5912 96.6142 24.3912 97.3142C25.1912 98.0142 25.6912 99.1142 25.6912 100.414V106.414C25.6912 107.614 25.8912 108.514 26.1912 109.214V109.414H23.6912V109.314ZM19.9912 107.614C20.6912 107.614 21.3912 107.414 21.9912 107.114C22.5912 106.714 23.0912 106.314 23.3912 105.714V103.014H21.6912C18.9912 103.014 17.5912 103.814 17.5912 105.414C17.5912 106.114 17.7913 106.614 18.2913 107.014C18.7913 107.414 19.2912 107.614 19.9912 107.614Z" fill="#5D5D5D"/>
<path d="M31.3912 109.314H29.1912V90.9142H31.3912V109.314Z" fill="#5D5D5D"/>
<path d="M42.4912 105.914C42.4912 105.314 42.2913 104.814 41.7913 104.514C41.2913 104.214 40.5912 103.914 39.3912 103.614C38.2912 103.414 37.3912 103.114 36.6912 102.714C35.9912 102.414 35.5912 102.014 35.1912 101.514C34.7912 101.014 34.6912 100.514 34.6912 99.8142C34.6912 98.7142 35.0912 97.8142 35.9912 97.1142C36.8912 96.4142 37.9912 96.0142 39.3912 96.0142C40.8912 96.0142 42.0912 96.4142 42.9912 97.1142C43.8912 97.9142 44.3912 98.8142 44.3912 100.014H42.1912C42.1912 99.4142 41.8912 98.9142 41.3912 98.4142C40.8912 98.0142 40.1912 97.7142 39.4912 97.7142C38.6912 97.7142 38.0912 97.9142 37.5912 98.2142C37.0912 98.6142 36.8912 99.0142 36.8912 99.6142C36.8912 100.114 37.0912 100.514 37.4912 100.814C37.8912 101.114 38.6913 101.314 39.7913 101.614C40.8913 101.814 41.7912 102.114 42.4912 102.514C43.1912 102.814 43.6912 103.314 43.9912 103.714C44.2912 104.214 44.4912 104.814 44.4912 105.514C44.4912 106.714 43.9912 107.614 43.0912 108.314C42.1912 109.014 40.9912 109.314 39.4912 109.314C38.4912 109.314 37.4912 109.114 36.6912 108.714C35.8912 108.314 35.2913 107.814 34.7913 107.214C34.2913 106.614 34.0912 105.814 34.0912 105.114H36.2913C36.2913 105.814 36.5912 106.414 37.1912 106.914C37.7912 107.314 38.4912 107.614 39.3912 107.614C40.1912 107.614 40.8912 107.414 41.3912 107.114C42.2912 106.914 42.4912 106.414 42.4912 105.914Z" fill="#5D5D5D"/>
<path d="M55.5912 109.314C55.4912 109.014 55.3913 108.614 55.2913 107.914C54.2913 109.014 52.9912 109.514 51.5912 109.514C50.2912 109.514 49.2912 109.114 48.4912 108.414C47.6912 107.714 47.2913 106.814 47.2913 105.714C47.2913 104.414 47.7913 103.314 48.7913 102.614C49.7913 101.914 51.2912 101.514 53.0912 101.514H55.2913V100.514C55.2913 99.7142 55.0912 99.1142 54.5912 98.7142C54.0912 98.2142 53.4912 98.0142 52.5912 98.0142C51.7912 98.0142 51.0912 98.2142 50.5912 98.6142C50.0912 99.0142 49.7913 99.5142 49.7913 100.014H47.5912C47.5912 99.4142 47.7913 98.7142 48.2913 98.1142C48.7913 97.5142 49.3912 97.0142 50.1912 96.7142C50.9912 96.3142 51.8913 96.2142 52.7913 96.2142C54.2913 96.2142 55.4913 96.6142 56.2913 97.3142C57.0913 98.0142 57.5912 99.1142 57.5912 100.414V106.414C57.5912 107.614 57.7912 108.514 58.0912 109.214V109.414H55.5912V109.314ZM51.8912 107.614C52.5912 107.614 53.2912 107.414 53.8912 107.114C54.4912 106.714 54.9913 106.314 55.2913 105.714V103.014H53.5912C50.8912 103.014 49.4912 103.814 49.4912 105.414C49.4912 106.114 49.6912 106.614 50.1912 107.014C50.6912 107.414 51.1912 107.614 51.8912 107.614Z" fill="#5D5D5D"/>
<path d="M62.9912 96.3142L63.0912 97.7142C63.9912 96.6142 65.2912 96.0142 66.8912 96.0142C68.6912 96.0142 69.8912 96.7142 70.5912 98.1142C70.9912 97.5142 71.5913 97.0142 72.2913 96.6142C72.9913 96.2142 73.7912 96.0142 74.6912 96.0142C77.4912 96.0142 78.9912 97.5142 78.9912 100.514V109.214H76.8912V100.714C76.8912 99.8142 76.6913 99.1142 76.2913 98.6142C75.8913 98.1142 75.1912 97.9142 74.1912 97.9142C73.3912 97.9142 72.6912 98.1142 72.1912 98.6142C71.6912 99.1142 71.2913 99.8142 71.2913 100.614V109.214H68.8912V100.814C68.8912 98.9142 67.9912 98.0142 66.0912 98.0142C64.5912 98.0142 63.6912 98.6142 63.0912 99.9142V109.414H60.8912V96.4142H62.9912V96.3142Z" fill="#5D5D5D"/>
<path d="M82.4912 92.9141C82.4912 92.5141 82.5913 92.2141 82.7913 92.0141C82.9913 91.8141 83.2913 91.6141 83.7913 91.6141C84.1913 91.6141 84.5913 91.7141 84.7913 92.0141C84.9913 92.2141 85.0912 92.6141 85.0912 92.9141C85.0912 93.2141 84.9913 93.6141 84.7913 93.8141C84.5913 94.0141 84.1913 94.2141 83.7913 94.2141C83.3913 94.2141 82.9913 94.1141 82.7913 93.8141C82.5913 93.6141 82.4912 93.3141 82.4912 92.9141ZM84.7913 109.314H82.5912V96.3141H84.7913V109.314Z" fill="#5D5D5D"/>
<path d="M87.8912 102.714C87.8912 100.714 88.3913 99.1141 89.2913 97.9141C90.1913 96.7141 91.4912 96.1141 93.0912 96.1141C94.5912 96.1141 95.7912 96.6141 96.6912 97.6141L96.7913 96.3141H98.7913V114.214H96.5912V108.014C95.6912 109.014 94.4912 109.414 92.9912 109.414C91.3912 109.414 90.1913 108.814 89.2913 107.614C88.3913 106.414 87.8912 104.814 87.8912 102.814V102.714ZM90.0912 103.014C90.0912 104.514 90.3912 105.714 90.9912 106.514C91.5912 107.314 92.4912 107.814 93.4912 107.814C94.7912 107.814 95.7912 107.214 96.4912 106.114V99.8141C95.7912 98.7141 94.7912 98.1141 93.4912 98.1141C92.3912 98.1141 91.5912 98.5141 90.9912 99.4141C90.3912 100.014 90.0912 101.314 90.0912 103.014Z" fill="#5D5D5D"/>
<path d="M46.0912 2.21415C46.0912 1.81415 45.9912 1.31415 46.1912 1.11415C46.9912 0.314149 48.7913 0.114149 49.7913 0.614149C51.1913 1.31415 52.5912 2.01415 53.9912 2.71415C59.9912 5.41415 65.0912 9.31415 68.3912 15.1141C75.1912 26.9141 72.8913 46.4142 54.2913 53.5141C47.2913 56.1141 40.1912 56.8141 32.9912 54.5141C25.8912 52.3141 21.4913 47.5141 19.7913 40.2141C17.6913 30.7141 18.8912 21.6141 22.9912 12.8141C25.7912 6.71415 30.3912 3.11415 37.3912 2.81415C40.2912 2.91415 43.1912 2.51415 46.0912 2.21415ZM21.9912 30.6141C22.1912 32.9142 22.3913 35.1141 22.7913 37.4141C23.7913 43.7141 27.0912 48.1142 33.1912 50.2141C38.2912 52.0141 43.5912 52.5141 48.8912 51.7141C53.7912 50.9142 57.7912 48.7141 61.0912 45.0141C64.1912 41.5141 66.1913 37.5141 67.2913 33.0141C69.3913 24.0141 67.1912 13.3141 56.6912 8.51415C56.1912 8.31415 55.4913 8.41415 54.7913 8.41415C53.8913 8.31415 52.9912 8.41415 52.0912 8.11415C49.7912 7.31415 47.6912 6.01415 45.3912 5.51415C41.8912 4.61415 38.3912 5.81415 34.8912 6.81415C30.0912 8.21415 26.9912 11.4141 25.0912 15.9141C22.9912 20.6141 22.1912 25.5141 21.9912 30.6141Z" fill="black"/>
<path d="M21.9912 30.6141C22.1912 25.5141 22.9912 20.5141 24.9912 15.8141C26.8912 11.3141 29.9913 8.11411 34.7913 6.71411C38.2913 5.71411 41.7912 4.51411 45.4912 5.31411C47.7912 5.81411 49.8912 7.11411 52.1912 7.91411C52.9912 8.21411 53.9912 8.11411 54.8912 8.21411C55.4912 8.21411 56.1913 8.11411 56.7913 8.31411C67.2913 13.2141 69.4912 23.8141 67.3912 32.8141C66.2912 37.3141 64.2912 41.4141 61.1912 44.8141C57.8912 48.5141 53.8912 50.7141 48.9912 51.5141C43.5912 52.3141 38.3913 51.8141 33.2913 50.0141C27.1913 47.8141 23.8912 43.4141 22.8912 37.2141C22.3912 35.2141 22.2912 32.9141 21.9912 30.6141ZM58.7913 31.3141C58.2913 31.8141 57.9913 32.0141 57.7913 32.3141C56.8913 33.2141 56.1912 34.2141 55.1912 35.0141C49.9912 39.2141 41.7912 39.5141 35.4912 35.8141C33.3912 34.6141 31.6912 33.0141 30.8912 30.6141C30.7912 30.3141 30.3912 30.1141 30.0912 29.9141C29.9912 30.2141 29.6912 30.6141 29.6912 30.9141C29.7912 34.7141 31.8912 37.3141 34.8912 39.1141C39.2912 41.7141 43.9912 42.4141 48.9912 41.5141C52.1912 40.9141 55.0912 39.6141 56.9912 36.8141C58.1912 35.3141 58.9913 33.7141 58.7913 31.3141ZM33.5912 22.7141C33.4912 24.3141 34.4912 25.4141 35.9912 25.4141C37.1912 25.5141 38.0912 24.7141 38.0912 23.4141C38.1912 21.8141 37.1913 20.5141 35.7913 20.5141C34.4913 20.4141 33.5912 21.3141 33.5912 22.7141ZM51.2913 23.1141C51.2913 24.7141 52.0912 25.8141 53.3912 25.8141C54.7912 25.8141 55.8912 24.5141 55.8912 23.0141C55.8912 21.8141 54.8912 20.8141 53.6912 20.8141C52.1912 20.9141 51.2913 21.7141 51.2913 23.1141Z" fill="white"/>
<path d="M58.7913 31.3142C58.9913 33.7142 58.1912 35.4142 57.0912 36.9142C55.0912 39.6142 52.2912 41.0142 49.0912 41.6142C44.0912 42.5142 39.3912 41.8142 34.9912 39.2142C31.8912 37.3142 29.8913 34.7142 29.7913 31.0142C29.7913 30.7142 29.9912 30.3142 30.1912 30.0142C30.4912 30.2142 30.8912 30.4142 30.9912 30.7142C31.7912 33.1142 33.4912 34.7142 35.5912 35.9142C41.8912 39.6142 50.0913 39.3142 55.2913 35.1142C56.2913 34.3142 56.9912 33.3142 57.8912 32.4142C57.9912 32.0142 58.2913 31.8142 58.7913 31.3142Z" fill="black"/>
<path d="M33.5913 22.7142C33.6913 21.3142 34.5913 20.4142 35.8913 20.5142C37.2913 20.6142 38.2912 21.8142 38.1912 23.4142C38.0912 24.7142 37.2913 25.5142 36.0913 25.4142C34.3913 25.4142 33.4913 24.3142 33.5913 22.7142Z" fill="black"/>
<path d="M51.2913 23.1142C51.2913 21.7142 52.1912 20.8142 53.6912 20.8142C54.8912 20.8142 55.8912 21.8142 55.8912 23.0142C55.8912 24.5142 54.7912 25.8142 53.3912 25.8142C52.0912 25.9142 51.1913 24.8142 51.2913 23.1142Z" fill="black"/>
</svg>
