<svg width="66" height="115" viewBox="0 0 66 115" fill="none" xmlns="http://www.w3.org/2000/svg">
<path d="M10.5912 101.614H3.29121V109.314H0.991211V91.9143H11.7912V93.8143H3.29121V99.8143H10.5912V101.614Z" fill="#5D5D5D"/>
<path d="M14.1912 92.9143C14.1912 92.5143 14.2912 92.2143 14.4912 92.0143C14.6912 91.8143 14.9912 91.6143 15.4912 91.6143C15.8912 91.6143 16.2912 91.7143 16.4912 92.0143C16.6912 92.2143 16.7912 92.6143 16.7912 92.9143C16.7912 93.2143 16.6912 93.6143 16.4912 93.8143C16.2912 94.0143 15.8912 94.2143 15.4912 94.2143C15.0912 94.2143 14.6912 94.1143 14.4912 93.8143C14.2912 93.5143 14.1912 93.3143 14.1912 92.9143ZM16.5912 109.314H14.3912V96.3143H16.5912V109.314Z" fill="#5D5D5D"/>
<path d="M19.5913 102.714C19.5913 100.714 20.0913 99.1143 20.9913 97.9143C21.8913 96.7143 23.1913 96.1143 24.6913 96.1143C26.2913 96.1143 27.4913 96.7143 28.3913 97.8143L28.4913 96.4143H30.4913V109.014C30.4913 110.714 29.9913 112.014 28.9913 113.014C27.9913 114.014 26.6913 114.414 24.9913 114.414C24.0913 114.414 23.1913 114.214 22.2913 113.814C21.3913 113.414 20.6913 112.914 20.2913 112.214L21.3913 110.914C22.2913 112.114 23.4913 112.714 24.8913 112.714C25.9913 112.714 26.7913 112.414 27.3913 111.814C27.9913 111.214 28.2913 110.314 28.2913 109.214V108.114C27.3913 109.114 26.1913 109.614 24.6913 109.614C23.1913 109.614 21.9913 109.014 20.9913 107.814C20.0913 106.514 19.5913 104.814 19.5913 102.714ZM21.7913 103.014C21.7913 104.514 22.0913 105.614 22.6913 106.414C23.2913 107.214 24.0913 107.714 25.1913 107.714C26.5913 107.714 27.5913 107.114 28.2913 105.814V99.8143C27.5913 98.6143 26.5913 97.9143 25.1913 97.9143C24.0913 97.9143 23.2913 98.3143 22.6913 99.2143C22.0913 100.114 21.7913 101.314 21.7913 103.014Z" fill="#5D5D5D"/>
<path d="M35.9911 96.3143L36.0911 97.7143C36.9911 96.6143 38.2911 96.0143 39.8911 96.0143C41.6911 96.0143 42.8911 96.7143 43.5911 98.1143C43.9911 97.5143 44.5911 97.0143 45.2911 96.6143C45.9911 96.2143 46.7911 96.0143 47.6911 96.0143C50.4911 96.0143 51.9911 97.5143 51.9911 100.514V109.214H49.7911V100.714C49.7911 99.8143 49.5911 99.1143 49.1911 98.6143C48.7911 98.1143 48.0911 97.9143 47.0911 97.9143C46.2911 97.9143 45.5911 98.1143 45.0911 98.6143C44.5911 99.1143 44.1911 99.8143 44.1911 100.614V109.214H41.9911V100.814C41.9911 98.9143 41.0911 98.0143 39.1911 98.0143C37.6911 98.0143 36.7911 98.6143 36.1911 99.9143V109.414H33.8911V96.4143H35.9911V96.3143Z" fill="#5D5D5D"/>
<path d="M63.3913 109.314C63.2913 109.014 63.1913 108.614 63.0913 107.914C62.0913 109.014 60.7913 109.514 59.3913 109.514C58.0913 109.514 57.0913 109.114 56.2913 108.414C55.4913 107.714 55.0913 106.814 55.0913 105.714C55.0913 104.414 55.5913 103.314 56.5913 102.614C57.5913 101.914 59.0913 101.514 60.8913 101.514H63.0913V100.514C63.0913 99.7142 62.8913 99.1142 62.3913 98.7142C61.8913 98.3142 61.2913 98.0142 60.3913 98.0142C59.5913 98.0142 58.8913 98.2142 58.3913 98.6142C57.8913 99.0142 57.5913 99.5142 57.5913 100.014H55.3913C55.3913 99.4142 55.5913 98.7142 56.0913 98.1142C56.5913 97.5142 57.1913 97.0142 57.9913 96.7142C58.7913 96.3142 59.5913 96.2142 60.5913 96.2142C62.0913 96.2142 63.2913 96.6142 64.0913 97.3142C64.8913 98.0142 65.3913 99.1142 65.3913 100.414V106.414C65.3913 107.614 65.5913 108.514 65.8913 109.214V109.414H63.3913V109.314ZM59.6913 107.614C60.3913 107.614 61.0913 107.414 61.6913 107.114C62.2913 106.814 62.7913 106.314 63.0913 105.714V103.014H61.3913C58.6913 103.014 57.2913 103.814 57.2913 105.414C57.2913 106.114 57.4913 106.614 57.9913 107.014C58.4913 107.414 58.9913 107.614 59.6913 107.614Z" fill="#5D5D5D"/>
<path d="M22.4913 39.4142C18.6913 40.7142 16.0913 44.9142 16.6913 49.0142C17.2913 53.7142 21.0913 57.2142 25.6913 57.4142C30.0913 57.6142 34.0913 54.6142 35.0913 50.5142C35.6913 49.3142 35.4913 48.1142 35.3913 46.8142C35.3913 44.4142 35.3913 42.1142 35.3913 39.7142C35.3913 39.3142 35.3913 39.0142 35.3913 38.6142C35.3913 38.5142 35.3913 38.4142 35.3913 38.3142C35.4913 38.2142 35.4913 38.1142 35.3913 38.0142C35.6913 35.8142 35.0913 33.6142 35.6913 31.4142C37.0913 35.8142 40.0913 38.3142 44.3913 38.6142C47.8913 38.9142 51.6913 36.7142 53.2913 33.4142C56.1913 27.6142 52.9913 21.4142 46.1913 19.7142C51.9913 18.1142 54.8912 14.1142 54.1912 8.71422C53.5912 4.01422 49.3913 0.91422 43.5913 0.81422C40.4913 0.81422 37.4913 0.71422 34.3913 0.81422C31.1913 0.91422 27.8913 0.51422 24.6913 1.11422C24.4913 1.11422 24.1913 1.21422 23.9913 1.21422C19.4913 2.31422 16.5913 6.01422 16.5913 10.4142C16.5913 14.9142 19.6913 18.5142 24.2913 19.6142C24.3913 19.7142 24.3913 19.8142 24.4913 19.9142C19.1913 21.3142 16.1913 25.2142 16.4913 30.0142C16.7913 34.2142 19.5913 37.2142 24.5913 38.7142C23.9913 38.9142 23.0913 38.9142 22.4913 39.4142Z" fill="#FEFEFE"/>
<path d="M24.6912 1.11422C27.8912 0.51422 31.0912 0.91422 34.3912 0.81422C37.4912 0.71422 40.4912 0.81422 43.5912 0.81422C49.3912 0.81422 53.5912 3.91422 54.1912 8.71422C54.8912 14.1142 51.9912 18.1142 46.1912 19.7142C44.9912 19.7142 43.7912 19.8142 42.5912 19.8142C40.1912 19.6142 37.7912 19.6142 35.4912 19.8142C35.3912 19.7142 35.3912 19.6142 35.3912 19.5142C35.3912 19.3142 35.3912 19.2142 35.3912 19.0142C35.3912 13.1142 35.3912 7.21422 35.3912 1.31422C34.8912 0.71422 34.2912 1.01422 33.6912 1.01422C30.5912 1.11422 27.5912 1.11422 24.6912 1.11422Z" fill="#FC7263"/>
<path d="M35.2912 19.6143C35.2912 19.7143 35.2912 19.8143 35.3912 19.9143C35.3912 22.2143 35.3912 24.5143 35.3912 26.9143C35.2912 28.4143 35.2912 29.9143 35.5912 31.4143C34.9912 33.6143 35.5912 35.8143 35.2912 38.0143L35.1912 38.1143C35.1912 38.2143 35.2912 38.3143 35.2912 38.4143C35.2912 38.5143 35.3912 38.6143 35.2912 38.7143C32.1912 38.7143 29.1912 38.7143 26.0912 38.8143C25.6912 38.8143 25.3912 38.8143 24.9912 38.8143C24.8912 38.8143 24.7912 38.7143 24.6912 38.7143C19.6912 37.2143 16.8912 34.2143 16.5912 30.0143C16.1912 25.2143 19.2912 21.3143 24.5912 19.9143C24.8912 19.8143 25.1912 19.8143 25.5912 19.7143C28.7912 19.6143 32.0912 19.6143 35.2912 19.6143Z" fill="#A159FD"/>
<path d="M35.3913 1.51426C35.3913 7.41426 35.3913 13.3143 35.3913 19.2143C34.6913 19.2143 33.9913 19.2143 33.3913 19.2143C30.3913 19.3143 27.3913 18.9143 24.3913 19.4143L24.2913 19.5143C19.5913 18.4143 16.5913 14.8143 16.5913 10.3143C16.5913 5.91426 19.4913 2.21426 23.9913 1.11426C24.4913 1.61426 25.1913 1.41426 25.6913 1.41426C28.8913 1.51426 32.0913 1.51426 35.3913 1.51426Z" fill="#F24E1E"/>
<path d="M24.9911 38.7142C25.3911 38.7142 25.6911 38.7142 26.0911 38.7142C26.1911 39.5142 26.6911 39.8142 27.4911 39.8142C30.0911 39.8142 32.6911 39.7142 35.2911 39.7142C35.2911 42.1142 35.2911 44.4142 35.2911 46.8142C33.9911 47.9142 34.5911 49.2142 34.9911 50.5142C33.9911 54.7142 29.9911 57.6142 25.5911 57.4142C20.9911 57.2142 17.1911 53.7142 16.5911 49.0142C16.0911 44.9142 18.5911 40.7142 22.3911 39.4142C24.6911 39.8142 24.6911 39.8142 24.9911 38.7142Z" fill="#0BCD82"/>
<path d="M35.6913 31.4142C35.3913 29.9142 35.2913 28.4142 35.4913 26.9142C36.8913 23.6142 39.0913 21.1142 42.5913 19.9142C43.7913 19.9142 44.9913 19.8142 46.1913 19.8142C52.9913 21.5142 56.1913 27.6142 53.2913 33.5142C51.6913 36.7142 47.9913 38.9142 44.3913 38.7142C40.0913 38.3142 37.0913 35.8142 35.6913 31.4142Z" fill="#1BBCFC"/>
<path d="M35.2913 39.7143C32.6913 39.7143 30.0913 39.8143 27.4913 39.8143C26.6913 39.8143 26.1913 39.5143 26.0913 38.7143C29.1913 38.7143 32.1913 38.7143 35.2913 38.6143C35.2913 39.0143 35.2913 39.3143 35.2913 39.7143Z" fill="#03CE7F"/>
<path d="M35.3913 1.51426C32.1913 1.51426 28.9913 1.51426 25.7913 1.51426C25.1913 1.51426 24.5913 1.71426 24.0913 1.21426C24.2913 1.21426 24.5913 1.11426 24.7913 1.11426C27.7913 1.11426 30.7913 1.11426 33.7913 1.21426C34.1913 1.21426 34.8913 0.914258 35.3913 1.51426Z" fill="#F24301"/>
<path d="M34.9913 50.5142C34.5913 49.2142 33.9913 47.9142 35.2913 46.8142C35.3913 48.1142 35.5913 49.3142 34.9913 50.5142Z" fill="#03CE7F"/>
<path d="M24.9911 38.7143C24.6911 39.7143 24.6911 39.7143 22.3911 39.4143C22.9911 38.8143 23.8911 38.8143 24.6911 38.6143C24.7911 38.6143 24.8911 38.7143 24.9911 38.7143Z" fill="#03CE7F"/>
<path d="M25.4913 19.6142C25.1913 19.7142 24.8913 19.7142 24.4913 19.8142C24.3913 19.7142 24.2913 19.6142 24.2913 19.5142L24.3913 19.4142C24.6913 19.5142 25.0913 19.6142 25.4913 19.6142Z" fill="#FC7263"/>
<path d="M35.2912 38.3142C35.2912 38.2142 35.1912 38.1142 35.1912 38.0142L35.2912 37.9142C35.3912 38.1142 35.3912 38.2142 35.2912 38.3142Z" fill="#9B4AFB"/>
<path d="M42.4911 19.9142C38.9911 21.1142 36.7911 23.6142 35.3911 26.9142C35.3911 24.6142 35.3911 22.3142 35.3911 19.9142C37.7911 19.7142 40.1911 19.7142 42.4911 19.9142Z" fill="#F5F9FB"/>
<path d="M25.4911 19.6142C25.0911 19.5142 24.7911 19.5142 24.3911 19.4142C27.3911 18.8142 30.3911 19.3142 33.3911 19.2142C34.0911 19.2142 34.7911 19.2142 35.3911 19.2142C35.3911 19.4142 35.3911 19.5142 35.3911 19.7142C32.0911 19.6142 28.7911 19.6142 25.4911 19.6142Z" fill="#F44D04"/>
</svg>
