<svg width="102" height="113" viewBox="0 0 102 113" fill="none" xmlns="http://www.w3.org/2000/svg">
<path d="M2.39105 112.314H0.0910645V94.9142H2.39105V112.314Z" fill="#5D5D5D"/>
<path d="M8.69095 112.314H6.49097V93.9142H8.69095V112.314Z" fill="#5D5D5D"/>
<path d="M14.5911 112.314H12.3911V93.9142H14.5911V112.314Z" fill="#5D5D5D"/>
<path d="M26.091 111.014C25.191 112.014 23.991 112.514 22.291 112.514C20.891 112.514 19.891 112.114 19.091 111.314C18.391 110.514 17.991 109.314 17.991 107.714V99.3142H20.1909V107.714C20.1909 109.714 20.991 110.614 22.591 110.614C24.291 110.614 25.391 110.014 25.991 108.714V99.3142H28.1909V112.314H26.091V111.014Z" fill="#5D5D5D"/>
<path d="M39.191 108.914C39.191 108.314 38.991 107.814 38.491 107.514C37.991 107.214 37.291 106.914 36.091 106.614C34.991 106.414 34.091 106.114 33.391 105.714C32.691 105.414 32.291 105.014 31.891 104.514C31.591 104.014 31.391 103.514 31.391 102.814C31.391 101.714 31.791 100.814 32.691 100.114C33.591 99.4142 34.691 99.0142 36.091 99.0142C37.591 99.0142 38.791 99.4142 39.691 100.114C40.591 100.914 41.091 101.814 41.091 103.014H38.891C38.891 102.414 38.591 101.914 38.091 101.414C37.591 101.014 36.891 100.714 36.191 100.714C35.391 100.714 34.791 100.914 34.291 101.214C33.791 101.614 33.591 102.014 33.591 102.614C33.591 103.114 33.791 103.514 34.191 103.814C34.591 104.114 35.391 104.314 36.491 104.614C37.591 104.814 38.491 105.114 39.191 105.514C39.891 105.814 40.391 106.314 40.691 106.714C40.991 107.214 41.191 107.814 41.191 108.514C41.191 109.714 40.691 110.614 39.791 111.314C38.891 112.014 37.691 112.314 36.191 112.314C35.191 112.314 34.191 112.114 33.391 111.714C32.591 111.314 31.991 110.814 31.491 110.214C30.991 109.514 30.791 108.814 30.791 108.114H32.991C32.991 108.814 33.291 109.414 33.891 109.914C34.491 110.314 35.191 110.614 36.091 110.614C36.891 110.614 37.591 110.414 38.091 110.114C38.891 109.914 39.191 109.414 39.191 108.914Z" fill="#5D5D5D"/>
<path d="M47.2909 96.2142V99.3142H49.6909V101.014H47.2909V109.014C47.2909 109.514 47.3909 109.914 47.5909 110.214C47.7909 110.514 48.1909 110.614 48.6909 110.614C48.9909 110.614 49.2909 110.614 49.7909 110.514V112.314C49.1909 112.514 48.6909 112.514 48.0909 112.514C47.0909 112.514 46.3909 112.214 45.8909 111.614C45.3909 111.014 45.0909 110.214 45.0909 109.114V101.114H42.6909V99.4142H45.0909V96.3142H47.2909V96.2142Z" fill="#5D5D5D"/>
<path d="M58.591 101.314C58.291 101.214 57.891 101.214 57.491 101.214C55.991 101.214 55.091 101.814 54.491 103.114V112.314H52.291V99.3141H54.491V100.814C55.191 99.6141 56.291 99.1141 57.591 99.1141C57.991 99.1141 58.391 99.2141 58.591 99.3141V101.314Z" fill="#5D5D5D"/>
<path d="M68.091 112.314C67.991 112.014 67.891 111.614 67.791 110.914C66.791 112.014 65.491 112.514 64.091 112.514C62.791 112.514 61.791 112.114 60.991 111.414C60.191 110.714 59.791 109.814 59.791 108.714C59.791 107.414 60.291 106.314 61.291 105.614C62.291 104.914 63.791 104.514 65.591 104.514H67.791V103.514C67.791 102.714 67.591 102.114 67.091 101.714C66.591 101.314 65.991 101.014 65.091 101.014C64.291 101.014 63.591 101.214 63.091 101.614C62.591 102.014 62.291 102.514 62.291 103.014H60.091C60.091 102.414 60.291 101.714 60.791 101.114C61.291 100.514 61.891 100.014 62.691 99.7142C63.491 99.3142 64.291 99.2142 65.291 99.2142C66.791 99.2142 67.991 99.6142 68.791 100.314C69.591 101.014 70.091 102.114 70.091 103.414V109.414C70.091 110.614 70.291 111.514 70.591 112.214V112.414H68.091V112.314ZM64.391 110.614C65.091 110.614 65.791 110.414 66.391 110.114C66.991 109.814 67.491 109.314 67.791 108.714V106.014H66.091C63.391 106.014 61.991 106.814 61.991 108.414C61.991 109.114 62.191 109.614 62.691 110.014C63.191 110.414 63.691 110.614 64.391 110.614Z" fill="#5D5D5D"/>
<path d="M76.4911 96.2142V99.3142H78.8911V101.014H76.4911V109.014C76.4911 109.514 76.5911 109.914 76.7911 110.214C76.9911 110.514 77.3911 110.614 77.8911 110.614C78.1911 110.614 78.4911 110.614 78.9911 110.514V112.314C78.3911 112.514 77.7911 112.514 77.2911 112.514C76.2911 112.514 75.5911 112.214 75.0911 111.614C74.5911 111.014 74.2911 110.214 74.2911 109.114V101.114H71.8911V99.4142H74.2911V96.3142H76.4911V96.2142Z" fill="#5D5D5D"/>
<path d="M80.591 105.714C80.591 104.414 80.791 103.314 81.291 102.314C81.791 101.314 82.491 100.514 83.391 100.014C84.291 99.4142 85.291 99.2142 86.391 99.2142C88.191 99.2142 89.5909 99.8142 90.6909 101.014C91.7909 102.214 92.291 103.814 92.291 105.914V106.114C92.291 107.414 92.091 108.514 91.591 109.514C91.091 110.514 90.391 111.314 89.491 111.814C88.591 112.314 87.591 112.614 86.391 112.614C84.591 112.614 83.191 112.014 82.091 110.814C80.991 109.614 80.491 108.014 80.491 106.014V105.714H80.591ZM82.891 106.014C82.891 107.414 83.191 108.614 83.891 109.514C84.591 110.414 85.491 110.814 86.591 110.814C87.691 110.814 88.591 110.414 89.291 109.514C89.991 108.614 90.291 107.414 90.291 105.814C90.291 104.414 89.991 103.214 89.291 102.314C88.591 101.414 87.691 101.014 86.591 101.014C85.491 101.014 84.591 101.414 83.991 102.314C83.191 103.114 82.891 104.314 82.891 106.014Z" fill="#5D5D5D"/>
<path d="M101.491 101.314C101.191 101.214 100.791 101.214 100.391 101.214C98.8909 101.214 97.9909 101.814 97.3909 103.114V112.314H95.1909V99.3141H97.3909V100.814C98.0909 99.6141 99.1909 99.1141 100.491 99.1141C100.891 99.1141 101.291 99.2141 101.491 99.3141V101.314Z" fill="#5D5D5D"/>
<path d="M80.1911 21.8142C76.7911 16.9142 73.2911 12.0142 69.8911 7.11421C69.5911 6.71421 69.2911 6.31421 69.0911 5.91421C68.5911 4.81421 67.6911 4.61421 66.5911 4.51421C61.1911 4.21421 55.6911 3.61421 50.2911 3.41421C47.7911 3.31421 45.2911 3.61421 42.7911 3.81421C39.4911 4.01421 36.1911 4.31421 32.7911 4.51421C31.8911 4.61421 31.1911 4.81421 30.6911 5.61421C27.2911 10.6142 23.7911 15.6142 20.2911 20.6142C19.9911 21.0142 19.6911 21.4142 19.3911 21.8142C19.3911 14.8142 19.3911 7.81421 19.3911 0.814209C39.6911 0.814209 59.8911 0.814209 80.1911 0.814209C80.1911 7.81421 80.1911 14.8142 80.1911 21.8142Z" fill="white"/>
<path d="M34.0911 21.0142C39.3911 16.0142 44.5911 11.2142 49.8911 6.31421C55.0911 11.2142 60.291 16.0142 65.691 21.0142C55.091 21.0142 44.6911 21.0142 34.0911 21.0142Z" fill="white"/>
<path d="M42.091 46.4142C35.891 38.9142 29.691 31.3142 23.291 23.5142C25.691 23.5142 27.691 23.5142 29.691 23.5142C29.991 23.5142 30.291 23.9142 30.491 24.3142C34.391 31.6142 38.291 38.9142 42.291 46.2142C42.291 46.3142 42.191 46.4142 42.091 46.4142Z" fill="white"/>
<path d="M32.3911 18.8142C32.6911 14.9142 32.9911 11.0142 33.2911 6.91416C37.5911 6.61416 41.7911 6.31416 45.9911 6.01416C46.0911 6.11416 46.0911 6.21416 46.1911 6.31416C41.6911 10.5142 37.1911 14.7142 32.6911 18.9142C32.5911 18.9142 32.4911 18.9142 32.3911 18.8142Z" fill="white"/>
<path d="M67.0911 19.0143C62.5911 14.8143 58.0911 10.6143 53.5911 6.41426C53.5911 6.31426 53.691 6.21426 53.691 6.11426C57.891 6.41426 62.0911 6.71426 66.4911 7.01426C66.7911 11.0143 67.0911 14.9143 67.3911 18.9143C67.2911 18.9143 67.1911 18.9143 67.0911 19.0143Z" fill="white"/>
<path d="M30.5909 10.8142C30.2909 14.2142 30.0909 17.5142 29.7909 21.0142C27.6909 21.0142 25.5909 21.0142 23.1909 21.0142C25.5909 17.5142 27.9909 14.1142 30.2909 10.7142C30.3909 10.7142 30.4909 10.8142 30.5909 10.8142Z" fill="white"/>
<path d="M76.5909 21.0142C74.1909 21.0142 72.1909 21.0142 69.9909 21.0142C69.6909 17.6142 69.4909 14.2142 69.1909 10.8142C69.2909 10.8142 69.3909 10.7142 69.4909 10.7142C71.7909 14.0142 74.0909 17.4142 76.5909 21.0142Z" fill="white"/>
<path d="M53.591 58.0142C45.291 58.0142 36.9909 58.0142 28.6909 58.0142C26.9909 58.0142 26.491 57.5142 26.491 55.8142C26.591 39.3142 26.591 22.9142 26.491 6.41423C26.491 4.71423 26.9909 4.21423 28.6909 4.21423C45.2909 4.31423 61.891 4.31423 78.491 4.21423C80.191 4.21423 80.6909 4.71423 80.6909 6.41423C80.5909 22.9142 80.5909 39.3142 80.6909 55.8142C80.6909 57.5142 80.191 58.0142 78.491 58.0142C70.191 58.0142 61.891 58.0142 53.591 58.0142Z" fill="#231203"/>
<path d="M61.9909 46.2143C59.8909 46.2143 57.8909 46.2143 55.7909 46.2143C55.4909 46.2143 54.9909 45.8143 54.8909 45.4143C54.1909 43.3143 53.5909 41.1143 52.8909 38.9143C50.2909 38.9143 47.6909 38.9143 45.0909 38.9143C44.8909 38.9143 44.4909 39.4143 44.3909 39.7143C43.7909 41.6143 43.2909 43.4143 42.7909 45.3143C42.5909 46.0143 42.2909 46.2143 41.5909 46.2143C39.6909 46.1143 37.7909 46.2143 35.6909 46.2143C36.4909 43.6143 37.2909 41.0143 37.9909 38.5143C39.9909 31.9143 42.0909 25.2143 44.0909 18.6143C44.3909 17.7143 44.7909 17.3143 45.7909 17.4143C47.9909 17.5143 50.0909 17.4143 52.2909 17.5143C52.6909 17.5143 53.1909 17.9143 53.2909 18.2143C56.1909 27.4143 58.9909 36.7143 61.8909 45.9143C61.9909 45.8143 61.9909 45.9143 61.9909 46.2143ZM45.5909 33.8143C47.7909 33.8143 49.6909 33.8143 51.8909 33.8143C50.7909 30.0143 49.7909 26.2143 48.6909 22.1143C47.5909 26.2143 46.5909 29.9143 45.5909 33.8143Z" fill="#E97F2C"/>
<path d="M71.091 46.1142C68.891 46.1142 66.891 46.1142 64.791 46.1142C64.791 39.2142 64.791 32.3142 64.791 25.3142C66.891 25.3142 68.891 25.3142 71.091 25.3142C71.091 32.2142 71.091 39.1142 71.091 46.1142Z" fill="#E97F2C"/>
<path d="M71.391 19.6143C71.391 21.4143 69.891 22.7143 67.891 22.7143C65.891 22.7143 64.491 21.3143 64.491 19.3143C64.491 17.4143 65.991 16.1143 68.091 16.1143C70.091 16.2143 71.391 17.6143 71.391 19.6143Z" fill="#E97F2C"/>
<path d="M53.591 58.0142C45.291 58.0142 36.9909 58.0142 28.6909 58.0142C26.9909 58.0142 26.491 57.5142 26.491 55.8142C26.591 39.3142 26.591 22.9142 26.491 6.41423C26.491 4.71423 26.9909 4.21423 28.6909 4.21423C45.2909 4.31423 61.891 4.31423 78.491 4.21423C80.191 4.21423 80.6909 4.71423 80.6909 6.41423C80.5909 22.9142 80.5909 39.3142 80.6909 55.8142C80.6909 57.5142 80.191 58.0142 78.491 58.0142C70.191 58.0142 61.891 58.0142 53.591 58.0142ZM30.891 53.2142C30.791 53.5142 30.891 53.7142 31.091 53.8142C45.691 53.8142 60.291 53.8142 74.791 53.9142C76.491 53.9142 76.291 52.9142 76.291 51.8142C76.291 38.0142 76.291 24.2142 76.291 10.4142C76.291 8.71423 75.791 8.21423 74.091 8.21423C60.291 8.21423 46.4909 8.21423 32.6909 8.21423C31.0909 8.21423 30.591 8.61423 30.591 10.2142C30.891 24.6142 30.891 38.9142 30.891 53.2142Z" fill="#E97F2C"/>
</svg>
