<svg width="93" height="113" viewBox="0 0 93 113" fill="none" xmlns="http://www.w3.org/2000/svg">
<path d="M3.09126 107.414H0.79126V90.0143H3.09126V107.414Z" fill="#5D5D5D"/>
<path d="M9.09126 94.4143L9.19127 96.0143C10.1913 94.8143 11.4913 94.1143 13.0913 94.1143C15.7913 94.1143 17.1913 95.6143 17.1913 98.7143V107.314H14.9913V98.8143C14.9913 97.9143 14.7913 97.2143 14.3913 96.7143C13.9913 96.3143 13.2913 96.0143 12.3913 96.0143C11.6913 96.0143 11.0913 96.2143 10.4913 96.6143C9.99127 97.0143 9.49127 97.5143 9.19127 98.1143V107.314H6.99127V94.3143H9.09126V94.4143Z" fill="#5D5D5D"/>
<path d="M20.8912 107.414V90.0143H25.7912C27.2912 90.0143 28.6912 90.3143 29.7912 91.0143C30.9912 91.7143 31.8912 92.6143 32.4912 93.9143C33.0912 95.1143 33.4912 96.6143 33.4912 98.2143V99.3143C33.4912 100.914 33.1912 102.414 32.4912 103.614C31.8912 104.814 30.9912 105.814 29.7912 106.414C28.5912 107.014 27.2912 107.414 25.6912 107.414H20.8912ZM23.1912 91.8143V105.514H25.5912C27.3912 105.514 28.7912 104.914 29.6912 103.814C30.6912 102.714 31.1912 101.114 31.1912 99.1143V98.1143C31.1912 96.1143 30.6912 94.6143 29.7912 93.5143C28.8912 92.4143 27.5912 91.8143 25.7912 91.8143H23.1912Z" fill="#5D5D5D"/>
<path d="M41.9913 107.614C40.1913 107.614 38.7913 107.014 37.6913 105.914C36.5913 104.714 35.9913 103.214 35.9913 101.314V100.914C35.9913 99.6142 36.1913 98.5143 36.6913 97.5143C37.1913 96.5143 37.8913 95.7142 38.7913 95.1142C39.6913 94.5142 40.5913 94.2142 41.6913 94.2142C43.3913 94.2142 44.6913 94.8142 45.5913 95.9142C46.4913 97.0142 46.9913 98.6142 46.9913 100.714V101.614H38.1913C38.1913 102.914 38.5913 103.914 39.2913 104.714C39.9913 105.514 40.8913 105.914 41.9913 105.914C42.7913 105.914 43.3913 105.714 43.9913 105.414C44.4913 105.114 44.9913 104.714 45.3913 104.114L46.7913 105.214C45.7913 106.814 44.1913 107.614 41.9913 107.614ZM41.6913 96.0143C40.7913 96.0143 40.0913 96.3143 39.3913 97.0143C38.7913 97.7143 38.3913 98.6142 38.2913 99.7142H44.7913V99.5143C44.6913 98.4143 44.3913 97.5142 43.8913 96.9142C43.3913 96.3142 42.5913 96.0143 41.6913 96.0143Z" fill="#5D5D5D"/>
<path d="M57.0913 104.014C57.0913 103.414 56.8913 102.914 56.3913 102.614C55.8913 102.314 55.1913 102.014 53.9913 101.714C52.8913 101.514 51.9913 101.214 51.2913 100.814C50.5913 100.514 50.1913 100.114 49.7913 99.6143C49.4913 99.1143 49.2913 98.6143 49.2913 97.9143C49.2913 96.8143 49.6913 95.9143 50.5913 95.2143C51.4913 94.5143 52.5913 94.1143 53.9913 94.1143C55.4913 94.1143 56.6913 94.5143 57.5913 95.2143C58.4913 96.0143 58.9913 96.9143 58.9913 98.1143H56.7913C56.7913 97.5143 56.4913 97.0143 55.9913 96.5143C55.4913 96.1143 54.7913 95.8143 54.0913 95.8143C53.2913 95.8143 52.6913 96.0143 52.1913 96.3143C51.6913 96.7143 51.4913 97.1143 51.4913 97.7143C51.4913 98.2143 51.6913 98.6143 52.0913 98.9143C52.4913 99.2143 53.2913 99.4143 54.3913 99.7143C55.4913 99.9143 56.3913 100.214 57.0913 100.614C57.7913 100.914 58.2913 101.414 58.5913 101.814C58.8913 102.314 59.0913 102.914 59.0913 103.614C59.0913 104.814 58.5913 105.714 57.6913 106.414C56.7913 107.114 55.5913 107.414 54.0913 107.414C53.0913 107.414 52.0913 107.214 51.2913 106.814C50.4913 106.414 49.8913 105.914 49.3913 105.314C48.8913 104.614 48.6913 103.914 48.6913 103.214H50.8913C50.8913 103.914 51.1913 104.514 51.7913 105.014C52.3913 105.414 53.0913 105.714 53.9913 105.714C54.7913 105.714 55.4913 105.514 55.9913 105.214C56.8913 105.014 57.0913 104.514 57.0913 104.014Z" fill="#5D5D5D"/>
<path d="M62.1913 91.0142C62.1913 90.6142 62.2913 90.3142 62.4913 90.1142C62.6913 89.9142 62.9913 89.7142 63.4913 89.7142C63.8913 89.7142 64.2913 89.8142 64.4913 90.1142C64.6913 90.3142 64.7913 90.7142 64.7913 91.0142C64.7913 91.3142 64.6913 91.7142 64.4913 91.9142C64.2913 92.1142 63.8913 92.3142 63.4913 92.3142C63.0913 92.3142 62.6913 92.2142 62.4913 91.9142C62.2913 91.6142 62.1913 91.4142 62.1913 91.0142ZM64.5913 107.414H62.3913V94.4142H64.5913V107.414Z" fill="#5D5D5D"/>
<path d="M67.6913 100.814C67.6913 98.8142 68.1913 97.2143 69.0913 96.0143C69.9913 94.8143 71.2913 94.2142 72.7913 94.2142C74.3913 94.2142 75.5913 94.8142 76.4913 95.9142L76.5913 94.5143H78.5913V107.114C78.5913 108.814 78.0913 110.114 77.0913 111.114C76.0913 112.114 74.7913 112.514 73.0913 112.514C72.1913 112.514 71.2913 112.314 70.3913 111.914C69.4913 111.514 68.7913 111.014 68.3913 110.314L69.4913 109.014C70.3913 110.214 71.5913 110.814 72.9913 110.814C74.0913 110.814 74.8913 110.514 75.4913 109.914C76.0913 109.314 76.3913 108.414 76.3913 107.314V106.214C75.4913 107.214 74.2913 107.714 72.7913 107.714C71.2913 107.714 70.0913 107.114 69.0913 105.914C68.0913 104.614 67.6913 102.914 67.6913 100.814ZM69.8913 101.114C69.8913 102.614 70.1913 103.714 70.7913 104.514C71.3913 105.314 72.1913 105.814 73.2913 105.814C74.6913 105.814 75.6913 105.214 76.3913 103.914V98.0143C75.6913 96.8143 74.6913 96.1142 73.2913 96.1142C72.1913 96.1142 71.3913 96.5142 70.7913 97.4142C70.1913 98.3142 69.8913 99.4142 69.8913 101.114Z" fill="#5D5D5D"/>
<path d="M83.9912 94.4143L84.0912 96.0143C85.0912 94.8143 86.3912 94.1143 87.9912 94.1143C90.6912 94.1143 92.0912 95.6143 92.0912 98.7143V107.314H89.8912V98.8143C89.8912 97.9143 89.6912 97.2143 89.2912 96.7143C88.8912 96.3143 88.1912 96.0143 87.2912 96.0143C86.5912 96.0143 85.9912 96.2143 85.3912 96.6143C84.8912 97.0143 84.3912 97.5143 84.0912 98.1143V107.314H81.8912V94.3143H83.9912V94.4143Z" fill="#5D5D5D"/>
<path d="M49.5912 0.814209C58.6912 0.814209 67.7912 0.814209 76.8912 0.814209C77.5912 0.814209 77.7912 0.914203 77.7912 1.7142C77.7912 19.5142 77.7912 37.3142 77.7912 55.1142C77.7912 55.8142 77.6912 56.0142 76.8912 56.0142C58.6912 56.0142 40.4912 56.0142 22.2912 56.0142C21.5912 56.0142 21.3912 55.9142 21.3912 55.1142C21.3912 37.3142 21.3912 19.5142 21.3912 1.7142C21.3912 1.0142 21.4912 0.814209 22.2912 0.814209C31.3912 0.814209 40.4912 0.814209 49.5912 0.814209ZM70.2912 3.2142C66.7912 3.2142 63.3912 3.2142 59.8912 3.2142C56.9912 3.1142 54.0912 3.1142 51.1912 3.2142C45.1912 3.1142 39.2912 3.1142 33.2912 3.2142C32.9912 3.2142 32.5912 3.2142 32.2912 3.2142C31.9912 3.2142 31.5912 3.2142 31.2912 3.2142C29.1912 3.2142 27.0912 3.21421 24.9912 3.11421C23.9912 3.11421 23.6912 3.41422 23.7912 4.41422C23.7912 10.0142 23.7912 15.6142 23.7912 21.1142C23.7912 23.2142 23.7912 25.2142 23.8912 27.3142C23.7912 31.3142 23.7912 35.2142 23.8912 39.2142C23.8912 39.8142 23.8912 40.4142 23.8912 40.9142C23.7912 42.0142 23.7912 43.0142 23.8912 44.1142C23.8912 44.3142 23.8912 44.6142 23.8912 44.8142C23.8912 47.2142 23.8912 49.5142 23.7912 51.9142C23.6912 53.2142 24.1912 53.4142 25.2912 53.4142C40.6912 53.4142 56.0912 53.4142 71.5912 53.4142C72.5912 53.4142 73.4912 53.4142 74.4912 53.4142C75.2912 53.4142 75.4912 53.2142 75.4912 52.4142C75.4912 50.6142 75.4912 48.8142 75.4912 46.9142C75.4912 41.4142 75.4912 35.9142 75.3912 30.4142C75.3912 26.9142 75.4912 23.4142 75.4912 19.9142C75.4912 14.8142 75.4912 9.71421 75.3912 4.61421C75.3912 4.51421 75.3912 4.41421 75.3912 4.31421C75.3912 4.11421 75.3912 3.81421 75.3912 3.61421C75.4912 3.01421 75.0912 3.01421 74.6912 3.01421C73.9912 3.01421 73.2912 3.01421 72.5912 3.11421C72.0912 3.11421 71.5912 3.11421 71.0912 3.11421C70.7912 3.21421 70.5912 3.2142 70.2912 3.2142Z" fill="#F53F88"/>
<path d="M33.2913 3.2142C39.2913 3.1142 45.1913 3.1142 51.1913 3.2142C52.0913 3.7142 53.0913 3.41421 53.9913 3.51421C54.3913 3.51421 54.8913 3.51421 54.9913 4.01421C55.1913 4.41421 54.7913 4.71421 54.5913 5.01421C53.8913 5.81421 54.0913 6.4142 55.0913 6.7142C55.4913 6.8142 55.8913 6.91421 55.9913 7.31421C56.0913 8.91421 56.3913 10.5142 57.0913 12.0142C57.0913 12.1142 57.0913 12.2142 57.0913 12.2142C56.8913 13.0142 57.2913 13.1142 57.8913 13.1142C58.9913 13.1142 59.9913 12.9142 61.0913 13.2142C60.1913 13.2142 59.3913 13.3142 58.4913 13.2142C57.4913 13.1142 56.8913 13.4142 56.8913 14.5142V14.6142C56.8913 14.7142 56.8913 14.7142 56.8913 14.8142C56.9913 15.9142 56.9913 17.1142 56.8913 18.2142V18.3142C56.8913 18.4142 56.8913 18.4142 56.8913 18.5142C57.1913 19.4142 56.9913 19.7142 55.8913 19.7142C52.1913 19.6142 49.2913 21.1142 47.3913 24.3142C46.1913 26.3142 46.0913 28.6142 46.0913 30.9142C45.8913 31.0142 46.0913 29.8142 45.5913 30.7142C45.2913 31.2142 44.8913 31.1142 44.4913 31.1142C44.0913 31.1142 43.5913 31.1142 43.1913 31.3142C42.8913 31.5142 42.8913 32.1142 42.3913 31.8142C41.9913 31.6142 42.1913 31.0142 42.1913 30.6142C42.0913 29.1142 42.3913 27.6142 41.9913 26.1142C41.9913 22.8142 41.9913 19.4142 41.9913 16.1142C41.9913 13.1142 41.9913 13.2142 38.9913 13.1142C38.0913 13.1142 37.6913 13.3142 37.6913 14.3142C37.6913 17.6142 37.6913 21.0142 37.6913 24.3142C37.6913 24.4142 37.6913 24.5142 37.6913 24.5142C37.6913 26.4142 37.6913 28.3142 37.6913 30.2142C36.0913 29.8142 34.4913 30.1142 32.8913 29.3142C32.0913 28.9142 31.2913 28.4142 30.3913 28.0142C29.0913 27.4142 28.4913 26.3142 27.5913 25.4142C26.5913 24.4142 26.6913 22.6142 24.9913 22.0142C24.6913 21.9142 24.7913 21.5142 24.7913 21.2142C24.3913 16.0142 24.2913 10.7142 24.9913 5.51421C25.1913 4.41421 26.2913 3.41421 27.3913 3.31421C28.6913 3.21421 29.8913 3.21421 31.1913 2.81421C31.4913 2.81421 31.8913 2.81421 32.1913 2.81421C32.6913 3.51421 32.9913 3.5142 33.2913 3.2142ZM45.7913 28.9142V29.0142H45.8913C45.8913 29.0142 45.8913 28.9142 45.7913 28.9142C45.8913 28.9142 45.8913 28.9142 45.7913 28.9142Z" fill="#42222F"/>
<path d="M23.8912 44.2142C23.7912 43.1142 23.7912 42.1142 23.8912 41.0142C24.2912 40.5142 24.0912 39.8142 24.1912 39.3142C24.2912 37.3142 23.9912 35.3142 24.3912 33.4142C24.9912 33.9142 25.4912 34.8142 26.1912 35.0142C28.0912 35.6142 29.6912 36.9142 31.4912 37.6142C31.9912 37.8142 32.7912 37.7142 33.0912 38.2142C33.7912 39.2142 34.6912 39.2142 35.6912 39.1142C36.4912 39.1142 37.0912 39.2142 37.6912 39.9142C38.2912 40.7142 38.9912 40.4142 39.2912 39.5142C39.4912 39.5142 39.5912 39.5142 39.7912 39.5142C40.2912 40.1142 41.1912 40.0142 41.7912 40.5142C42.0912 40.7142 42.7912 40.5142 42.8912 40.0142C43.1912 39.0142 43.8912 38.9142 44.6912 38.9142C45.4912 38.9142 46.2912 38.8142 47.0912 38.6142C48.0912 38.3142 48.9912 38.2142 49.6912 39.5142C50.1912 40.6142 52.0912 40.9142 53.0912 40.4142C53.5912 40.2142 53.0912 39.9142 53.1912 39.7142C55.7912 40.0142 58.3912 39.6142 60.7912 38.7142C61.1912 38.6142 61.5912 38.6142 61.5912 38.0142C61.7912 37.9142 61.9912 37.8142 61.8912 37.7142C61.3912 36.6142 61.6912 35.4142 61.5912 34.3142C61.4912 33.1142 61.7912 31.8142 61.3912 30.6142C61.3912 25.1142 61.3912 19.7142 61.3912 14.2142C61.8912 15.5142 61.5912 16.8142 61.5912 18.1142C61.6912 21.3142 61.3912 24.5142 61.8912 27.8142C61.8912 28.1142 61.8912 28.5142 62.2912 28.4142C62.5912 28.4142 62.5912 28.0142 62.5912 27.8142C62.5912 26.9142 62.5912 26.0142 62.5912 25.1142C62.8912 25.9142 62.7912 26.7142 62.8912 27.6142C62.8912 28.0142 62.5912 28.8142 63.2912 28.8142C63.7912 28.9142 63.7912 28.2142 63.8912 27.7142C63.9912 27.2142 64.1912 26.6142 64.6912 26.6142C65.9912 26.5142 65.8912 25.6142 65.8912 24.7142C65.8912 23.2142 66.3912 21.9142 67.1912 20.7142C67.5912 20.2142 67.7912 19.7142 67.7912 19.0142C67.7912 16.2142 67.7912 13.5142 67.7912 10.7142C67.7912 10.3142 67.7912 9.81418 67.4912 9.51418C65.9912 7.81418 65.8912 5.51417 64.7912 3.71417C66.5912 3.71417 68.3912 3.71417 70.2912 3.71417C70.5912 3.71417 70.7912 3.61418 70.9912 3.41418C71.4912 3.41418 71.9912 3.41418 72.4912 3.41418C72.5912 3.61418 72.6912 3.71418 72.6912 3.91418C72.8912 4.81418 73.5912 5.51418 73.4912 6.51418C73.3912 7.11418 73.3912 7.81417 73.5912 8.21417C74.3912 9.61417 74.1912 11.1142 74.1912 12.5142C74.1912 14.7142 74.2912 16.9142 74.1912 19.1142C74.0912 20.8142 73.1912 22.4142 73.2912 24.2142C73.2912 24.3142 73.1912 24.5142 73.0912 24.6142C71.7912 26.1142 71.3912 28.1142 70.3912 29.8142C69.1912 31.7142 68.8912 34.0142 66.6912 35.2142C66.4912 35.3142 66.3912 35.5142 66.3912 35.7142C66.0912 36.6142 65.7912 37.6142 64.5912 37.8142C64.2912 37.8142 64.1912 38.1142 64.1912 38.4142C64.1912 39.3142 63.6912 39.7142 62.7912 39.8142C62.3912 39.8142 62.0912 40.2142 61.7912 40.5142C60.4912 41.7142 59.2912 43.2142 57.2912 43.6142C56.5912 43.8142 55.7912 43.8142 55.3912 44.4142C54.3912 45.7142 52.8912 45.8142 51.4912 45.9142C50.4912 46.0142 49.4912 46.0142 48.8912 47.0142C48.5912 47.5142 47.9912 47.4142 47.4912 47.4142C45.8912 47.4142 44.2912 47.5142 42.6912 47.4142C41.6912 47.4142 40.7912 48.2142 39.8912 47.9142C38.1912 47.3142 36.4912 47.5142 34.6912 47.5142C34.1912 47.5142 33.6912 47.5142 33.4912 47.1142C32.7912 46.0142 31.7912 46.1142 30.7912 46.0142C29.3912 45.9142 28.0912 45.7142 26.9912 44.6142C26.4912 44.2142 25.3912 42.7142 24.4912 44.4142C24.4912 44.2142 24.0912 44.2142 23.8912 44.2142Z" fill="#2E0B1C"/>
<path d="M75.2912 30.6143C75.2912 36.1143 75.2912 41.6143 75.3912 47.1143C75.3912 48.9143 75.3912 50.7143 75.3912 52.6143C75.3912 53.4143 75.1912 53.6143 74.3912 53.6143C73.4912 53.5143 72.4912 53.6143 71.4912 53.6143C56.0912 53.6143 40.6912 53.6143 25.1912 53.6143C24.0912 53.6143 23.5912 53.4143 23.6912 52.1143C23.7912 49.8143 23.7912 47.4143 23.7912 45.0143C23.8912 45.1143 24.0912 45.1142 24.0912 45.2142C24.3912 46.7142 25.0912 47.8143 26.7912 47.9143C26.8912 47.9143 27.0912 48.1142 27.1912 48.2142C28.1912 49.4142 29.5912 49.6142 30.9912 49.7142C31.8912 49.7142 32.7912 50.0142 33.5912 50.2142C34.7912 50.5142 35.7912 51.2142 37.0912 51.2142C39.7912 51.2142 42.5912 51.2142 45.2912 51.2142C45.9912 51.2142 46.6912 51.1143 47.0912 50.4143C47.4912 49.8143 48.1912 49.6142 48.8912 49.7142C50.5912 49.8142 52.1912 49.0143 53.8912 49.1143C54.0912 49.1143 54.3912 49.0143 54.4912 48.8143C55.0912 47.9143 56.0912 47.6143 56.9912 47.4143C58.1912 47.2143 58.6912 46.1143 59.6912 45.8143C61.0912 45.4143 62.3912 45.0142 63.2912 43.7142C64.8912 41.2142 68.1912 40.4143 69.4912 37.6143C69.5912 37.4143 69.7912 37.2143 69.9912 37.1143C71.3912 36.2143 71.7912 34.7143 72.4912 33.4143C73.1912 32.2143 73.4912 30.6143 75.2912 30.6143ZM24.7912 52.8143C24.6912 52.8143 24.6912 52.8143 24.5912 52.8143C24.6912 52.8143 24.6912 52.8143 24.7912 52.8143Z" fill="#260012"/>
<path d="M75.2912 30.6142C73.4912 30.6142 73.1912 32.2142 72.5912 33.4142C71.8912 34.8142 71.4912 36.3142 70.0912 37.1142C69.8912 37.2142 69.6912 37.4142 69.5912 37.6142C68.1912 40.4142 64.9912 41.3142 63.3912 43.7142C62.4912 45.0142 61.1912 45.4142 59.7912 45.8142C58.7912 46.1142 58.2912 47.2142 57.0912 47.4142C56.0912 47.5142 55.1912 47.8142 54.5912 48.8142C54.4912 49.0142 54.1912 49.1142 53.9912 49.1142C52.2912 48.9142 50.6912 49.8142 48.9912 49.7142C48.2912 49.6142 47.6912 49.8142 47.1912 50.4142C46.6912 51.1142 46.0912 51.2142 45.3912 51.2142C42.6912 51.2142 39.8912 51.2142 37.1912 51.2142C35.8912 51.2142 34.8912 50.5142 33.6912 50.2142C32.7912 50.0142 31.9912 49.8142 31.0912 49.7142C29.6912 49.7142 28.2912 49.4142 27.2912 48.2142C27.1912 48.1142 27.0912 47.9142 26.8912 47.9142C25.1912 47.8142 24.5912 46.6142 24.1912 45.2142C24.1912 45.1142 23.9912 45.1142 23.8912 45.0142C23.8912 44.8142 23.8912 44.5142 23.8912 44.3142C24.0912 44.3142 24.4912 44.3142 24.5912 44.2142C25.5912 42.5142 26.5912 43.9142 27.0912 44.4142C28.1912 45.5142 29.4912 45.7142 30.8912 45.8142C31.9912 45.9142 32.9912 45.8142 33.5912 46.9142C33.8912 47.3142 34.3912 47.3142 34.7912 47.3142C36.4912 47.4142 38.1912 47.1142 39.9912 47.7142C40.8912 48.0142 41.7912 47.2142 42.7912 47.2142C44.3912 47.3142 45.9912 47.2142 47.5912 47.2142C48.0912 47.2142 48.6912 47.2142 48.9912 46.8142C49.5912 45.8142 50.5912 45.8142 51.5912 45.7142C52.9912 45.6142 54.4912 45.5142 55.4912 44.2142C55.9912 43.6142 56.7912 43.6142 57.3912 43.4142C59.2912 43.0142 60.4912 41.5142 61.8912 40.3142C62.1912 40.0142 62.3912 39.6142 62.8912 39.6142C63.7912 39.6142 64.2912 39.2142 64.2912 38.2142C64.2912 37.9142 64.4912 37.7142 64.6912 37.6142C65.8912 37.4142 66.1912 36.4142 66.4912 35.5142C66.5912 35.3142 66.6912 35.1142 66.7912 35.0142C68.8912 33.8142 69.2912 31.4142 70.4912 29.6142C71.4912 27.9142 71.8912 25.9142 73.1912 24.4142C73.2912 24.3142 73.4912 24.1142 73.3912 24.0142C73.2912 22.2142 74.1912 20.7142 74.2912 18.9142C74.3912 16.7142 74.2912 14.5142 74.2912 12.3142C74.2912 10.8142 74.4912 9.31424 73.6912 8.01424C73.3912 7.61424 73.4912 6.91424 73.5912 6.31424C73.6912 5.31424 72.9912 4.61423 72.7912 3.71423C73.5912 3.71423 74.4912 3.71423 75.2912 3.71423C75.2912 3.91423 75.2912 4.21425 75.2912 4.41425V4.51424C75.2912 4.61424 75.2912 4.61423 75.2912 4.71423C75.2912 9.81423 75.3912 14.9142 75.3912 20.0142C75.3912 23.6142 75.3912 27.1142 75.2912 30.6142Z" fill="#290215"/>
<path d="M64.8913 3.51422C65.9913 5.31422 66.0913 7.71423 67.5913 9.31423C67.8913 9.61423 67.8913 10.1142 67.8913 10.5142C67.8913 13.3142 67.8913 16.0142 67.8913 18.8142C67.8913 19.4142 67.5913 19.9142 67.2913 20.5142C66.4913 21.7142 65.9913 23.0142 65.9913 24.5142C65.9913 25.4142 66.0913 26.3142 64.7913 26.4142C64.2913 26.4142 64.0913 27.0142 63.9913 27.5142C63.8913 27.9142 63.8913 28.6142 63.3913 28.6142C62.7913 28.5142 63.0913 27.8142 62.9913 27.4142C62.9913 26.6142 62.9913 25.8142 62.6913 24.9142C62.6913 25.8142 62.6913 26.7142 62.6913 27.6142C62.6913 27.8142 62.6913 28.2142 62.3913 28.2142C61.9913 28.3142 61.9913 27.9142 61.9913 27.6142C61.4913 24.4142 61.8913 21.2142 61.6913 17.9142C61.5913 16.6142 61.8913 15.3142 61.4913 14.0142C61.4913 13.9142 61.4913 13.8142 61.4913 13.7142C61.4913 13.6142 61.4913 13.6142 61.3913 13.5142C61.2913 13.5142 61.2913 13.4142 61.1913 13.4142C60.0913 13.1142 59.0913 13.3142 57.9913 13.3142C57.2913 13.3142 56.8913 13.1142 57.1913 12.4142C57.1913 12.3142 57.2913 12.2142 57.1913 12.2142C56.3913 10.7142 56.1913 9.11422 56.0913 7.51422C56.0913 7.11422 55.5913 7.01423 55.1913 6.91423C54.1913 6.51423 53.9913 6.01422 54.6913 5.21422C54.8913 4.91422 55.2913 4.71422 55.0913 4.21422C54.8913 3.71422 54.4913 3.81422 54.0913 3.71422C53.1913 3.61422 52.1913 3.91423 51.2913 3.41423C54.1913 3.31423 57.0913 3.31423 59.9913 3.41423C61.4913 3.81423 63.1913 3.41422 64.8913 3.51422Z" fill="#361524"/>
<path d="M39.2913 39.3142C38.9913 40.3142 38.2913 40.5142 37.6913 39.7142C37.0913 39.0142 36.4913 38.9142 35.6913 38.9142C34.6913 38.9142 33.6913 39.0142 33.0913 38.0142C32.7913 37.5142 31.9913 37.6142 31.4913 37.4142C29.6913 36.6142 28.0913 35.4142 26.1913 34.8142C25.4913 34.6142 24.9913 33.8142 24.3913 33.2142C23.9913 32.1142 24.1913 31.0142 24.1913 29.9142C24.0913 29.0142 24.3913 28.1142 23.8913 27.2142C23.8913 25.1142 23.7913 23.1142 23.7913 21.0142C23.7913 15.4142 23.7913 9.81416 23.7913 4.31416C23.7913 3.31416 24.0913 3.01416 24.9913 3.01416C27.0913 3.11416 29.1913 3.11417 31.2913 3.11417C30.0913 3.51417 28.7913 3.51417 27.4913 3.61417C26.3913 3.71417 25.1913 4.71416 25.0913 5.81416C24.3913 11.0142 24.4913 16.2142 24.8913 21.5142C24.8913 21.8142 24.8913 22.2142 25.0913 22.3142C26.6913 22.9142 26.6913 24.7142 27.6913 25.7142C28.5913 26.6142 29.1913 27.8142 30.4913 28.3142C31.2913 28.7142 32.0913 29.2142 32.9913 29.6142C34.5913 30.4142 36.1913 30.1142 37.7913 30.5142C37.7913 31.8142 37.7913 33.2142 37.7913 34.5142C37.6913 34.6142 37.6913 34.6142 37.7913 34.7142C37.7913 35.9142 37.7913 37.0142 37.7913 38.2142C37.5913 38.4142 37.5913 38.7142 37.7913 38.9142C38.1913 39.5142 38.7913 39.1142 39.2913 39.3142Z" fill="#361524"/>
<path d="M23.8912 27.3142C24.3912 28.2142 24.0912 29.1142 24.1912 30.0142C24.2912 31.1142 23.9912 32.2142 24.3912 33.3142C23.9912 35.3142 24.1912 37.3142 24.1912 39.3142C24.0912 39.3142 23.9912 39.3142 23.8912 39.3142C23.7912 35.3142 23.7912 31.3142 23.8912 27.3142Z" fill="#290215"/>
<path d="M64.8912 3.51424C63.2912 3.41424 61.5912 3.81423 59.9912 3.21423C63.4912 3.21423 66.8912 3.21423 70.3912 3.21423C70.3912 3.31423 70.3912 3.41424 70.3912 3.51424C68.4912 3.51424 66.6912 3.51424 64.8912 3.51424Z" fill="#290215"/>
<path d="M75.2912 3.71425C74.4912 3.71425 73.5912 3.71425 72.7912 3.71425C72.6912 3.51425 72.5912 3.41425 72.5912 3.21425C73.2912 3.21425 73.9912 3.21426 74.6912 3.11426C74.9912 3.21426 75.3912 3.21425 75.2912 3.71425Z" fill="#260012"/>
<path d="M23.8912 39.2142C23.9912 39.2142 24.0912 39.2142 24.1912 39.2142C24.1912 39.8142 24.2912 40.4142 23.8912 40.9142C23.8912 40.4142 23.8912 39.8142 23.8912 39.2142Z" fill="#260012"/>
<path d="M33.2913 3.21423C32.9913 3.51423 32.5913 3.51423 32.2913 3.21423C32.6913 3.21423 32.9913 3.21423 33.2913 3.21423Z" fill="#361524"/>
<path d="M70.2913 3.51424C70.2913 3.41424 70.2913 3.31423 70.2913 3.21423C70.4913 3.21423 70.7913 3.21423 70.9913 3.21423C70.8913 3.41423 70.5913 3.51424 70.2913 3.51424Z" fill="#260012"/>
<path d="M61.3913 13.6142C61.3913 13.7142 61.3913 13.8142 61.3913 13.9142C61.3913 19.4142 61.3913 24.8142 61.3913 30.3142C61.3913 32.0142 61.2913 33.7142 61.3913 35.4142C61.3913 36.2142 61.0913 37.0142 61.5913 37.8142C61.5913 38.4142 61.1913 38.4142 60.7913 38.5142C58.3913 39.5142 55.7913 39.9142 53.1913 39.5142C51.9913 39.1142 50.7913 38.9142 49.6913 38.1142C48.0913 37.0142 47.2913 35.3142 46.3913 33.7142C46.0913 33.1142 46.1913 31.9142 46.1913 31.0142C46.0913 28.7142 46.2913 26.5142 47.4913 24.4142C49.3913 21.1142 52.2913 19.7142 55.9913 19.8142C56.9913 19.8142 57.1913 19.5142 56.9913 18.6142C56.9913 18.5142 56.9913 18.4142 56.9913 18.3142C57.0913 17.2142 57.0913 16.0142 56.9913 14.9142C56.9913 14.8142 56.9913 14.7142 56.9913 14.6142C56.9913 13.5142 57.5913 13.2142 58.5913 13.3142C59.3913 13.4142 60.2913 13.3142 61.1913 13.3142C61.2913 13.4142 61.2913 13.4142 61.3913 13.4142C61.2913 13.5142 61.2913 13.6142 61.3913 13.6142ZM56.9913 34.5142C56.9913 34.4142 56.9913 34.3142 56.9913 34.2142C56.9913 32.3142 56.9913 30.4142 56.9913 28.5142C57.0913 27.2142 57.0913 25.9142 56.9913 24.6142C57.0913 24.3142 57.2913 23.9142 56.9913 23.6142C53.7913 22.8142 51.3913 24.5142 50.7913 28.0142C50.4913 29.2142 50.5913 30.3142 50.7913 31.5142C50.6913 32.2142 51.1913 32.7142 51.3913 33.3142C51.8913 35.3142 55.2913 36.5142 56.9913 35.4142C57.0913 35.1142 57.0913 34.8142 56.9913 34.5142Z" fill="#F53F88"/>
<path d="M37.7913 38.3142C37.7913 37.1142 37.7913 36.0142 37.7913 34.8142C37.7913 34.7142 37.7913 34.7142 37.7913 34.6142C37.7913 33.3142 37.7913 31.9142 37.7913 30.6142C37.7913 28.7142 37.7913 26.8142 37.7913 24.9142C37.7913 24.8142 37.7913 24.7142 37.7913 24.7142C37.7913 21.4142 37.8913 18.0142 37.7913 14.7142C37.7913 13.7142 38.0913 13.5142 39.0913 13.5142C42.0913 13.5142 42.0913 13.5142 42.0913 16.5142C42.0913 19.8142 42.0913 23.2142 42.0913 26.5142C42.0913 30.0142 42.0913 33.5142 42.0913 37.0142C42.0913 39.3142 42.0913 39.3142 39.8913 39.5142C39.6913 39.5142 39.5913 39.5142 39.3913 39.5142C38.8913 39.3142 38.2913 39.7142 37.8913 39.2142C37.7913 38.7142 37.7913 38.5142 37.7913 38.3142Z" fill="#F53F88"/>
<path d="M39.7913 39.3142C41.9913 39.2142 41.9913 39.2142 41.9913 36.8142C41.9913 33.3142 41.9913 29.8142 41.9913 26.3142C42.3913 27.8142 42.0913 29.3142 42.1913 30.8142C42.1913 31.2142 41.9913 31.7142 42.3913 32.0142C42.8913 32.3142 42.8913 31.6142 43.1913 31.5142C43.5913 31.2142 44.0913 31.3142 44.4913 31.3142C44.8913 31.3142 45.2913 31.3142 45.5913 30.9142C46.0913 30.0142 45.8913 31.2142 46.0913 31.1142C46.0913 32.0142 45.9913 33.2142 46.2913 33.8142C47.1913 35.4142 47.9913 37.1142 49.5913 38.2142C50.6913 39.0142 51.8913 39.2142 53.0913 39.6142C53.0913 39.8142 53.4913 40.1142 52.9913 40.3142C51.8913 40.8142 50.0913 40.5142 49.5913 39.4142C48.9913 38.0142 47.9913 38.2142 46.9913 38.5142C46.1913 38.7142 45.3913 38.8142 44.5913 38.8142C43.7913 38.8142 42.9913 38.9142 42.7913 39.9142C42.6913 40.4142 41.9913 40.6142 41.6913 40.4142C41.1913 39.8142 40.2913 40.0142 39.7913 39.3142ZM51.8913 39.7142C51.8913 39.7142 51.8913 39.8142 51.8913 39.7142C51.9913 39.8142 51.9913 39.8142 51.9913 39.7142C51.9913 39.7142 51.9913 39.7142 51.8913 39.7142C51.9913 39.7142 51.8913 39.7142 51.8913 39.7142Z" fill="#361524"/>
<path d="M45.7913 28.9142C45.8913 28.9142 45.8913 28.9142 45.7913 28.9142C45.8913 28.9142 45.8913 29.0142 45.8913 29.0142H45.7913V28.9142Z" fill="#361524"/>
<path d="M56.9913 14.7142C56.9913 14.8142 56.9913 14.9142 56.9913 15.0142C56.9913 14.9142 56.8913 14.8142 56.9913 14.7142C56.8913 14.7142 56.8913 14.7142 56.9913 14.7142Z" fill="#361524"/>
<path d="M56.9912 18.4142C56.9912 18.5142 56.9912 18.6142 56.9912 18.7142C56.9912 18.6142 56.8912 18.5142 56.9912 18.4142C56.8912 18.4142 56.9912 18.4142 56.9912 18.4142Z" fill="#361524"/>
<path d="M61.5913 37.8142C61.0913 37.0142 61.3913 36.2142 61.3913 35.4142C61.3913 33.7142 61.3913 32.0142 61.3913 30.3142C61.8913 31.5142 61.4913 32.8142 61.5913 34.0142C61.6913 35.1142 61.3913 36.3142 61.8913 37.4142C61.9913 37.6142 61.7913 37.7142 61.5913 37.8142Z" fill="#260012"/>
<path d="M61.3913 13.6142C61.2913 13.5142 61.2913 13.5142 61.2913 13.4142C61.3913 13.5142 61.3913 13.6142 61.3913 13.6142Z" fill="#42222F"/>
<path d="M37.7912 38.3142C37.7912 38.5142 37.7912 38.8142 37.7912 39.0142C37.5912 38.7142 37.5912 38.5142 37.7912 38.3142Z" fill="#260012"/>
<path d="M37.7912 34.5142C37.7912 34.6142 37.7912 34.6142 37.7912 34.7142C37.6912 34.7142 37.6912 34.6142 37.7912 34.5142Z" fill="#260012"/>
<path d="M50.6913 28.1142C51.2913 24.7142 53.6912 22.9142 56.8912 23.7142C56.8912 24.0142 56.8912 24.3142 56.8912 24.7142C56.5912 24.7142 56.1913 24.8142 56.1913 25.2142C56.1913 26.2142 56.1913 27.2142 56.1913 28.1142C56.1913 28.5142 56.5912 28.6142 56.8912 28.6142C56.8912 30.5142 56.8912 32.4142 56.8912 34.3142C56.8912 34.3142 56.7912 34.4142 56.8912 34.4142C56.8912 34.5142 56.8912 34.5142 56.8912 34.6142C56.8912 34.9142 56.8912 35.2142 56.8912 35.5142C55.0912 36.6142 51.6912 35.4142 51.2912 33.4142C51.1912 32.8142 50.5913 32.3142 50.6913 31.6142C50.9913 30.4142 51.1913 29.2142 50.6913 28.1142Z" fill="#361524"/>
<path d="M56.9913 28.6142C56.6913 28.6142 56.2913 28.5142 56.2913 28.1142C56.2913 27.1142 56.2913 26.1142 56.2913 25.2142C56.2913 24.8142 56.6913 24.7142 56.9913 24.7142C57.0913 25.9142 57.0913 27.2142 56.9913 28.6142Z" fill="#42222F"/>
<path d="M50.6912 28.1143C51.1912 29.3143 50.9912 30.4143 50.6912 31.6143C50.4912 30.4143 50.3912 29.2143 50.6912 28.1143Z" fill="#42222F"/>
<path d="M56.9912 24.6143C56.9912 24.3143 56.9912 24.0143 56.9912 23.6143C57.1912 24.0143 57.0912 24.3143 56.9912 24.6143Z" fill="#42222F"/>
<path d="M56.9912 35.4142C56.9912 35.1142 56.9912 34.8142 56.9912 34.5142C57.0912 34.8142 57.0912 35.1142 56.9912 35.4142Z" fill="#42222F"/>
<path d="M51.8912 39.7142C51.8912 39.7142 51.9912 39.7142 51.8912 39.7142C51.9912 39.7142 51.9912 39.7142 51.9912 39.7142C51.9912 39.8142 51.8912 39.8142 51.8912 39.7142C51.8912 39.8142 51.8912 39.7142 51.8912 39.7142Z" fill="#2E0B1C"/>
</svg>
