<svg width="104" height="108" viewBox="0 0 104 108" fill="none" xmlns="http://www.w3.org/2000/svg">
<path d="M13.9912 107.414H11.6912L2.89124 94.0143V107.414H0.591248V90.0143H2.89124L11.6912 103.514V90.0143H13.9912V107.414Z" fill="#5D5D5D"/>
<path d="M23.0912 107.614C21.2912 107.614 19.8913 107.014 18.7913 105.914C17.6913 104.814 17.0912 103.214 17.0912 101.314V100.914C17.0912 99.6142 17.2913 98.5143 17.7913 97.5143C18.2913 96.5143 18.9912 95.7142 19.8912 95.1142C20.7912 94.5142 21.6913 94.2142 22.7913 94.2142C24.4913 94.2142 25.7912 94.8142 26.6912 95.9142C27.5912 97.0142 28.0912 98.6142 28.0912 100.714V101.614H19.2913C19.2913 102.914 19.6912 103.914 20.3912 104.714C21.0912 105.514 21.9912 105.914 23.0912 105.914C23.8912 105.914 24.4912 105.714 25.0912 105.414C25.6912 105.114 26.0912 104.714 26.4912 104.114L27.8912 105.214C26.8912 106.814 25.2912 107.614 23.0912 107.614ZM22.7913 96.0143C21.8913 96.0143 21.1912 96.3143 20.4912 97.0143C19.7912 97.7143 19.4912 98.6142 19.3912 99.7142H25.8912V99.5143C25.7912 98.4143 25.4912 97.5142 24.9912 96.9142C24.4912 96.3142 23.7913 96.0143 22.7913 96.0143Z" fill="#5D5D5D"/>
<path d="M33.6912 91.3143V94.4143H36.0912V96.1143H33.6912V104.114C33.6912 104.614 33.7912 105.014 33.9912 105.314C34.1912 105.614 34.5912 105.714 35.0912 105.714C35.3912 105.714 35.6912 105.714 36.1912 105.614V107.414C35.5912 107.614 35.0912 107.614 34.4912 107.614C33.4912 107.614 32.7913 107.314 32.2913 106.714C31.7913 106.114 31.4912 105.314 31.4912 104.214V96.2143H29.0912V94.5143H31.4912V91.4143H33.6912V91.3143Z" fill="#5D5D5D"/>
<path d="M39.0912 107.414V90.0143H44.7913C46.6913 90.0143 48.0912 90.4143 49.0912 91.2143C50.0912 92.0143 50.4912 93.1143 50.4912 94.7143C50.4912 95.5143 50.2913 96.2143 49.7913 96.9143C49.2913 97.5143 48.6912 98.0143 47.8912 98.4143C48.7912 98.7143 49.5912 99.2143 50.0912 99.9143C50.5912 100.614 50.8912 101.514 50.8912 102.514C50.8912 104.114 50.3912 105.314 49.3912 106.214C48.3912 107.114 46.9912 107.514 45.0912 107.514H39.0912V107.414ZM41.3912 97.4143H44.8912C45.8912 97.4143 46.6913 97.1143 47.2913 96.6143C47.8913 96.1143 48.1912 95.4143 48.1912 94.5143C48.1912 93.5143 47.8912 92.8143 47.3912 92.4143C46.7912 92.0143 45.9912 91.7143 44.8912 91.7143H41.4912V97.4143H41.3912ZM41.3912 99.2143V105.514H45.1912C46.2912 105.514 47.0912 105.214 47.6912 104.714C48.2912 104.114 48.5912 103.414 48.5912 102.414C48.5912 100.314 47.4912 99.3143 45.1912 99.3143H41.3912V99.2143Z" fill="#5D5D5D"/>
<path d="M59.3912 107.614C57.5912 107.614 56.1912 107.014 55.0912 105.914C53.9912 104.814 53.3912 103.214 53.3912 101.314V100.914C53.3912 99.6142 53.5912 98.5143 54.0912 97.5143C54.5912 96.5143 55.2912 95.7142 56.1912 95.1142C57.0912 94.5142 57.9912 94.2142 59.0912 94.2142C60.7912 94.2142 62.0912 94.8142 62.9912 95.9142C63.8912 97.0142 64.3912 98.6142 64.3912 100.714V101.614H55.5912C55.5912 102.914 55.9912 103.914 56.6912 104.714C57.3912 105.514 58.2912 105.914 59.3912 105.914C60.1912 105.914 60.7912 105.714 61.3912 105.414C61.9912 105.114 62.3913 104.714 62.7913 104.114L64.1912 105.214C63.1912 106.814 61.4912 107.614 59.3912 107.614ZM59.0912 96.0143C58.1912 96.0143 57.4913 96.3143 56.7913 97.0143C56.0913 97.7143 55.7912 98.6142 55.6912 99.7142H62.1912V99.5143C62.0912 98.4143 61.7913 97.5142 61.2913 96.9142C60.7913 96.3142 59.9912 96.0143 59.0912 96.0143Z" fill="#5D5D5D"/>
<path d="M74.9912 107.414C74.8912 107.114 74.7912 106.714 74.6912 106.014C73.6912 107.114 72.3912 107.614 70.9912 107.614C69.6912 107.614 68.6912 107.214 67.8912 106.514C67.0912 105.814 66.6912 104.914 66.6912 103.814C66.6912 102.514 67.1912 101.414 68.1912 100.714C69.1912 100.014 70.6912 99.6143 72.4912 99.6143H74.6912V98.6143C74.6912 97.8143 74.4912 97.2143 73.9912 96.8143C73.4912 96.3143 72.8912 96.1143 71.9912 96.1143C71.1912 96.1143 70.4912 96.3143 69.9912 96.7143C69.4912 97.1143 69.1912 97.6143 69.1912 98.1143H66.8912C66.8912 97.5143 67.0912 96.8143 67.5912 96.2143C68.0912 95.6143 68.6912 95.1143 69.4912 94.8143C70.2912 94.4143 71.1912 94.3143 72.0912 94.3143C73.5912 94.3143 74.7912 94.7143 75.5912 95.4143C76.3912 96.1143 76.8912 97.2143 76.8912 98.5143V104.514C76.8912 105.714 77.0912 106.614 77.3912 107.314V107.514H74.9912V107.414ZM71.2913 105.714C71.9913 105.714 72.6913 105.514 73.2913 105.214C73.8913 104.814 74.3912 104.414 74.6912 103.814V101.114H72.8912C70.1912 101.114 68.7913 101.914 68.7913 103.514C68.7913 104.214 68.9912 104.714 69.4912 105.114C69.9912 105.514 70.5913 105.714 71.2913 105.714Z" fill="#5D5D5D"/>
<path d="M82.3912 94.4143L82.4912 96.0143C83.4912 94.8143 84.7912 94.1143 86.3912 94.1143C89.0912 94.1143 90.4912 95.6143 90.4912 98.7143V107.314H88.2913V98.8143C88.2913 97.9143 88.0912 97.2143 87.6912 96.7143C87.2912 96.2143 86.5912 96.0143 85.6912 96.0143C84.9912 96.0143 84.3913 96.2143 83.7913 96.6143C83.2913 97.0143 82.7912 97.5143 82.4912 98.1143V107.314H80.2913V94.3143H82.3912V94.4143Z" fill="#5D5D5D"/>
<path d="M101.391 104.014C101.391 103.414 101.191 102.914 100.691 102.614C100.191 102.314 99.4913 102.014 98.2913 101.714C97.1913 101.514 96.2912 101.214 95.5912 100.814C94.8912 100.514 94.4912 100.114 94.0912 99.6143C93.6912 99.1143 93.5912 98.6143 93.5912 97.9143C93.5912 96.8143 93.9912 95.9143 94.8912 95.2143C95.7912 94.5143 96.8913 94.1143 98.2913 94.1143C99.7913 94.1143 100.991 94.5143 101.891 95.2143C102.791 96.0143 103.291 96.9143 103.291 98.1143H101.091C101.091 97.5143 100.791 97.0143 100.291 96.5143C99.7913 96.1143 99.0912 95.8143 98.3912 95.8143C97.5912 95.8143 96.9912 96.0143 96.4912 96.3143C95.9912 96.7143 95.7913 97.1143 95.7913 97.7143C95.7913 98.2143 95.9912 98.6143 96.3912 98.9143C96.7912 99.2143 97.5912 99.4143 98.6912 99.7143C99.7912 99.9143 100.691 100.214 101.391 100.614C102.091 100.914 102.591 101.414 102.891 101.814C103.191 102.314 103.391 102.914 103.391 103.614C103.391 104.814 102.891 105.714 101.991 106.414C101.091 107.114 99.8912 107.414 98.3912 107.414C97.3912 107.414 96.3912 107.214 95.5912 106.814C94.7912 106.414 94.1912 105.914 93.6912 105.314C93.1912 104.714 92.9912 103.914 92.9912 103.214H95.1912C95.1912 103.914 95.4912 104.514 96.0912 105.014C96.6912 105.414 97.3913 105.714 98.2913 105.714C99.0913 105.714 99.7913 105.514 100.291 105.214C101.091 105.014 101.391 104.514 101.391 104.014Z" fill="#5D5D5D"/>
<path d="M19.6912 28.2142C19.6912 13.0142 31.9913 0.614258 47.2913 0.614258C62.4913 0.614258 74.8912 12.9142 74.8912 28.2142C74.8912 43.4142 62.4913 55.8142 47.2913 55.7142C31.9913 55.8142 19.6912 43.4142 19.6912 28.2142ZM47.2913 53.5143C60.9913 53.7143 72.4912 42.5143 72.6912 28.6143C72.8912 14.0143 60.9912 2.91426 47.4912 2.91426C33.6912 2.81426 22.0912 13.9143 21.9912 28.0143C21.7912 42.4143 33.5913 53.7143 47.2913 53.5143Z" fill="#5E80BC"/>
<path d="M47.2912 53.5142C33.6912 53.7142 21.7912 42.4142 21.9912 28.0142C22.0912 14.0142 33.6912 2.81424 47.4912 2.91424C60.9912 3.01424 72.8912 14.1142 72.6912 28.6142C72.3912 42.5142 60.9912 53.7142 47.2912 53.5142ZM47.2912 43.2142C47.3912 43.2142 47.3912 43.2142 47.4912 43.2142C52.0912 40.9142 56.6912 38.5142 61.2912 36.2142C61.5912 36.0142 61.6912 35.8142 61.6912 35.5142C61.6912 30.5142 61.6912 25.5142 61.6912 20.5142C61.6912 20.0142 61.4912 19.9142 61.0912 20.1142C56.4912 22.0142 51.8912 23.8142 47.2912 25.7142C42.6912 23.8142 38.0912 22.0142 33.4912 20.1142C32.8912 19.8142 32.8912 19.8142 32.8912 20.6142C32.8912 25.5142 32.8912 30.5142 32.8912 35.4142C32.8912 35.8142 32.9912 36.1142 33.3912 36.3142C37.8912 38.6142 42.3912 40.9142 46.7912 43.1142C46.8912 43.1142 47.0912 43.3142 47.2912 43.2142ZM61.0912 18.8142C60.9912 18.6142 60.7912 18.6142 60.6912 18.5142C56.3912 16.7142 51.9912 15.0142 47.6912 13.2142C47.3912 13.1142 47.0912 13.1142 46.7912 13.2142C42.4912 14.9142 38.1912 16.7142 33.9912 18.4142C33.8912 18.5142 33.5912 18.4142 33.5912 18.7142C37.9912 20.5142 42.3912 22.3142 46.7912 24.1142C47.1912 24.3142 47.5912 24.3142 47.9912 24.1142C51.1912 22.8142 54.2912 21.5142 57.4912 20.2142C58.5912 19.9142 59.8912 19.4142 61.0912 18.8142Z" fill="#446CB2"/>
<path d="M47.2913 43.2142C47.0913 43.3142 46.8912 43.1142 46.6912 43.0142C42.1912 40.7142 37.6913 38.4142 33.2913 36.2142C32.8913 36.0142 32.7913 35.8142 32.7913 35.3142C32.7913 30.4142 32.7913 25.4142 32.7913 20.5142C32.7913 19.8142 32.7912 19.8142 33.3912 20.0142C37.9912 21.9142 42.5912 23.7142 47.1912 25.6142C47.1912 28.6142 47.1912 31.5142 47.1912 34.5142C47.2912 37.4142 47.2913 40.3142 47.2913 43.2142Z" fill="#FDFDFE"/>
<path d="M47.2913 43.2143C47.2913 40.3143 47.2913 37.4143 47.2913 34.5143C47.2913 31.5143 47.2913 28.6143 47.2913 25.6143C51.8913 23.7143 56.4912 21.9143 61.0912 20.0143C61.4912 19.8143 61.6912 19.9143 61.6912 20.4143C61.6912 25.4143 61.6912 30.4143 61.6912 35.4143C61.6912 35.7143 61.5913 35.9143 61.2913 36.1143C56.6913 38.4143 52.0912 40.8143 47.4912 43.1143C47.4912 43.2143 47.3913 43.2143 47.2913 43.2143Z" fill="#A0B4D8"/>
<path d="M61.0912 18.8142C59.8912 19.3142 58.5912 19.8142 57.3912 20.3142C54.1912 21.6142 50.9912 22.9142 47.8912 24.2142C47.4912 24.4142 47.1912 24.4142 46.6912 24.2142C42.2912 22.4142 37.8912 20.6142 33.4912 18.8142C33.4912 18.5142 33.7912 18.6142 33.8912 18.5142C38.1912 16.8142 42.4912 15.0142 46.6912 13.3142C46.9912 13.2142 47.2912 13.1142 47.5912 13.3142C51.8912 15.1142 56.2912 16.8142 60.5912 18.6142C60.7912 18.6142 60.9912 18.7142 61.0912 18.8142Z" fill="#FDFDFE"/>
</svg>
