<svg width="119" height="113" viewBox="0 0 119 113" fill="none" xmlns="http://www.w3.org/2000/svg">
<path d="M13.4912 107.414H11.1912L2.39124 94.0142V107.414H0.0912476V90.0142H2.39124L11.1912 103.514V90.0142H13.4912V107.414Z" fill="#5D5D5D"/>
<path d="M16.5912 100.814C16.5912 99.5142 16.7913 98.4142 17.2913 97.4142C17.7913 96.4142 18.4912 95.6142 19.3912 95.1142C20.2912 94.5142 21.2912 94.3142 22.3912 94.3142C24.1912 94.3142 25.5912 94.9142 26.6912 96.1142C27.7912 97.3142 28.2913 98.9142 28.2913 101.014V101.214C28.2913 102.514 28.0912 103.614 27.5912 104.614C27.0912 105.614 26.3912 106.414 25.4912 106.914C24.5912 107.414 23.5912 107.714 22.3912 107.714C20.5912 107.714 19.1912 107.114 18.0912 105.914C16.9912 104.714 16.4912 103.114 16.4912 101.114V100.814H16.5912ZM18.7913 101.114C18.7913 102.514 19.0913 103.714 19.7913 104.614C20.4913 105.514 21.3912 105.914 22.4912 105.914C23.5912 105.914 24.4912 105.514 25.1912 104.614C25.8912 103.714 26.1912 102.514 26.1912 100.914C26.1912 99.5142 25.8912 98.3142 25.1912 97.4142C24.4912 96.5142 23.5912 96.1142 22.4912 96.1142C21.3912 96.1142 20.4912 96.5142 19.8912 97.4142C19.1912 98.2142 18.7913 99.4142 18.7913 101.114Z" fill="#5D5D5D"/>
<path d="M34.1912 91.3142V94.4142H36.5912V96.1142H34.1912V104.114C34.1912 104.614 34.2912 105.014 34.4912 105.314C34.6912 105.614 35.0912 105.714 35.5912 105.714C35.8912 105.714 36.1912 105.714 36.6912 105.614V107.414C36.0912 107.614 35.5912 107.614 34.9912 107.614C33.9912 107.614 33.2913 107.314 32.7913 106.714C32.2913 106.114 31.9912 105.314 31.9912 104.214V96.2142H29.5912V94.5142H31.9912V91.4142H34.1912V91.3142Z" fill="#5D5D5D"/>
<path d="M44.5912 107.614C42.7912 107.614 41.3913 107.014 40.2913 105.914C39.1913 104.814 38.5912 103.214 38.5912 101.314V100.914C38.5912 99.6141 38.7913 98.5141 39.2913 97.5141C39.7913 96.5141 40.4912 95.7141 41.3912 95.1141C42.2912 94.5141 43.1913 94.2141 44.2913 94.2141C45.9913 94.2141 47.2912 94.8141 48.1912 95.9141C49.0912 97.0141 49.5912 98.6141 49.5912 100.714V101.614H40.7913C40.7913 102.914 41.1912 103.914 41.8912 104.714C42.5912 105.514 43.4912 105.914 44.5912 105.914C45.3912 105.914 45.9912 105.714 46.5912 105.414C47.1912 105.114 47.5912 104.714 47.9912 104.114L49.3912 105.214C48.3912 106.814 46.6912 107.614 44.5912 107.614ZM44.2913 96.0141C43.3913 96.0141 42.6912 96.3141 41.9912 97.0141C41.2912 97.7141 40.9912 98.6141 40.8912 99.7141H47.3912V99.5141C47.2912 98.4141 46.9912 97.5141 46.4912 96.9141C45.8912 96.3141 45.1913 96.0141 44.2913 96.0141Z" fill="#5D5D5D"/>
<path d="M63.0912 101.114C63.0912 103.114 62.5912 104.714 61.6912 105.914C60.7912 107.114 59.5912 107.714 57.9912 107.714C56.3912 107.714 55.1913 107.214 54.2913 106.214V112.414H52.0912V94.5141H54.0912L54.1912 95.9141C55.0912 94.8141 56.3912 94.2141 57.9912 94.2141C59.5912 94.2141 60.7912 94.8141 61.6912 96.0141C62.5912 97.2141 63.0912 98.8141 63.0912 100.914V101.114ZM60.8912 100.814C60.8912 99.3141 60.5912 98.2141 59.9912 97.3141C59.3912 96.5141 58.4912 96.0141 57.3912 96.0141C56.0912 96.0141 55.0912 96.6141 54.3912 97.8141V104.014C55.0912 105.214 56.0912 105.814 57.3912 105.814C58.4912 105.814 59.2912 105.414 59.8912 104.514C60.5912 103.714 60.8912 102.514 60.8912 100.814Z" fill="#5D5D5D"/>
<path d="M73.8912 107.414C73.7912 107.114 73.6912 106.714 73.5912 106.014C72.5912 107.114 71.2912 107.614 69.8912 107.614C68.5912 107.614 67.5913 107.214 66.7913 106.514C65.9913 105.814 65.5912 104.914 65.5912 103.814C65.5912 102.514 66.0912 101.414 67.0912 100.714C68.0912 100.014 69.5912 99.6142 71.3912 99.6142H73.5912V98.6142C73.5912 97.8142 73.3912 97.2142 72.8912 96.8142C72.3912 96.3142 71.7912 96.1142 70.8912 96.1142C70.0912 96.1142 69.3912 96.3142 68.8912 96.7142C68.3912 97.1142 68.0912 97.6142 68.0912 98.1142H65.8912C65.8912 97.5142 66.0912 96.8142 66.5912 96.2142C67.0912 95.6142 67.6912 95.1142 68.4912 94.8142C69.2912 94.4142 70.1912 94.3142 71.0912 94.3142C72.5912 94.3142 73.7912 94.7142 74.5912 95.4142C75.3912 96.1142 75.8912 97.2142 75.8912 98.5142V104.514C75.8912 105.714 76.0912 106.614 76.3912 107.314V107.514H73.8912V107.414ZM70.2913 105.714C70.9913 105.714 71.6913 105.514 72.2913 105.214C72.8913 104.814 73.3912 104.414 73.6912 103.814V101.114H71.9912C69.2912 101.114 67.8912 101.914 67.8912 103.514C67.8912 104.214 68.0912 104.714 68.5912 105.114C69.0912 105.514 69.4913 105.714 70.2913 105.714Z" fill="#5D5D5D"/>
<path d="M78.6912 100.814C78.6912 98.8142 79.1912 97.2142 80.0912 96.0142C80.9912 94.8142 82.2913 94.2142 83.7913 94.2142C85.2913 94.2142 86.4912 94.7142 87.3912 95.8142V89.0142H89.5912V107.414H87.5912L87.4912 106.014C86.5912 107.114 85.3913 107.614 83.7913 107.614C82.2913 107.614 81.0912 107.014 80.0912 105.814C79.1912 104.614 78.6912 103.014 78.6912 101.014V100.814ZM80.8912 101.114C80.8912 102.614 81.1913 103.714 81.7913 104.514C82.3913 105.314 83.1913 105.714 84.2913 105.714C85.6913 105.714 86.6912 105.114 87.3912 103.814V97.8142C86.6912 96.6142 85.6913 96.0142 84.2913 96.0142C83.1913 96.0142 82.3913 96.4142 81.7913 97.3142C81.1913 98.2142 80.8912 99.4142 80.8912 101.114Z" fill="#5D5D5D"/>
<path d="M99.3912 98.0142H104.291V100.114H99.3912V105.614H97.1912V100.114H92.2913V98.0142H97.1912V92.9142H99.3912V98.0142Z" fill="#5D5D5D"/>
<path d="M113.291 98.0142H118.191V100.114H113.291V105.614H111.091V100.114H106.191V98.0142H111.091V92.9142H113.291V98.0142Z" fill="#5D5D5D"/>
<path d="M41.6912 26.9142C40.4912 27.6142 39.2913 28.0142 37.7913 27.2142C37.0913 26.8142 36.0913 27.1142 35.2913 27.0142C35.2913 26.8142 35.2913 26.7142 35.2913 26.5142C36.1913 26.7142 37.1912 27.0142 37.8912 25.9142C38.1912 25.7142 38.1912 25.4142 38.1912 25.1142C38.2912 24.2142 37.4912 24.5142 37.0912 24.2142C37.0912 24.0142 37.0912 23.8142 37.0912 23.6142C37.3912 23.5142 37.7912 23.5142 37.5912 22.9142C36.8912 21.2142 35.5912 21.9142 34.3912 21.8142C32.8912 21.6142 32.3913 22.2142 32.7913 23.6142C32.7913 23.8142 32.7913 24.0142 32.7913 24.2142C31.3913 24.7142 30.0912 24.4142 28.6912 23.9142C27.9912 23.7142 27.4912 23.7142 26.8912 24.2142C26.4912 24.0142 26.0912 23.6142 25.8912 24.3142C25.6912 25.0142 26.1913 25.3142 26.7913 25.5142C26.7913 25.0142 26.8912 24.7142 26.8912 24.3142C27.1912 24.4142 27.4912 24.5142 27.4912 24.9142C27.7912 25.1142 28.0912 25.4142 28.3912 25.6142C28.3912 26.0142 28.7912 26.0142 28.9912 26.2142C28.9912 26.4142 28.9912 26.7142 28.9912 26.9142C28.7912 26.9142 28.5912 26.9142 28.3912 26.9142C27.8912 26.4142 27.3912 26.5142 26.8912 26.8142C25.8912 26.6142 24.4912 26.0142 23.8912 26.8142C23.1912 27.6142 23.9912 28.9142 24.3912 29.9142C25.0912 31.7142 26.0913 33.5142 27.2913 35.0142C28.3913 36.5142 31.1912 37.0142 32.8912 36.1142C33.7912 35.6142 34.0912 34.7142 33.8912 33.7142C33.7912 33.0142 33.5913 32.4142 33.2913 31.8142C32.4913 30.0142 32.2912 30.0142 30.3912 30.9142C30.9912 31.3142 31.6912 31.3142 32.1912 31.8142C32.7912 32.3142 32.6912 32.8142 32.1912 33.2142C31.2912 34.0142 29.7912 34.0142 28.8912 33.1142C27.5912 31.7142 27.4912 30.7142 28.6912 29.6142C31.1912 27.4142 34.0912 27.7142 35.5912 30.8142C36.4912 32.6142 37.0912 34.4142 35.8912 36.4142C34.4912 38.8142 28.4912 39.5142 25.9912 36.8142C23.6912 34.3142 21.8913 31.6142 21.2913 28.2142C21.0913 27.2142 20.6912 26.6142 19.5912 26.5142C18.8912 25.8142 17.9913 26.3142 17.2913 26.2142C17.2913 26.1142 17.2913 25.9142 17.2913 25.8142C17.1913 25.8142 17.1912 25.8142 17.1912 25.7142C17.3912 25.7142 17.5913 25.6142 17.7913 25.6142C18.3913 25.0142 18.0912 24.1142 18.4912 23.3142C19.4912 23.2142 20.3913 22.9142 20.7913 21.8142C20.9913 22.0142 21.1912 22.2142 21.3912 22.4142C22.2912 22.6142 22.7913 22.1142 23.2913 21.4142C23.9913 20.1142 24.6913 18.8142 25.7913 17.8142C26.1913 17.6142 26.6912 17.2142 27.0912 17.6142C27.4912 18.0142 27.0912 18.4142 26.8912 18.8142C26.5912 19.7142 26.3912 20.6142 27.1912 21.6142C27.1912 20.4142 27.3912 19.5142 27.8912 18.6142C28.0912 18.1142 28.4912 17.7142 28.8912 18.5142C29.3912 19.5142 30.3912 19.8142 31.3912 20.0142C32.6912 20.1142 33.8913 20.6142 35.2913 20.3142C36.1913 20.1142 36.5912 19.7142 36.3912 18.8142C37.0912 17.9142 37.4912 18.2142 37.5912 19.1142C37.6912 19.8142 37.5912 20.6142 38.0912 21.3142C38.1912 20.4142 38.1913 19.5142 38.2913 18.7142C38.2913 18.3142 38.6912 17.9142 38.9912 17.9142C39.2912 17.9142 39.2913 18.4142 39.2913 18.8142C39.2913 19.2142 38.8912 20.0142 39.8912 19.9142C41.5912 20.3142 42.9912 19.7142 44.3912 18.9142C44.8912 18.8142 45.1912 18.4142 45.6912 18.5142C46.1912 19.0142 46.7912 19.2142 47.3912 19.1142C48.8912 18.8142 50.3913 18.5142 51.7913 17.8142C52.9913 17.2142 53.2912 16.4142 52.3912 15.3142C52.0912 14.1142 51.0912 13.5142 49.9912 13.0142C48.8912 12.4142 47.9913 12.3142 47.2913 13.7142C46.4913 15.4142 44.9912 15.9142 43.1912 15.7142C42.3912 15.6142 41.5913 15.2142 40.7913 15.0142C38.9913 13.8142 37.8912 12.2142 37.4912 10.1142C37.4912 9.31418 37.2912 8.61417 36.3912 8.21417C34.7912 7.41417 32.9912 6.91417 31.1912 7.21417C29.0912 7.61417 27.0912 8.21418 25.9912 10.3142C24.8912 10.9142 24.4913 11.9142 24.2913 13.0142H24.3912C24.1912 13.0142 24.1912 13.2142 24.0912 13.3142C23.2912 14.0142 23.1912 14.9142 23.0912 15.9142C22.0912 16.8142 22.4912 18.3142 21.4912 19.2142C21.3912 19.2142 21.2912 19.2142 21.0912 19.2142C21.1912 15.9142 22.4912 12.9142 24.1912 10.2142C26.4912 6.71417 29.8912 5.41418 35.3912 6.91418C36.6912 7.31418 37.2912 7.11418 37.5912 5.61418C37.9912 3.41418 38.9913 1.61418 41.2913 0.914185C41.8913 0.914185 42.4912 0.914185 42.9912 0.914185C44.9912 1.41418 46.0912 2.91418 46.9912 4.51418C47.2912 5.11418 47.5913 5.41418 48.2913 4.81418C50.2913 3.01418 52.6912 3.01418 55.1912 3.31418C56.2912 3.41418 56.6912 4.21418 57.0912 5.11418C58.2912 7.81418 56.9912 12.4142 54.4912 14.0142C53.5912 14.6142 53.2912 14.9142 53.9912 15.9142C54.7912 17.0142 53.9912 17.9142 53.1912 18.6142C51.3912 20.0142 49.2912 20.6142 46.9912 20.6142C46.5912 20.6142 46.1913 20.6142 45.7913 20.6142C45.6913 22.3142 46.5912 22.5142 47.8912 22.4142C48.4912 22.2142 49.0912 22.5142 49.5912 22.8142C49.5912 23.1142 49.5912 23.3142 49.5912 23.6142C49.3912 23.6142 49.1912 23.6142 49.0912 23.6142C48.7912 23.1142 48.5912 23.2142 48.4912 23.7142C47.7912 24.1142 46.5912 23.3142 46.1912 24.6142C46.0912 25.0142 45.4913 24.8142 45.2913 25.2142C45.0913 25.2142 44.8912 25.2142 44.6912 25.2142C44.5912 25.0142 44.4912 25.0142 44.3912 25.2142C43.7912 25.2142 43.1912 25.4142 42.5912 24.8142C43.2912 24.5142 43.9912 24.8142 44.3912 24.1142C44.0912 23.7142 43.6912 23.5142 43.1912 23.5142C43.3912 22.9142 44.0912 23.5142 44.3912 23.1142C43.3912 21.6142 42.1913 20.6142 40.2913 21.2142C39.8913 21.3142 39.2912 20.9142 39.1912 21.6142C39.0912 22.1142 38.9913 22.8142 39.7913 23.0142C39.3913 23.5142 38.9912 24.1142 39.4912 24.8142C40.0912 23.9142 40.8913 23.4142 41.2913 22.4142C41.7913 22.8142 42.6912 22.6142 42.8912 23.5142C42.2912 24.0142 41.3912 24.0142 40.9912 25.1142C40.5912 26.2142 41.2912 25.7142 41.5912 25.9142C41.3912 26.5142 41.4912 26.7142 41.6912 26.9142ZM24.4912 26.0142C24.4912 25.7142 24.4912 25.5142 24.4912 25.2142C24.7912 24.8142 24.7912 24.3142 24.1912 24.2142C23.0912 24.0142 21.8913 23.9142 20.7913 24.3142C20.3913 24.4142 20.0912 24.7142 20.3912 25.2142C20.4912 25.3142 20.5912 25.5142 20.5912 25.6142C20.5912 25.8142 20.5912 26.0142 20.6912 26.2142C21.1912 26.8142 24.2913 26.8142 24.7913 26.2142C24.7913 26.1142 24.6912 26.0142 24.4912 26.0142ZM25.3912 34.8142C25.4912 34.9142 25.5912 34.9142 25.6912 35.0142C25.6912 34.9142 25.5912 34.8142 25.5912 34.7142C24.5912 32.5142 23.2912 30.5142 22.8912 28.1142C22.8912 28.0142 22.7912 27.8142 22.6912 27.7142C22.5912 27.5142 22.3912 27.3142 22.0912 27.4142C21.7912 27.5142 21.9912 27.8142 21.9912 28.0142C22.4912 30.5142 23.7912 32.7142 25.3912 34.8142ZM47.1912 8.91418C47.7912 5.91418 45.4912 4.51418 43.6912 2.81418C42.6912 1.91418 40.9912 2.41418 39.8912 3.41418C37.3912 5.71418 37.6912 13.4142 41.9912 14.7142C44.0912 15.3142 45.8912 14.7142 46.6912 12.7142C47.0912 11.5142 47.3912 10.3142 47.1912 8.91418ZM48.0912 8.51418C48.0912 9.61418 47.8913 10.8142 48.7913 11.6142C49.7913 12.5142 51.2912 12.7142 52.1912 13.8142C52.4912 14.2142 52.7912 14.0142 53.0912 13.7142C54.6912 12.5142 55.7912 11.0142 56.1912 9.01418C56.8912 5.81418 55.2912 4.01418 52.1912 4.41418C49.6912 4.81418 48.0912 6.31418 48.0912 8.51418ZM30.8912 29.7142C33.0912 29.3142 33.5912 30.8142 34.1912 32.3142C34.6912 33.8142 34.7913 35.2142 33.7913 36.9142C35.6913 35.3142 35.7913 33.4142 34.2913 30.9142C33.2913 29.4142 32.5912 29.0142 30.8912 29.7142ZM25.5912 19.9142C24.6912 20.6142 24.5912 20.6142 24.1912 21.7142C23.5912 23.1142 23.7912 23.3142 25.1912 23.2142C25.7912 23.2142 25.9912 23.0142 25.8912 22.4142C25.7912 21.5142 25.6912 20.7142 25.5912 19.9142ZM28.7913 20.9142C28.5913 20.8142 28.2913 20.8142 28.2913 21.0142C28.2913 21.6142 28.2912 22.2142 27.5912 22.5142C27.3912 22.6142 27.6913 22.9142 27.7913 22.9142C28.2913 23.0142 28.8912 23.3142 29.3912 22.8142C29.7912 22.4142 30.1912 22.0142 30.0912 21.5142C29.9912 20.8142 29.1913 21.1142 28.7913 20.9142ZM19.1912 25.7142C19.2912 25.4142 19.3912 25.2142 19.0912 24.9142C18.9912 25.1142 18.8912 25.4142 19.1912 25.7142Z" fill="#262323"/>
<path d="M62.6912 56.6141C62.6912 56.1141 62.6912 55.6141 62.6912 55.1141C63.0912 54.8141 62.9912 54.4141 62.9912 54.0141C62.9912 50.1141 62.9912 46.3141 62.9912 42.4141C62.9912 42.0141 63.0912 41.6141 62.6912 41.3141C62.6912 41.0141 62.6912 40.7141 62.6912 40.4141C62.8912 40.3141 62.8912 40.2141 62.6912 40.1141C62.9912 38.4141 64.5912 39.0141 65.3912 39.0141C67.4912 39.1141 67.5912 39.5141 67.5912 41.7141C67.5912 44.0141 67.5912 46.2141 67.5912 48.5141C67.5912 50.5141 67.1912 50.9141 65.1912 50.9141C64.1912 50.9141 63.9912 51.2141 63.9912 52.1141C63.9912 53.5141 64.1913 55.0141 63.7913 56.4141C63.4913 56.6141 63.0912 56.6141 62.6912 56.6141ZM66.1912 45.1141C66.1912 43.7141 66.1912 42.4141 66.1912 41.0141C66.1912 40.2141 65.6912 40.0141 65.0912 40.0141C64.4912 40.0141 64.0912 40.2141 64.0912 40.9141C64.0912 43.6141 64.0912 46.2141 64.0912 48.9141C64.0912 49.5141 64.2912 50.1141 65.0912 50.0141C65.7912 50.0141 66.1912 49.7141 66.1912 48.8141C66.1912 47.6141 66.1912 46.4141 66.1912 45.1141Z" fill="#2F2B2C"/>
<path d="M88.1912 45.5142C88.1912 45.3142 88.0912 45.1142 88.0912 44.9142C87.9912 43.9142 88.3912 42.6142 86.4912 42.4142C87.9912 42.0142 88.0912 41.1142 87.9912 40.0142C87.9912 39.5142 87.8912 39.0142 88.6912 39.0142C89.5912 39.0142 89.4912 39.6142 89.4912 40.1142C89.3912 41.2142 89.4912 42.2142 90.8912 42.3142C90.8912 42.5142 90.8912 42.7142 90.8912 42.9142C90.3912 43.0142 89.8912 42.8142 89.4912 43.2142C89.2912 43.3142 89.1912 43.4142 89.4912 43.5142C89.4912 44.2142 89.4912 44.9142 89.4912 45.5142C89.3912 45.6142 89.2912 45.7142 89.1912 45.8142C88.9912 45.8142 88.7912 45.8142 88.5912 45.8142C88.4912 45.7142 88.3912 45.6142 88.1912 45.5142Z" fill="#2F2B2C"/>
<path d="M13.7913 24.8142C14.6913 23.9142 15.7912 23.4142 16.9912 23.4142C16.9912 24.3142 16.7912 25.2142 17.0912 26.0142C17.0912 26.1142 17.0912 26.1142 17.1912 26.1142C17.0912 26.2142 16.9912 26.4142 16.8912 26.5142C15.8912 26.5142 14.9912 26.5142 13.9912 26.5142C13.8912 26.3142 13.7912 26.1142 13.6912 25.9142C13.7912 25.6142 13.7913 25.2142 13.7913 24.8142Z" fill="#C4747C"/>
<path d="M39.1912 31.8142C39.6912 30.5142 40.7912 30.0142 42.4912 30.4142C43.5912 30.6142 44.0912 31.4142 44.0912 32.6142C44.0912 38.4142 44.0912 44.2142 44.0912 50.0142C44.0912 50.5142 44.2912 51.1142 43.3912 51.1142C42.4912 51.1142 42.6912 50.5142 42.6912 50.0142C42.6912 44.4142 42.6912 38.8142 42.6912 33.1142C42.6912 32.5142 43.1912 31.5142 41.7912 31.5142C40.2912 31.5142 40.5912 32.4142 40.5912 33.2142C40.5912 39.3142 40.5912 45.3142 40.5912 51.4142C40.5912 51.9142 40.8912 52.5142 39.8912 52.5142C38.7912 52.5142 39.2912 51.8142 39.2912 51.3142C39.5912 51.1142 39.5912 50.9142 39.2912 50.7142C39.2912 44.5142 39.2912 38.3142 39.2912 32.0142C39.3912 32.0142 39.2912 31.9142 39.1912 31.8142Z" fill="#2F2B2C"/>
<path d="M60.6912 44.9142C60.6912 45.1142 60.6912 45.3142 60.6912 45.5142H60.5913C60.5913 45.6142 60.5912 45.6142 60.6912 45.7142C60.1912 46.9142 59.0912 46.7142 58.1912 46.7142C56.5912 46.7142 57.3913 47.9142 57.2913 48.6142C57.1913 49.4142 57.2912 50.1142 58.3912 50.0142C58.9912 50.0142 59.3912 49.8142 59.3912 49.1142C59.3912 48.4142 59.7912 48.3142 60.3912 48.4142C61.1912 48.4142 60.8912 49.0142 60.8912 49.3142C60.8912 50.6142 60.2912 51.0142 58.4912 51.1142C56.6912 51.1142 56.0912 50.8142 55.9912 49.4142C55.8912 46.5142 55.9912 43.6142 55.9912 40.7142C55.9912 40.1142 56.1912 39.4142 56.6912 39.4142C57.7912 39.5142 58.9913 38.3142 60.0913 39.5142C60.1913 39.6142 60.3913 39.7142 60.5913 39.8142C60.6913 40.0142 60.7913 40.1142 60.7913 40.3142C60.7913 40.6142 60.7913 40.9142 60.7913 41.2142C60.0913 42.4142 60.1912 43.6142 60.6912 44.9142ZM57.1912 42.9142C57.1912 43.5142 57.1912 44.1142 57.1912 44.6142C57.1912 45.2142 57.2912 45.9142 57.9912 45.8142C58.5912 45.7142 59.2913 45.7142 59.2913 44.7142C59.2913 43.5142 59.3913 42.3142 59.2913 41.1142C59.2913 40.4142 58.9913 40.1142 58.2913 40.1142C57.4913 40.1142 57.1912 40.5142 57.1912 41.2142C57.1912 41.8142 57.1912 42.3142 57.1912 42.9142Z" fill="#2F2B2C"/>
<path d="M52.1912 30.4142C53.0912 30.2142 53.3913 30.4142 53.2913 31.4142C53.1913 33.1142 53.2913 34.8142 53.2913 36.5142C53.2913 37.4142 53.4912 37.8142 54.3912 37.6142C54.6912 37.6142 55.1912 37.4142 55.1912 38.1142C55.1912 38.7142 54.6912 38.7142 54.3912 38.6142C53.2912 38.4142 53.2913 39.1142 53.2913 39.9142C53.2913 43.7142 53.2913 47.4142 53.2913 51.2142C53.2913 51.6142 53.5913 52.1142 53.0913 52.5142C52.9913 52.4142 52.8913 52.4142 52.7913 52.5142C52.5913 52.5142 52.3912 52.5142 52.1912 52.5142C52.0912 51.9142 52.3912 51.3142 51.8912 50.8142C51.8912 47.1142 51.8912 43.4142 51.8912 39.7142L51.9912 39.6142C51.9912 39.5142 51.8912 39.5142 51.8912 39.4142C50.8912 38.5142 51.0912 37.7142 51.8912 36.8142L51.9912 36.7142C51.9912 36.6142 51.8912 36.6142 51.8912 36.5142C51.8912 34.9142 51.8912 33.4142 51.8912 31.8142L51.9912 31.7142C51.9912 31.6142 51.8912 31.6142 51.8912 31.5142C51.8912 31.2142 51.8912 30.9142 51.8912 30.6142C51.9912 30.6142 52.0912 30.5142 52.1912 30.4142Z" fill="#1D191A"/>
<path d="M74.2913 40.2141C74.2913 40.4141 74.2913 40.6141 74.2913 40.8141C73.8913 41.1141 73.8913 41.4141 74.2913 41.7141C74.2913 43.2141 74.2913 44.6141 74.2913 46.1141C73.8913 46.9141 73.8913 47.6141 74.2913 48.4141C74.2913 48.9141 74.2913 49.4141 74.2913 49.9141C74.2913 50.0141 74.1912 50.2141 74.1912 50.3141C74.0912 50.3141 73.8912 50.1141 73.9912 50.4141C72.8912 51.4141 71.6912 51.1141 70.4912 50.8141C69.8912 50.7141 69.5912 50.2141 69.5912 49.5141C69.5912 48.3141 69.4912 47.2141 69.4912 46.0141C69.5912 43.6141 69.5912 43.6141 71.8912 43.3141C72.3912 43.2141 73.0912 43.5141 73.0912 42.7141C73.0912 41.9141 73.4912 40.9141 72.6912 40.2141C72.0912 39.7141 71.3912 39.8141 70.8912 40.4141C70.5912 40.6141 70.4913 40.8141 70.7913 41.0141C70.7913 41.2141 70.7913 41.4141 70.7913 41.6141C70.2913 41.7141 69.9912 41.3141 69.6912 41.0141C69.4912 39.7141 69.7913 39.0141 71.2913 39.2141C72.2913 39.3141 73.4913 38.5141 74.2913 39.9141L74.1912 40.0141C74.1912 40.1141 74.2913 40.2141 74.2913 40.2141ZM70.7913 45.2141C70.7913 46.6141 70.7913 47.9141 70.7913 49.3141C70.5913 49.4141 70.5913 49.5141 70.7913 49.6141C71.5913 50.3141 72.2912 50.1141 73.0912 49.6141C73.5912 48.0141 73.6912 46.3141 72.9912 44.7141C72.2912 44.4141 71.4913 44.2141 70.7913 44.7141C70.5913 44.8141 70.4913 45.0141 70.7913 45.2141Z" fill="#1D191A"/>
<path d="M80.3912 30.4142C80.5912 30.4142 80.7912 30.4142 80.9912 30.4142C80.9912 37.1142 80.9912 43.8142 80.9912 50.4142C79.5912 51.4142 77.6912 51.3142 76.6912 50.1142L76.7913 50.0142C76.7913 49.9142 76.6912 49.9142 76.6912 49.8142C76.6912 49.6142 76.6912 49.4142 76.6912 49.2142C77.2912 48.0142 76.9912 46.8142 76.9912 45.6142C76.9912 43.7142 77.2913 41.8142 76.7913 39.9142C76.9913 39.2142 77.3912 39.1142 78.1912 39.2142C78.8912 39.3142 79.6913 39.5142 80.2913 38.7142C80.4913 38.6142 80.4913 38.5142 80.2913 38.4142C80.1913 35.8142 80.1913 33.2142 80.2913 30.5142C80.2913 30.6142 80.3912 30.5142 80.3912 30.4142ZM77.8912 40.3142C77.3912 40.5142 77.3913 40.8142 77.7913 41.2142C77.7913 43.8142 77.7913 46.4142 77.7913 49.1142C77.4913 49.3142 77.5912 49.5142 77.8912 49.7142C78.7912 50.5142 79.4912 50.5142 80.1912 49.4142C80.3912 49.3142 80.3912 49.2142 80.1912 49.1142C80.1912 46.5142 80.1912 43.9142 80.1912 41.2142C80.3912 41.1142 80.2912 41.0142 80.1912 40.9142C79.5912 39.7142 78.7912 40.0142 77.8912 40.3142Z" fill="#262323"/>
<path d="M49.2912 40.6141C49.4912 43.4141 49.4912 46.2141 49.2912 49.0141C48.7912 49.4141 48.8912 49.8141 49.1912 50.2141C48.0912 51.5141 46.1912 51.5141 44.7912 50.4141C44.6912 50.3141 44.5912 50.1141 44.5912 50.0141C44.4912 46.8141 44.4912 43.6141 44.5912 40.4141C44.6912 40.2141 44.7912 40.1141 44.7912 39.9141C45.6912 39.0141 47.7912 39.0141 48.8912 39.8141C48.9912 40.0141 48.9912 40.4141 49.2912 40.6141ZM48.0912 40.5141C46.7912 39.7141 46.2912 39.8141 45.7912 41.1141C45.0912 43.3141 45.5912 45.6141 45.4912 47.8141C45.4912 48.3141 45.2912 48.9141 45.7912 49.3141C46.3912 50.3141 47.1912 50.2141 48.0912 49.6141C48.2912 49.5141 48.2912 49.4141 48.0912 49.3141C48.0912 46.5141 48.0912 43.7141 48.0912 40.8141C48.3912 40.7141 48.2912 40.6141 48.0912 40.5141Z" fill="#262323"/>
<path d="M57.3912 24.1142C58.4912 24.1142 59.4912 24.1142 60.0912 25.3142C59.6912 25.3142 59.3912 25.4142 59.1912 25.8142C56.2912 26.2142 53.4912 27.7142 50.4912 27.3142C50.4912 27.1142 50.4912 26.9142 50.4912 26.6142C50.9912 26.0142 51.0912 25.2142 51.6912 24.7142C51.5912 24.6142 51.3913 24.4142 51.2913 24.3142C52.1913 23.6142 52.6913 23.9142 52.7913 25.0142V25.1142H52.6912C52.4912 25.2142 52.3912 25.2142 52.5912 25.4142C51.9912 26.5142 52.4912 26.7142 53.4912 26.5142C53.8912 26.4142 54.2913 26.3142 54.7913 26.2142C56.1913 25.9142 56.3912 25.7142 55.6912 24.4142C56.3912 24.3142 56.8912 24.2142 57.3912 24.1142Z" fill="#262323"/>
<path d="M50.4912 26.6142C50.4912 26.8142 50.4912 27.0142 50.4912 27.3142C49.9912 27.5142 49.6913 27.9142 49.2913 28.3142C47.9913 29.6142 46.6912 29.6142 45.4912 28.3142C45.0912 27.9142 44.6912 27.4142 44.3912 27.0142C44.7912 26.4142 45.2913 26.7142 45.7913 26.6142C46.8913 26.5142 47.9912 26.9142 48.9912 26.3142C49.1912 26.3142 49.3912 26.3142 49.5912 26.3142C49.6912 26.4142 49.7912 26.5142 49.8912 26.5142C50.0912 26.6142 50.2912 26.6142 50.4912 26.6142Z" fill="#1D191A"/>
<path d="M83.9912 45.8142C83.4912 45.9142 83.2912 45.7142 83.2912 45.3142C83.2912 44.8142 83.2912 44.3142 83.2912 43.9142C83.2912 43.3142 83.2912 42.8142 82.4912 42.9142C82.2912 42.9142 81.9912 43.0142 81.8912 42.7142C81.7912 42.4142 82.0912 42.1142 82.1912 42.1142C83.4912 42.0142 83.1912 41.0142 83.2912 40.2142C83.2912 39.8142 82.8912 39.0142 83.7912 39.0142C84.7912 38.9142 84.4912 39.7142 84.3912 40.2142C84.3912 41.1142 84.4912 41.8142 85.5912 42.0142C85.8912 42.0142 86.0912 42.2142 86.0912 42.6142C86.0912 42.9142 85.7912 43.0142 85.5912 42.9142C84.2912 42.7142 84.4912 43.6142 84.4912 44.4142C84.4912 45.0142 84.6912 45.6142 83.9912 45.8142Z" fill="#1D191A"/>
<path d="M80.9912 50.4142C80.9912 43.7142 80.9912 37.0142 80.9912 30.4142C81.4912 30.5142 81.2913 30.9142 81.2913 31.2142C81.2913 37.3142 81.2913 43.3142 81.2913 49.4142C81.3913 49.7142 81.4912 50.2142 80.9912 50.4142Z" fill="#020202"/>
<path d="M57.3912 24.1141C56.8912 24.2141 56.3912 24.2141 55.8912 24.3141C55.3912 24.3141 54.7913 24.4141 54.2913 24.2141C53.3913 23.8141 53.0912 24.3141 52.8912 25.0141C52.7912 23.9141 52.2912 23.6141 51.3912 24.3141C50.7912 24.0141 50.0912 24.0141 49.3912 24.0141C49.3912 23.7141 49.3912 23.5141 49.3912 23.2141C51.4912 23.7141 53.7912 23.3141 55.8912 23.8141C56.3912 24.0141 56.8912 23.7141 57.3912 24.1141Z" fill="#1D191A"/>
<path d="M62.6912 41.4142C63.0912 41.7142 62.9912 42.1142 62.9912 42.5142C62.9912 46.4142 62.9912 50.2142 62.9912 54.1142C62.9912 54.5142 63.0912 54.9142 62.6912 55.2142C62.6912 50.5142 62.6912 46.0142 62.6912 41.4142Z" fill="#020202"/>
<path d="M28.8912 27.1142C28.8912 26.9142 28.8912 26.6142 28.8912 26.4142C30.9912 26.7142 33.0913 26.4142 35.2913 26.6142C35.2913 26.8142 35.2913 26.9142 35.2913 27.1142C33.9913 27.1142 32.7912 27.1142 31.4912 27.1142C31.2912 26.8142 31.0912 26.9142 30.8912 27.1142C30.2912 27.1142 29.5912 27.1142 28.8912 27.1142Z" fill="#1D191A"/>
<path d="M48.9912 26.3141C47.9912 26.8141 46.7913 26.4141 45.7913 26.6141C45.2913 26.7141 44.6912 26.4141 44.3912 27.0141C43.4912 27.0141 42.6913 27.0141 41.7913 26.9141C41.5913 26.7141 41.3912 26.5141 41.1912 26.3141C42.4912 26.2141 43.7912 26.4141 45.0912 26.1141C46.3912 26.2141 47.6912 26.2141 48.9912 26.3141Z" fill="#020202"/>
<path d="M76.6912 40.0142C77.2912 41.9142 76.8913 43.8142 76.8913 45.7142C76.8913 46.9142 77.2913 48.2142 76.5913 49.3142C76.4913 46.2142 76.4912 43.1142 76.6912 40.0142Z" fill="#020202"/>
<path d="M14.0912 26.5142C15.0912 26.5142 15.9912 26.5142 16.9912 26.5142H17.0912H17.1912C17.9912 26.6142 18.7912 26.2142 19.4912 26.8142C17.8912 26.8142 16.3913 26.8142 14.7913 26.8142C14.5913 26.9142 14.1912 27.1142 14.0912 26.5142Z" fill="#020202"/>
<path d="M60.6912 44.9141C60.1912 43.6141 60.1912 42.4141 60.6912 41.1141C60.6912 42.4141 60.6912 43.6141 60.6912 44.9141Z" fill="#020202"/>
<path d="M74.2913 48.4141C73.8913 47.6141 73.8913 46.9141 74.2913 46.1141C74.2913 46.9141 74.2913 47.6141 74.2913 48.4141Z" fill="#020202"/>
<path d="M26.8912 27.1142C27.3912 26.7142 27.8912 26.7142 28.3912 27.2142C27.7912 27.3142 27.3912 27.2142 26.8912 27.1142Z" fill="#1D191A"/>
<path d="M69.6912 41.1141C69.9912 41.4141 70.2913 41.8141 70.7913 41.7141C70.6913 42.3141 70.1912 42.1141 69.8912 42.0141C69.3912 41.9141 69.5912 41.5141 69.6912 41.1141Z" fill="#020202"/>
<path d="M51.8912 50.7141C52.3912 51.2141 52.0912 51.8141 52.1912 52.4141C51.5912 52.0141 51.9912 51.3141 51.8912 50.7141Z" fill="#020202"/>
<path d="M49.2912 50.1142C48.8912 49.7142 48.8912 49.3142 49.3912 48.9142C49.2912 49.4142 49.2912 49.8142 49.2912 50.1142Z" fill="#020202"/>
<path d="M49.2912 40.6141C48.8912 40.4141 48.9912 40.1141 48.9912 39.7141C49.4912 39.8141 49.2912 40.2141 49.2912 40.6141Z" fill="#020202"/>
<path d="M74.2913 41.7142C73.8913 41.4142 73.8913 41.1142 74.2913 40.8142C74.2913 41.1142 74.2913 41.4142 74.2913 41.7142Z" fill="#020202"/>
<path d="M70.7913 41.1142C70.4913 40.9142 70.5912 40.7142 70.8912 40.5142C70.8912 40.7142 70.7913 40.9142 70.7913 41.1142Z" fill="#020202"/>
<path d="M30.9912 27.1142C31.1912 26.8142 31.3912 26.8142 31.5912 27.1142C31.2912 27.1142 31.0912 27.1142 30.9912 27.1142Z" fill="#262323"/>
<path d="M59.1912 25.8142C59.3912 25.5142 59.6912 25.4142 60.0912 25.3142C59.9912 25.4142 59.8913 25.5142 59.7913 25.6142C59.5913 25.7142 59.3912 25.7142 59.1912 25.8142Z" fill="#1D191A"/>
<path d="M39.0912 50.7141C39.3912 50.9141 39.3912 51.1141 39.0912 51.3141C39.0912 51.1141 39.0912 50.9141 39.0912 50.7141Z" fill="#020202"/>
<path d="M62.6912 40.3142C62.8912 40.4142 62.8912 40.5142 62.6912 40.6142C62.6912 40.4142 62.6912 40.4142 62.6912 40.3142Z" fill="#020202"/>
<path d="M52.1912 30.4142C52.0912 30.5142 51.9912 30.6142 51.8912 30.6142C51.8912 30.4142 51.9912 30.4142 52.1912 30.4142Z" fill="#020202"/>
<path d="M80.3912 30.4142C80.2912 30.5142 80.1912 30.6142 80.0912 30.6142C80.1912 30.4142 80.1912 30.4142 80.3912 30.4142Z" fill="#020202"/>
<path d="M60.5912 40.2141C60.4912 40.0141 60.3912 39.9141 60.3912 39.7141C60.5912 39.9141 60.5912 40.0141 60.5912 40.2141Z" fill="#020202"/>
<path d="M51.8912 31.5142C51.8912 31.6142 51.9912 31.6142 51.9912 31.7142L51.8912 31.8142C51.8912 31.7142 51.8912 31.6142 51.8912 31.5142Z" fill="#020202"/>
<path d="M39.1912 31.8142C39.3912 31.9142 39.3912 32.0142 39.1912 32.1142C39.0912 32.0142 39.0912 31.9142 39.1912 31.8142Z" fill="#020202"/>
<path d="M51.8912 36.5142C51.8912 36.6142 51.9912 36.6142 51.9912 36.7142L51.8912 36.8142C51.8912 36.7142 51.8912 36.6142 51.8912 36.5142Z" fill="#020202"/>
<path d="M89.4912 43.5141C89.1912 43.4141 89.2912 43.3141 89.4912 43.2141C89.4912 43.3141 89.4912 43.4141 89.4912 43.5141Z" fill="#020202"/>
<path d="M80.1912 38.5142C80.3912 38.6142 80.3912 38.7142 80.1912 38.8142C80.1912 38.7142 80.1912 38.6142 80.1912 38.5142Z" fill="#020202"/>
<path d="M51.8912 39.4142C51.8912 39.5142 51.9912 39.5142 51.9912 39.6142L51.8912 39.7142C51.8912 39.6142 51.8912 39.5142 51.8912 39.4142Z" fill="#020202"/>
<path d="M60.5912 45.8141C60.5912 45.7141 60.4912 45.7141 60.4912 45.6141H60.5912C60.6912 45.6141 60.6912 45.7141 60.5912 45.8141Z" fill="#020202"/>
<path d="M88.1912 45.5142C88.2912 45.6142 88.3912 45.7142 88.5912 45.8142C88.3912 45.8142 88.1912 45.8142 88.1912 45.5142Z" fill="#020202"/>
<path d="M89.1912 45.8142C89.2912 45.7142 89.3912 45.6142 89.4912 45.5142C89.4912 45.7142 89.3912 45.8142 89.1912 45.8142Z" fill="#020202"/>
<path d="M44.8912 39.8142C44.7912 40.0142 44.6912 40.1142 44.6912 40.3142C44.5912 40.0142 44.6912 39.9142 44.8912 39.8142Z" fill="#020202"/>
<path d="M59.7913 25.7142C59.8913 25.6142 59.9912 25.5142 60.0912 25.4142C60.0912 25.5142 60.0913 25.7142 59.7913 25.7142Z" fill="#262323"/>
<path d="M44.6912 49.9142C44.7912 50.0142 44.8912 50.2142 44.8912 50.3142C44.6912 50.2142 44.5912 50.1142 44.6912 49.9142Z" fill="#020202"/>
<path d="M74.1912 50.3142C74.1912 50.2142 74.2913 50.0142 74.2913 49.9142C74.2913 50.0142 74.1912 50.1142 74.1912 50.3142Z" fill="#020202"/>
<path d="M76.6912 49.9142C76.6912 50.0142 76.7912 50.0142 76.7912 50.1142L76.6912 50.2142C76.5912 50.1142 76.5912 50.0142 76.6912 49.9142Z" fill="#020202"/>
<path d="M73.9912 50.4142C73.8912 50.1142 74.0912 50.3142 74.1912 50.3142C74.1912 50.4142 74.0912 50.4142 73.9912 50.4142Z" fill="#020202"/>
<path d="M74.2913 40.2142C74.2913 40.1142 74.1912 40.1142 74.1912 40.0142C74.1912 40.0142 74.1913 39.9142 74.2913 39.9142C74.2913 40.1142 74.3913 40.1142 74.2913 40.2142Z" fill="#020202"/>
<path d="M52.7913 52.4142C52.8913 52.2142 52.9912 52.2142 53.0912 52.4142H52.9912H52.7913Z" fill="#020202"/>
<path d="M31.1912 20.4142C30.1912 20.2142 29.1912 19.9142 28.6912 18.9142C28.2912 18.1142 27.9912 18.5142 27.6912 19.0142C27.2912 19.9142 26.9912 20.8142 26.9912 22.0142C26.1912 21.0142 26.3912 20.1142 26.6912 19.2142C26.7912 18.8142 27.1912 18.4142 26.8912 18.0142C26.4912 17.6142 25.9912 17.9142 25.5912 18.2142C24.3912 18.0142 23.6912 18.7142 22.9912 19.6142C22.4912 20.3142 22.1913 21.3142 21.2913 21.7142C21.2913 21.0142 21.2913 20.3142 21.2913 19.7142C22.2913 18.9142 21.8912 17.3142 22.8912 16.4142C23.8912 16.6142 24.4913 16.3142 24.7913 15.3142C25.0913 14.4142 25.5913 13.5142 26.7913 13.5142C27.5913 13.5142 28.4913 13.6142 29.2913 13.5142C31.0913 13.4142 32.8912 13.0142 34.6912 13.6142C36.1912 14.1142 37.4912 15.2142 38.8912 15.9142C39.6912 16.3142 40.1912 16.3142 40.5912 15.5142C41.3912 15.7142 42.0912 16.1142 42.9912 16.2142C44.7912 16.4142 46.2912 15.9142 47.0912 14.2142C47.7912 12.9142 48.5913 12.9142 49.7913 13.5142C50.7913 14.1142 51.7912 14.6142 52.1912 15.8142C51.6912 16.2142 51.5912 17.2142 50.6912 17.2142C48.6912 17.2142 47.1912 18.4142 45.4912 19.0142C44.9912 18.9142 44.5912 19.3142 44.1912 19.4142C43.5912 19.2142 42.9912 19.0142 42.3912 18.9142C40.7912 18.7142 39.7912 19.2142 39.6912 20.4142C38.6912 20.5142 39.0912 19.8142 39.0912 19.3142C39.0912 18.9142 39.0913 18.5142 38.7913 18.4142C38.4913 18.4142 38.0912 18.7142 38.0912 19.2142C37.9912 20.0142 37.9912 20.8142 37.8912 21.8142C37.3912 21.1142 37.4912 20.3142 37.3912 19.6142C37.2912 18.6142 36.8912 18.4142 36.1912 19.3142C34.2912 19.5142 32.2913 19.1142 30.2913 19.0142C30.6913 19.6142 31.2912 19.8142 31.1912 20.4142Z" fill="#ADD277"/>
<path d="M47.1912 8.91412C47.3912 10.2141 47.0913 11.5141 46.5913 12.6141C45.7913 14.7141 43.9912 15.2141 41.8912 14.6141C37.5912 13.4141 37.2913 5.61411 39.7913 3.31411C40.8913 2.31411 42.6913 1.81411 43.5913 2.71411C45.4913 4.51411 47.7912 5.91412 47.1912 8.91412ZM41.5913 8.51411C40.7913 8.41411 40.0913 8.61411 40.0913 9.51411C40.0913 10.4141 40.5912 11.0141 41.3912 11.1141C42.2912 11.1141 42.6913 10.5141 42.5913 9.71411C42.6913 9.01411 42.4913 8.31411 41.5913 8.51411Z" fill="#F8F9F9"/>
<path d="M48.0912 8.51416C48.0912 6.31416 49.6912 4.71417 52.1912 4.41417C55.2912 4.01417 56.7912 5.81416 56.1912 9.01416C55.7912 11.0142 54.6912 12.5142 53.0912 13.7142C52.7912 13.9142 52.5912 14.1142 52.1912 13.8142C51.2912 12.7142 49.7912 12.5142 48.7912 11.6142C47.9912 10.9142 48.0912 9.61416 48.0912 8.51416ZM54.8912 7.31416C53.8912 7.61416 52.9912 7.81417 52.9912 8.91417C52.9912 9.31417 53.5912 9.91416 54.1912 9.71416C55.3912 9.21416 54.5912 8.21416 54.8912 7.31416Z" fill="#F8F9F9"/>
<path d="M26.8912 13.4141C25.6912 13.4141 25.1912 14.3141 24.8912 15.2141C24.5912 16.2141 23.9912 16.6141 22.9912 16.3141C22.9912 15.3141 23.1912 14.4141 23.9912 13.7141C24.0912 13.6141 24.1913 13.5141 24.2913 13.4141H24.1912C25.2912 12.9141 25.7912 11.9141 25.8912 10.7141C26.6912 11.1141 27.2912 11.5141 27.6912 10.1141C27.9912 8.91414 29.1912 8.61413 30.3912 8.51413C32.0912 8.31413 33.5912 9.11413 35.1912 9.31413C36.2912 9.41413 36.5912 9.91414 36.4912 10.9141C35.7912 10.9141 35.0912 11.4141 34.3912 11.1141C33.2912 10.7141 32.1912 11.0141 31.1912 11.4141C30.0912 11.8141 28.9912 12.2141 27.9912 12.6141C27.4912 12.8141 26.9912 12.8141 26.8912 13.4141Z" fill="#7CC36E"/>
<path d="M26.8912 13.4142C26.9912 12.8142 27.4912 12.7142 27.8912 12.5142C28.9912 12.1142 30.0912 11.7142 31.0912 11.3142C32.0912 10.9142 33.1913 10.6142 34.2913 11.0142C34.9913 11.3142 35.6912 10.7142 36.3912 10.8142C36.6912 10.7142 36.9912 10.6142 37.1912 10.5142C37.5912 12.6142 38.6912 14.2142 40.4912 15.4142C40.0912 16.3142 39.5913 16.2142 38.7913 15.8142C37.3913 15.1142 36.1912 14.0142 34.5912 13.5142C32.7912 12.9142 30.9912 13.3142 29.1912 13.4142C28.4912 13.5142 27.6912 13.5142 26.8912 13.4142Z" fill="#96CB6F"/>
<path d="M37.2913 10.6141C36.9913 10.7141 36.6912 10.8141 36.4912 10.9141C36.6912 9.91413 36.2912 9.51412 35.1912 9.31412C33.5912 9.11412 31.9912 8.41412 30.3912 8.51412C29.1912 8.61412 28.0912 9.01412 27.6912 10.1141C27.2912 11.5141 26.6912 11.1141 25.8912 10.7141C26.9912 8.61411 28.9912 8.01412 31.0912 7.61412C32.8912 7.31412 34.5913 7.81412 36.2913 8.61412C37.0913 9.01412 37.2913 9.71412 37.2913 10.6141Z" fill="#91C98E"/>
<path d="M48.9912 26.3142C47.6912 26.2142 46.3912 26.2142 45.0912 26.1142C45.1912 26.0142 45.1913 25.9142 45.2913 25.7142C46.1913 25.7142 47.0912 25.7142 47.9912 25.7142C47.3912 24.8142 46.5912 25.2142 45.8912 25.0142C46.2912 23.7142 47.4912 24.4142 48.1912 24.1142C48.3912 24.1142 48.5913 24.0142 48.7913 24.0142C48.9913 24.0142 49.1913 24.0142 49.2913 24.0142C49.9913 24.0142 50.6913 24.0142 51.2913 24.3142C51.3913 24.4142 51.5912 24.6142 51.6912 24.7142C51.0912 25.2142 50.8912 26.0142 50.4912 26.6142C50.2912 26.6142 50.0912 26.6142 49.8912 26.6142C49.8912 26.4142 49.7912 26.3142 49.5912 26.4142C49.3912 26.3142 49.1912 26.3142 48.9912 26.3142Z" fill="#EACF71"/>
<path d="M27.4912 25.1142C27.4912 24.7142 27.1912 24.6142 26.8912 24.5142V24.4142C27.3912 23.9142 27.9912 23.9142 28.6912 24.1142C29.9912 24.5142 31.3913 24.9142 32.7913 24.4142C34.1913 24.4142 35.6912 24.4142 37.0912 24.4142C37.4912 24.7142 38.2912 24.4142 38.1912 25.3142C37.7912 25.6142 37.2913 25.5142 36.7913 25.5142C33.6913 25.3142 30.5912 25.2142 27.4912 25.1142Z" fill="#D0B870"/>
<path d="M45.4912 19.0142C47.1912 18.4142 48.7912 17.2142 50.6912 17.2142C51.5912 17.2142 51.5912 16.2142 52.1912 15.8142C53.1912 16.9142 52.8912 17.7142 51.5912 18.3142C50.1912 19.0142 48.6912 19.4142 47.1912 19.6142C46.4912 19.7142 45.8912 19.6142 45.4912 19.0142Z" fill="#96CB6F"/>
<path d="M39.3913 23.4142C38.5913 23.2142 38.6913 22.5142 38.7913 22.0142C38.8913 21.3142 39.4913 21.8142 39.8913 21.6142C41.8913 21.0142 42.9912 22.0142 43.9912 23.5142C43.6912 23.9142 42.9913 23.3142 42.7913 23.9142C42.6913 23.9142 42.4913 23.9142 42.3913 23.9142C42.1913 23.0142 41.2913 23.2142 40.7913 22.8142C40.3913 23.0142 39.8913 23.2142 39.3913 23.4142Z" fill="#F2F2F2"/>
<path d="M32.6912 23.7142C32.2912 22.2142 32.7912 21.7142 34.2912 21.9142C35.4912 22.0142 36.7912 21.4142 37.4912 23.0142C37.7912 23.7142 37.3912 23.6142 36.9912 23.7142C35.5912 23.8142 34.0912 23.8142 32.6912 23.7142Z" fill="#F8F9F9"/>
<path d="M31.1912 20.4142C31.1912 19.8142 30.5912 19.6142 30.1912 19.0142C32.2912 19.0142 34.1912 19.5142 36.0912 19.3142C36.2912 20.2142 35.9912 20.6142 34.9912 20.8142C33.7912 21.0142 32.4912 20.5142 31.1912 20.4142Z" fill="#7CC36E"/>
<path d="M35.2913 26.6142C33.1913 26.4142 31.0912 26.7142 28.8912 26.4142C28.6912 26.2142 28.3913 26.1142 28.2913 25.8142C31.4913 25.6142 34.5913 25.9142 37.7913 26.0142C37.1913 27.1142 36.2913 26.8142 35.2913 26.6142Z" fill="#D0B870"/>
<path d="M42.3912 23.9142C42.4912 23.9142 42.6913 23.9142 42.7913 23.9142C43.2913 24.0142 43.6912 24.2142 43.9912 24.5142C43.5912 25.2142 42.8912 24.9142 42.1912 25.2142C42.7912 25.8142 43.3912 25.6142 43.9912 25.6142H44.0913H44.1912C44.3912 25.6142 44.5913 25.6142 44.7913 25.6142V25.7142C44.8913 25.8142 44.8912 26.0142 44.9912 26.1142C43.6912 26.4142 42.3913 26.2142 41.0913 26.3142C40.7913 26.1142 40.0912 26.6142 40.4912 25.5142C40.9912 24.4142 41.7912 24.4142 42.3912 23.9142Z" fill="#EACF71"/>
<path d="M21.3912 21.6142C22.2912 21.2142 22.4912 20.2142 23.0912 19.5142C23.7912 18.6142 24.4912 17.9142 25.6912 18.1142C24.5912 19.1142 23.8912 20.4142 23.1912 21.7142C22.7912 22.5142 22.2913 23.0142 21.2913 22.7142C21.2913 22.4142 21.3912 22.0142 21.3912 21.6142Z" fill="#7CC36E"/>
<path d="M30.8912 29.7142C32.4912 29.0142 33.2913 29.3142 34.2913 31.0142C35.6913 33.4142 35.5913 35.4142 33.7913 37.0142C34.8913 35.3142 34.7912 33.8142 34.1912 32.4142C33.5912 30.9142 33.0912 29.4142 30.8912 29.7142Z" fill="#6FB264"/>
<path d="M25.3912 34.8142C23.7912 32.7142 22.4913 30.5142 22.0913 27.9142C22.0913 27.7142 21.8912 27.4142 22.1912 27.3142C22.4912 27.2142 22.5913 27.4142 22.7913 27.6142C22.8913 27.7142 22.8912 27.9142 22.9912 28.0142C23.3912 30.4142 24.6912 32.5142 25.6912 34.6142C25.4912 34.6142 25.3912 34.7142 25.3912 34.8142Z" fill="#6FB264"/>
<path d="M39.6912 20.4142C39.7912 19.2142 40.7912 18.6142 42.3912 18.9142C42.9912 19.0142 43.5912 19.2142 44.1912 19.4142C42.7912 20.2142 41.2912 20.8142 39.6912 20.4142Z" fill="#6FB264"/>
<path d="M37.8912 26.0141C34.6912 25.9141 31.5912 25.6141 28.3912 25.8141C28.0912 25.6141 27.7912 25.3141 27.4912 25.1141C30.5912 25.2141 33.6913 25.3141 36.7913 25.4141C37.2913 25.4141 37.7912 25.5141 38.1912 25.2141C38.1912 25.5141 38.1912 25.8141 37.8912 26.0141Z" fill="#1D191A"/>
<path d="M20.4912 25.1142C20.1912 24.6142 20.4912 24.4142 20.8912 24.2142C21.9912 23.8142 23.1912 23.9142 24.2912 24.1142C24.8912 24.2142 24.8912 24.6142 24.5912 25.1142C23.1912 25.1142 21.7912 25.1142 20.4912 25.1142Z" fill="#D0B870"/>
<path d="M25.5912 19.9142C25.6912 20.7142 25.7912 21.5142 25.9912 22.3142C26.0912 22.9142 25.8913 23.1142 25.2913 23.1142C23.7913 23.2142 23.6913 23.0142 24.2913 21.6142C24.5913 20.6142 24.6912 20.5142 25.5912 19.9142Z" fill="#F2F2F2"/>
<path d="M28.7913 20.9142C29.1913 21.2142 29.9912 20.9142 30.1912 21.5142C30.2912 22.0142 29.8912 22.4142 29.4912 22.8142C28.9912 23.3142 28.3912 23.0142 27.8912 22.9142C27.7912 22.9142 27.4912 22.6142 27.6912 22.5142C28.2912 22.1142 28.2912 21.6142 28.3912 21.0142C28.2912 20.8142 28.5913 20.8142 28.7913 20.9142Z" fill="#F2F2F2"/>
<path d="M24.4912 26.0141C24.5912 26.1141 24.6912 26.1141 24.8912 26.2141C24.3912 26.8141 21.2913 26.8141 20.7913 26.2141C20.6913 26.1141 20.6912 25.8142 20.6912 25.6142C21.9912 25.6142 23.2912 25.4141 24.4912 26.0141Z" fill="#D0B870"/>
<path d="M32.6912 23.7141C34.1912 23.7141 35.5912 23.7141 37.0912 23.7141C37.0912 23.9141 37.0912 24.1141 37.0912 24.3141C35.6912 24.3141 34.1913 24.3141 32.7913 24.3141C32.6913 24.1141 32.6912 23.9141 32.6912 23.7141Z" fill="#020202"/>
<path d="M24.4912 26.0141C23.2912 25.4141 21.9912 25.7141 20.6912 25.6141C20.5912 25.5141 20.4912 25.3141 20.4912 25.2141C21.8912 25.2141 23.1912 25.2141 24.5912 25.2141C24.4912 25.4141 24.4912 25.7141 24.4912 26.0141Z" fill="#020202"/>
<path d="M39.3912 23.4142C39.8912 23.2142 40.3912 23.0142 40.7912 22.9142C40.3912 23.9142 39.5912 24.4142 38.9912 25.3142C38.5912 24.4142 38.9912 23.9142 39.3912 23.4142Z" fill="#6FB264"/>
<path d="M25.8912 10.7141C25.7912 11.9141 25.2912 12.8141 24.1912 13.4141C24.3912 12.3141 24.7912 11.3141 25.8912 10.7141Z" fill="#91C98E"/>
<path d="M21.3913 21.6142C21.3913 22.0142 21.2913 22.4142 21.2913 22.7142C21.0913 22.5142 20.8912 22.3142 20.6912 22.1142C20.6912 21.2142 20.4912 20.3142 20.9912 19.5142C21.0912 19.5142 21.1913 19.5142 21.3913 19.5142C21.3913 20.3142 21.3913 20.9142 21.3913 21.6142Z" fill="#020202"/>
<path d="M17.0912 26.0142C16.7912 25.1142 16.9912 24.2142 16.9912 23.4142C17.4912 23.5142 18.0912 23.1142 18.4912 23.7142C17.3912 24.2142 17.3912 25.0142 17.7912 26.0142C17.5912 25.9142 17.2912 26.0142 17.0912 26.0142Z" fill="#1D191A"/>
<path d="M26.8912 24.3141V24.4142C26.8912 24.8142 26.7912 25.1141 26.7912 25.6141C26.1912 25.3141 25.6912 25.1142 25.8912 24.4142C26.0912 23.7142 26.4912 24.2141 26.8912 24.3141Z" fill="#6FB264"/>
<path d="M45.7913 25.1141C46.4913 25.3141 47.2912 24.9141 47.8912 25.8141C46.9912 25.8141 46.0912 25.8141 45.1912 25.8141C45.0912 25.8141 44.9912 25.8141 44.8912 25.8141V25.7141C45.0912 25.3141 45.6913 25.5141 45.7913 25.1141Z" fill="#020202"/>
<path d="M17.7913 25.9141C17.3913 25.0141 17.3912 24.1141 18.4912 23.6141C18.0912 24.4141 18.3913 25.3141 17.7913 25.9141Z" fill="#F2F2F2"/>
<path d="M48.7913 24.0141C48.5913 24.0141 48.3912 24.1141 48.1912 24.1141C48.2912 23.6141 48.4913 23.6141 48.7913 24.0141Z" fill="#1D191A"/>
<path d="M19.1912 25.7142C18.8912 25.4142 18.9912 25.2142 19.0912 24.9142C19.3912 25.1142 19.2912 25.4142 19.1912 25.7142Z" fill="#F8F9F9"/>
<path d="M44.2913 25.7142H44.1912H44.0912C44.1912 25.5142 44.2913 25.5142 44.2913 25.7142Z" fill="#020202"/>
<path d="M25.5912 34.6141C25.5912 34.7141 25.6912 34.8141 25.6912 34.9141C25.5912 34.8141 25.4912 34.8141 25.3912 34.7141C25.3912 34.7141 25.4912 34.6141 25.5912 34.6141Z" fill="#6FB264"/>
<path d="M17.2913 26.6141H17.1912H17.0912C17.1912 26.5141 17.2912 26.3141 17.3912 26.2141C17.2912 26.3141 17.2913 26.4141 17.2913 26.6141Z" fill="#1D191A"/>
<path d="M24.1912 13.4142C24.0912 13.5142 23.9912 13.6142 23.8912 13.7142C23.9912 13.6142 23.9912 13.4142 24.1912 13.4142Z" fill="#91C98E"/>
<path d="M66.1912 45.1141C66.1912 46.4141 66.1912 47.6141 66.1912 48.9141C66.1912 49.7141 65.7912 50.0141 65.0912 50.1141C64.2912 50.1141 64.0912 49.6141 64.0912 49.0141C64.0912 46.3141 64.0912 43.7141 64.0912 41.0141C64.0912 40.3141 64.3912 40.1141 65.0912 40.1141C65.6912 40.1141 66.1912 40.3141 66.1912 41.1141C66.1912 42.4141 66.1912 43.8141 66.1912 45.1141Z" fill="#F8F9F9"/>
<path d="M57.1912 42.9142C57.1912 42.3142 57.1912 41.7142 57.1912 41.2142C57.1912 40.4142 57.4913 40.0142 58.2913 40.1142C58.9913 40.1142 59.2913 40.4142 59.2913 41.1142C59.3913 42.3142 59.2913 43.5142 59.2913 44.7142C59.2913 45.7142 58.5912 45.8142 57.9912 45.8142C57.2912 45.9142 57.1912 45.2142 57.1912 44.6142C57.0912 44.1142 57.1912 43.5142 57.1912 42.9142Z" fill="#F2F2F2"/>
<path d="M73.1912 49.6141C72.3912 50.1141 71.6912 50.3141 70.8912 49.6141C70.8912 49.5141 70.8912 49.4141 70.8912 49.3141C70.8912 47.9141 70.8912 46.6141 70.8912 45.2141C70.8912 45.0141 70.8912 44.8141 70.9912 44.6141C71.6912 44.1141 72.4912 44.3141 73.1912 44.6141C73.0912 46.3141 73.0912 47.9141 73.1912 49.6141Z" fill="#F2F2F2"/>
<path d="M73.1912 49.6141C73.1912 48.0141 73.1912 46.3141 73.0912 44.7141C73.6912 46.3141 73.5912 47.9141 73.1912 49.6141Z" fill="#020202"/>
<path d="M70.8912 44.6141C70.8912 44.8141 70.8913 45.0141 70.7913 45.2141C70.4913 45.0141 70.5912 44.8141 70.8912 44.6141Z" fill="#020202"/>
<path d="M70.7913 49.3142C70.7913 49.4142 70.7913 49.5142 70.7913 49.6142C70.6913 49.5142 70.5913 49.4142 70.7913 49.3142Z" fill="#020202"/>
<path d="M80.1912 49.3142C79.5912 50.3142 78.7912 50.4142 77.8912 49.6142C77.8912 49.4142 77.7913 49.2142 77.7913 49.0142C77.7913 46.4142 77.7913 43.8142 77.7913 41.1142C77.7913 40.8142 77.8912 40.5142 77.8912 40.2142C78.7912 40.0142 79.5912 39.7142 80.0912 40.8142C80.0912 40.9142 80.0912 41.0142 80.0912 41.1142C80.0912 43.7142 80.0912 46.3142 80.0912 49.0142C80.1912 49.1142 80.1912 49.2142 80.1912 49.3142Z" fill="#F2F2F2"/>
<path d="M77.8912 40.3142C77.8912 40.6142 77.7912 40.9142 77.7912 41.2142C77.3912 40.8142 77.3912 40.5142 77.8912 40.3142Z" fill="#020202"/>
<path d="M77.7913 49.0142C77.7913 49.2142 77.8912 49.4142 77.8912 49.6142C77.5912 49.4142 77.4913 49.2142 77.7913 49.0142Z" fill="#020202"/>
<path d="M80.1912 41.1142C80.1912 41.0142 80.1912 40.9142 80.1912 40.8142C80.2912 40.9142 80.3912 41.0142 80.1912 41.1142Z" fill="#020202"/>
<path d="M80.1912 49.3142C80.1912 49.2142 80.1912 49.1142 80.1912 49.0142C80.3912 49.1142 80.3912 49.2142 80.1912 49.3142Z" fill="#020202"/>
<path d="M48.0912 49.6142C47.2912 50.2142 46.4913 50.3142 45.7913 49.3142C45.7913 46.6142 45.7913 43.9142 45.7913 41.1142C46.1913 39.9142 46.7912 39.7142 48.0912 40.5142C48.0912 40.6142 48.0912 40.7142 48.0912 40.8142C48.0912 43.6142 48.0912 46.4142 48.0912 49.3142C48.0912 49.4142 48.0912 49.5142 48.0912 49.6142Z" fill="#F2F2F2"/>
<path d="M45.7912 41.1141C45.7912 43.8141 45.7912 46.5141 45.7912 49.3141C45.2912 48.9141 45.4912 48.3141 45.4912 47.8141C45.6912 45.6141 45.0912 43.3141 45.7912 41.1141Z" fill="#020202"/>
<path d="M48.1912 40.8142C48.1912 40.7142 48.0912 40.6142 48.1912 40.5142C48.2912 40.6142 48.3912 40.7142 48.1912 40.8142Z" fill="#020202"/>
<path d="M48.0912 49.6142C48.0912 49.5142 48.0912 49.4142 48.0912 49.3142C48.3912 49.4142 48.2912 49.5142 48.0912 49.6142Z" fill="#020202"/>
<path d="M52.8913 25.0142C53.1913 24.4142 53.4913 23.9142 54.2913 24.2142C54.7913 24.4142 55.2913 24.3142 55.8913 24.3142C56.5913 25.6142 56.3912 25.9142 54.9912 26.1142C54.5912 26.2142 54.1912 26.3142 53.6912 26.4142C52.6912 26.6142 52.1913 26.5142 52.7913 25.3142C52.7913 25.2142 52.7913 25.1142 52.8913 25.0142Z" fill="#F2F2F2"/>
<path d="M52.7913 25.1141C52.7913 25.2141 52.7912 25.3141 52.6912 25.4141C52.4912 25.3141 52.5913 25.2141 52.7913 25.1141Z" fill="#1D191A"/>
<path d="M49.5912 26.3142C49.7912 26.3142 49.8912 26.4142 49.8912 26.5142C49.7912 26.5142 49.6912 26.4142 49.5912 26.3142Z" fill="#020202"/>
<path d="M44.8912 25.7141C44.9912 25.7141 45.0912 25.7141 45.1912 25.7141C45.0912 25.8141 45.0912 25.9141 44.9912 26.1141C44.9912 26.0141 44.9912 25.9141 44.8912 25.7141Z" fill="#D0B870"/>
<path d="M41.5912 8.51418C42.4912 8.31418 42.6912 9.01417 42.6912 9.71417C42.6912 10.5142 42.2912 11.2142 41.4912 11.1142C40.5912 11.1142 40.1912 10.4142 40.1912 9.51418C40.0912 8.61418 40.7912 8.41418 41.5912 8.51418Z" fill="#262323"/>
<path d="M54.8912 7.31421C54.4912 8.21421 55.3912 9.21421 54.1912 9.61421C53.6912 9.81421 52.9912 9.31421 52.9912 8.81421C52.9912 7.81421 53.8912 7.61421 54.8912 7.31421Z" fill="#1D191A"/>
</svg>
