<svg width="117" height="117" viewBox="0 0 117 117" fill="none" xmlns="http://www.w3.org/2000/svg">
<path d="M3.2912 104.514V111.314H0.991211V93.9143H7.3912C9.2912 93.9143 10.7912 94.4143 11.8912 95.4143C12.9912 96.4143 13.4912 97.7143 13.4912 99.3143C13.4912 101.014 12.9912 102.314 11.8912 103.214C10.7912 104.114 9.2912 104.614 7.3912 104.614H3.2912V104.514ZM3.2912 102.614H7.3912C8.5912 102.614 9.59121 102.314 10.1912 101.714C10.8912 101.114 11.1912 100.314 11.1912 99.2143C11.1912 98.2143 10.8912 97.3143 10.1912 96.7143C9.49121 96.1143 8.59121 95.8143 7.49121 95.7143H3.19121V102.614H3.2912Z" fill="#5D5D5D"/>
<path d="M18.2912 99.9143C19.2912 98.7143 20.5912 98.1143 22.0912 98.1143C24.7912 98.1143 26.1912 99.6143 26.1912 102.714V111.314H23.9912V102.714C23.9912 101.814 23.7912 101.114 23.3912 100.614C22.9912 100.214 22.2912 99.9143 21.3912 99.9143C20.6912 99.9143 20.0912 100.114 19.4912 100.514C18.9912 100.914 18.4912 101.414 18.1912 102.014V111.214H15.9912V92.9143H18.1912V99.9143H18.2912Z" fill="#5D5D5D"/>
<path d="M28.9911 104.714C28.9911 103.414 29.1911 102.314 29.6911 101.314C30.1911 100.314 30.8911 99.5144 31.7911 99.0144C32.6911 98.4144 33.6911 98.2144 34.7911 98.2144C36.5911 98.2144 37.9911 98.8144 39.0911 100.014C40.1911 101.214 40.6911 102.814 40.6911 104.914V105.114C40.6911 106.414 40.4911 107.514 39.9911 108.514C39.4911 109.514 38.7911 110.314 37.8911 110.814C36.9911 111.314 35.9911 111.614 34.7911 111.614C32.9911 111.614 31.5911 111.014 30.4911 109.814C29.3911 108.614 28.8911 107.014 28.8911 105.014V104.714H28.9911ZM31.1911 105.014C31.1911 106.414 31.4911 107.614 32.1911 108.514C32.8911 109.414 33.7911 109.814 34.8911 109.814C35.9911 109.814 36.8911 109.414 37.5911 108.514C38.2911 107.614 38.5911 106.414 38.5911 104.814C38.5911 103.414 38.2911 102.214 37.5911 101.314C36.8911 100.414 35.9911 100.014 34.8911 100.014C33.7911 100.014 32.8911 100.414 32.2911 101.314C31.5911 102.114 31.1911 103.314 31.1911 105.014Z" fill="#5D5D5D"/>
<path d="M46.5912 95.2144V98.3144H48.9912V100.014H46.5912V108.014C46.5912 108.514 46.6912 108.914 46.8912 109.214C47.0912 109.514 47.4912 109.614 47.9912 109.614C48.2912 109.614 48.5912 109.614 49.0912 109.514V111.314C48.4912 111.514 47.9912 111.514 47.3912 111.514C46.3912 111.514 45.6912 111.214 45.1912 110.614C44.6912 110.014 44.3912 109.214 44.3912 108.114V100.114H41.9912V98.4144H44.3912V95.3144H46.5912V95.2144Z" fill="#5D5D5D"/>
<path d="M50.6913 104.714C50.6913 103.414 50.8913 102.314 51.3913 101.314C51.8913 100.314 52.5913 99.5144 53.4913 99.0144C54.3913 98.4144 55.3913 98.2144 56.4913 98.2144C58.2913 98.2144 59.6913 98.8144 60.7913 100.014C61.8913 101.214 62.3913 102.814 62.3913 104.914V105.114C62.3913 106.414 62.1913 107.514 61.6913 108.514C61.1913 109.514 60.4913 110.314 59.5913 110.814C58.6913 111.314 57.6913 111.614 56.4913 111.614C54.6913 111.614 53.2913 111.014 52.1913 109.814C51.0913 108.614 50.5913 107.014 50.5913 105.014V104.714H50.6913ZM52.9913 105.014C52.9913 106.414 53.2913 107.614 53.9913 108.514C54.6913 109.414 55.5913 109.814 56.6913 109.814C57.7913 109.814 58.6913 109.414 59.3913 108.514C60.0913 107.614 60.3913 106.414 60.3913 104.814C60.3913 103.414 60.0913 102.214 59.3913 101.314C58.6913 100.414 57.7913 100.014 56.6913 100.014C55.5913 100.014 54.6913 100.414 54.0913 101.314C53.2913 102.114 52.9913 103.314 52.9913 105.014Z" fill="#5D5D5D"/>
<path d="M72.8912 107.914C72.8912 107.314 72.6912 106.814 72.1912 106.514C71.6912 106.214 70.9912 105.914 69.7912 105.614C68.6912 105.414 67.7912 105.114 67.0912 104.714C66.3912 104.414 65.9912 104.014 65.5912 103.514C65.2912 103.014 65.0912 102.514 65.0912 101.814C65.0912 100.714 65.4912 99.8143 66.3912 99.1143C67.2912 98.4143 68.3912 98.0143 69.7912 98.0143C71.2912 98.0143 72.4912 98.4143 73.3912 99.1143C74.2912 99.9143 74.7912 100.814 74.7912 102.014H72.5912C72.5912 101.414 72.2912 100.914 71.7912 100.414C71.2912 100.014 70.5912 99.7143 69.8912 99.7143C69.0912 99.7143 68.4912 99.9143 67.9912 100.214C67.4912 100.614 67.2912 101.014 67.2912 101.614C67.2912 102.114 67.4912 102.514 67.8912 102.814C68.2912 103.114 69.0912 103.314 70.1912 103.614C71.2912 103.814 72.1912 104.114 72.8912 104.514C73.5912 104.814 74.0912 105.314 74.3912 105.714C74.6912 106.214 74.8912 106.814 74.8912 107.514C74.8912 108.714 74.3912 109.614 73.4912 110.314C72.5912 111.014 71.3912 111.314 69.8912 111.314C68.8912 111.314 67.8912 111.114 67.0912 110.714C66.2912 110.314 65.6912 109.814 65.1912 109.214C64.6912 108.514 64.4912 107.814 64.4912 107.114H66.6912C66.6912 107.814 66.9912 108.414 67.5912 108.914C68.1912 109.314 68.8912 109.614 69.7912 109.614C70.5912 109.614 71.2912 109.414 71.7912 109.114C72.5912 108.914 72.8912 108.414 72.8912 107.914Z" fill="#5D5D5D"/>
<path d="M80.1911 99.9143C81.1911 98.7143 82.4911 98.1143 83.9911 98.1143C86.6911 98.1143 88.0911 99.6143 88.0911 102.714V111.314H85.8911V102.714C85.8911 101.814 85.6911 101.114 85.2911 100.614C84.8911 100.214 84.1911 99.9143 83.2911 99.9143C82.5911 99.9143 81.9911 100.114 81.3911 100.514C80.8911 100.914 80.3911 101.414 80.0911 102.014V111.214H77.8911V92.9143H80.0911V99.9143H80.1911Z" fill="#5D5D5D"/>
<path d="M90.8913 104.714C90.8913 103.414 91.0913 102.314 91.5913 101.314C92.0913 100.314 92.7913 99.5144 93.6913 99.0144C94.5913 98.4144 95.5913 98.2144 96.6913 98.2144C98.4913 98.2144 99.8913 98.8144 100.991 100.014C102.091 101.214 102.591 102.814 102.591 104.914V105.114C102.591 106.414 102.391 107.514 101.891 108.514C101.391 109.514 100.691 110.314 99.7913 110.814C98.8913 111.314 97.8913 111.614 96.6913 111.614C94.8913 111.614 93.4913 111.014 92.3913 109.814C91.2913 108.614 90.7913 107.014 90.7913 105.014V104.714H90.8913ZM93.0913 105.014C93.0913 106.414 93.3913 107.614 94.0913 108.514C94.7913 109.414 95.6913 109.814 96.7913 109.814C97.8913 109.814 98.7913 109.414 99.4913 108.514C100.191 107.614 100.491 106.414 100.491 104.814C100.491 103.414 100.191 102.214 99.4913 101.314C98.7913 100.414 97.8913 100.014 96.7913 100.014C95.6913 100.014 94.7913 100.414 94.1913 101.314C93.3913 102.114 93.0913 103.314 93.0913 105.014Z" fill="#5D5D5D"/>
<path d="M116.391 105.014C116.391 107.014 115.891 108.614 114.991 109.814C114.091 111.014 112.891 111.614 111.291 111.614C109.691 111.614 108.491 111.114 107.591 110.114V116.314H105.391V98.3143H107.391L107.491 99.7143C108.391 98.6143 109.691 98.0143 111.291 98.0143C112.891 98.0143 114.091 98.6143 114.991 99.8143C115.891 101.014 116.391 102.614 116.391 104.714V105.014V105.014ZM114.191 104.714C114.191 103.214 113.891 102.114 113.291 101.214C112.691 100.314 111.791 99.9143 110.691 99.9143C109.391 99.9143 108.391 100.514 107.691 101.714V107.914C108.391 109.114 109.391 109.714 110.691 109.714C111.791 109.714 112.591 109.314 113.191 108.414C113.791 107.514 114.191 106.414 114.191 104.714Z" fill="#5D5D5D"/>
<path d="M86.6913 29.2143C86.6913 37.9143 86.6913 46.7143 86.6913 55.4143C86.6913 56.9143 86.2913 57.4143 84.6913 57.4143C66.9913 57.3143 49.2913 57.3143 31.5913 57.4143C29.9913 57.4143 29.5913 56.9143 29.5913 55.4143C29.5913 37.8143 29.6913 20.1143 29.5913 2.51426C29.5913 1.11426 29.9913 0.614258 31.4913 0.614258C49.2913 0.614258 66.9913 0.614258 84.7913 0.614258C86.2913 0.614258 86.6913 1.11426 86.5913 2.51426C86.5913 11.4143 86.6913 20.3143 86.6913 29.2143ZM58.0913 52.9143C65.6913 52.9143 73.2913 52.9143 80.7913 53.0143C82.4913 53.0143 82.9913 52.6143 82.9913 50.9143C82.8913 36.4143 82.8913 21.8143 82.9913 7.31426C82.9913 5.51426 82.6913 5.01426 80.7913 5.01426C66.0913 5.11426 51.4913 5.11426 36.7913 5.11426C33.4913 5.11426 33.4913 5.11426 33.4913 8.31426C33.4913 22.6143 33.4913 36.8143 33.3913 51.1143C33.3913 52.7143 33.7913 53.1143 35.3913 53.0143C42.9913 52.9143 50.4913 52.9143 58.0913 52.9143Z" fill="#83BBF6"/>
<path d="M58.0911 52.9143C50.4911 52.9143 42.8911 52.9143 35.3911 52.9143C33.8911 52.9143 33.3911 52.5143 33.3911 51.0143C33.4911 36.7143 33.4911 22.5143 33.4911 8.21431C33.4911 5.01431 33.4911 5.01431 36.7911 5.01431C51.4911 5.01431 66.0911 5.01431 80.7911 4.91431C82.6911 4.91431 82.9911 5.41431 82.9911 7.21431C82.8911 21.8143 82.8911 36.3143 82.9911 50.8143C82.9911 52.6143 82.4911 53.0143 80.7911 52.9143C73.2911 52.9143 65.6911 52.9143 58.0911 52.9143ZM42.4911 27.6143C42.4911 31.1143 42.5911 34.6143 42.4911 38.1143C42.3911 40.0143 42.9911 40.5143 44.7911 40.3143C47.7911 40.1143 47.4911 40.8143 47.5911 37.6143C47.5911 36.9143 47.5911 36.2143 47.5911 35.5143C47.5911 32.5143 47.5911 32.5143 50.5911 32.2143C51.4911 32.1143 52.3911 31.9143 53.1911 31.7143C57.1911 30.5143 59.5911 26.8143 59.2911 22.7143C58.9911 18.4143 56.2911 15.6143 51.8911 14.9143C49.2911 14.5143 46.6911 14.8143 44.0911 14.9143C42.7911 14.9143 42.4911 15.4143 42.4911 16.6143C42.5911 20.3143 42.4911 24.0143 42.4911 27.6143ZM60.8911 37.0143C60.9911 37.9143 60.5911 38.8143 61.7911 39.5143C64.4911 41.1143 68.9911 41.1143 71.5911 39.3143C75.1911 36.8143 74.4911 31.0143 70.9911 29.8143C69.5911 29.3143 68.2911 28.3143 66.8911 27.5143C66.1911 27.1143 65.4911 26.7143 65.7911 25.7143C66.0911 24.9143 66.7911 24.6143 67.5911 24.5143C69.0911 24.4143 70.3911 24.9143 71.7911 25.4143C72.1911 25.6143 72.5911 26.0143 72.9911 25.2143C73.6911 23.5143 72.8911 21.5143 71.0911 21.0143C70.2911 20.8143 69.4911 20.5143 68.6911 20.4143C65.4911 19.9143 62.1911 21.8143 61.2911 24.4143C60.2911 27.5143 61.2911 29.8143 64.6911 31.7143C65.6911 32.2143 66.6911 32.7143 67.6911 33.2143C68.4911 33.6143 69.3911 34.1143 68.9911 35.2143C68.6911 36.3143 67.6911 36.3143 66.7911 36.2143C65.5911 36.1143 64.3911 35.8143 63.1911 35.3143C60.7911 34.6143 60.7911 34.6143 60.8911 37.0143Z" fill="#060242"/>
<path d="M42.4913 27.6142C42.4913 24.0142 42.4913 20.3142 42.4913 16.7142C42.4913 15.5142 42.7912 15.0142 44.0912 15.0142C46.6912 15.0142 49.2912 14.6142 51.8912 15.0142C56.2912 15.7142 58.9912 18.5142 59.2912 22.8142C59.5912 26.9142 57.1912 30.5142 53.1912 31.8142C52.3912 32.1142 51.4912 32.2142 50.5912 32.3142C47.5912 32.6142 47.5912 32.6142 47.5912 35.6142C47.5912 36.3142 47.5912 37.0142 47.5912 37.7142C47.4912 40.9142 47.8912 40.2142 44.7912 40.4142C42.9912 40.5142 42.3913 40.0142 42.4913 38.2142C42.5913 34.6142 42.4913 31.1142 42.4913 27.6142ZM47.5912 23.3142C47.5912 24.5142 47.6912 25.6142 47.5912 26.8142C47.4912 28.0142 47.9912 28.4142 49.0912 28.3142C50.9912 28.3142 52.6912 27.8142 53.5912 26.0142C54.4912 24.1142 54.4912 22.1142 53.2912 20.3142C52.3912 19.0142 49.5912 18.1142 48.2912 18.8142C47.0912 19.5142 47.8912 20.8142 47.6912 21.8142C47.4912 22.3142 47.5912 22.8142 47.5912 23.3142Z" fill="#83BBF6"/>
<path d="M60.8912 37.0143C60.8912 34.6143 60.8912 34.6143 62.9912 35.6143C64.0912 36.1143 65.2912 36.4143 66.5912 36.5143C67.4912 36.5143 68.4912 36.5143 68.7912 35.5143C69.0912 34.4143 68.2912 33.9143 67.4912 33.5143C66.4912 33.0143 65.4912 32.6143 64.4912 32.0143C61.1912 30.1143 60.0912 27.8143 61.0912 24.7143C61.9912 22.1143 65.2912 20.2143 68.4912 20.7143C69.2912 20.8143 70.0912 21.0143 70.8912 21.3143C72.5912 21.9143 73.4912 23.9143 72.7912 25.5143C72.4912 26.2143 72.0912 25.8143 71.5912 25.7143C70.2912 25.1143 68.8912 24.7143 67.3912 24.8143C66.5912 24.9143 65.8912 25.1143 65.5912 26.0143C65.2912 26.9143 65.9912 27.4143 66.6912 27.8143C68.0912 28.5143 69.3912 29.6143 70.7912 30.1143C74.2912 31.3143 74.9912 37.1143 71.3912 39.6143C68.7912 41.4143 64.2912 41.4143 61.5912 39.8143C60.5912 38.8143 60.9912 37.9143 60.8912 37.0143Z" fill="#83BBF6"/>
<path d="M47.591 23.3143C47.591 22.8143 47.491 22.3143 47.591 21.9143C47.791 20.9143 46.891 19.6143 48.191 18.9143C49.491 18.2143 52.391 19.1143 53.191 20.4143C54.391 22.2143 54.391 24.2143 53.491 26.1143C52.691 27.9143 50.891 28.4143 48.991 28.4143C47.791 28.4143 47.391 28.0143 47.491 26.9143C47.591 25.6143 47.591 24.5143 47.591 23.3143Z" fill="#060242"/>
</svg>
