<svg width="73" height="106" viewBox="0 0 73 106" fill="none" xmlns="http://www.w3.org/2000/svg">
<path d="M7.09124 97.6141C5.09124 97.0141 3.69124 96.3141 2.79124 95.5141C1.89124 94.7141 1.49124 93.7141 1.49124 92.4141C1.49124 91.0141 1.99124 89.9141 3.09124 89.0141C4.19124 88.1141 5.59124 87.7141 7.39124 87.7141C8.59124 87.7141 9.69124 87.9141 10.5912 88.4141C11.4912 88.9141 12.2912 89.5141 12.7912 90.3141C13.2912 91.1141 13.5912 92.0141 13.5912 93.0141H11.2912C11.2912 91.9141 10.9912 91.1141 10.2912 90.5141C9.59124 89.9141 8.69124 89.6141 7.49124 89.6141C6.39124 89.6141 5.49124 89.9141 4.79124 90.3141C4.19124 90.8141 3.79124 91.5141 3.79124 92.4141C3.79124 93.1141 4.09124 93.7141 4.69124 94.2141C5.29124 94.7141 6.29124 95.1141 7.79124 95.5141C9.19124 95.9141 10.3912 96.4141 11.1912 96.8141C11.9912 97.3141 12.5912 97.9141 12.9912 98.5141C13.3912 99.2141 13.5912 99.9141 13.5912 100.814C13.5912 102.214 12.9912 103.314 11.8912 104.214C10.7912 105.014 9.29123 105.514 7.49124 105.514C6.29123 105.514 5.19124 105.314 4.09124 104.814C3.09124 104.314 2.29124 103.714 1.69124 102.914C1.09124 102.114 0.891235 101.214 0.891235 100.214H3.19124C3.19124 101.314 3.59124 102.114 4.39124 102.714C5.19124 103.314 6.19124 103.614 7.49124 103.614C8.69124 103.614 9.59124 103.414 10.2912 102.914C10.8912 102.414 11.2912 101.714 11.2912 100.914C11.2912 100.014 10.9912 99.4141 10.3912 98.9141C9.79123 98.4141 8.69124 98.1141 7.09124 97.6141Z" fill="#5D5D5D"/>
<path d="M19.7913 99.4142L18.3913 100.814V105.314H16.1913V86.9142H18.3913V98.0142L19.5913 96.6142L23.5913 92.3142H26.2913L21.2913 97.7142L26.8913 105.214H24.2913L19.7913 99.4142Z" fill="#5D5D5D"/>
<path d="M33.6912 105.614C31.8912 105.614 30.4912 105.014 29.3912 103.914C28.2912 102.714 27.6912 101.214 27.6912 99.3141V98.9141C27.6912 97.6141 27.8912 96.5141 28.3912 95.5141C28.8912 94.5141 29.5912 93.7141 30.4912 93.1141C31.3912 92.5141 32.2912 92.2141 33.3912 92.2141C35.0912 92.2141 36.3912 92.8141 37.2912 93.9141C38.1912 95.0141 38.6912 96.6141 38.6912 98.7141V99.6141H29.8912C29.8912 100.914 30.2912 101.914 30.9912 102.714C31.6912 103.514 32.5912 103.914 33.6912 103.914C34.4912 103.914 35.0912 103.714 35.6912 103.414C36.1912 103.114 36.6912 102.714 37.0912 102.114L38.4912 103.214C37.4912 104.814 35.8912 105.614 33.6912 105.614ZM33.4912 94.0141C32.5912 94.0141 31.8912 94.3141 31.1912 95.0141C30.5912 95.7141 30.1912 96.6141 30.0912 97.7141H36.5912V97.5141C36.4912 96.4141 36.1912 95.5141 35.6912 94.9141C35.0912 94.3141 34.3912 94.0141 33.4912 94.0141Z" fill="#5D5D5D"/>
<path d="M44.2912 89.3142V92.4142H46.6912V94.1142H44.2912V102.114C44.2912 102.614 44.3912 103.014 44.5912 103.314C44.7912 103.614 45.1912 103.714 45.6912 103.714C45.9912 103.714 46.2912 103.714 46.7912 103.614V105.414C46.1912 105.614 45.6912 105.614 45.0912 105.614C44.0912 105.614 43.3912 105.314 42.8912 104.714C42.3912 104.114 42.0912 103.314 42.0912 102.214V94.2142H39.6912V92.5142H42.0912V89.4142H44.2912V89.3142Z" fill="#5D5D5D"/>
<path d="M54.4912 103.814C55.2912 103.814 55.9912 103.614 56.5912 103.114C57.1912 102.614 57.4912 102.014 57.5912 101.314H59.6912C59.6912 102.014 59.3912 102.714 58.8912 103.414C58.3912 104.114 57.7912 104.614 56.9912 105.014C56.1912 105.414 55.3912 105.614 54.4912 105.614C52.6912 105.614 51.2912 105.014 50.2912 103.814C49.2912 102.614 48.6912 101.014 48.6912 99.0142V98.6141C48.6912 97.3141 48.8912 96.2141 49.3912 95.2141C49.8912 94.2141 50.4912 93.5142 51.3912 92.9142C52.2912 92.4142 53.2912 92.1141 54.4912 92.1141C55.9912 92.1141 57.1912 92.5142 58.0912 93.4142C58.9912 94.3142 59.5912 95.4141 59.5912 96.8141H57.4912C57.3912 96.0141 57.0912 95.3141 56.4912 94.7141C55.8912 94.2141 55.1912 93.9142 54.3912 93.9142C53.2912 93.9142 52.3912 94.3141 51.7912 95.1141C51.1912 95.9141 50.8912 97.1141 50.8912 98.6141V99.0142C50.8912 100.514 51.1912 101.614 51.7912 102.414C52.4912 103.414 53.3912 103.814 54.4912 103.814Z" fill="#5D5D5D"/>
<path d="M64.3912 94.0142C65.3912 92.8142 66.6912 92.2142 68.1912 92.2142C70.8912 92.2142 72.2912 93.7142 72.2912 96.8142V105.414H70.0912V96.8142C70.0912 95.9142 69.8912 95.2142 69.4912 94.7142C69.0912 94.3142 68.3912 94.0142 67.4912 94.0142C66.7912 94.0142 66.1912 94.2142 65.5912 94.6142C65.0912 95.0142 64.5912 95.5142 64.2912 96.1142V105.314H62.0912V86.9142H64.2912V94.0142H64.3912Z" fill="#5D5D5D"/>
<path d="M66.6912 19.4142C56.9912 31.2142 47.2912 43.1142 37.4912 54.9142C36.5912 56.0142 35.8912 55.9142 34.8912 54.7142C25.5912 43.4142 16.2912 32.1142 6.99124 20.7142C6.59124 20.2142 6.29124 19.8142 5.89124 19.3142C5.89124 19.0142 5.89124 18.8142 5.89124 18.5142C6.19124 18.1142 6.49124 17.7142 6.79124 17.3142C10.2912 12.3142 13.6912 7.31422 17.1912 2.31422C17.6912 1.51422 18.3912 1.21421 19.2912 1.21421C22.5912 1.01421 25.8912 0.714218 29.2912 0.514218C31.7912 0.314218 34.2912 0.0142236 36.7912 0.114224C42.1912 0.314224 47.6912 0.914214 53.0912 1.21421C54.1912 1.31421 55.0912 1.51422 55.5912 2.61422C55.7912 3.01422 56.0912 3.41422 56.3912 3.81422C59.7912 8.71422 63.1912 13.6142 66.6912 18.5142C66.6912 18.9142 66.6912 19.1142 66.6912 19.4142ZM53.1912 20.3142C41.7912 20.3142 30.6912 20.3142 19.3912 20.3142C25.0912 30.9142 30.5912 41.3142 36.2912 51.9142C41.9912 41.3142 47.5912 30.9142 53.1912 20.3142ZM20.5912 17.7142C31.1912 17.7142 41.5912 17.7142 52.0912 17.7142C46.6912 12.7142 41.5912 7.91422 36.2912 3.01422C30.9912 7.91422 25.8912 12.7142 20.5912 17.7142ZM28.5912 43.1142C28.6912 43.0142 28.6912 43.0142 28.7912 42.9142C24.8912 35.6142 20.9912 28.3142 16.9912 21.0142C16.7912 20.7142 16.4912 20.2142 16.1912 20.2142C14.1912 20.1142 12.0912 20.2142 9.79123 20.2142C16.1912 28.1142 22.3912 35.6142 28.5912 43.1142ZM62.8912 20.2142C60.7912 20.2142 59.0912 20.3142 57.3912 20.2142C56.3912 20.2142 55.8912 20.5142 55.3912 21.4142C53.0912 25.9142 50.5912 30.4142 48.1912 34.8142C46.6912 37.5142 45.2912 40.3142 43.7912 43.0142C43.8912 43.0142 43.8912 43.1142 43.9912 43.1142C50.1912 35.6142 56.3912 28.1142 62.8912 20.2142ZM18.7912 15.6142C18.8912 15.6142 18.9912 15.7142 19.0912 15.7142C23.5912 11.5142 28.0912 7.31422 32.5912 3.11422C32.4912 3.01422 32.4912 2.91422 32.3912 2.81422C28.1912 3.11422 23.8912 3.41421 19.6912 3.71421C19.3912 7.81421 19.0912 11.7142 18.7912 15.6142ZM53.4912 15.7142C53.5912 15.7142 53.6912 15.6142 53.7912 15.6142C53.4912 11.7142 53.1912 7.81421 52.8912 3.71421C48.5912 3.41421 44.2912 3.11422 40.0912 2.81422C40.0912 2.91422 39.9912 3.01422 39.9912 3.11422C44.4912 7.31422 48.9912 11.5142 53.4912 15.7142ZM16.9912 7.51422C16.8912 7.51422 16.7912 7.41423 16.6912 7.41423C14.3912 10.8142 11.9912 14.2142 9.59124 17.7142C11.9912 17.7142 14.0912 17.7142 16.1912 17.7142C16.4912 14.3142 16.6912 10.9142 16.9912 7.51422ZM63.0912 17.7142C60.5912 14.1142 58.2912 10.7142 55.8912 7.41423C55.7912 7.41423 55.6912 7.51422 55.5912 7.51422C55.8912 10.9142 56.0912 14.3142 56.3912 17.7142C58.5912 17.7142 60.6912 17.7142 63.0912 17.7142Z" fill="#E46900"/>
</svg>
